<?xml version="1.0" encoding="utf-8"?>
<!-- Generator: Adobe Illustrator 22.0.1, SVG Export Plug-In . SVG Version: 6.00 Build 0)  -->
<svg version="1.1" id="Calque_1" xmlns="http://www.w3.org/2000/svg" xmlns:xlink="http://www.w3.org/1999/xlink" x="0px" y="0px"
	 viewBox="0 0 50 50" style="enable-background:new 0 0 50 50;" xml:space="preserve">
<style type="text/css">
	.st0{fill:#0088CE;}
</style>
<title>Icons/Interface/Compte_Disconnect</title>
<desc>Created with Sketch.</desc>
<g id="Icons_x2F_Interface_x2F_Compte_x5F_Disconnect">
	<g id="Combined-Shape">
		<path id="path-1_1_" class="st0" d="M47.5,50h-45C1.1,50,0,49,0,47.7v-0.3C0,46,1.1,45,2.5,45h45c1.4,0,2.5,1,2.5,2.3v0.3
			C50,49,48.9,50,47.5,50z M16.1,10.9C16.1,6,20.1,2,25,2s8.9,4,8.9,8.9s-4,8.9-8.9,8.9C20.1,19.9,16.1,15.9,16.1,10.9z M7.2,39.9
			V29.7c0-2,1.4-3.8,3.3-4.2l10.6-2.2c2.6-0.7,5.3-0.7,7.9,0l10.6,2.2c1.9,0.5,3.3,2.2,3.3,4.2v10.2H7.2z"/>
	</g>
</g>
</svg>
