<?xml version="1.0" encoding="utf-8"?>
<!-- Generator: Adobe Illustrator 22.0.1, SVG Export Plug-In . SVG Version: 6.00 Build 0)  -->
<svg version="1.1" id="Calque_1" xmlns="http://www.w3.org/2000/svg" xmlns:xlink="http://www.w3.org/1999/xlink" x="0px" y="0px"
	 viewBox="0 0 50 50" style="enable-background:new 0 0 50 50;" xml:space="preserve">
<style type="text/css">
	.st0{fill:#0088CE;}
</style>
<title>Icons/Interface/Admin</title>
<desc>Created with Sketch.</desc>
<g id="Icons_x2F_Interface_x2F_Admin">
	<g id="Fill-1">
		<path id="path-1_1_" class="st0" d="M28,37.6c-9.4,2.1-17.6-6.1-15.5-15.5c1.1-4.7,4.9-8.6,9.6-9.6c9.4-2.1,17.6,6.1,15.5,15.5
			C36.6,32.7,32.8,36.5,28,37.6 M50,26.9v-3.8c0-1.2-1-2.2-2.2-2.2h-0.6c-1.4,0-2.7-0.9-3.2-2.3c-0.3-0.8-0.6-1.6-1-2.4
			c-0.6-1.3-0.4-2.9,0.6-3.9l0.4-0.4c0.9-0.9,0.9-2.3,0-3.2L41.3,6c-0.9-0.9-2.3-0.9-3.2,0l-0.5,0.5c-1,1-2.6,1.2-3.9,0.6
			c-0.8-0.4-1.5-0.7-2.4-1c-1.4-0.5-2.3-1.7-2.3-3.2V2.2c0-1.2-1-2.2-2.2-2.2h-3.8c-1.2,0-2.2,1-2.2,2.2V3c0,1.4-0.9,2.7-2.3,3.2
			c-0.8,0.3-1.6,0.6-2.3,1c-1.3,0.6-2.9,0.4-3.9-0.6L11.8,6C11,5.1,9.5,5.1,8.7,6L6,8.7C5.1,9.5,5.1,11,6,11.8l0.6,0.6
			c1,1,1.2,2.6,0.6,3.9c-0.4,0.7-0.7,1.5-0.9,2.3c-0.5,1.4-1.7,2.3-3.2,2.3H2.2c-1.2,0-2.2,1-2.2,2.2v3.8c0,1.2,1,2.2,2.2,2.2H3
			c1.4,0,2.7,0.9,3.2,2.3c0.3,0.8,0.6,1.5,0.9,2.3c0.6,1.3,0.4,2.8-0.6,3.9L6,38.2c-0.9,0.9-0.9,2.3,0,3.2L8.7,44
			c0.9,0.9,2.3,0.9,3.2,0l0.5-0.5c1-1,2.6-1.2,3.9-0.6c0.7,0.4,1.5,0.7,2.3,1c1.4,0.5,2.3,1.7,2.3,3.2v0.7c0,1.2,1,2.2,2.2,2.2h3.8
			c1.2,0,2.2-1,2.2-2.2v-0.7c0-1.4,0.9-2.7,2.3-3.2c0.8-0.3,1.6-0.6,2.4-1c1.3-0.6,2.8-0.4,3.9,0.6l0.5,0.5c0.9,0.9,2.3,0.9,3.2,0
			l2.7-2.7c0.9-0.9,0.9-2.3,0-3.2l-0.4-0.4c-1-1-1.2-2.6-0.6-3.9c0.4-0.8,0.7-1.6,1-2.4c0.5-1.4,1.7-2.3,3.2-2.3h0.6
			C49,29.2,50,28.1,50,26.9"/>
	</g>
</g>
</svg>
