<?xml version="1.0" encoding="utf-8"?>
<!-- Generator: Adobe Illustrator 22.0.1, SVG Export Plug-In . SVG Version: 6.00 Build 0)  -->
<svg version="1.1" id="Calque_1" xmlns="http://www.w3.org/2000/svg" xmlns:xlink="http://www.w3.org/1999/xlink" x="0px" y="0px"
	 viewBox="0 0 50 50" style="enable-background:new 0 0 50 50;" xml:space="preserve">
<style type="text/css">
	.st0{fill:#0088CE;}
</style>
<title>Icons/Interface/Agenda</title>
<desc>Created with Sketch.</desc>
<g id="Icons_x2F_Interface_x2F_Agenda">
	<g id="Fill-5">
		<path id="path-1_1_" class="st0" d="M31.2,5.5c0,0,1.2,0,1.2,2.5v7.5c0,1.4,1.1,2.5,2.5,2.5h5c1.4,0,2.5-1.1,2.5-2.5V8
			c0-1.4,1.1-2.5,2.5-2.5h2.5C48.9,5.5,50,6.6,50,8v35c0,2.8-2.2,5-5,5H5c-2.8,0-5-2.2-5-5V8c0-1.4,1.1-2.5,2.5-2.5H5
			c0.8,0,2.5,0,2.5,2.5v7.5c0,1.4,1.1,2.5,2.5,2.5h5c1.4,0,2.5-1.1,2.5-2.5V8c0-1.8,0.5-2.5,1.2-2.5C19.5,5.5,20,7.2,20,8v7.5
			c0,1.4,1.1,2.5,2.5,2.5h5c1.4,0,2.5-1.1,2.5-2.5V8C30,7.2,30,5.5,31.2,5.5z M37.5,15.5c-1.4,0-2.5-1.1-2.5-2.5V5.5
			C35,4.1,36.1,3,37.5,3c1.4,0,2.5,1.1,2.5,2.5L40,13C40,14.4,38.9,15.5,37.5,15.5z M12.5,15.5c-1.4,0-2.5-1.1-2.5-2.5V5.5
			C10,4.1,11.1,3,12.5,3c1.4,0,2.5,1.1,2.5,2.5V13C14.9,14.4,13.9,15.5,12.5,15.5z M25,15.5c-1.4,0-2.5-1.1-2.5-2.5V5.5
			C22.5,4.1,23.6,3,25,3c1.4,0,2.5,1.1,2.5,2.5l0,7.5C27.5,14.4,26.4,15.5,25,15.5z"/>
	</g>
</g>
</svg>
