<?xml version="1.0" encoding="utf-8"?>
<!-- Generator: Adobe Illustrator 22.0.1, SVG Export Plug-In . SVG Version: 6.00 Build 0)  -->
<svg version="1.1" id="Calque_1" xmlns="http://www.w3.org/2000/svg" xmlns:xlink="http://www.w3.org/1999/xlink" x="0px" y="0px"
	 viewBox="0 0 50 50" style="enable-background:new 0 0 50 50;" xml:space="preserve">
<style type="text/css">
	.st0{fill:#0086D1;}
</style>
<title>Icons/Interface/Alerte_Barre</title>
<desc>Created with Sketch.</desc>
<g id="Icons_x2F_Interface_x2F_Alerte_x5F_Barre">
	<g id="Combined-Shape">
		<path id="path-1_1_" class="st0" d="M25,40.6c-2.5,0-4.6-1.8-5-4.2H30C29.6,38.8,27.5,40.6,25,40.6z M38.9,28.6
			c0.2,0.3,2.5,2.7,2.3,4.7c0,0.8-0.6,1.4-1.5,1.4H10.2c-0.8,0-1.5-0.6-1.5-1.4v-0.1c-0.1-2,2.1-4.4,2.3-4.7
			c3.3-3.7,3.3-9.8,3.3-13.9v-1c0-0.3,0-0.6,0-0.9c0.3-5.4,3.9-8.2,7.4-9.2c0-0.1,0-0.2,0-0.4c0-1.7,1.4-3.2,3.2-3.2
			s3.2,1.4,3.2,3.2c0,0.1,0,0.2,0,0.4c3.5,1,7.1,3.9,7.4,9.2c0,0.3,0,0.6,0,0.9v1C35.5,18.7,35.5,24.9,38.9,28.6z M2.5,45h45
			c1.4,0,2.5,1.1,2.5,2.5c0,1.4-1.1,2.5-2.5,2.5h-45C1.1,50,0,48.9,0,47.5C0,46.1,1.1,45,2.5,45z"/>
	</g>
</g>
</svg>
