<svg viewBox="0 0 500 500"><path d="M250.0017,405.7806a50.7893,50.7893,0,0,1-50.2612-42.09H300.2629A50.7893,50.7893,0,0,1,250.0017,405.7806Zm138.28-120.0385c2.3812,2.5254,24.4077,26.4324,23.3021,46.8039a14.3833,14.3833,0,0,1-14.4575,14.31H102.8734a14.3833,14.3833,0,0,1-14.4575-14.31v-.5051c-1.1056-19.8664,20.9209-43.7734,23.3872-46.4756C144.97,248.703,144.97,187.5043,144.97,147.0981v-9.5965c.0851-2.9463.17-5.7242.34-8.5863,3.2317-53.7067,38.61-82.1594,73.4783-92.0926a25.8989,25.8989,0,0,1-.2552-3.62,31.4664,31.4664,0,1,1,62.9328,0,24.6694,24.6694,0,0,1-.2552,3.62c34.8682,9.9332,70.2466,38.3859,73.4783,92.0926.17,2.8621.2551,5.64.34,8.5863v9.5965C355.03,187.5043,355.03,248.703,388.282,285.7421ZM25.9,449.1929H474.1a24.9,24.9,0,1,1,0,49.8H25.9a24.9,24.9,0,1,1,0-49.8Z" fill="#0086d1" fill-rule="evenodd"/></svg>