<svg viewBox="0 0 500 500"><path d="M48.5092,385.0216c1.7928-.3984,44.2224-9.86,66.732-49.5012,1.2948-2.2908,2.39-4.7808,3.5856-7.1712l-.1992,78.5844a17.7289,17.7289,0,0,0,35.4576.1l.498-165.834a16.2869,16.2869,0,0,0-.1992-2.1912v-8.3664a94.3206,94.3206,0,0,0,51.6924,26.9916c1.1952.1992,5.5776.5976,6.6732.5976h24.8V388.3084a10.2442,10.2442,0,0,0,10.2588,10.2588H263.944c-.1,1.0956-.2988,2.2907-.2988,3.486a22.36,22.36,0,1,0,44.72,0,20.5956,20.5956,0,0,0-.2988-3.486H409.5592a19.7465,19.7465,0,0,0-.2988,3.486,22.36,22.36,0,1,0,44.72,0,20.77,20.77,0,0,0-.3984-3.486h8.964l.1-.1a9.9291,9.9291,0,0,0,9.86-8.8643l.2988-.1993V247.972a10.2442,10.2442,0,0,0-10.2588-10.2588H220.4188a13.73,13.73,0,0,0-9.6612-7.0716,67.5815,67.5815,0,0,1-56.4732-66.6324,13.5678,13.5678,0,0,0-12.0516-13.446A95.0506,95.0506,0,0,0,36.358,233.53a96.85,96.85,0,0,0,.7968,28.386,13.605,13.605,0,0,0,26.9916-2.49,19.3412,19.3412,0,0,0-.1992-2.39,69.2889,69.2889,0,0,1-1.0956-11.952,76.7094,76.7094,0,0,1,.498-8.2668,67.57,67.57,0,0,1,25.4976-45.2184,63.2682,63.2682,0,0,1,10.06-6.3744v80.0784c-1.2948,15.936-4.98,36.1548-14.3424,52.6884-14.442,25.4976-43.1268,32.27-43.4256,32.37a17.8613,17.8613,0,0,0-13.446,21.1152A17.4492,17.4492,0,0,0,48.5092,385.0216ZM257.968,258.43h194.32V378.2488H257.968ZM462.5464,154.348a30.55,30.55,0,0,1,9.462,22.51,8.3526,8.3526,0,0,1-8.3664,8.3664H254.0836a8.3664,8.3664,0,0,1,0-16.7328h99.4008v-16.434c0-12.55,17.8284-15.1392,32.7684-15.1392h1.992c37.25-.7968,61.5528,4.98,74.3016,17.43ZM245.2192,98.074a8.4169,8.4169,0,0,1,8.3664-8.3664H394.1212c.2988,0,.5976.1.8964.1A25.4127,25.4127,0,0,1,418.822,73.5724H466.63a5.5776,5.5776,0,1,1,0,11.1552H425.9932v.1h-2.988a3.8349,3.8349,0,1,0,0,7.6692h2.988v.1h39.94a5.5684,5.5684,0,0,1,5.5776,5.5776,5.4845,5.4845,0,0,1-5.5776,5.478h-39.94v.1h-2.988a3.8844,3.8844,0,0,0,0,7.7688H466.73a5.528,5.528,0,1,1-.1,11.0556H418.822a25.5237,25.5237,0,0,1-23.7048-16.2348,3.3883,3.3883,0,0,1-.996.1H253.5856a8.4827,8.4827,0,0,1-8.3664-8.3664ZM98.01,113.6116a29.3991,29.3991,0,1,1,35.856,21.3144A29.2649,29.2649,0,0,1,98.01,113.6116Z" fill="#0f87c9"/><path d="M25.9,448.2H474.1a24.9,24.9,0,1,1,0,49.8H25.9a24.9,24.9,0,1,1,0-49.8Z" fill="#0086d1" fill-rule="evenodd"/></svg>