<?xml version="1.0" encoding="utf-8"?>
<!-- Generator: Adobe Illustrator 21.0.2, SVG Export Plug-In . SVG Version: 6.00 Build 0)  -->
<svg version="1.1" id="Calque_1" xmlns="http://www.w3.org/2000/svg" xmlns:xlink="http://www.w3.org/1999/xlink" x="0px" y="0px"
	 viewBox="0 0 500 500" style="enable-background:new 0 0 500 500;" xml:space="preserve">
<style type="text/css">
	.st0{fill:#0F87C9;}
</style>
<path class="st0" d="M47.7,394.6c1.8-0.4,44.4-9.9,67-49.7c1.3-2.3,2.4-4.8,3.6-7.2c-0.1,39.4-0.2,78.9-0.2,78.9
	c0,9.8,7.9,17.8,17.8,17.8c9.8,0,17.8-7.9,17.8-17.7l0.5-166.5c0-0.7-0.1-1.5-0.2-2.2v-8.4c13.6,13.9,31.5,23.6,51.9,27.1
	c1.2,0.2,5.6,0.6,6.7,0.6c0,0,14.6,0,24.9,0c0,17.6,0,130.6,0,130.6c0,5.7,4.6,10.3,10.3,10.3H264c-0.1,1.1-0.3,2.3-0.3,3.5
	c0,12.4,10.1,22.5,22.5,22.5s22.4-10.1,22.4-22.5c0-1.2-0.1-2.3-0.3-3.5h101.9c-0.2,1.1-0.3,2.3-0.3,3.5c0,12.4,10,22.5,22.4,22.5
	s22.5-10.1,22.5-22.5c0-1.2-0.2-2.3-0.4-3.5h8.8c0.1,0,0.1,0,0.2,0l0.1-0.1c5.2,0,9.3-3.9,9.9-8.9l0.3-0.2c0-17.6,0-142,0-142
	c0-5.7-4.6-10.3-10.3-10.3H248c-0.1,0-0.1,0-0.2,0h-27.5c-1.9-3.6-5.4-6.3-9.7-7.1c-32.8-5.5-56.6-33.7-56.7-66.9
	c0-6.9-5.2-12.7-12.1-13.5c-25.3-3.1-50.3,3.9-70.4,19.6s-32.9,38.3-35.9,63.7c-1.1,9.5-0.9,19.1,0.8,28.5c1.4,7.4,8.5,12.4,15.9,11
	c6.6-1.2,11.2-6.9,11.2-13.5c0-0.8-0.1-1.6-0.2-2.4c-0.7-4-1.1-8-1.1-12c0-2.8,0.2-5.5,0.5-8.3c2.2-18,11.3-34.2,25.6-45.4
	c3.2-2.5,6.6-4.6,10.1-6.4v80.4c-1.3,16-5,36.3-14.4,52.9c-14.5,25.6-43.3,32.4-43.6,32.5c-9.5,2.2-15.6,11.7-13.5,21.2
	C28.8,390.6,38.2,396.7,47.7,394.6z M258,267.5c39.2,0,179.1,0,195.1,0c0,14.3,0,92,0,120.3c-39.2,0-179.1,0-195.1,0
	C258,373.5,258,295.8,258,267.5z M500,484.9c0,8.3-5.9,15.1-13.1,15.1H13.1C5.9,500,0,493.2,0,484.9c0-8.3,5.9-14.9,13.1-14.9h473.8
	C494.1,470,500,476.7,500,484.9z M463.4,163c6.3,6.2,9.5,13.8,9.5,22.6c0,4.6-3.7,8.4-8.4,8.4H254.1c-4.6,0-8.4-3.7-8.4-8.4
	c0-4.6,3.7-8.4,8.4-8.4c0,0,37.4,0,99.8,0c0-5.6,0-16.5,0-16.5c0-12.6,17.9-15.2,32.9-15.2h2C426.2,144.7,450.6,150.5,463.4,163z
	 M245.2,106.5c0-4.6,3.8-8.4,8.4-8.4h141.1c0.3,0,0.6,0.1,0.9,0.1c3.7-9.6,13-16.3,23.9-16.3h48c3.1,0,5.6,2.5,5.6,5.6
	s-2.5,5.6-5.6,5.6h-40.8v0.1h-3c-2.1,0-3.9,1.7-3.9,3.8c0,2.1,1.7,3.9,3.9,3.9h3v0.1h40.1c3.1,0,5.6,2.5,5.6,5.6s-2.5,5.5-5.6,5.5
	h-40.1v0.1h-3c-2.1,0-3.9,1.7-3.9,3.9c0,2.1,1.7,3.9,3.9,3.9h43.9c3,0.1,5.5,2.5,5.5,5.5c0,3.1-2.5,5.6-5.6,5.6h-48
	c-10.8,0-20.1-6.8-23.8-16.3c-0.3,0.1-0.7,0.1-1,0.1H253.6C249,114.8,245.2,111.1,245.2,106.5z M97.4,122.1
	c-4.1-15.8,5.4-31.9,21.2-35.9c15.8-4.1,31.9,5.4,36,21.3c4.1,15.8-5.4,31.9-21.2,36C117.6,147.5,101.4,138,97.4,122.1z"/>
</svg>
