<svg viewBox="0 0 500 500"><path d="M499.05,249.1709,282.2043,469.5126c-13.9842,13.9841-39.1924,13.9841-56.6725,0-13.9841-13.9841-13.9841-42.6883,0-56.6725L385.7051,249.1709,224.8878,89.7336c-13.9841-17.48-13.9841-42.6884,0-56.6725l6.9921-6.992c17.48-10.4881,39.1923-6.9921,53.1764,6.992L499.05,249.1709Z" fill="#0088ce"/><path d="M285.7,249.1709,68.8546,469.5126c-13.9842,13.9841-39.1924,13.9841-56.6725,0C-1.71,455.5285-1.71,426.8243,12.2741,412.84L172.4474,249.1709,11.5381,89.7336c-13.9841-17.48-13.9841-42.6884,0-56.6725l6.9921-6.992c17.48-10.4881,39.1923-6.9921,53.1764,6.992L285.7,249.1708Z" fill="#0088ce"/></svg>