<?xml version="1.0" encoding="utf-8"?>
<svg version="1.1" id="DESKTOP" xmlns="http://www.w3.org/2000/svg" xmlns:xlink="http://www.w3.org/1999/xlink" x="0px" y="0px"
	 width="500px" height="500px" viewBox="0 0 500 500" style="enable-background:new 0 0 500 500;" xml:space="preserve">
<style type="text/css">
	.st0{fill:#0088CE;}
</style>
<path class="st0" d="M394.4,312.6L187.6,105.7l44.1-93.3c3.5-7.3,10.5-11.9,18.3-11.9s14.9,4.6,18.3,11.9l66.2,140.1L482.6,175
	c7.7,1.2,14,6.8,16.4,14.5s0.4,16.2-5.2,21.9L394.4,312.6z M1,189.5c-2.4,7.7-0.4,16.2,5.2,21.9l107.1,109.1L88,474.5
	c-1.3,8,1.9,16.1,8.1,20.9c6.3,4.8,14.6,5.4,21.5,1.6L250,424.3L382.4,497c3,1.6,6.2,2.5,9.5,2.5c4.2,0,8.4-1.4,12-4.1
	c1.7-1.3,2.5-3.2,3.7-4.9L82.5,165.2l-65,9.9C9.8,176.2,3.4,181.8,1,189.5z M24.8,25.1c-7.6,7.6-7.6,19.9,0,27.4l426.4,426.7
	c3.8,3.8,8.8,5.7,13.7,5.7s9.9-1.9,13.7-5.7c7.6-7.6,7.6-19.9,0-27.4L52.2,25.1c-3.8-3.8-8.8-5.7-13.7-5.7S28.6,21.3,24.8,25.1z"/>
</svg>
