<?xml version="1.0" encoding="utf-8"?>
<svg version="1.1" id="DESKTOP" xmlns="http://www.w3.org/2000/svg" xmlns:xlink="http://www.w3.org/1999/xlink" x="0px" y="0px"
	 width="500px" height="500px" viewBox="0 0 500 500" style="enable-background:new 0 0 500 500;" xml:space="preserve">
<style type="text/css">
	.st0{fill:#0088CE;}
</style>
<path class="st0" d="M35.4,386.7L387.1,35.9l24.7,24.7c-0.1,0.1-0.3,0.1-0.4,0.3c-3,3-3.4,8.1-0.4,11.1l47.1,47.1
	c3,2.9,8.2,2.6,11.1-0.4c0.2-0.1,0.2-0.3,0.3-0.4l23.1,23.1c10,9.9,10,26,0,36L176.9,492.1c-10,10-26.1,9.9-36-0.1L35.4,386.7z
	 M7.4,358.7l2.4,2.4L361.6,10.4L359.1,8c-10-9.9-26.1-10-36-0.1L7.5,322.6C-2.5,332.6-2.5,348.7,7.4,358.7z"/>
</svg>
