<svg viewBox="0 0 500 500"><path d="M393.8232,312.35,187.8493,106.2764l43.9238-92.9273a19.941,19.941,0,0,1,36.4538,0l65.9355,139.54L481.6708,175.3a20.5478,20.5478,0,0,1,16.3345,14.4421,21.94,21.94,0,0,1-5.1792,21.8125L393.8232,312.35ZM1.9947,189.7417a21.94,21.94,0,0,0,5.1792,21.8125L113.8461,320.2184,88.6472,473.6032A21.9882,21.9882,0,0,0,96.7148,494.42a19.5106,19.5106,0,0,0,21.4141,1.5936L250,423.6037l131.8711,72.41a19.398,19.398,0,0,0,21.4141-1.5936c1.6932-1.2948,2.49-3.1872,3.6852-4.88l-323.8013-324-64.74,9.86A20.4042,20.4042,0,0,0,1.9947,189.7417ZM25.7,25.9984a19.2369,19.2369,0,0,0,0,27.2906L450.3962,478.2844a19.2973,19.2973,0,0,0,27.2906-27.2905L52.99,25.9984a19.237,19.237,0,0,0-27.2906,0Z" fill="#0088ce"/></svg>