<?xml version="1.0" encoding="utf-8"?>
<svg version="1.1" id="DESKTOP" xmlns="http://www.w3.org/2000/svg" xmlns:xlink="http://www.w3.org/1999/xlink" x="0px" y="0px"
	 width="500px" height="500px" viewBox="0 0 500 500" style="enable-background:new 0 0 500 500;" xml:space="preserve">
<style type="text/css">
	.st0{fill:#0088CE;}
</style>
<path class="st0" d="M299,267.3c0,37.3-30.2,67.6-67.5,67.6S164,304.7,164,267.3s30.2-67.6,67.5-67.6C268.8,199.8,299,230,299,267.3
	z M305.5,1c-13.9,0-25.1,11.3-25.1,25.1c0,13.9,11.2,25.1,25.1,25.1h106.4L387.1,76c-25.6,25.7-63.8,34.2-99.6,22.4
	c-30.8-10.2-63.9-11.8-95.6-4.6c-32.6,7.4-62.4,23.9-86.2,47.7c-23.7,23.8-40.2,53.6-47.6,86.2c-7.2,31.7-5.6,64.7,4.5,95.6
	c11.9,35.9,3.3,74.1-22.4,99.8l-33,33c-9.8,9.8-9.8,25.7,0,35.6c4.9,4.9,11.3,7.4,17.8,7.4s12.9-2.5,17.8-7.4l33-33
	c19.4-19.4,32.8-43.9,38.8-70.8c5.9-26.4,4.4-54.2-4.2-80.3c-7.3-22.1-8.4-45.9-3.3-68.6c5.3-23.4,17.1-44.7,34.2-61.8
	c17-17.1,38.4-28.9,61.8-34.2c22.8-5.2,46.5-4,68.6,3.3c26.1,8.6,53.8,10.1,80.2,4.2c26.9-6,51.3-19.4,70.7-38.8l27.1-27.1v111.1
	c0,13.9,11.2,25.1,25.1,25.1s25.1-11.3,25.1-25.1V1H305.5z"/>
</svg>
