<svg viewBox="0 0 500 500"><path d="M298.9236,267.1793A67.2233,67.2233,0,1,1,231.7,199.8564,67.2819,67.2819,0,0,1,298.9236,267.1793ZM305.397,1.971a24.9971,24.9971,0,1,0,0,49.9942H411.3608L386.6624,76.6635c-25.495,25.5947-63.5384,34.06-99.1916,22.3082A177.2989,177.2989,0,0,0,63.4928,322.95c11.8512,35.7528,3.2864,73.7962-22.3082,99.3909L8.32,455.2053a25.07,25.07,0,1,0,35.454,35.454l32.8647-32.8647a143.7793,143.7793,0,0,0,38.641-70.51,150.7746,150.7746,0,0,0-4.1828-79.9707,128.4476,128.4476,0,0,1-3.2865-68.3188,127.0719,127.0719,0,0,1,163.9252-92.32,150.4067,150.4067,0,0,0,79.8712,4.1828,143.4742,143.4742,0,0,0,70.41-38.6409l26.9889-26.9889V195.8728a24.9971,24.9971,0,1,0,49.9942,0V1.971Z" fill="#0088ce"/></svg>