<?xml version="1.0" encoding="utf-8"?>
<svg version="1.1" id="DESKTOP" xmlns="http://www.w3.org/2000/svg" xmlns:xlink="http://www.w3.org/1999/xlink" x="0px" y="0px"
	 width="555.6px" height="500px" viewBox="0 0 555.6 500" style="enable-background:new 0 0 555.6 500;" xml:space="preserve">
<style type="text/css">
	.st0{fill:#0088CE;}
</style>
<path class="st0" d="M416.7,138.9c-15.1,0-27.8-12.7-27.8-27.8V27.8c0-15.1,12.3-27.8,27.4-27.8s27.4,12.7,27.4,27.8l0.7,83.3
	C444.4,126.2,431.8,138.9,416.7,138.9z M166,111.1V27.8C166,12.7,153.7,0,138.6,0s-27.4,12.7-27.4,27.8v83.3
	c0,15.1,12.7,27.8,27.8,27.8S166,126.2,166,111.1z M361.1,55.6v83.3c0,15.3,12.4,27.8,27.8,27.8h55.4c15.4,0,27.9-12.4,27.9-27.9
	V55.6c0-15.3,12.4-27.8,27.8-27.8h27.8c15.3,0,27.8,12.4,27.8,27.8v388.9c0,30.7-24.9,55.6-55.6,55.6H55.6C24.9,500,0,475.1,0,444.4
	V55.6c0-15.3,12.4-27.8,27.8-27.8h27.8c8.3,0,27.8,0,27.8,27.8v83.3c0,15.3,12.4,27.8,27.8,27.8h55.6c15.3,0,27.8-12.4,27.8-27.8
	V55.6c0-20.4,5.6-27.8,13.9-27.8l0,0c8.3,0,13.9,19.4,13.9,27.8v83.3c0,15.3,12.4,27.8,27.8,27.8h55.6c15.3,0,27.8-12.4,27.8-27.8
	V55.6c0-8.3,0-27.8,13.9-27.8C347.2,27.8,361.1,27.8,361.1,55.6z M305.2,111.1l0.3-83.3c0-15.1-12.7-27.8-27.8-27.8
	S250,12.7,250,27.8v83.3c0,15.1,12.7,27.8,27.8,27.8S305.2,126.2,305.2,111.1z"/>
</svg>
