<svg viewBox="0 0 500 500"><path d="M469.9,358.7027v-1.5578c0-5.1926-3.5929-9.866-8.7264-10.3852l-71.3512-10.3853L364.156,284.9688a9.6849,9.6849,0,0,0-9.24-5.711,14.8514,14.8514,0,0,0-4.62,1.0377,9.4008,9.4008,0,0,0-5.1326,5.7119c-1.0262,2.5963-.5136,5.1926.5135,8.3082l30.2849,61.2716,82.1317,11.9422h1.5406A10.0963,10.0963,0,0,0,469.9,358.7027m29.0961-13.9117c0,63.8392-52.24,116.2594-116.2577,116.2594a116.2594,116.2594,0,0,1,0-232.5187c64.53,0,116.77,51.901,116.2577,116.2593M383.1485,209.8826A136.1719,136.1719,0,0,1,454.6657,230V91.4065a20.5831,20.5831,0,0,0-20.5832-20.5833H413.4992A20.6444,20.6444,0,0,0,392.916,91.4065v61.652A20.6813,20.6813,0,0,1,372.235,173.74H331.1662a20.5838,20.5838,0,0,1-20.5832-20.5841v-61.75c0-20.5833-10.2916-20.5833-10.2916-20.5833C290,70.8232,290,85.2287,290,91.4065v61.75A20.5838,20.5838,0,0,1,269.4165,173.74H228.26a20.5856,20.5856,0,0,1-20.594-20.5841v-61.75c0-6.1778-4.113-20.5833-10.2907-20.5833s-10.2917,5.43-10.2917,20.5833v61.75A20.5844,20.5844,0,0,1,166.5,173.74H125.333A20.5844,20.5844,0,0,1,104.75,153.1562v-61.75c0-20.5833-14.4046-20.5833-20.5832-20.5833H63.5832A20.5831,20.5831,0,0,0,43,91.4065V379.5719a41.1673,41.1673,0,0,0,41.1665,41.1673H270.6637a134.4311,134.4311,0,0,1-23.08-75.5373c0-74.9088,60.9149-135.3193,135.5649-135.3193M145.9162,153.1562c11.2332,0,20.0952-9.35,20.0952-20.5832v-61.75a20.3406,20.3406,0,1,0-40.6784,0v61.75a20.7585,20.7585,0,0,0,20.5832,20.5832m205.8333,0a20.758,20.758,0,0,0,20.5832-20.5832l-.488-61.75a20.3407,20.3407,0,1,0-40.6785,0v61.75A20.7581,20.7581,0,0,0,351.75,153.1562M228.25,132.573v-61.75a20.5833,20.5833,0,0,1,41.1665,0l-.244,61.75a20.5493,20.5493,0,0,1-20.3392,20.5832A20.7581,20.7581,0,0,1,228.25,132.573" fill="#0088ce" fill-rule="evenodd"/></svg>