<svg viewBox="0 0 500 500"><path d="M250,1C113.4484,1,1,113.4484,1,250S113.4484,499,250,499,499,387.3484,499,250,387.3484,1,250,1Zm36.2544,316.13H176.794l32.47,30.9756c3.7848,3.7848,5.2788,11.3544,0,15.1392s-11.3544,3.7848-15.8364,0l-52.0908-49.8c-3.7848-3.7848-5.2788-11.3544,0-15.1392l51.294-49.8c5.2788-3.7848,11.3544-3.7848,15.8364,0,3.7848,3.7848,5.2788,11.3544,0,15.1392l-32.47,30.9756H285.358a11.6141,11.6141,0,0,1,11.3544,11.3544c.7968,7.37-4.482,12.6492-10.458,11.1552ZM358.6636,200.2,305.8756,250c-5.2788,3.7848-11.3544,3.7848-15.8364,0-3.7848-3.7848-5.2788-11.3544,0-15.1392l32.47-30.9756H212.2516a11.3544,11.3544,0,0,1,0-22.7088h109.46L289.2424,150.4c-3.7848-3.7848-5.2788-11.3544,0-15.1392s11.3544-3.7848,15.8364,0l52.0908,49.8a10.2328,10.2328,0,0,1,1.494,15.1392c.6972-1.494.6972,0,0,0Z" fill="#0088ce"/></svg>