<?xml version="1.0" encoding="utf-8"?>

<svg version="1.1" id="Calque_1" xmlns="http://www.w3.org/2000/svg" xmlns:xlink="http://www.w3.org/1999/xlink" x="0px" y="0px"
	 viewBox="0 0 500 500" style="enable-background:new 0 0 500 500;" xml:space="preserve">
<style type="text/css">
	.st0{fill:#0088CE;}
</style>
<title>SNCF_</title>
<g id="MOBILE">
	<path class="st0" d="M250,0C112.1,0,0,112.1,0,250s112.1,250,250,250s250-112.1,250-250S387.9,0,250,0z M110.6,191.7l82.6,59.1
		l-82.6,78.8V191.7z M120.5,337.9l84.1-78l41.7,30.3c2.3,1.5,5.3,1.5,7.6,0l41.7-30.3l84.1,78H120.5z M389.4,328.8l-82.6-78
		l82.6-59.1V328.8z M389.4,175L250,275L110.6,175v-9.8c0-1.5,1.5-3.8,3-3.8l0,0h272c1.5,0,3,1.5,3,3l0,0L389.4,175z"/>
</g>
</svg>
