<?xml version="1.0" encoding="utf-8"?>

<svg version="1.1" id="DESKTOP" xmlns="http://www.w3.org/2000/svg" xmlns:xlink="http://www.w3.org/1999/xlink" x="0px" y="0px"
	 viewBox="0 0 500 500" style="enable-background:new 0 0 500 500;" xml:space="preserve">
<style type="text/css">
	.st0{fill:#0088CE;}
</style>
<path class="st0" d="M250,0C112.9,0,0,112.9,0,250s112.9,250,250,250s250-112.1,250-250S387.9,0,250,0z M318.9,248.5
	c-5.3,5.3-12.9,5.3-17.4,1.5c0,0,0,0-1.5-1.5l-37.1-40.2v137.1c0,7.6-6.1,12.9-12.9,12.9c-7.6,0-12.1-6.1-12.1-12.9V209.1L200,249.2
	c-5.3,5.3-12.1,5.3-17.4,1.5c0,0,0,0-1.5-1.5c-5.3-6.1-5.3-15.2,0-19.7l59.1-65.2c5.3-5.3,12.9-5.3,17.4-1.5c0,0,0,0,1.5,1.5
	l59.1,65.2C323.5,234.8,323.5,243.9,318.9,248.5z"/>
</svg>
