<?xml version="1.0" encoding="utf-8"?>

<svg version="1.1" id="Calque_1" xmlns="http://www.w3.org/2000/svg" xmlns:xlink="http://www.w3.org/1999/xlink" x="0px" y="0px"
	 viewBox="0 0 500 500" style="enable-background:new 0 0 500 500;" xml:space="preserve">
<style type="text/css">
	.st0{fill:#0088CE;}
</style>
<title>SNCF_</title>
<g id="MOBILE">
	<path class="st0" d="M250,0C112.1,0,0,112.1,0,250s112.1,250,250,250s250-112.1,250-250S387.9,0,250,0z M275.8,305.3
		c-14.4,0-27.3-6.8-34.8-18.2c0,0-8.3,33.3-9.8,39.4c-6.1,16.7-14.4,32.6-25.8,47c-0.8,0.8-1.5,1.5-2.3,0.8c-0.8,0-0.8-0.8-0.8-1.5
		c-3-18.2-3-36.4,0-54.5l17.4-78c-3-6.8-4.5-15.2-4.5-22.7c0-21.2,12.9-37.9,27.3-37.9c10.6-0.8,19.7,7.6,19.7,18.2
		c0,1.5,0,2.3,0,3.8c-3,17.4-6.8,34.1-12.9,50.8c-3,12.1,3.8,24.2,15.2,27.3c2.3,0.8,4.5,0.8,7.6,0.8c27.3,0,45.5-34.8,45.5-76.5
		c0-31.1-21.2-55.3-59.8-55.3c-37.9-1.5-68.9,27.3-71.2,65.2l0,0c0,1.5,0,3,0,3.8c-0.8,10.6,3,20.5,9.8,28c2.3,2.3,3,5.3,2.3,8.3
		l-3,11.4c-0.8,3-3,4.5-6.1,3.8h-1.5c-20.5-10.6-31.8-32.6-29.5-54.5c0-40.2,34.1-90.2,103-90.2c47-3,87.9,33.3,90.9,80.3l0,0
		c0,0.8,0,1.5,0,2.3C353,263.6,322,305.3,275.8,305.3z"/>
</g>
</svg>
