<?xml version="1.0" encoding="utf-8"?>
<svg version="1.1" id="DESKTOP" xmlns="http://www.w3.org/2000/svg" xmlns:xlink="http://www.w3.org/1999/xlink" x="0px" y="0px"
	 viewBox="0 0 500 500" style="enable-background:new 0 0 500 500;" xml:space="preserve">
<style type="text/css">
	.st0{fill:#0088CE;}
</style>
<path class="st0" d="M250,0C112.9,0,0,112.9,0,250s112.9,250,250,250s250-112.1,250-250S387.9,0,250,0z M240.2,319.7
	c-3.8,5.3-11.4,5.3-15.9,1.5c0,0,0,0-1.5-1.5c-5.3-5.3-5.3-13.6,0-18.9l48.5-52.3l-48.5-52.3c-5.3-5.3-5.3-13.6,1.5-19.7l1.5-1.5
	c5.3-2.3,11.4-1.5,15.2,2.3l65.9,71.2L240.2,319.7z"/>
</svg>
