<?xml version="1.0" encoding="utf-8"?>

<svg version="1.1" id="Calque_1" xmlns="http://www.w3.org/2000/svg" xmlns:xlink="http://www.w3.org/1999/xlink" x="0px" y="0px"
	 viewBox="0 0 500 500" style="enable-background:new 0 0 500 500;" xml:space="preserve">
<style type="text/css">
	.st0{fill:#0088CE;}
</style>
<g id="MOBILE">
	<path class="st0" d="M250,0C112.9,0,0,112.9,0,250s112.9,250,250,250s250-112.1,250-250S387.9,0,250,0z M350,198.5v6.1
		c0,81.1-65.9,146.2-146.2,146.2c-27.3,0-55.3-7.6-78.8-23.5c3.8,0,9.1,0,12.1,0c22.7,0,44.7-7.6,63.6-22.7
		c-22.7,0-40.9-15.2-47.7-36.4c3.8,0,6.1,1.5,9.8,1.5c5.3,0,9.1-1.5,13.6-1.5c-22.7-4.5-40.2-25.8-40.2-49.2l0,0
		c7.6,3.8,15.2,6.1,23.5,6.1c-22.7-15.2-28.8-44.7-15.9-68.9c26.5,32.6,65.2,51.5,106.1,53.8c-6.1-27.3,11.4-55.3,38.6-61.4
		c17.4-3.8,36.4,1.5,48.5,15.2c11.4-2.3,22.7-6.1,32.6-12.9c-3.8,12.9-11.4,22.7-22.7,28.8c9.8-1.5,19.7-3.8,28.8-9.1
		C368.9,182.6,359.8,190.9,350,198.5L350,198.5z"/>
</g>
</svg>
