<svg viewBox="0 0 500 500"><path d="M122,203.8c-2.3,3.8-3,8.3-3.8,12.9l9.1,3.8,22-39.4c-12.2,3.7-22,11.3-27.3,22.7Zm42.4,31.8,17.4,6.8a56.4647,56.4647,0,0,1-9.1-22l-8.3,15.2Z" fill="#1f7dbf"/><path d="M250,1C112.6516,1,1,112.6516,1,250S112.6516,499,250,499,499,387.3484,499,250,387.3484,1,250,1ZM195.718,110.3608a23.406,23.406,0,1,1-23.406,23.406C171.5152,121.018,182.0728,110.3608,195.718,110.3608ZM422.806,363.9424H235.6576v-2.2908c.7968-3.7848.7968-7.57,2.988-12.0516a45.8422,45.8422,0,0,1,4.482-6.0756c1.494-2.2908,3.7848-3.7848,4.482-6.0756l.7968-.7968.7968-.7968c3.7848-.7968,6.7728-3.7848,9.7608-6.7728a44.638,44.638,0,0,1,9.0636-7.57,23.4511,23.4511,0,0,0,6.7728-5.2787l-9.0636-7.57-.7968-4.482,10.5576-12.0516-68.6244-27.888h-1.494a13.0757,13.0757,0,0,1-7.57-2.2907c-2.2908-1.494-3.7848-2.988-5.2788-3.7848L162.352,246.1156c10.5576,15.1392,16.6332,29.382,18.8244,42.23,5.2788,27.1908,1.494,48.306.7968,52.0908a15.44,15.44,0,0,1-15.1392,12.0516h-2.988a15.0843,15.0843,0,0,1-12.0516-17.33,111.4758,111.4758,0,0,0-.7968-40.7364c-1.494-8.2668-6.0756-17.33-10.5576-24.9-2.2908,12.0516-5.2788,23.406-12.0516,32.47-11.3544,15.8364-27.888,33.9636-34.6608,40.7364l-.7968.7968c-5.2788,6.0756-15.8364,6.0756-21.912.7968a14.5935,14.5935,0,0,1-.7968-21.1152c5.2788-5.2788,21.912-23.406,32.47-37.7484,4.482-6.7728,6.7728-20.418,8.2668-30.1788l.7968-2.988c0-.7968,0-2.2908.7968-2.988.7968-3.7848,1.494-7.57,3.7848-11.3544l.7968-1.494,2.988-5.2788-6.0756-4.482a15.9879,15.9879,0,0,1-6.0756.7968h-1.494c-6.7728-.7968-12.0516-7.57-10.5576-14.3424a59.3812,59.3812,0,0,1,6.0756-18.8244c11.3544-22.6092,36.2544-37.7484,61.8516-37.7484a70.9693,70.9693,0,0,1,30.1788,6.7728,7.5766,7.5766,0,0,1,4.482,3.7848,11.7384,11.7384,0,0,1,2.2908,15.8364c-6.0756,8.2668-8.2668,20.418-6.0756,31.6728,2.2908,11.3544,8.2668,21.1152,17.33,27.1908a11.62,11.62,0,0,1,5.2788,12.0516l67.13,27.1908,12.0516-14.3424,5.2788-.7968,6.7728,5.2788c2.2908-1.494,4.482-2.2908,6.7728-3.7848a33.0472,33.0472,0,0,0,6.7728-3.7848l1.494-.7968c1.494-.7968,1.494-1.494,2.2908-1.494h2.988c1.494,0,2.988-1.494,4.482-2.988,2.2907-2.2908,3.7847-4.482,7.57-4.482,1.494,0,2.988-.7968,4.482-.7968,2.2907,0,4.482-.7968,6.0756-.7968a11.3592,11.3592,0,0,0,4.482-1.494c1.494-.7968,2.988-.7968,4.482-1.494,7.57-2.2908,15.8364,1.494,20.418,8.2668,6.7728,11.3544,23.406,40.7364,50.5968,87.5484,1.494,2.2908,3.7847,8.2668.7967,12.8484-1.8924,4.482-4.98,5.1792-9.462,5.976Z" fill="#1f7dbf"/></svg>