<?xml version="1.0" encoding="utf-8"?>

<svg version="1.1" id="DESKTOP" xmlns="http://www.w3.org/2000/svg" xmlns:xlink="http://www.w3.org/1999/xlink" x="0px" y="0px"
	 viewBox="0 0 500 500" style="enable-background:new 0 0 500 500;" xml:space="preserve">
<style type="text/css">
	.st0{fill:#0088CE;}
</style>
<path class="st0" d="M250,0C112.9,0,0,112.9,0,250s112.9,250,250,250s250-112.1,250-250S387.9,0,250,0z M286.4,317.4H176.5
	l32.6,31.1c3.8,3.8,5.3,11.4,0,15.2l0,0c-5.3,3.8-11.4,3.8-15.9,0l-52.3-50c-3.8-3.8-5.3-11.4,0-15.2l0,0l51.5-50
	c5.3-3.8,11.4-3.8,15.9,0c3.8,3.8,5.3,11.4,0,15.2l0,0l-32.6,31.1h109.8c6.1,0,11.4,5.3,11.4,11.4
	C297.7,313.6,292.4,318.9,286.4,317.4L286.4,317.4z M359.1,200l-53,50c-5.3,3.8-11.4,3.8-15.9,0c-3.8-3.8-5.3-11.4,0-15.2l0,0
	l32.6-31.1H212.1c-6.1,0-11.4-5.3-11.4-11.4c0-6.1,5.3-11.4,11.4-11.4l0,0H322L289.4,150c-3.8-3.8-5.3-11.4,0-15.2l0,0
	c5.3-3.8,11.4-3.8,15.9,0l52.3,50C362.9,188.6,362.9,196.2,359.1,200C359.8,198.5,359.8,200,359.1,200z"/>
</svg>
