<svg viewBox="0 0 500 500"><path d="M250,1C112.4524,1,1,112.4524,1,250S112.4524,499,250,499,499,387.5476,499,250,387.5476,1,250,1Zm17.33,381.2688A24.7732,24.7732,0,1,1,274.8,364.54,24.1694,24.1694,0,0,1,267.33,382.2688Zm58.6644-175.9932a76.8642,76.8642,0,0,1-11.8524,20.418l-22.908,23.7048-3.7848,3.486c-4.0836,3.7848-7.2708,7.0716-9.7608,9.7608a37.0814,37.0814,0,0,0-5.7768,8.3664,33.7358,33.7358,0,0,0-2.8884,9.7608,98.89,98.89,0,0,0-.7968,13.3464v16.8323H231.574V288.6448a83.9162,83.9162,0,0,1,1.494-17.2308,45.2318,45.2318,0,0,1,4.5817-12.45,46.8272,46.8272,0,0,1,8.1671-10.6572c3.3864-3.3864,7.6692-7.57,12.7488-12.45q6.1254-5.6772,12.2508-11.6532a114.7733,114.7733,0,0,0,11.0556-12.2508,64.0215,64.0215,0,0,0,8.1672-13.3464A36.9157,36.9157,0,0,0,293.326,182.77a39.7485,39.7485,0,0,0-3.2868-16.2348,41.5459,41.5459,0,0,0-8.5656-12.7488,38.3233,38.3233,0,0,0-12.7488-8.3664,40.4411,40.4411,0,0,0-15.8363-3.0876c-12.45,0-22.6092,3.984-30.378,11.8524s-12.45,18.2268-13.944,30.9756l-38.9437-3.7848c3.2869-22.1112,12.55-39.5412,27.6889-52.0908s33.864-18.924,56.274-18.924a91.83,91.83,0,0,1,29.98,4.7808,72.2731,72.2731,0,0,1,24.2028,13.7448,63.774,63.774,0,0,1,16.2348,22.1112c3.984,8.7648,5.8764,18.8244,5.8764,29.98a64.6978,64.6978,0,0,1-3.8844,25.2984Z" fill="#0088ce"/></svg>