<svg viewBox="0 0 500 500"><path d="M250,1C112.6516,1,1,112.6516,1,250S112.6516,499,250,499,499,387.3484,499,250,387.3484,1,250,1ZM182.0728,369.2212H128.488V208.4668h53.5848Zm-26.394-182.5668c-15.1392,2.2908-29.382-9.0636-31.6728-24.1032-2.2908-15.1392,9.0636-29.382,24.1032-31.6728h6.7728c15.1392-2.2908,29.382,9.0636,31.6728,24.1032,2.2908,15.1392-9.0636,29.382-24.1032,31.6728h-6.7728ZM374.5,369.2212H320.9152V283.1668c0-21.912-7.57-36.2544-27.1908-36.2544-12.0516,0-22.6092,7.57-27.1908,18.8244-1.494,3.7848-1.494,8.2668-1.494,12.8484v89.8392H211.4548V207.77h54.282v22.6092c9.7608-17.33,28.6848-27.1908,48.306-26.394,35.4577,0,61.8517,22.6092,61.8517,72.4092L374.5,369.2212Z" fill="#0088ce"/></svg>