<svg viewBox="0 0 500 500"><path d="M354.8788,170.0212a49.7175,49.7175,0,0,0-24.9-24.9c-7.57-2.2908-15.8364-5.2788-24.9-5.2788-13.5456-1.494-18.8244-1.494-55.0788-1.494s-40.0392,0-55.0788,1.494c-9.0636,0-17.33,1.494-24.9,5.2788a49.7175,49.7175,0,0,0-24.9,24.9c-2.2908,7.57-5.2788,15.8364-5.2788,24.9-1.494,13.5456-1.494,18.8244-1.494,55.0788s0,40.0392,1.494,55.0788c0,9.0636,1.494,17.33,5.2788,24.9a49.7175,49.7175,0,0,0,24.9,24.9c7.57,2.2908,15.8364,5.2788,24.9,5.2788,13.5456,0,18.8244,1.494,55.0788,1.494s40.0392,0,55.0788-1.494c9.0636,0,17.33-1.494,24.9-5.2788a49.7175,49.7175,0,0,0,24.9-24.9c2.2908-7.57,5.2788-15.8364,5.2788-24.9,0-13.5456,1.494-18.8244,1.494-55.0788s0-40.0392-1.494-55.0788c-.7968-6.7728-2.988-15.8364-5.2788-24.9ZM250,318.6244A68.4363,68.4363,0,0,1,181.3756,250c0-37.6488,30.9756-68.6244,68.6244-68.6244a68.6244,68.6244,0,0,1,0,137.2488Zm72.4092-124.5c-9.0636,0-15.8364-6.0756-15.8364-15.1392s6.0756-15.8364,15.1392-15.8364,15.8364,6.0756,15.8364,15.1392C336.7516,186.6544,329.9788,194.1244,322.4092,194.1244Z" fill="#0088ce"/><circle cx="250" cy="250" r="44.5212" fill="#0088ce"/><path d="M250,1C113.4484,1,1,113.4484,1,250S113.4484,499,250,499,499,387.3484,499,250,387.3484,1,250,1ZM383.5636,305.0788a91.7673,91.7673,0,0,1-6.0756,32.47c-7.57,17.33-21.1152,32.47-38.4456,38.4456a91.3479,91.3479,0,0,1-32.47,6.0756c-13.5456,0-18.8244,1.494-55.0788,1.494s-40.7364,0-55.0788-1.494a91.7673,91.7673,0,0,1-32.47-6.0756c-17.33-7.57-32.47-21.1152-38.4456-40.0392a91.3479,91.3479,0,0,1-6.0756-32.47c-1.494-13.5456-1.494-18.8244-1.494-55.0788s0-40.7364,1.494-55.0788a91.7673,91.7673,0,0,1,6.0756-32.47c7.57-17.33,21.1152-32.47,38.4456-38.4456a91.3479,91.3479,0,0,1,32.47-6.0756c13.5456-1.494,18.8244-1.494,55.0788-1.494s40.7364,0,55.0788,1.494a91.7673,91.7673,0,0,1,32.47,6.0756c17.33,7.57,32.47,21.1152,38.4456,40.0392a91.3479,91.3479,0,0,1,6.0756,32.47c0,15.1392,1.494,18.8244,1.494,55.0788S384.2608,290.7364,383.5636,305.0788Z" fill="#0088ce"/></svg>