<?xml version="1.0" encoding="utf-8"?>
<!-- Generator: Adobe Illustrator 21.0.2, SVG Export Plug-In . SVG Version: 6.00 Build 0)  -->
<svg version="1.1" id="DESKTOP" xmlns="http://www.w3.org/2000/svg" xmlns:xlink="http://www.w3.org/1999/xlink" x="0px" y="0px"
	 viewBox="0 0 500 500" style="enable-background:new 0 0 500 500;" xml:space="preserve">
<style type="text/css">
	.st0{fill:#0088CE;}
	.st1{fill:none;}
	.st2{fill:#1387C9;}
	.st3{fill:#0F87C9;}
	.st4{fill:none;stroke:#0F87C9;stroke-width:54.9916;stroke-linecap:round;stroke-miterlimit:10;}
</style>
<path class="st0" d="M250,0C111.9,0,0,111.9,0,250c0,138.1,111.9,250,250,250s250-111.9,250-250C500,111.9,388.1,0,250,0z
	 M267.4,382.8c-5,5-10.9,7.5-17.8,7.5c-6.9,0-12.8-2.5-17.8-7.5c-5-5-7.5-10.9-7.5-17.8c0-6.9,2.5-12.8,7.5-17.8
	c5-5,10.9-7.5,17.8-7.5c6.9,0,12.8,2.5,17.8,7.5c5,5,7.5,10.9,7.5,17.8C274.9,371.9,272.4,377.8,267.4,382.8z M326.3,206.1
	c-2.8,7.3-6.8,14.1-11.9,20.5l-23,23.8l-3.8,3.5c-4.1,3.8-7.3,7.1-9.8,9.8c-2.4,2.7-4.4,5.5-5.8,8.4c-1.4,3-2.4,6.2-2.9,9.8
	c-0.5,3.6-0.8,8.1-0.8,13.4v16.9h-36.8v-23.4c0-6.9,0.5-12.6,1.5-17.3c1-4.6,2.5-8.7,4.6-12.5c2-3.7,4.8-7.3,8.2-10.7
	c3.4-3.4,7.7-7.6,12.8-12.5c4.1-3.8,8.2-7.7,12.3-11.7c4.1-4,7.8-8,11.1-12.3c3.3-4.2,6.1-8.7,8.2-13.4c2.2-4.7,3.3-10,3.3-15.9
	c0-5.9-1.1-11.3-3.3-16.3c-2.2-5-5.1-9.3-8.6-12.8c-3.6-3.6-7.9-6.4-12.8-8.4c-5-2.1-10.3-3.1-15.9-3.1c-12.5,0-22.7,4-30.5,11.9
	c-7.8,7.9-12.5,18.3-14,31.1l-39.1-3.8c3.3-22.2,12.6-39.7,27.8-52.3c15.2-12.6,34-19,56.5-19c10.7,0,20.8,1.6,30.1,4.8
	c9.3,3.2,17.4,7.8,24.3,13.8c6.9,6,12.3,13.4,16.3,22.2c4,8.8,5.9,18.9,5.9,30.1C330.5,190.3,329.1,198.8,326.3,206.1z"/>
</svg>
