<?xml version="1.0" encoding="utf-8"?>

<svg version="1.1" id="Calque_1" xmlns="http://www.w3.org/2000/svg" xmlns:xlink="http://www.w3.org/1999/xlink" x="0px" y="0px"
	 viewBox="0 0 500 500" style="enable-background:new 0 0 500 500;" xml:space="preserve">
<style type="text/css">
	.st0{fill:#1F7DBF;}
</style>
<g>
	<path class="st0" d="M250,0C112.1,0,0,112.1,0,250s112.1,250,250,250s250-112.1,250-250S387.9,0,250,0z M375,182.6v130.3
		c0,30.3-24.2,55.3-54.5,55.3l23.5,23.5v7.6h-31.1l-31.1-31.8h-59.1l-31.1,31.8h-34.8v-7.6l23.5-23.5c-18.2,0-34.1-9.1-44.7-23.5
		l-42.4,28.8c-2.3,1.5-4.5,2.3-6.8,2.3c-3.8,0-7.6-2.3-10.6-5.3c-3.8-6.1-2.3-13.6,3-17.4l47-31.8c-0.8-3-0.8-5.3-0.8-8.3v-150
		c0-55.3,62.1-62.9,125-62.9c64.4,0,116.7,7.6,123.5,53l40.9-28c6.1-3.8,13.6-2.3,17.4,3c3.8,6.1,2.3,13.6-3,17.4L375,182.6z"/>
	<path class="st0" d="M161.4,327.3c4.5,5.3,10.6,9.1,18.2,9.1c12.9,0,23.5-10.6,23.5-23.5c0-4.5-1.5-8.3-3-11.4L161.4,327.3z"/>
	<ellipse class="st0" cx="320.5" cy="312.9" rx="23.5" ry="23.5"/>
	<rect x="156.1" y="162.9" class="st0" width="78" height="62.9"/>
	<polygon class="st0" points="265.9,226.5 265.9,226.5 343.9,173.5 343.9,162.9 265.9,162.9 	"/>
	<polygon class="st0" points="343.9,226.5 343.9,203.8 310.6,226.5 	"/>
</g>
</svg>
