<?xml version="1.0" encoding="utf-8"?>

<svg version="1.1" id="Calque_1" xmlns="http://www.w3.org/2000/svg" xmlns:xlink="http://www.w3.org/1999/xlink" x="0px" y="0px"
	 viewBox="0 0 500 500" style="enable-background:new 0 0 500 500;" xml:space="preserve">
<style type="text/css">
	.st0{fill:#0088CE;}
</style>
<title>SNCF_</title>
<g id="MOBILE">
	<path class="st0" d="M250,0C112.1,0,0,112.1,0,250s112.1,250,250,250s250-112.1,250-250S387.9,0,250,0z M181.8,369.7H128V208.3
		h53.8V369.7z M155.3,186.4L155.3,186.4c-15.2,2.3-29.5-9.1-31.8-24.2c-2.3-15.2,9.1-29.5,24.2-31.8c0.8,0,2.3,0,3,0h3.8
		c15.2-2.3,29.5,9.1,31.8,24.2c2.3,15.2-9.1,29.5-24.2,31.8c-0.8,0-2.3,0-3,0C159.1,186.4,155.3,186.4,155.3,186.4z M375,369.7
		h-53.8v-86.4c0-22-7.6-36.4-27.3-36.4c-12.1,0-22.7,7.6-27.3,18.9c-1.5,3.8-1.5,8.3-1.5,12.9v90.2h-53.8V207.6h54.5v22.7
		c9.8-17.4,28.8-27.3,48.5-26.5c35.6,0,62.1,22.7,62.1,72.7L375,369.7z"/>
</g>
</svg>
