<svg viewBox="0 0 500 500"><path d="M336.7516,212.2516h24.9v24.9h-24.9Z" fill="#0088ce"/><path d="M250,1C113.4484,1,1,113.4484,1,250S113.4484,499,250,499,499,387.3484,499,250,387.3484,1,250,1ZM163.2484,113.4484h174.3v62.6484h-174.3Zm173.5032,273.9H163.2484V299.8h174.3v87.5484Zm50.5968-77.7876a15.9378,15.9378,0,0,1-15.8364,15.8364H350.3968V287.6488H150.4v37.7484H127.7908c-7.57-1.494-15.1392-9.0636-15.1392-15.8364V203.9848c0-9.0636,7.57-15.1392,15.8364-15.8364H371.512a15.9378,15.9378,0,0,1,15.8364,15.8364v105.576Z" fill="#0088ce"/></svg>