<svg viewBox="0 0 500 500"><path d="M250,1C112.6516,1,1,112.6516,1,250S112.6516,499,250,499,499,387.3484,499,250,387.3484,1,250,1ZM374.5,182.87V312.6484c0,30.1788-24.1032,55.0788-54.282,55.0788l23.406,23.406v7.57H312.6484L281.6728,367.03H222.8092l-30.9756,31.6728H157.1728v-7.57l23.406-23.406c-18.1272,0-33.9636-9.0636-44.5212-23.406l-42.23,28.6848a12.2764,12.2764,0,0,1-6.7728,2.2908c-3.7848,0-7.57-2.2908-10.5576-5.2788-3.7848-6.0756-2.2908-13.5456,2.988-17.33l46.812-31.6728a29.136,29.136,0,0,1-.7968-8.2668v-149.4C125.5,108.2692,187.3516,100.7,250,100.7c64.1424,0,116.2332,7.57,123.006,52.788L413.7424,125.6c6.0756-3.7848,13.5456-2.2908,17.33,2.988,3.7847,6.0756,2.2907,13.5456-2.988,17.33Z" fill="#1f7dbf"/><path d="M161.4,327.3c4.5,5.3,10.6,9.1,18.2,9.1a23.6015,23.6015,0,0,0,23.5-23.5,25.8783,25.8783,0,0,0-3-11.4Z" fill="#1f7dbf"/><circle cx="320.5" cy="312.9" r="23.5" fill="#1f7dbf"/><path d="M156.1,162.9h78v62.9h-78Zm109.8,63.6,78-53V162.9h-78Zm78,0V203.8l-33.3,22.7Z" fill="#1f7dbf"/></svg>