<svg viewBox="0 0 500 500"><path d="M250,1C112.6516,1,1,112.6516,1,250S112.6516,499,250,499,499,387.3484,499,250,387.3484,1,250,1Zm25.6968,304.0788c-14.3424,0-27.1908-6.7728-34.6608-18.1272,0,0-8.2668,33.1668-9.7608,39.2424a166.9637,166.9637,0,0,1-25.6968,46.812c-.7968.7968-1.494,1.494-2.2908.7968-.7968,0-.7968-.7968-.7968-1.494a165.474,165.474,0,0,1,0-54.282l17.33-77.688a58.3233,58.3233,0,0,1-4.482-22.6092c0-21.1152,12.8484-37.7485,27.1908-37.7485a18.2488,18.2488,0,0,1,19.6212,18.1272v3.7848c-2.988,17.33-6.7728,33.9637-12.8484,50.5968-2.988,12.0516,3.7848,24.1032,15.1392,27.1909,2.2908.7967,4.482.7967,7.57.7967,27.1908,0,45.318-34.6608,45.318-76.194,0-30.9756-21.1152-55.0788-59.5608-55.0788-37.7484-1.494-68.6244,27.1908-70.9152,64.9392v3.7848a37.1694,37.1694,0,0,0,9.7608,27.888,8.5752,8.5752,0,0,1,2.2908,8.2668l-2.988,11.3544c-.7968,2.988-2.988,4.482-6.0756,3.7848h-1.494a54.8832,54.8832,0,0,1-29.382-54.282c0-40.0392,33.9636-89.8392,102.588-89.8392,46.812-2.988,87.5484,33.1668,90.5364,79.9788v2.2908c.498,56.1744-30.378,97.7076-76.3932,97.7076Z" fill="#0088ce"/></svg>