<svg viewBox="0 0 500 500"><path d="M250,1C113.4484,1,1,113.4484,1,250S113.4484,499,250,499,499,387.3484,499,250,387.3484,1,250,1Zm99.6,197.706v6.0756c0,80.7756-65.6364,145.6152-145.6152,145.6152-27.1908,0-55.0788-7.57-78.4848-23.406h12.0516c22.6092,0,44.5212-7.57,63.3456-22.6092-22.6092,0-40.7364-15.1392-47.5092-36.2544,3.7848,0,6.0756,1.494,9.7608,1.494,5.2788,0,9.0636-1.494,13.5456-1.494-22.6092-4.482-40.0392-25.6968-40.0392-49.0032,7.57,3.7848,15.1392,6.0756,23.406,6.0756-22.6092-15.1392-28.6848-44.5212-15.8364-68.6244A146.3549,146.3549,0,0,0,249.9,210.16c-6.0756-27.1908,11.3544-55.0788,38.4456-61.1544,17.33-3.7848,36.2544,1.494,48.306,15.1392,11.3544-2.2908,22.6092-6.0756,32.47-12.8484-3.7848,12.8484-11.3544,22.6092-22.6092,28.6848,9.7608-1.494,19.6212-3.7848,28.6848-9.0636-6.7728,11.952-15.8364,20.2188-25.5972,27.7884Z" fill="#0088ce"/></svg>