<svg viewBox="0 0 500 500"><path d="M250,1C113.4484,1,1,113.4484,1,250S113.4484,499,250,499,499,387.3484,499,250,387.3484,1,250,1Zm68.6244,247.506c-5.2788,5.2788-12.8484,5.2788-17.33,1.494l-1.494-1.494-36.9516-40.0392V345.0184A12.7492,12.7492,0,0,1,250,357.8668c-7.57,0-12.0516-6.0756-12.0516-12.8484V209.2636L200.2,249.2032c-5.2788,5.2788-12.0516,5.2788-17.33,1.494l-1.494-1.494c-5.2788-6.0756-5.2788-15.1392,0-19.6212l58.8636-64.9392c5.2788-5.2788,12.8484-5.2788,17.33-1.494l1.494,1.494,58.8636,64.9392c5.2788,5.2788,5.2788,14.3424.6972,18.924Z" fill="#0088ce"/></svg>