<svg viewBox="0 0 500 500"><path d="M250,1C112.6516,1,1,112.6516,1,250S112.6516,499,250,499,499,387.3484,499,250,387.3484,1,250,1ZM412.9456,297.5092h-2.988l-172.806-24.9c-1.494,0-2.988-1.494-3.7848-2.988L170.0212,139.8424c-5.2788-10.5576-1.494-24.1032,9.7608-29.382a21.0528,21.0528,0,0,1,9.7608-2.2908,21.7429,21.7429,0,0,1,19.6212,12.0516L262.8484,228.088a7.5279,7.5279,0,0,0,3.7848,2.988l149.4,21.912c10.5576,1.494,18.8244,11.3544,18.8244,21.912v2.988c-1.494,11.3544-10.5576,18.924-21.912,19.6212Z" fill="#0088ce"/></svg>