<?xml version="1.0" encoding="utf-8"?>

<svg version="1.1" id="DESKTOP" xmlns="http://www.w3.org/2000/svg" xmlns:xlink="http://www.w3.org/1999/xlink" x="0px" y="0px"
	 viewBox="0 0 500 500" style="enable-background:new 0 0 500 500;" xml:space="preserve">
<style type="text/css">
	.st0{fill:#0088CE;}
</style>
<path class="st0" d="M250,0C112.9,0,0,112.9,0,250s112.9,250,250,250s250-112.1,250-250S387.9,0,250,0z M350,315.9
	c9.1,9.1,9.1,25,0,34.1s-25,9.1-34.1,0L250,284.1L184.1,350c-9.1,9.1-25,9.1-34.1,0c-9.1-9.1-9.1-25,0-34.1l65.9-65.9L150,184.1
	c-9.1-9.1-9.1-25,0-34.1c9.1-9.1,25-9.1,34.1,0l65.9,65.9l65.9-65.9c9.1-9.1,25-9.1,34.1,0c9.1,9.1,9.1,25,0,34.1L284.1,250
	L350,315.9z"/>
</svg>