<?xml version="1.0" encoding="utf-8"?>
<!-- Generator: Adobe Illustrator 22.0.1, SVG Export Plug-In . SVG Version: 6.00 Build 0)  -->
<svg version="1.1" id="Calque_1" xmlns="http://www.w3.org/2000/svg" xmlns:xlink="http://www.w3.org/1999/xlink" x="0px" y="0px"
	 viewBox="0 0 50 50" style="enable-background:new 0 0 50 50;" xml:space="preserve">
<style type="text/css">
	.st0{fill:#0088CE;}
</style>
<title>Icons/Interface/Fermer</title>
<desc>Created with Sketch.</desc>
<g id="Icons_x2F_Interface_x2F_Fermer">
	<g id="Fill-1">
		<path id="path-1_1_" class="st0" d="M32.1,25.1L48.7,8.5c1.9-1.9,1.6-5.2-0.3-7.1c-1.9-1.9-5-1.9-6.9,0L25,18L8.3,1.4
			c-1.9-1.9-5-1.9-6.9,0c-1.9,1.9-2,5.1-0.1,7L18,25L1.3,41.6c-1.9,1.9-1.7,5.1,0.1,7c1.9,1.9,5.1,2,7,0.1l16.6-16.6l16.5,16.5
			c1.9,1.9,5,1.9,6.9,0c1.9-1.9,2-5.1,0.1-7L32.1,25.1z"/>
	</g>
</g>
</svg>
