<svg viewBox="0 0 500 500"><path d="M232.8788,75.8918A36.6526,36.6526,0,1,0,196.2754,39.19,36.6813,36.6813,0,0,0,232.8788,75.8918Zm0,354.5215a122.7654,122.7654,0,0,0,98.1994-49.1c.0984-.0984.1968-.1968.1968-.2951a4.117,4.117,0,0,0-.0984-.6888c-1.0824-5.9038-8.7572-46.5414-10.5284-55.0035-.0984-.59-.492-.3936-.59,0A89.0052,89.0052,0,1,1,181.91,234.6049V195.7384a117.68,117.68,0,0,0-20.1712,11.8075,12.055,12.055,0,0,0,.1968-1.8695,79.92,79.92,0,0,1,35.1274-66.1222V247.0028a22.0494,22.0494,0,0,0,21.6472,22.336l43.6879.59H263.48c23.1231,0,49.1981,3.247,55.9874,7.1829,5.0182,6.4941,13.6771,32.4707,18.8921,56.9714l7.97,44.3767a22.1025,22.1025,0,0,0,21.6472,18.2033,18.4159,18.4159,0,0,0,3.9358-.3936,21.9931,21.9931,0,0,0,17.7113-25.583l-8.0685-44.77c0-.1968-.0984-.492-.0984-.6888-3.9358-18.4985-14.8578-63.2687-31.1916-79.7009C333.5381,228.8,291.72,225.946,265.94,225.946V164.35a113.4015,113.4015,0,0,0,93.0828,20.0728,16.9481,16.9481,0,0,0-7.4781-33.0611,79.65,79.65,0,0,1-90.7213-46.3446C256.9858,94.4887,248.13,91.93,241.5376,92.0288c-62.58,0-113.5492,50.9692-113.5492,113.6476a16.9532,16.9532,0,0,0,16.4322,16.9242,122.9859,122.9859,0,0,0-34.4387,85.0143c0,67.6966,55.1019,122.7985,122.8969,122.7985Z" fill="#0f87c9"/><path d="M25.9,448.2H474.1a24.9,24.9,0,1,1,0,49.8H25.9a24.9,24.9,0,1,1,0-49.8Z" fill="#0086d1" fill-rule="evenodd"/></svg>