<?xml version="1.0" encoding="utf-8"?>
<!-- Generator: Adobe Illustrator 21.0.2, SVG Export Plug-In . SVG Version: 6.00 Build 0)  -->
<svg version="1.1" id="Calque_1" xmlns="http://www.w3.org/2000/svg" xmlns:xlink="http://www.w3.org/1999/xlink" x="0px" y="0px"
	 viewBox="0 0 500 500" style="enable-background:new 0 0 500 500;" xml:space="preserve">
<style type="text/css">
	.st0{fill:#0F87C9;}
</style>
<path class="st0" d="M232.6,74.6c20.5,0,37.2-16.7,37.2-37.3S253.1,0.1,232.6,0.1c-20.6,0-37.2,16.7-37.2,37.2
	C195.4,57.8,212,74.6,232.6,74.6z M232.6,434.9c40.7,0,77-19.6,99.8-49.9c0.1-0.1,0.2-0.2,0.2-0.3c0,0,0-0.2-0.1-0.7
	c-1.1-6-8.9-47.3-10.7-55.9c-0.1-0.6-0.5-0.4-0.6,0c-8.4,41.2-44.9,72.4-88.6,72.4c-49.9,0-90.5-40.6-90.5-90.5
	c0-30.3,15.3-57.5,38.7-74.1v-39.5c-7.3,3.3-14.1,7.4-20.5,12c0.1-0.6,0.2-1.3,0.2-1.9c0-27.9,14.2-52.6,35.7-67.2v108.9v0.3
	c-0.2,12.3,9.7,22.5,22,22.7l44.4,0.6h1.1c23.5,0,50,3.3,56.9,7.3c5.1,6.6,13.9,33,19.2,57.9l8.1,45.1c1.9,10.8,11.4,18.5,22,18.5
	c1.3,0,2.6-0.1,4-0.4c12.2-2.2,20.2-13.9,18-26l-8.2-45.5c0-0.2-0.1-0.5-0.1-0.7c-4-18.8-15.1-64.3-31.7-81
	c-17-17-59.5-19.9-85.7-19.9v-62.6c19.8,14.8,44,23.2,69.2,23.2c8.4,0,16.9-0.9,25.4-2.8c9.3-2.1,15.1-11.3,13-20.6
	s-11.3-15.1-20.6-13c-38,8.6-76.8-11.2-92.2-47.1c-3.9-10.7-12.9-13.3-19.6-13.2C177.8,91,126,142.8,126,206.5
	c0,9.3,7.4,16.9,16.7,17.2c-21.6,22.6-35,53.1-35,86.4C107.7,378.9,163.7,434.9,232.6,434.9z M486.9,470H13.1
	C5.9,470,0,476.7,0,484.9c0,8.4,5.9,15.1,13.1,15.1h473.8c7.2,0,13.1-6.7,13.1-15.1C500,476.7,494.1,470,486.9,470z"/>
</svg>
