<svg viewBox="0 0 500 500"><path d="M187.2353,211.2753c11.3932-11.3932,11.8148-30.2881.4129-41.69l-33.556-33.5647a93.7261,93.7261,0,0,0-66.3915-27.442l-57.5369.07A29.2,29.2,0,0,0,1,137.8476v.5886a29.2041,29.2041,0,0,0,29.1989,29.2077H88.2542a33.9815,33.9815,0,0,1,24.0337,9.9526l33.6789,33.6788a29.1863,29.1863,0,0,0,41.2685,0m78.2591,77.4158c-11.402,11.402-11.8149,30.297-.4217,41.6989l34.25,34.2411a93.7386,93.7386,0,0,0,65.9523,27.4509l12.28.0439A13.678,13.678,0,0,1,391.18,405.8118v29.3306a8.4906,8.4906,0,0,0,13.6332,6.7551l88.4224-67.4368a14.6411,14.6411,0,0,0,0-23.2871l-88.4224-67.4368a8.4907,8.4907,0,0,0-13.6332,6.7551v29.1023A13.6837,13.6837,0,0,1,377.5026,333.28H365.4154a34.0266,34.0266,0,0,1-24.0337-9.9614l-34.6189-34.6276a29.2021,29.2021,0,0,0-41.2684,0M30.1989,333.1659H88.2542a33.99,33.99,0,0,0,24.0337-9.9614L299.3314,136.17a93.7025,93.7025,0,0,1,65.9435-27.4508l12.28-.0439A13.6762,13.6762,0,0,0,391.18,94.998V65.6585a8.4852,8.4852,0,0,1,13.6332-6.7463l88.4224,67.4368a14.6323,14.6323,0,0,1,0,23.2783l-88.4224,67.4369a8.4875,8.4875,0,0,1-13.6332-6.7463V181.2068A13.6761,13.6761,0,0,0,377.5026,167.53H365.4154a34.0181,34.0181,0,0,0-24.0337,9.9526L154.0922,364.78a93.72,93.72,0,0,1-66.3915,27.4509l-57.5369-.0791C14.0534,392.1347,1,378.4751,1,362.3648a29.1966,29.1966,0,0,1,29.1989-29.1989" fill="#0088ce" fill-rule="evenodd"/></svg>