<?xml version="1.0" encoding="utf-8"?>
<!-- Generator: Adobe Illustrator 22.0.1, SVG Export Plug-In . SVG Version: 6.00 Build 0)  -->
<svg version="1.1" id="Calque_1" xmlns="http://www.w3.org/2000/svg" xmlns:xlink="http://www.w3.org/1999/xlink" x="0px" y="0px"
	 viewBox="0 0 50 50" style="enable-background:new 0 0 50 50;" xml:space="preserve">
<style type="text/css">
	.st0{fill:#231F20;}
</style>
<title>Icons/Interface/Document</title>
<g>
	<path class="st0" d="M26.6,0H8.9C7.2,0,5.7,1.4,5.7,3.2v43.6c0,1.8,1.4,3.2,3.2,3.2h32.2c1.8,0,3.2-1.4,3.2-3.2V17.5
		c0-0.7-0.3-1.3-0.8-1.8L28.7,0.9C28.1,0.3,27.4,0,26.6,0z M38.9,45.7H11c-0.6,0-1-0.5-1-1V5.3c0-0.6,0.5-1,1-1h14.4
		c1.4,0,2.5,1.1,2.5,2.5l0,8.5c0,0.7,0.6,1.3,1.3,1.3l8.8,0c1.1,0,2,0.9,2,2v26.2C40,45.2,39.5,45.7,38.9,45.7z"/>
	<g>
		<path class="st0" d="M35.2,25.3c0,1.1-0.9,2-2,2H17.4c-1.1,0-2-0.9-2-2c0-1.1,0.9-2,2-2h15.8C34.3,23.3,35.2,24.2,35.2,25.3z"/>
	</g>
	<g>
		<path class="st0" d="M23.8,14.9c0,1.1-0.9,2-2,2h-4.5c-1.1,0-2-0.9-2-2c0-1.1,0.9-2,2-2h4.5C23,13,23.8,13.9,23.8,14.9z"/>
	</g>
	<g>
		<path class="st0" d="M30.3,35.5c0,1.1-0.9,2-2,2H17.4c-1.1,0-2-0.9-2-2c0-1.1,0.9-2,2-2h10.9C29.4,33.5,30.3,34.4,30.3,35.5z"/>
	</g>
</g>
</svg>
