<svg viewBox="0 0 500 500"><path d="M265.936,1H89.644A32.0927,32.0927,0,0,0,57.772,32.872V467.128A31.4643,31.4643,0,0,0,89.644,499H410.356a31.4643,31.4643,0,0,0,31.872-31.872V175.3c0-6.972-2.988-12.948-7.968-17.928L286.852,9.964Q277.888,1,265.936,1ZM388.444,456.172H110.56a9.9808,9.9808,0,0,1-9.96-9.96V53.788a9.9808,9.9808,0,0,1,9.96-9.96H253.984a24.6581,24.6581,0,0,1,24.9,24.9v84.66a13.1843,13.1843,0,0,0,12.948,12.948H379.48a19.9786,19.9786,0,0,1,19.92,19.92V447.208C399.4,451.192,394.42,456.172,388.444,456.172Z" fill="#0088ce"/><path d="M351.592,252.988a19.9786,19.9786,0,0,1-19.92,19.92H174.304a19.92,19.92,0,0,1,0-39.84H331.672A19.9786,19.9786,0,0,1,351.592,252.988ZM238.048,149.404a19.9786,19.9786,0,0,1-19.92,19.92h-44.82a19.92,19.92,0,1,1,0-39.84h44.82C230.08,130.48,238.048,139.444,238.048,149.404Zm64.74,205.176a19.9786,19.9786,0,0,1-19.92,19.92H174.304a19.92,19.92,0,0,1,0-39.84H282.868A19.9786,19.9786,0,0,1,302.788,354.58Z" fill="#0088ce"/></svg>