<svg width="50px" height="50px" viewBox="0 0 50 50" version="1.1" xmlns="http://www.w3.org/2000/svg" xmlns:xlink="http://www.w3.org/1999/xlink">
    <defs>
        <path d="M11.0709215,24.6992738 L40.1682845,24.6992738 L40.1682845,21.3482517 L11.0709215,21.3482517 L11.0709215,24.6992738 Z M11.0709215,33.7618024 L40.1682845,33.7618024 L40.1682845,30.4107803 L11.0709215,30.4107803 L11.0709215,33.7618024 Z M11.081107,42.9541959 L27.8896913,42.9541959 L27.8896913,39.6108129 L11.081107,39.6108129 L11.081107,42.9541959 Z M40.5476935,13.6862262 L29.4888113,13.6862262 L29.4888113,2.67572495 L40.5476935,13.6862262 Z M8.00254637,17.3911936 L8,17.3911936 L8,45.2357429 C8,47.855957 10.144043,50 12.7642571,50 L38.1413744,50 C40.7615885,50 42.9056316,47.855957 42.9056316,45.2357429 L42.9056316,11.7458927 C42.9056316,11.486163 42.8037768,11.2391652 42.6204382,11.0558266 L31.5844733,0.287230467 C31.403681,0.103891871 31.1592296,0.0045834649 30.9045926,0.0045834649 L25.9722751,0.0045834649 L25.9722751,-0.000509273877 L12.7693499,-0.000509273877 C10.1465894,-0.000509273877 8.00254637,2.14353375 8.00254637,4.76374785 L8.00254637,17.3911936 Z" id="path-1"></path>
    </defs>
</svg>