<svg version="1.1" id="Calque_1" xmlns="http://www.w3.org/2000/svg" xmlns:xlink="http://www.w3.org/1999/xlink" x="0px" y="0px"
	 viewBox="0 0 50 50" style="enable-background:new 0 0 50 50;" xml:space="preserve">
<style type="text/css">
</style>
<g>
	<path d="M42.9,45.2V11.7c0-0.3-0.1-0.5-0.3-0.7l-11-10.8C31.4,0.1,31.2,0,30.9,0H26v0H12.8C10.1,0,8,2.1,8,4.8v12.6h0
		v27.8c0,2.6,2.1,4.8,4.8,4.8h25.4C40.8,50,42.9,47.9,42.9,45.2z M27.9,43H11.1v-3.3h16.8V43z M40.2,33.8H11.1v-3.4h29.1V33.8z
		 M40.2,24.7H11.1v-3.4h29.1V24.7z M29.5,13.7v-11l11.1,11H29.5z"/>
</g>
</svg>
