<svg xmlns="http://www.w3.org/2000/svg" viewBox="0 0 50 50"><defs><style>.a{fill:#0088ce;}</style></defs><title>earth-underline</title><path class="a" d="M25,40A20,20,0,1,0,5,20,20,20,0,0,0,25,40ZM14.85,8.16A1.6,1.6,0,0,1,17,7.92L18.74,9.2A1.27,1.27,0,0,0,20.37,9L26,2.62A17.32,17.32,0,0,1,36.56,7l-3.46.06a2.23,2.23,0,0,0-1.46.56l-.58.49a1.64,1.64,0,0,0,.46,2.76,1.1,1.1,0,0,1-.4,2.15L29,12.75a2.29,2.29,0,0,0-2.53,1.6A2.23,2.23,0,0,0,29,17.13l3.39-.61a1.8,1.8,0,1,1,.53,3.54l-5.45.32A2.61,2.61,0,0,0,25,22.53a2.5,2.5,0,0,0,2.48,2.87h.08A2.51,2.51,0,0,1,30,27.91v1.9a2.31,2.31,0,0,0,3.49,2A8,8,0,0,0,37.17,27l.39-1.53a8.11,8.11,0,0,0,.23-1.29,2.31,2.31,0,0,1,4.08-1.27l.25.32A17.45,17.45,0,0,1,25,37.43a17.16,17.16,0,0,1-6.1-1.13l2.19-5.62a4.24,4.24,0,0,0-1.48-5l-2.9-2.08a3.74,3.74,0,0,1-1.05-4.92l1-1.73,0,0a5,5,0,0,0-1.32-6.23l-.3-.24A1.61,1.61,0,0,1,14.85,8.16ZM7.59,19.72l3.21,1.47a4,4,0,0,1,1.78,5.42,4,4,0,0,0,0,3.3l1.76,3.84A17.4,17.4,0,0,1,7.57,20C7.57,19.91,7.58,19.82,7.59,19.72ZM47.5,45H2.5A2.39,2.39,0,0,0,0,47.4v.3A2.38,2.38,0,0,0,2.5,50h45A2.39,2.39,0,0,0,50,47.6v-.3A2.38,2.38,0,0,0,47.5,45Z"/></svg>