<?xml version="1.0" encoding="utf-8"?>

<svg version="1.1" id="DESKTOP" xmlns="http://www.w3.org/2000/svg" xmlns:xlink="http://www.w3.org/1999/xlink" x="0px" y="0px"
	 width="500px" height="500px" viewBox="0 0 500 500" style="enable-background:new 0 0 500 500;" xml:space="preserve">
<style type="text/css">
	.st0{fill:#0088CE;}
</style>
<path class="st0" d="M498.5,37c-1.1-5.3-4.9-10.2-10.9-12.3c-117.2-37.3-239.9-36.2-348,29.8c-79.8,49-150.3,148-81.4,234.9
	c0.5,0.5,0.5,0.5,1.1,1.1c0.6,0.5,0.6,0.5,1.1,1c4.8,5.3,23.9-13.8,23.9-13.8s45.6-38.9,71.1-54.3C78.9,294.2,21.9,393.8,0.2,486.5
	c-2.2,10.1,14.6,19.7,19,8.5C36,447.1,55,400.2,81.6,357c74.9,39.4,153.1,43.2,221.5-15.4c85.8-73.5,64-266.3,186.7-284.4
	C500.1,55.6,501.7,45.5,498.5,37z"/>
</svg>
