<svg viewBox="0 0 500 500"><path d="M497.5176,37.842a16.55,16.55,0,0,0-10.8569-12.2514C369.924-11.5619,247.7091-10.4663,140.0364,55.2728,60.5518,104.0791-9.6695,202.6878,58.9582,289.2443l1.0956,1.0956a10.9059,10.9059,0,0,1,1.0957.9961c4.781,5.279,23.8055-13.7455,23.8055-13.7455s45.42-38.7462,70.8189-54.0853c-76.1976,70.52-132.9722,169.7264-154.5865,262.06-2.1913,10.06,14.5423,19.6222,18.9249,8.4664,16.7336-47.7106,35.6585-94.4252,62.1534-137.4545C156.87,395.8213,234.7605,399.6063,302.89,341.2379c85.4608-73.2094,63.747-265.2473,185.9619-283.2757,10.2593-1.5937,11.853-11.6538,8.6656-20.12Z" fill="#0088ce"/></svg>