<svg viewBox="0 0 500 500"><path d="M457.4668,1H250a41.8959,41.8959,0,0,0-41.5332,41.5332A41.83,41.83,0,0,0,250,84.0664H357.17L179.0848,262.0516c-15.8364,15.8364-15.8364,42.23,0,58.8636a41.8427,41.8427,0,0,0,58.764,0L415.9336,142.83V250A41.5332,41.5332,0,0,0,499,250V42.5332A41.83,41.83,0,0,0,457.4668,1Z" fill="#0088ce"/><path d="M374.5,499H42.5332A41.83,41.83,0,0,1,1,457.4668V125.5A41.8959,41.8959,0,0,1,42.5332,83.9668,41.83,41.83,0,0,1,84.0664,125.5V416.0332H374.5a41.8959,41.8959,0,0,1,41.5332,41.5332C416.0332,480.1756,397.1092,499,374.5,499Z" fill="#0088ce"/></svg>