<svg viewBox="0 0 500 500"><path d="M498.03,188.9488c-2.01-8.04-9.0449-13.0647-16.08-14.07L334.2182,152.77,267.89,13.0775a19.597,19.597,0,0,0-36.1792,0L165.3818,152.77,17.65,174.8791c-7.0349,1.0049-14.07,7.0348-16.08,14.07a24.823,24.823,0,0,0,5.0249,22.1095L113.1229,319.596,87.9984,473.3578a23.6637,23.6637,0,0,0,8.04,21.1045,19.3131,19.3131,0,0,0,12.06,4.02c3.0149,0,6.03-1.0049,9.0448-2.01L249.8,423.1088l131.6522,72.3585a18.17,18.17,0,0,0,21.1046-2.01,23.6639,23.6639,0,0,0,8.04-21.1046L385.4721,318.5911,493.0049,211.0583a24.823,24.823,0,0,0,5.0249-22.1095" fill="#0088ce"/></svg>