<?xml version="1.0" encoding="utf-8"?>
<!-- Generator: Adobe Illustrator 22.0.1, SVG Export Plug-In . SVG Version: 6.00 Build 0)  -->
<svg version="1.1" id="Calque_1" xmlns="http://www.w3.org/2000/svg" xmlns:xlink="http://www.w3.org/1999/xlink" x="0px" y="0px"
	 viewBox="0 0 50 50" style="enable-background:new 0 0 50 50;" xml:space="preserve">
<style type="text/css">
	.st0{fill:#0088CE;}
</style>
<title>Icons/Interface/Favoris_Actif</title>
<desc>Created with Sketch.</desc>
<g id="Icons_x2F_Interface_x2F_Favoris_x5F_Actif">
	<g id="Fill-1">
		<path id="path-1_1_" class="st0" d="M49.5,18.7c-0.2-0.8-0.9-1.3-1.6-1.4l-14.7-2.2L26.6,1.2c-0.3-0.7-1-1.2-1.8-1.2
			C24,0,23.3,0.5,23,1.2l-6.6,13.9L1.7,17.3C1,17.4,0.3,18,0.1,18.7c-0.2,0.8,0,1.6,0.5,2.2l10.6,10.8L8.7,47
			c-0.1,0.8,0.2,1.6,0.8,2.1c0.4,0.3,0.8,0.4,1.2,0.4c0.3,0,0.6-0.1,0.9-0.2L24.8,42l13.1,7.2c0.7,0.4,1.5,0.3,2.1-0.2
			c0.6-0.5,0.9-1.3,0.8-2.1l-2.5-15.3L49,20.9C49.5,20.3,49.7,19.5,49.5,18.7"/>
	</g>
</g>
</svg>
