<svg width="50px" height="50px" viewBox="0 0 50 50" version="1.1" xmlns="http://www.w3.org/2000/svg" xmlns:xlink="http://www.w3.org/1999/xlink">
    <defs>
        <path d="M50,14.4888275 C50,11.9827529 47.9679832,9.9531183 45.4642908,9.9531183 L24.0673686,9.9531183 C22.7309543,9.9531183 21.4683882,9.35042165 20.6274715,8.31416456 L18.4596694,5.63895374 C17.6187527,4.60269665 16.3561866,4 15.0221545,4 L4.44518557,4 C1.99151937,4 0,5.99151937 0,8.44756777 L0,14.4888275 L50,14.4888275 Z M50,18.6648244 L50,41.4124541 C50,43.8685025 48.0084806,45.8600219 45.5524322,45.8600219 L4.44518557,45.8600219 C1.99151937,45.8600219 0,43.8685025 0,41.4124541 L0,18.6648244 L50,18.6648244 Z" id="path-1"></path>
    </defs>
</svg>