<svg viewBox="0 0 500 500"><path d="M107.6,423a100.5951,100.5951,0,0,0,96.2-71.7l32.6,3c17,1.5,32.2-12,34.1-30.2.1-1,.2-3,.2-3a9.702,9.702,0,0,0-.1-1.7,124.9551,124.9551,0,0,1,66.3-107.1l8.4,21.4a102.2049,102.2049,0,1,0,22.9-8.7l-12-30.4L334.5,131a12.3912,12.3912,0,0,0-11.6-8.3l-54.2-.2a12.25,12.25,0,1,0,0,24.5s33.1.1,45.4.2c2.7,7.9,9.7,28,14.4,41.8a149.6358,149.6358,0,0,0-78.3,98.6c-11,.9-35.5,3.4-46.9,4.6C200.6,284,161.5,190,161.5,190h12.3a12.3,12.3,0,1,0,0-24.6H113.4a12.3,12.3,0,1,0,0,24.6H135l16.6,42.3A99.0119,99.0119,0,0,0,107.5,222C52.2,222,7.1,267.1,7.1,322.5A100.6343,100.6343,0,0,0,107.6,423Zm275-94.7a12.3209,12.3209,0,0,0,22.9-9.1l-27-68.6a71.472,71.472,0,0,1,14-1.4,73.4808,73.4808,0,1,1-36.9,10.1l27,69Zm-275-78.9a73.3858,73.3858,0,0,1,67.9,45.9l-.5.1-66.8,7.4c-9.6,1.1-17,9.8-17.1,20-.2,10.2,6.9,18.7,16.5,19.6l66.6,6.2,1.8.2a73.1794,73.1794,0,1,1-68.4-99.4Z" fill="#0f87c9"/><path d="M25.9,448.2H474.1a24.9,24.9,0,1,1,0,49.8H25.9a24.9,24.9,0,1,1,0-49.8Z" fill="#0086d1" fill-rule="evenodd"/></svg>