<svg viewBox="0 0 500 500"><path d="M250,45.8649c66.486,0,74.361.2535,100.6172,1.4514,24.2771,1.1078,37.4618,5.164,46.2359,8.5739a77.1468,77.1468,0,0,1,28.63,18.6261A77.1463,77.1463,0,0,1,444.11,103.1469c3.41,8.7741,7.4661,21.9588,8.5739,46.2356,1.1979,26.2565,1.4514,34.1315,1.4514,100.6175s-.2535,74.361-1.4514,100.6172c-1.1078,24.2771-5.164,37.4618-8.5739,46.2359A82.46,82.46,0,0,1,396.8531,444.11c-8.7741,3.41-21.9588,7.4661-46.2359,8.5739-26.2524,1.1979-34.1267,1.4514-100.6172,1.4514s-74.3648-.2535-100.6172-1.4514c-24.2771-1.1078-37.4618-5.164-46.2359-8.5739a77.1456,77.1456,0,0,1-28.63-18.6261A77.1472,77.1472,0,0,1,55.89,396.8531c-3.41-8.7741-7.4661-21.9588-8.5739-46.2356C46.1184,324.361,45.8649,316.486,45.8649,250s.2535-74.361,1.4514-100.6172c1.1078-24.2771,5.164-37.4618,8.5739-46.2359a77.1468,77.1468,0,0,1,18.6261-28.63A77.1475,77.1475,0,0,1,103.1469,55.89c8.7741-3.41,21.9588-7.4661,46.2356-8.5739C175.639,46.1184,183.514,45.8649,250,45.8649M250,1c-67.6244,0-76.1039.2864-102.6623,1.4981C120.834,3.7075,102.7341,7.9167,86.8952,14.0722a122.0553,122.0553,0,0,0-44.103,28.72,122.0553,122.0553,0,0,0-28.72,44.103C7.9167,102.7341,3.7075,120.834,2.4981,147.3377,1.2864,173.8961,1,182.3754,1,250s.2864,76.1039,1.4981,102.6623c1.2094,26.5037,5.4186,44.6036,11.5741,60.4425a122.057,122.057,0,0,0,28.72,44.103,122.054,122.054,0,0,0,44.103,28.72c15.8389,6.1555,33.9388,10.3647,60.4425,11.5741C173.8961,498.7138,182.3756,499,250,499s76.1039-.2862,102.6623-1.4981c26.5037-1.2094,44.6036-5.4186,60.4425-11.5741a127.3239,127.3239,0,0,0,72.823-72.823c6.1555-15.8389,10.3647-33.9388,11.5741-60.4425C498.7136,326.1039,499,317.6245,499,250s-.2864-76.1039-1.4981-102.6623c-1.2094-26.5037-5.4186-44.6036-11.5741-60.4425a122.054,122.054,0,0,0-28.72-44.103,122.0553,122.0553,0,0,0-44.103-28.72C397.2659,7.9167,379.166,3.7075,352.6623,2.4981,326.1039,1.2864,317.6245,1,250,1Z" fill="#0086d1"/><path d="M250,122.1351A127.8649,127.8649,0,1,0,377.8649,250,127.8649,127.8649,0,0,0,250,122.1351ZM250,333a83,83,0,1,1,83-83A83,83,0,0,1,250,333Z" fill="#0086d1"/><circle cx="382.9168" cy="117.0832" r="29.88" fill="#0086d1"/></svg>