<svg xmlns="http://www.w3.org/2000/svg" viewBox="0 0 493 495.94"><defs><style>.a{fill:#0088ce;}</style></defs><title>instagram</title><path class="a" d="M303.74,378.32a126.65,126.65,0,0,0,0-253.3c-69.48,0-126.65,57.17-126.65,126.65A126.31,126.31,0,0,0,303.74,378.32Zm0-208.82a82.17,82.17,0,1,1-82.16,82.17A82.17,82.17,0,0,1,303.74,169.5Z" transform="translate(-60 -2.23)"/><path class="a" d="M74,410.31c11,34.92,39,59.92,70.95,73.89a169.27,169.27,0,0,0,59.93,11.21c26.47,2.76,34.74,2.76,101.65,2.76s76.65-2.76,101.65-2.76a168.51,168.51,0,0,0,59.93-11.21c32-11,57-39,70.95-70.95a169.49,169.49,0,0,0,11.21-59.93c1.29-26.47,2.76-34.74,2.76-101.65S550.24,178,550.24,150A168.73,168.73,0,0,0,539,90.09c-11-34.92-39-59.92-70.95-73.89A169.27,169.27,0,0,0,408.15,5C381.68,2.23,373.41,2.23,306.5,2.23S229.85,2.23,204.85,5A168.51,168.51,0,0,0,144.92,16.2c-32,11-57,39-70.95,71a169.49,169.49,0,0,0-11.21,59.93C60,173.55,60,181.82,60,248.73s0,76.65,2.76,101.65A168.73,168.73,0,0,0,74,410.31ZM100.44,150c0-16.73,5.51-32,9.74-46a91.74,91.74,0,0,1,46-45.95c14-7,29.22-9.74,46-9.74,27.76-2.76,34.74-2.76,101.65-2.76s76.65,0,101.65,2.76c16.73,0,32,5.51,46,9.74a91.76,91.76,0,0,1,45.95,46c4.23,16.73,8.27,33.46,9.75,46,2.75,27.76,2.75,34.74,2.75,101.65s-2.75,76.65-2.75,101.65c0,16.73-5.52,32-9.75,46a91.76,91.76,0,0,1-45.95,46c-14,7-29.23,9.74-46,9.74-27.75,2.76-34.74,2.76-101.65,2.76S227.09,455,202.09,455c-16.73,0-32-5.51-46-9.74a91.74,91.74,0,0,1-46-46c-7-14-9.74-29.23-9.74-46-2.76-27.75-2.76-34.74-2.76-101.65S97.68,175,100.44,150Z" transform="translate(-60 -2.23)"/><path class="a" d="M437.38,148.55c14,0,26.47-13.79,27.94-29.23,0-16.73-12.5-27.94-29.23-27.94s-27.94,12.5-27.94,29.23S420.65,148.55,437.38,148.55Z" transform="translate(-60 -2.23)"/></svg>