<svg viewBox="0 0 500 500"><path d="M396.0134,197.9158a105.9461,105.9461,0,0,0-24.6968,3.0794l-12.256-31.1635-22.48-65.0984a12.5311,12.5311,0,0,0-11.8249-8.4376l-55.4907-.2463a12.5947,12.5947,0,0,0-.0616,25.1894s33.935.1232,46.4989.1848c2.7715,8.068,9.9773,28.7616,14.7195,42.8036a153.1863,153.1863,0,0,0-80.249,101.0042c-11.2706.9854-36.46,3.5106-48.1,4.6807-2.71-8.4375-42.8036-104.8842-42.8036-104.8842h12.6255a12.6256,12.6256,0,1,0-.0616-25.2511H109.8759a12.6256,12.6256,0,1,0,0,25.2511h22.3564l17.06,43.42a103.0336,103.0336,0,1,0,53.3352,122.0672l33.3806,3.0794c17.4294,1.6013,33.0728-12.256,34.982-30.9787.1232-.9854.1847-3.0794.1847-3.0794a7.0355,7.0355,0,0,0-.1231-1.6629,127.9217,127.9217,0,0,1,67.993-109.75l8.6839,21.9253A103.0152,103.0152,0,1,0,499.05,301.0756c-.0616-56.9072-46.2525-103.16-103.0366-103.16ZM104.025,376.0281a75.0142,75.0142,0,1,1,69.5328-102.9134l-.4927.1232-68.5474,7.5753c-9.8541,1.1085-17.4294,10.0388-17.5525,20.4472-.1848,10.3467,7.0826,19.2154,16.8135,20.1392l68.2394,6.3436,1.786.1847A74.5777,74.5777,0,0,1,104.025,376.0281Zm291.9884,0a74.9229,74.9229,0,0,1-37.9382-139.62l27.7761,70.5182a12.58,12.58,0,0,0,23.4035-9.2382L381.54,227.3548a74.1055,74.1055,0,0,1,14.35-1.4165,75.045,75.045,0,0,1,.1231,150.09Z" fill="#0088ce"/></svg>