<?xml version="1.0" encoding="utf-8"?>

<svg version="1.1" id="Calque_1" xmlns="http://www.w3.org/2000/svg" xmlns:xlink="http://www.w3.org/1999/xlink" x="0px" y="0px"
	 width="500px" height="500px" viewBox="0 0 500 500" style="enable-background:new 0 0 500 500;" xml:space="preserve">
<style type="text/css">
	.st0{fill:#0F87C9;}
</style>
<path class="st0" d="M34.4,416.1V83.9c0-27.2,22-49.3,49.1-49.3h333.1c27.1,0,49.1,22.2,49.1,49.3v332.2c0,27.3-22,49.4-49.1,49.4
	H83.4C56.4,465.5,34.4,443.4,34.4,416.1 M83.4,0C37.5,0,0,37.7,0,83.9v332.2C0,462.4,37.5,500,83.4,500h333.1
	c46,0,83.5-37.6,83.5-83.9V83.9C500,37.7,462.6,0,416.5,0H83.4z"/>
<path class="st0" d="M218.2,243.2c4.6,1,10.2,1.4,17.9,1.4c28.3,0,45.9-14.4,45.9-38.4c0-21.7-14.8-34.9-41.7-34.9
	c-10.9,0-18.2,0.8-22.1,1.9V243.2z M165.3,135.6c16.5-2.9,39.6-5,72.1-5c32.9,0,56.7,6.4,72.5,19.3c15.1,11.7,24.8,31.3,24.8,54.6
	c0,23.5-7.3,43.3-21.4,56.3c-18.2,16.8-45.5,25-76.9,25c-7.1,0-13.4-0.3-18.3-1.4v85.1h-52.8L165.3,135.6L165.3,135.6z"/>
</svg>
