<?xml version="1.0" encoding="utf-8"?>
<svg version="1.1" id="Calque_1" xmlns="http://www.w3.org/2000/svg" xmlns:xlink="http://www.w3.org/1999/xlink" x="0px" y="0px"
	 viewBox="0 0 500 500" style="enable-background:new 0 0 500 500;" xml:space="preserve">
<style type="text/css">
	.st0{fill:#0F87C9;}
</style>
  <path id="_x36_" class="st0" d="M332.1,293.7c0-47.8-33.9-75.5-75.6-75.5c-26.9,0-43.2,9.8-51.8,17.4c3.2-51.2,29.6-76.9,64.7-76.9
    c14.3,0,27.4,3.2,34.1,6.2l8-43.3c-10.5-2.6-23.5-4.3-37.9-4.3c-80.1,0-120.9,60.5-120.9,149c0,67.5,24.5,115.6,93.1,115.6
    C298.2,381.8,332.1,344.5,332.1,293.7 M281.2,299.1c0,21.9-12.6,42.5-37.2,42.5c-25.3,0-38.9-23.5-38.9-47.7c0-7.5,0-17.3,2.9-21.6
    c5-8,17.7-14,33.2-14C265.6,258.3,281.2,275.2,281.2,299.1"/>
  <path class="st0" d="M500,250c0,138.9-111.7,250-249.5,250C112.6,500,0,388.3,0,250C0,112.6,112.6,0,250.5,0
  C383.9,0,500,112,500,250 M466,250.2c0-119.1-97.1-215.8-215.5-215.8c-118.9,0-215.9,96.7-215.9,215.8
  c0,119.5,97,215.7,215.9,215.7C368.9,465.9,466,369.2,466,250.2"/>
</svg>
