<?xml version="1.0" encoding="utf-8"?>

<svg version="1.1" id="DESKTOP" xmlns="http://www.w3.org/2000/svg" xmlns:xlink="http://www.w3.org/1999/xlink" x="0px" y="0px"
	 width="679.6px" height="500px" viewBox="0 0 679.6 500" style="enable-background:new 0 0 679.6 500;" xml:space="preserve">
<style type="text/css">
	.st0{fill:#0088CE;}
</style>
<path class="st0" d="M521.6,92.3c0,15.9-12.9,28.7-28.7,28.7c-15.9,0-28.8-12.9-28.8-28.7c0-15.9,12.9-28.8,28.8-28.8
	C508.7,63.5,521.6,76.4,521.6,92.3z M184.8,63.5c-15.9,0-28.8,12.9-28.8,28.8s12.9,28.7,28.8,28.7s28.7-12.9,28.7-28.7
	C213.5,76.4,200.7,63.5,184.8,63.5z M339.3,63.5c-15.9,0-28.8,12.9-28.8,28.8s12.9,28.7,28.8,28.7c15.9,0,28.7-12.9,28.7-28.7
	C368,76.4,355.2,63.5,339.3,63.5z M653.1,192.6c-2.9,0.8-6.5,0.8-9.8,1.2c17.5,37.8,26.4,74.6,26.4,114c0,17.3-1.6,34.5-4.6,51.4
	c0,1.9,0,93.9,0,93.9c0,28.1-12.5,46.9-31.1,46.9h-48.2c-20.5,0-26.9-28.5-29.1-47.7c-10.7,0-22.3,0.1-22.3,0.1l-13-0.3H159.5
	l-13.3,0.3c0,0-9.4,0-18.6,0c-2,19.2-8.6,47.6-29.1,47.6H50.3c-18.6,0-31.1-18.9-31.1-46.9c0,0,0-75.3,0-77.7
	c-5.3-21.5-8.2-44.7-8.2-67.5c0-39.4,8.8-76.2,26.2-113.9c-3.7-0.4-7.7-0.4-10.7-1.4C9,187.4,0,175.7,0,157.8
	c0-20.9,11.8-34.5,32.5-37c24.3-3,35.9-1.2,43.9,3.8c1.5-2.6,4.3-7.3,4.3-7.3c23.4-39.8,47.6-81.1,67.7-95.9
	C169.2,6.1,221-0.5,316.6,0h6.4H358h6.5c95.4-0.5,147.2,6.1,167.8,21.3c20,14.8,44,55.7,67.1,95.4c0,0,2.9,4.6,4.5,7.5
	c7.9-4.6,19.4-6.3,43.2-3.3c20.7,2.6,32.5,16,32.5,37C679.5,175.7,670.7,187.4,653.1,192.6z M145.4,350.1
	c0-24.5-19.8-44.3-44.2-44.3c-24.5,0-44.2,19.8-44.2,44.3s19.8,44.3,44.2,44.3S145.4,374.6,145.4,350.1z M160.1,166.8
	c-17.4,6.9-31.4,21.1-38.1,39.3h38.1V166.8z M247.5,206.1c-6.7-18.3-20.8-32.6-38.6-39.5v39.5H247.5z M314.6,166.8
	c-17.4,6.9-31.4,21.1-37.9,39.3h37.9V166.8z M401.4,204.3c-6.9-17.5-20.8-31.1-37.9-37.8v39.5h5.4v-0.1h32.3
	C401.2,205.4,401.3,204.8,401.4,204.3z M468.2,166.8c-16.9,6.8-30.6,20.2-37.4,37.5c0.1,0.5,0.1,1.1,0.3,1.6h37.1V166.8z
	 M492.9,134.2c42.7,0,80.3,28.8,91.3,70.1c0.1,0.5,0.3,1.2,0.3,1.9h30.8c-2.4-5.2-4.9-10.3-7.7-15.5c-7.5-12.6-34.7-58.3-34.7-58.3
	c-18.5-31.7-43.9-75-58.8-86c-8.2-6-38.3-15.9-149.5-15.4H358H323h-6.7c-111.4-0.5-141.6,9.4-149.8,15.4
	c-15.1,11.1-40.8,54.9-59.4,86.8c0,0-26.5,44.3-33.6,56.3c-3,5.7-5.8,11.3-8.4,16.9h27.9c0.1-0.5,0.1-1.2,0.3-1.9
	c11-41.3,48.7-70.1,91.3-70.1c31.4,0,59.9,15.6,77.2,40.1c17.4-24.6,45.9-40.1,77.3-40.1c31,0,59.3,15.2,76.6,39.4
	C433.5,149.4,461.8,134.2,492.9,134.2z M551.6,205.9v0.1h3.8c-6.7-18.3-20.9-32.6-38.6-39.5v39.4H551.6z M622.5,350.1
	c0-24.5-19.8-44.3-44.2-44.3c-24.5,0-44.2,19.8-44.2,44.3s19.8,44.3,44.2,44.3S622.5,374.6,622.5,350.1z"/>
</svg>
