<?xml version="1.0" encoding="utf-8"?>

<svg version="1.1" id="Calque_1" xmlns="http://www.w3.org/2000/svg" xmlns:xlink="http://www.w3.org/1999/xlink" x="0px" y="0px"
	 viewBox="0 0 500 500" style="enable-background:new 0 0 500 500;" xml:space="preserve">
<style type="text/css">
	.st0{fill-rule:evenodd;clip-rule:evenodd;fill:#0F87C9;}
	.st1{fill:#0F87C9;}
</style>
<g>
	<path class="st1" d="M250,0C111.9,0,0,112,0,250c0,138.1,111.9,250,250,250c138.1,0,250-111.9,250-250C500,112,388.1,0,250,0z
		 M209.7,389.4h-58.6v-217c-9.4,7.4-37.2,21.9-47.3,27l-14.5,7.5l-18.7-42.3l16.8-7.8c32.1-15.2,61.8-33.7,74.4-43.4h48V389.4z
		 M376.8,389.4h-58.7v-217c-9.4,7.4-37.1,21.9-47.3,27l-14.5,7.5l-18.8-42.3l16.8-7.8c32.1-15.2,61.8-33.7,74.3-43.4h48V389.4z"/>
</g>
</svg>
