<?xml version="1.0" encoding="utf-8"?>

<svg version="1.1" id="Calque_1" xmlns="http://www.w3.org/2000/svg" xmlns:xlink="http://www.w3.org/1999/xlink" x="0px" y="0px"
	 width="500px" height="500px" viewBox="0 0 500 500" style="enable-background:new 0 0 500 500;" xml:space="preserve">
<style type="text/css">
	.st0{fill:#0F87C9;}
</style>
<path class="st0" d="M249.9,37.1c-117.1,0-212.7,95.3-212.7,213.2c0,117.2,95.6,212.5,212.7,212.5c117.4,0,212.8-95.3,212.8-212.5
	C462.7,132.5,367.2,37.1,249.9,37.1 M249.9,500C111.9,500,0,388.3,0,250.3C0,111.6,111.9,0,249.9,0C388.1,0,500,111.6,500,250.3
	C500,388.3,388.1,500,249.9,500"/>
<polygon class="st0" points="324.9,372.5 324.9,330.6 227.1,330.6 227.1,269.4 316.7,269.4 316.7,229.1 227.1,229.1 227.1,181.3
	319.8,181.3 319.8,139.2 175.2,139.2 175.2,372.5 "/>
</svg>
