<svg viewBox="0 0 500 500"><path d="M265.3 337.6c33.8 0 56.4-19.4 56.4-59.2V174.5c0-8.6-8.6-13.1-16.9-13.1-8.9 0-16.9 4.5-16.9 13.1v99.4c0 20.1-6.4 33.1-22.6 33.1-15.6 0-23.2-12.4-23.2-33.1v-99.4c0-8.6-9.6-13.1-17.5-13.1-9.2 0-17.5 4.5-17.5 13.1v103.2c-.1 41.1 20.6 59.9 58.2 59.9zm77.4-6.7c7.6 3.8 20.7 6.7 32.5 6.7 30.6 0 55.7-20.7 55.7-53.2 0-25.5-14.3-40.4-32.5-50.6l-13.7-7.3c-8.3-4.5-15-11.1-15-20.1 0-9.9 8-16.9 20.1-16.9 8 0 15.6 3.2 21.3 5.4 8.9 4.5 14.3-1.3 16.9-10.5 3.2-10.5-1.3-14.3-8.9-18.2-7.3-3.8-18.2-6.4-28.7-6.4-29.3 0-53.8 19.4-53.8 50.6 0 24.2 12.4 37.9 32.5 49.4l14.3 8c8.9 5.1 14.3 11.8 14.3 21.3 0 11.8-11.1 17.5-22.6 17.5-8.6 0-19.4-3.8-24.8-6.4-9.2-4.5-14.3 1.3-17.5 11.1-3.2 11.3 1.6 15.8 9.9 19.6zM250.6 500C388.9 500 500 389.5 500 251.3 500 112.4 383.8 0 250.6 0 112.4 0 0 112.4 0 251.3 0 388.2 112.7 500 250.6 500zm0-465.9c118.2 0 215 98.7 215 217.5 0 117.5-96.8 214.3-215 214.3-118.8 0-216.2-96.2-216.2-214.3 0-119.4 97.8-217.5 216.2-217.5zm-59.8 251.6c0-29-20.1-39.5-30.6-41.1v-.6c12.4-6.4 27.7-18.2 27.7-39.5 0-28.7-25.2-42.4-49.4-42.4H91.7c-8.6 0-13.7 7-13.7 14.3v146.2c0 8.9 8.9 13.4 16.9 13.4h44.3c26.7-.3 51.6-14.7 51.6-50.3zm-79.3-94.9h13.1c15 0 28 5.1 28 22 0 16.2-13.7 22-28 22h-13.1v-44zm1.9 116.2v-48.7h15c12.4 0 29.3 4.5 29.3 23.6 0 16.9-9.6 24.8-29.3 24.8h-15v.3z" fill="#0088ce"/></svg>