<svg viewBox="0 0 679.6 500"><path d="M521.6 92.3c0 15.9-12.9 28.7-28.7 28.7-15.9 0-28.8-12.9-28.8-28.7 0-15.9 12.9-28.8 28.8-28.8 15.8 0 28.7 12.9 28.7 28.8zM184.8 63.5c-15.9 0-28.8 12.9-28.8 28.8s12.9 28.7 28.8 28.7 28.7-12.9 28.7-28.7c0-15.9-12.8-28.8-28.7-28.8zm154.5 0c-15.9 0-28.8 12.9-28.8 28.8s12.9 28.7 28.8 28.7S368 108.1 368 92.3c0-15.9-12.8-28.8-28.7-28.8zm313.8 129.1c-2.9.8-6.5.8-9.8 1.2 17.5 37.8 26.4 74.6 26.4 114 0 17.3-1.6 34.5-4.6 51.4v93.9c0 28.1-12.5 46.9-31.1 46.9h-48.2c-20.5 0-26.9-28.5-29.1-47.7-10.7 0-22.3.1-22.3.1l-13-.3H159.5l-13.3.3h-18.6c-2 19.2-8.6 47.6-29.1 47.6H50.3c-18.6 0-31.1-18.9-31.1-46.9v-77.7c-5.3-21.5-8.2-44.7-8.2-67.5 0-39.4 8.8-76.2 26.2-113.9-3.7-.4-7.7-.4-10.7-1.4C9 187.4 0 175.7 0 157.8c0-20.9 11.8-34.5 32.5-37 24.3-3 35.9-1.2 43.9 3.8 1.5-2.6 4.3-7.3 4.3-7.3 23.4-39.8 47.6-81.1 67.7-95.9C169.2 6.1 221-.5 316.6 0h47.9c95.4-.5 147.2 6.1 167.8 21.3 20 14.8 44 55.7 67.1 95.4 0 0 2.9 4.6 4.5 7.5 7.9-4.6 19.4-6.3 43.2-3.3 20.7 2.6 32.5 16 32.5 37-.1 17.8-8.9 29.5-26.5 34.7zM145.4 350.1c0-24.5-19.8-44.3-44.2-44.3-24.5 0-44.2 19.8-44.2 44.3s19.8 44.3 44.2 44.3 44.2-19.8 44.2-44.3zm14.7-183.3c-17.4 6.9-31.4 21.1-38.1 39.3h38.1v-39.3zm87.4 39.3c-6.7-18.3-20.8-32.6-38.6-39.5v39.5h38.6zm67.1-39.3c-17.4 6.9-31.4 21.1-37.9 39.3h37.9v-39.3zm86.8 37.5c-6.9-17.5-20.8-31.1-37.9-37.8V206h5.4v-.1h32.3c0-.5.1-1.1.2-1.6zm66.8-37.5c-16.9 6.8-30.6 20.2-37.4 37.5.1.5.1 1.1.3 1.6h37.1v-39.1zm24.7-32.6c42.7 0 80.3 28.8 91.3 70.1.1.5.3 1.2.3 1.9h30.8c-2.4-5.2-4.9-10.3-7.7-15.5l-34.7-58.3c-18.5-31.7-43.9-75-58.8-86-8.2-6-38.3-15.9-149.5-15.4H316.3c-111.4-.5-141.6 9.4-149.8 15.4-15.1 11.1-40.8 54.9-59.4 86.8 0 0-26.5 44.3-33.6 56.3-3 5.7-5.8 11.3-8.4 16.9H93c.1-.5.1-1.2.3-1.9 11-41.3 48.7-70.1 91.3-70.1 31.4 0 59.9 15.6 77.2 40.1 17.4-24.6 45.9-40.1 77.3-40.1 31 0 59.3 15.2 76.6 39.4 17.8-24.4 46.1-39.6 77.2-39.6zm58.7 71.7v.1h3.8c-6.7-18.3-20.9-32.6-38.6-39.5v39.4h34.8zm70.9 144.2c0-24.5-19.8-44.3-44.2-44.3-24.5 0-44.2 19.8-44.2 44.3s19.8 44.3 44.2 44.3 44.2-19.8 44.2-44.3z" fill="#0088ce"/></svg>