<svg version="1.1" id="Calque_1" x="0" y="0" xml:space="preserve" viewBox="0 0 500 500"><path d="M250.1 37.3c-117.4 0-212.8 95.2-212.8 213.3 0 116.9 95.5 212.2 212.8 212.2 117.2 0 212.8-95.3 212.8-212.2-.1-118.1-95.6-213.3-212.8-213.3m0 462.7C111.8 500 0 388.4 0 250.6 0 111.7 111.8 0 250.1 0 388.2 0 500 111.7 500 250.6 500 388.4 388.2 500 250.1 500" fill="#0f87c9"/><path d="M341.4 360.6l-13.3-40c-11.6 6.7-28.4 12.5-47 12.5-36.8 0-68.9-28.4-68.9-77.2 0-37 16.6-79.4 65.3-79.4 14.9 0 31.8 4.5 47.1 12.8l16.9-42.7c-16.9-7.6-38.1-13.5-67-13.5-78.4 0-115.8 59.1-115.8 124.3 0 68.6 44.7 119.2 115.8 119.2 22.8 0 50-7.6 66.9-16" fill="#0f87c9"/></svg>