<svg version="1.1" id="Calque_1" x="0" y="0" xml:space="preserve" viewBox="0 0 500 500"><path d="M258.3 129.4h53.1v150c0 67.6-32.2 91.2-83.6 91.2-12.6 0-28.7-2.1-39.2-5.7l6-43.3c7.3 2.4 16.8 4.2 27.3 4.2 22.4 0 36.5-10.2 36.5-46.8V129.4h-.1z" fill="#0f87c9"/><path d="M34.4 416.1V83.9c0-27.2 22-49.3 49-49.3h333.1c27.1 0 49.1 22.2 49.1 49.3v332.2c0 27.2-22 49.4-49.1 49.4H83.4c-27 0-49-22.2-49-49.4M83.4 0C37.5 0 0 37.7 0 83.9v332.2C0 462.4 37.5 500 83.4 500h333.1c46 0 83.4-37.6 83.4-83.9V83.9C500 37.7 462.6 0 416.6 0H83.4z" fill="#0f87c9"/></svg>