<svg version="1.1" id="Calque_1" x="0" y="0" viewBox="0 0 500 500" xml:space="preserve"><path d="M250 0C111.9 0 0 111.9 0 250c0 138 111.9 250 250 250s250-111.9 250-250S388.1 0 250 0zm-53.6 389.4h-58.6v-217c-9.4 7.4-37.2 21.9-47.4 27l-14.5 7.5-18.7-42.3 16.8-7.8c32-15.3 61.8-33.6 74.3-43.4h48.1v276zm225 0h-179v-36.3c7-32.1 38.7-60.2 75.5-92.3 18.4-16.1 38.3-35.2 38.3-61.8 0-23.8-15.6-43-45.7-43-24.3 0-41.1 17.6-47.8 25l-28.9-38.3c26.6-23.1 51.3-34 88.4-34 48.5 0 94.3 27.4 94.3 83.7 0 47.3-30.1 68.9-63.4 98.9-14 13-41.9 36-45.3 52h113.8v46.1z" fill="#0f87c9"/></svg>