<?xml version="1.0" encoding="utf-8"?>

<svg version="1.1" id="Calque_1" xmlns="http://www.w3.org/2000/svg" xmlns:xlink="http://www.w3.org/1999/xlink" x="0px" y="0px"
	 viewBox="0 0 500 500" style="enable-background:new 0 0 500 500;" xml:space="preserve">
<style type="text/css">
	.st0{fill-rule:evenodd;clip-rule:evenodd;fill:#0F87C9;}
	.st1{fill:#0F87C9;}
</style>
<g>
	<path class="st1" d="M250,0C111.9,0,0,111.9,0,250c0,138,111.9,250,250,250c138.1,0,250-111.9,250-250C500,111.9,388.1,0,250,0z
		 M196.4,389.4h-58.6v-217c-9.4,7.4-37.2,21.9-47.4,27l-14.5,7.5l-18.7-42.3l16.8-7.8c32-15.3,61.8-33.6,74.3-43.4h48.1V389.4z
		 M421.4,389.4h-179v-36.3c7-32.1,38.7-60.2,75.5-92.3c18.4-16.1,38.3-35.2,38.3-61.8c0-23.8-15.6-43-45.7-43
		c-24.3,0-41.1,17.6-47.8,25l-28.9-38.3c26.6-23.1,51.3-34,88.4-34c48.5,0,94.3,27.4,94.3,83.7c0,47.3-30.1,68.9-63.4,98.9
		c-14,13-41.9,36-45.3,52h113.8V389.4z"/>
</g>
</svg>
