<?xml version="1.0" encoding="utf-8"?>

<svg version="1.1" id="Calque_1" xmlns="http://www.w3.org/2000/svg" xmlns:xlink="http://www.w3.org/1999/xlink" x="0px" y="0px"
	 width="500px" height="500px" viewBox="0 0 500 500" style="enable-background:new 0 0 500 500;" xml:space="preserve">
<style type="text/css">
	.st0{fill:#0F87C9;}
</style>
<path class="st0" d="M250.1,37.3c-117.4,0-212.8,95.2-212.8,213.3c0,116.9,95.5,212.2,212.8,212.2c117.2,0,212.8-95.3,212.8-212.2
	C462.8,132.5,367.3,37.3,250.1,37.3 M250.1,500C111.8,500,0,388.4,0,250.6C0,111.7,111.8,0,250.1,0C388.2,0,500,111.7,500,250.6
	C500,388.4,388.2,500,250.1,500"/>
<path class="st0" d="M341.4,360.6l-13.3-40c-11.6,6.7-28.4,12.5-47,12.5c-36.8,0-68.9-28.4-68.9-77.2c0-37,16.6-79.4,65.3-79.4
	c14.9,0,31.8,4.5,47.1,12.8l16.9-42.7c-16.9-7.6-38.1-13.5-67-13.5c-78.4,0-115.8,59.1-115.8,124.3c0,68.6,44.7,119.2,115.8,119.2
	C297.3,376.6,324.5,369,341.4,360.6"/>
</svg>
