<svg version="1.1" id="Calque_1" x="0" y="0" viewBox="0 0 500 500" xml:space="preserve"><path id="_x33__1_" d="M174.1 389.2c-38 0-59-9.5-76.5-19.9l21-41c11 8 29.5 17.5 52 17.5 30.5 0 50-18 50-40.5 0-30.5-23.5-41-50.6-41h-27.5v-44h28c25.9 0 42-12.9 42-33.4 0-17-12.5-32.5-40.6-32.5-24.4 0-40.4 11.4-49 18.9l-19.4-38.9c22.4-15 47-23.5 80.4-23.5 54.1 0 84.5 32 84.5 67.5 0 27.5-14.5 49-42.5 59.5v1c29.1 5.5 51.5 28 51.5 64.9.1 46.4-41.9 85.4-103.3 85.4" fill="#0f87c9"/><path id="b" d="M429.4 236.6c0-34.1-15.3-72.6-52.3-72.6-17.9 0-28.8 9.5-38.3 23.2v-73.7h-37.2v195.4h35.9v-7.4c7.1 6.6 19.5 10.8 30.1 10.8 45.1 0 61.8-44.1 61.8-75.7m-38.8 5.2c0 19.3-5.3 44.1-29 44.1-16.9 0-22.7-8.7-22.7-18.5v-46.2c0-8.2.8-12.1 7.1-18.2 4-3.9 9.8-7.1 17.1-7.1 23.5 0 27.4 26.9 27.5 45.9" fill="#0f87c9"/><path d="M500 250c0 138.9-111.7 250-249.5 250C112.6 500 0 388.3 0 250 0 112.6 112.6 0 250.5 0 383.9 0 500 112 500 250m-34 .2c0-119.1-97.1-215.8-215.5-215.8-118.9 0-215.9 96.7-215.9 215.8 0 119.5 97 215.7 215.9 215.7 118.4 0 215.5-96.7 215.5-215.7" fill="#0f87c9"/></svg>