<?xml version="1.0" encoding="utf-8"?>
<svg version="1.1" id="Calque_1" xmlns="http://www.w3.org/2000/svg" xmlns:xlink="http://www.w3.org/1999/xlink" x="0px" y="0px"
	 viewBox="0 0 500 500" style="enable-background:new 0 0 500 500;" xml:space="preserve">
<style type="text/css">
	.st0{fill:#0F87C9;}
</style>

<path id="_x33_" class="st0" d="M174.1,389.2c-38,0-59-9.5-76.5-19.9l21-41c11,8,29.5,17.5,52,17.5c30.4,0,50-18,50-40.5
	c0-30.5-23.5-41-50.6-41h-27.5v-44h28c25.9,0,42-12.9,42-33.4c0-17-12.5-32.5-40.5-32.5c-24.4,0-40.4,11.4-49,19l-19.4-39
	c22.4-15,47-23.5,80.4-23.5c54.1,0,84.5,32,84.5,67.5c0,27.5-14.5,49-42.5,59.5v1c29.1,5.5,51.5,27.9,51.5,64.9
	C277.5,350.3,235.5,389.2,174.1,389.2"/>
<path id="a" class="st0" d="M421.7,305.7l-2.1-24c-1.6,0.5-4.5,1.3-6.1,1.3c-4.5,0-5-4.2-5-9.2v-63.4c0-40.6-31.9-47.8-51.7-47.8
	c-22.7,0-39.6,4.2-56.2,14.8l12.1,25.6c6.1-5.3,18.5-12.9,34.9-12.9c17.7,0,25.9,7.1,25.9,18v9.8c0,4.8-3.4,5-9.2,5
	c-31.1,0-71.3,7.4-71.3,45.7c0,24,16.9,42.5,41.7,42.5c19.3,0,30.1-7.4,41.7-21.1c2.1,11.1,8.7,19.3,21.9,19.3
	C406.9,309.2,416.1,307.1,421.7,305.7 M373.1,259c0,6.9-1.9,12.1-6.1,16.6c-4.8,5-11.6,7.6-19.8,7.6c-10.3,0-17.7-7.4-17.7-17.7
	c0-16.9,19.5-20.1,32.5-20.1c4,0,7.9-0.3,11.1,0"/>
<path class="st0" d="M500,250c0,138.9-111.7,250-249.5,250C112.6,500,0,388.3,0,250C0,112.6,112.6,0,250.5,0
C383.9,0,500,112,500,250 M466,250.2c0-119.1-97.1-215.8-215.5-215.8c-118.9,0-215.9,96.7-215.9,215.8
c0,119.5,97,215.7,215.9,215.7C368.9,465.9,466,369.2,466,250.2"/>
</svg>
