<svg version="1.1" id="Calque_1" x="0" y="0" viewBox="0 0 500 500" xml:space="preserve"><path id="border" d="M87.5 0C39.2 0 0 39.2 0 87.5v325C0 460.8 39.2 500 87.5 500h325c48.3 0 87.5-39.2 87.5-87.5v-325C500 39.2 460.8 0 412.5 0h-325zm0 37.5h325c27.6 0 50 22.4 50 50v325c0 27.6-22.4 50-50 50h-325c-27.6 0-50-22.4-50-50v-325c0-27.6 22.4-50 50-50z" fill="#0f87c9"/><path id="tens" d="M166.6 380V175.3c-8.9 7-35 20.6-44.6 25.5l-13.7 6.9-17.6-39.8 15.9-7.4c30.2-14.4 58.2-31.7 70-41H222V380h-55.4" fill="#0f87c9"/><path id="units" d="M314.7 386.6c-37.4 0-58-9.3-75.2-19.6l20.6-40.3c10.8 7.9 29 17.2 51.1 17.2 29.9 0 49.1-17.7 49.1-39.8 0-29.9-23.1-40.3-49.7-40.3h-27v-43.2h27.5c25.5 0 41.2-12.7 41.2-32.9 0-16.7-12.3-31.9-39.9-31.9-24 0-39.7 11.2-48.1 18.6l-19.1-38.3c22.1-14.8 46.2-23.1 79-23.1 53.1 0 83.1 31.5 83.1 66.3 0 27-14.3 48.2-41.8 58.5v1c28.5 5.4 50.6 27.5 50.6 63.8.2 45.7-41.1 84-101.4 84" fill="#0f87c9"/></svg>