<svg version="1.1" id="Calque_1" x="0" y="0" viewBox="0 0 500 500" xml:space="preserve"><path d="M0 250C0 111.9 111.9 0 250 0s250 111.9 250 250c0 138-111.9 250-250 250S0 388 0 250m194.2 139.4v-276H146c-12.5 9.8-42.1 28.2-74.2 43.4L55 164.6l18.8 42.2 14.5-7.4c10.2-5.1 37.9-19.6 47.3-27v217h58.6zm225.4-81.8c0-38.7-23.1-61.4-53.6-67.2v-.8c29.3-10.9 44.6-32.8 44.6-61.3 0-36.8-32.1-69.6-88.4-69.6-32.5 0-59.1 9-82.9 24.6l19.1 40.7c9-7.8 25.9-19.9 51.3-19.9 28.9 0 42.2 15.2 42.2 32.9 0 21.1-16.9 34.4-43.8 34.4h-29v45.7h28.6c28.1 0 52.4 10.2 52.4 41.9 0 23.5-20 40.7-52 40.7-23.5 0-42.7-9-54.4-18l-21.1 42.7c22.3 12.5 43.8 20.8 79.3 20.8 64.3-.3 107.7-39.1 107.7-87.6" fill="#0f87c9"/></svg>