<svg version="1.1" id="Calque_1" x="0" y="0" viewBox="0 0 500 500" xml:space="preserve"><path d="M0 250C0 111.9 111.9 0 250 0s250 111.9 250 250c0 138-111.9 250-250 250S0 388.1 0 250m323.3 41.6c0-10.7-2.2-25.9-15.4-25.9-4.2 0-7.5 1.8-9.7 4-3.6 3.4-4.1 5.7-4.1 10.3v26.1c0 5.5 3.3 10.4 12.8 10.4 13.5 0 16.4-14 16.4-24.9m22-3c0-19.2-8.6-41-29.4-41-10.2 0-16.3 5.4-21.7 13.1v-41.5h-21v110.3h20.2v-4.2c4 3.7 11 6.1 17 6.1 25.5 0 34.9-24.8 34.9-42.8m39.8-38.7h-21v79.6h21v-79.6zm1.2-21.2c0-6.4-4.5-11-11.7-11-7.1 0-11.7 4.6-11.7 11 0 6.3 4.6 11 11.7 11 7.1.1 11.7-4.6 11.7-11m-151.1-91.1H57.7V180h123.2l-61.8 115c-12 22-20 39-24.1 51-4.8 14.3-7.2 29.5-7.2 45.3h57.8c0-37.8 29.8-108.6 89.5-212.4v-41.3zm224.7 168.1c0-12.1-7-18.7-17.7-22.7l-9.7-3.6c-5.1-1.8-8.4-3.8-8.4-7.9 0-4.8 4-7.6 11.1-7.6 5 0 11.5 1.8 16.1 4.8l6.4-15.4c-4.2-2.1-11.5-5.2-21.5-5.2-18.6 0-31.3 11.8-31.3 26.8 0 9.4 4.6 16.7 15.9 21l9.4 3.6c4.2 1.6 10.2 3.3 10.2 8.8 0 6.3-6.8 8-12.3 8-6.2 0-13.6-2.4-18.6-6l-6.4 15.7c4.5 2.6 13.4 6.1 23.4 6.1 20.9 0 33.4-10.9 33.4-26.4" fill="#0f87c9"/></svg>