<svg version="1.1" id="Calque_1" x="0" y="0" viewBox="0 0 500 500" xml:space="preserve"><path class="st1" d="M249.8-.4C111.7-.4 0 111.2 0 250.5c0 138.1 111.7 249.9 249.8 249.9H250.7c121.1 0 221.5-85.1 244.2-199.2 3.4-16.4 5.2-33.3 5.2-50.7C500 111.2 388.1-.4 249.8-.4zm0 463.5c-117.3 0-212.5-95.5-212.5-212.7 0-118.1 95.2-213.6 212.5-213.6 117.4 0 212.9 95.5 212.9 213.6 0 117.3-95.4 212.7-212.9 212.7z"/><path class="st1" d="M347.3 137.1H153.4c-11 0-17.1 9.2-17.1 19 0 8.6 6.1 18.9 17.1 18.9H228v200.7c0 11 11.6 17.1 22 17.1 11.6 0 22.6-6.1 22.6-17.1V175h74.6c11 0 17.1-10.3 17.1-18.9.1-9.8-6-19-17-19z"/></svg>