<?xml version="1.0" encoding="utf-8"?>

<svg version="1.1" id="Calque_1" xmlns="http://www.w3.org/2000/svg" xmlns:xlink="http://www.w3.org/1999/xlink" x="0px" y="0px"
	 width="500px" height="500px" viewBox="0 0 500 500" style="enable-background:new 0 0 500 500;" xml:space="preserve">
<style type="text/css">
	.st0{fill:#0F87C9;}
</style>
<polygon class="st0" points="152.9,131.4 152.9,368.6 206,368.6 206,269.6 293.9,269.6 293.9,368.6 347.2,368.6 347.2,131.4
	293.9,131.4 293.9,222.9 206,222.9 206,131.4 "/>
<path class="st0" d="M34.4,416V83.9c0-27.3,22-49.4,49-49.4h333.1c27.1,0,49.1,22.2,49.1,49.4V416c0,27.3-22,49.5-49.1,49.5h-333
	C56.4,465.5,34.4,443.3,34.4,416 M83.5,0C37.5,0,0,37.6,0,83.9V416c0,46.4,37.5,84,83.5,84h333.1c46,0,83.4-37.6,83.4-84V83.9
	C500,37.6,462.6,0,416.6,0H83.5z"/>
</svg>
