<svg version="1.1" id="Calque_1" x="0" y="0" viewBox="0 0 500 500" xml:space="preserve"><path d="M250 0C111.9 0 0 111.9 0 250s111.9 250 250 250 250-111.9 250-250S388.1 0 250 0zm0 468.8c-120.8 0-218.8-98-218.8-218.8S129.2 31.2 250 31.2s218.8 98 218.8 218.8-98 218.8-218.8 218.8z" fill="#0f87c9"/><path d="M247.1 118.4c-52.2-.2-85.9 36.8-85.9 87.5 0 47.5 33.7 75.1 75 75.1 26.9 0 43.1-9.7 51.6-17.3-3.2 51-29.4 76.5-64.2 76.5-14.3 0-27.3-3.3-34.1-6.2l-7.9 43.2c10.5 2.5 23.3 4.3 37.7 4.3 79.7 0 120.3-60.4 120.3-148.3.2-67.1-24.3-114.8-92.5-114.8zM284.8 227c-5.1 8-17.6 14.1-33.1 14.1-24.4 0-39.9-16.8-39.9-40.6 0-21.9 12.6-42.3 37-42.3 25.2 0 38.8 23.3 38.8 47.4 0 7.4 0 17.1-2.8 21.4z" fill="#0f87c9"/></svg>