<svg version="1.1" id="Calque_1" x="0" y="0" viewBox="0 0 500 500" xml:space="preserve"><path class="st1" d="M500 250c0 138.9-111.7 250-249.5 250C112.6 500 0 388.4 0 250 0 112.7 112.6 0 250.5 0 383.9 0 500 112.1 500 250m-34 .2c0-119-97.1-215.6-215.5-215.6-118.9 0-215.9 96.6-215.9 215.6 0 119.6 97 215.7 215.9 215.7 118.4 0 215.5-96.6 215.5-215.7"/><path class="st1" d="M252.7 288.7h-76.4l55.9-87.6c10.8-17.1 18.6-33.7 19.8-38.4h.8v126zm86.4 42.7v-42.6h-33.7V114.6h-69.8l-106.3 166v50.8h123.4v57h52.7v-57"/></svg>