<?xml version="1.0" encoding="utf-8"?>

<svg version="1.1" id="Calque_1" xmlns="http://www.w3.org/2000/svg" xmlns:xlink="http://www.w3.org/1999/xlink" x="0px" y="0px"
	 viewBox="0 0 500 500" style="enable-background:new 0 0 500 500;" xml:space="preserve">
<style type="text/css">
	.st0{fill-rule:evenodd;clip-rule:evenodd;fill:#0F87C9;}
	.st1{fill:#0F87C9;}
</style>
<g>
	<g>
		<path class="st1" d="M0,250C0,112,111.9,0,250,0c138.1,0,250,112,250,250c0,138-111.9,250-250,250C111.9,500,0,388.1,0,250
			 M343.5,288.6c0-19.2-8.6-41-29.5-41c-10.1,0-16.3,5.3-21.6,13.1v-41.5h-21v110.2h20.2v-4.1c4.1,3.7,11.1,6.1,17,6.1
			C334.1,331.4,343.5,306.5,343.5,288.6 M321.6,291.6c0-10.7-2.2-25.9-15.5-25.9c-4.1,0-7.4,1.8-9.7,4c-3.5,3.4-4,5.7-4,10.3v26
			c0,5.5,3.3,10.5,12.8,10.5C318.6,316.5,321.6,302.5,321.6,291.6 M383.3,249.9h-21.1v79.6h21.1V249.9z M384.5,228.8
			c0-6.5-4.4-11.1-11.6-11.1c-7.1,0-11.7,4.6-11.7,11.1c0,6.4,4.6,11,11.7,11C380.1,239.8,384.5,235.1,384.5,228.8 M225,316.2
			c0-17-4.6-31.2-14-42.4c-8.8-10.3-20.6-16.8-35.2-19.4v-0.8c27.3-10.3,40.9-29.1,40.9-56.4c0-17.7-7-32.6-21.2-44.5
			c-15-12.9-35.1-19.4-60-19.4c-27.8,0-53.2,7.5-76.2,22.6l17.6,37.3C91,181.1,106.8,175,124,175c12.7,0,22.5,3,29.5,9
			c6.2,5.5,9.3,12.5,9.3,21.2c0,9.5-3.6,17.2-10.9,23c-7.4,5.7-17.1,8.6-29.3,8.6H96v42h26.2c32,0,48.2,12.8,48.2,38.4
			c0,10.8-4.4,19.7-13.2,26.8c-8.7,7.1-20.3,10.6-34.7,10.6c-18.9,0-35.6-5.5-49.9-16.6l-19.4,39.2c22.7,12.7,47.1,19,72.9,19
			c28.9,0,52.7-7.6,71.1-23C215.7,358,225,338.9,225,316.2 M458.1,305.7c0-12.1-7-18.7-17.7-22.6l-9.7-3.7c-5.1-1.7-8.3-3.7-8.3-7.9
			c0-4.7,4-7.6,11-7.6c5.1,0,11.5,1.8,16.1,4.8l6.4-15.3c-4.2-2.1-11.5-5.3-21.4-5.3c-18.7,0-31.3,11.8-31.3,26.8
			c0,9.5,4.6,16.7,15.9,21l9.4,3.6c4.2,1.6,10.1,3.2,10.1,8.8c0,6.2-6.7,8-12.2,8c-6.2,0-13.6-2.4-18.6-6l-6.4,15.7
			c4.5,2.7,13.5,6.1,23.4,6.1C445.6,332.2,458.1,321.2,458.1,305.7"/>
	</g>
</g>
</svg>
