<?xml version="1.0" encoding="utf-8"?>

<svg version="1.1" id="Calque_1" xmlns="http://www.w3.org/2000/svg" xmlns:xlink="http://www.w3.org/1999/xlink" x="0px" y="0px"
	 viewBox="0 0 500 500" style="enable-background:new 0 0 500 500;" xml:space="preserve">
<style type="text/css">
	.st0{fill-rule:evenodd;clip-rule:evenodd;fill:#0F87C9;}
	.st1{fill:#0F87C9;}
</style>
<g>
	<g>
		<path class="st1" d="M0,250C0,111.9,111.9,0,250,0c138.1,0,250,111.9,250,250c0,138-111.9,250-250,250C111.9,500,0,388,0,250
			 M343.9,301.4c0-41.5-30.5-83.3-105.9-87.3l-7.8-0.4l3.9-52.9h99.4v-45.7H188.3l-11,143.5l43.1,0.4c50.8,0.4,64.2,27.8,64.2,47.7
			c0,32.5-27,44.6-48.5,44.6c-23.5,0-39.2-8.6-52.4-17.6l-20.3,43c21.5,12.1,46.5,19.9,75.8,19.9
			C302.1,396.7,343.9,354.1,343.9,301.4"/>
	</g>
</g>
</svg>
