<svg viewBox="0 0 368 500"><path d="M25.2 495.2L49.6 468h269l24.4 27.2c5.7 6.4 15.1 6.4 20.8 0 5.7-6.4 5.7-16.8 0-23.1l-70.7-78.7c1.6-1.1 3.2-2.3 4.3-3.4 13.1-10.6 25.3-26.9 34.2-52.1 12.4-35.4 21.2-67 23.7-105.9 3.3-48-16.4-122.5-29.4-157.2l-4.6-12.3c-2.8-7.8-13.5-24.4-32.5-44.2C272.3 1.2 256.6 0 232.7 0h-97.2c-23.9 0-39.6 1.2-56 18.3-19 19.8-29.7 36.4-32.6 44.2l-4.6 12.3C29.3 109.5 9.6 184 12.9 232c2.4 38.8 11.2 70.3 23.7 105.8 8.9 25.3 21.1 41.6 34.2 52.1 1.2 1.1 2.7 2.2 4.4 3.3L4.4 472c-5.8 6.4-5.8 16.8 0 23.1 5.8 6.5 15.1 6.5 20.8.1zM79 435.3l26.1-29c12.7 2.9 24.4 2.9 32.9 2.9h92.1c8.5 0 20.2 0 32.9-2.9l26.1 29H79zm190.3-70.7c-13.4 0-24.3-10.9-24.3-24.3s10.9-24.3 24.3-24.3 24.3 10.9 24.3 24.3-10.9 24.3-24.3 24.3zm-220-155.9c-14.9 0 8.5-130.5 19.1-130.5h228.7c11.6 0 38.7 130.5 20.5 130.5H49.3zm24.8 131.6c0-13.4 10.9-24.3 24.3-24.3s24.3 10.9 24.3 24.3-10.9 24.3-24.3 24.3-24.3-10.9-24.3-24.3z" fill="#0088ce"/></svg>