<svg version="1.1" id="Calque_1" x="0" y="0" xml:space="preserve" viewBox="0 0 500 500"><path d="M34.4 416V83.9c0-27.3 22.1-49.4 49-49.4h333.1c27.1 0 49 22.1 49 49.4V416c0 27.2-21.9 49.4-49 49.4H83.4c-27 0-49-22.2-49-49.4m49-416C37.5 0 0 37.7 0 83.9V416c0 46.3 37.5 84 83.4 84h333.1c46 0 83.4-37.7 83.4-84V83.9C500 37.7 462.6 0 416.6 0H83.4z" fill="#0f87c9"/><path d="M213.8 237.5h20.9c26.7 0 42.4-13.3 42.4-34.2 0-21.4-14.7-32.7-39.2-32.7-12.9 0-20.3.7-24.1 1.7v65.2zm-52.9-101.7c17.2-3.2 42.4-5.3 71-5.3 35 0 59.5 5.3 76.3 19 14.3 11.2 22.1 27.8 22.1 49.6 0 29.9-21.4 50.7-41.7 58.1v1.1c16.5 6.7 25.6 22.2 31.5 44 7.3 27 14.3 58 18.8 67.1h-54.5c-3.5-6.7-9.5-26-16.1-55.2-6.7-29.9-16.8-37.7-38.9-38h-15.8v93.2h-52.9V135.8h.2z" fill="#0f87c9"/></svg>