<svg version="1.1" id="Calque_1" x="0" y="0" xml:space="preserve" viewBox="0 0 500 500"><path d="M34.5 416V84c0-27.4 21.9-49.5 49-49.5h333.1c27.1 0 49.1 22.1 49.1 49.5v332c0 27.3-22 49.4-49.1 49.4H83.5c-27.1 0-49-22.1-49-49.4m49-416C37.5 0 0 37.7 0 84v332c0 46.3 37.5 84 83.5 84h333.1c46 0 83.4-37.7 83.4-84V84c0-46.3-37.4-84-83.4-84H83.5z" fill="#0f87c9"/><path d="M152.3 368.5V131.3h62.3l49 87c14 25 27.7 54.5 38.5 81.3h.7c-3.1-31.3-4.2-63.3-4.2-99.2v-69.1h49v237.2h-56.1l-50.4-91.4c-14-25.8-29.7-56-41-83.7h-1.4c1.7 31.6 2.4 65.1 2.4 103.7v71.4h-48.8z" fill="#0f87c9"/></svg>