<svg viewBox="0 0 500 500"><path d="M250 0C111.9 0 0 112 0 250c0 138.1 111.9 250 250 250s250-111.9 250-250C500 112 388.1 0 250 0zm-15.7 395c-35.6 0-57.1-8.2-79.4-20.7l21.1-42.6c11.7 9 30.9 18 54.3 18 32.1 0 52-17.2 52-40.7 0-31.7-24.2-41.9-52.4-41.9h-28.5v-45.7h28.9c27 0 43.8-13.3 43.8-34.5 0-17.6-13.3-32.8-42.3-32.8-25.3 0-42.2 12.1-51.2 19.9l-19.2-40.7c23.8-15.7 50.5-24.6 82.9-24.6 56.3 0 88.4 32.8 88.4 69.6 0 28.6-15.3 50.5-44.6 61.4v.8c30.4 5.9 53.5 28.6 53.5 67.2.2 48.6-43.2 87.3-107.3 87.3z" fill="#0f87c9"/></svg>