<svg version="1.1" id="Calque_1" x="0" y="0" viewBox="0 0 500 500" xml:space="preserve"><path class="st1" d="M342.3 389.2v-45.1H231c3.4-15.6 30.6-38.1 44.4-50.8 32.5-29.3 62-50.4 62-96.5 0-55-44.8-81.7-92.2-81.7-36.4 0-60.5 10.6-86.5 33.2l28.3 37.4c6.5-7.3 23-24.4 46.7-24.4 29.4 0 44.8 18.8 44.8 42 0 26-19.6 44.7-37.5 60.4-36 31.3-67 58.7-73.8 90.1v35.5h175.1zM500 250c0 139-111.7 250-249.4 250C112.6 500 0 388.4 0 250 0 112.7 112.6 0 250.6 0 383.9 0 500 112.1 500 250m-33.9 0c0-118.9-97.2-215.5-215.5-215.5-118.9 0-216 96.6-216 215.5 0 119.3 97 215.4 215.9 215.4 118.3 0 215.6-96.6 215.6-215.4"/><path class="st1" d="M342.2 389v-45H231c3.5-15.6 30.6-38.1 44.3-50.7 32.5-29.3 61.9-50.4 61.9-96.5 0-54.9-44.7-81.6-92.1-81.6-36.3 0-60.4 10.7-86.4 33.2l28.3 37.4c6.5-7.3 22.9-24.5 46.7-24.5 29.4 0 44.7 18.7 44.7 42 0 25.9-19.5 44.6-37.4 60.3-36 31.3-66.9 58.7-73.8 90V389h175zm157.6-139c0 138.8-111.6 249.7-249.2 249.7C112.8 499.7.3 388.2.3 250 .3 112.8 112.8.3 250.6.3 383.7.3 499.8 112.2 499.8 250zm-34 0c0-118.8-97.1-215.3-215.2-215.3-118.8 0-215.8 96.5-215.8 215.3 0 119.2 97 215.1 215.7 215.1 118.2 0 215.3-96.4 215.3-215.1z"/></svg>