<svg viewBox="0 0 500 500"><path d="M335 335.7c9.2 0 16.5-4.3 16.5-12.9v-56h14.2l27.7 62.2c2.4 4.9 6.8 6.7 11.6 6.7 9.9 0 24-9.2 18.5-20.3L397.1 260c16-8 29.5-22.2 29.5-47.4 0-33.2-24.7-48.6-48.6-48.6h-46.1c-8.6 0-13.5 6.8-13.5 14.1v144.6c-.1 8.7 8.5 13 16.6 13zm16.5-143.4h11.8c15.4 0 29 6.8 29 24 0 20.9-19.1 25.9-30.8 25.9h-9.9v-49.9h-.1zM208.2 322.2v-144c0-7.4 4.9-14.1 13.5-14.1h62.8c8.6 0 13.5 8 13.5 15.4 0 6.8-4.9 15.4-13.5 15.4h-43.1v38.8h38.7c8.6 0 13.6 6.8 13.6 14.2 0 6.8-5 14.1-13.6 14.1h-38.7v42.5h46.7c8.7 0 13.6 8 13.6 15.4 0 6.8-4.9 15.4-13.6 15.4h-63.3c-8-.2-16.6-4.5-16.6-13.1zM96.8 335.7c9.2 0 16.6-4.3 16.6-12.9v-56h14.2l27.6 62.2c2.5 4.9 6.8 6.7 11.7 6.7 9.9 0 24-9.2 18.5-20.3L159 260c16-8 29.5-22.2 29.5-47.4 0-33.2-24.6-48.6-48.6-48.6H93.7c-8.6 0-13.5 6.8-13.5 14.1v144.6c0 8.7 8.6 13 16.6 13zm16.6-143.4h11.7c15.4 0 28.9 6.8 28.9 24 0 20.9-19.1 25.9-30.8 25.9h-9.8v-49.9zm136.4 308.1h.8c121.1 0 221.5-85.1 244.2-199.2 3.4-16.4 5.2-33.3 5.2-50.7C500 111.2 388.1-.4 249.8-.4 111.7-.4 0 111.2 0 250.5c0 138.1 111.7 249.9 249.8 249.9zm0-463.6c117.4 0 212.9 95.5 212.9 213.6 0 117.2-95.4 212.7-212.9 212.7-117.3 0-212.5-95.5-212.5-212.7 0-118 95.2-213.6 212.5-213.6z" fill="#0088ce"/></svg>