<svg version="1.1" id="Calque_1" x="0" y="0" xml:space="preserve" viewBox="0 0 500 500"><path d="M34.4 416V83.9c0-27.2 22-49.4 49.1-49.4h333.1c27 0 49.1 22.1 49.1 49.4V416c0 27.3-22 49.4-49.1 49.4H83.4c-27 0-49-22.1-49-49.4m49-416C37.4 0 0 37.7 0 83.9V416c0 46.3 37.4 84 83.4 84h333.1c46 0 83.4-37.7 83.4-84V83.9C500 37.7 462.6 0 416.6 0H83.4z" fill="#0f87c9"/><path d="M153.6 131.5h52.8v104.8h.7c5.3-9.2 10.8-17.6 16.4-26.1l53.2-78.8h65.8l-78 100.9 81.9 136.2h-61.9l-58.1-102.4-20 24.9v77.5h-52.8v-237z" fill="#0f87c9"/></svg>