<svg version="1.1" id="Calque_1" x="0" y="0" viewBox="0 0 500 500" xml:space="preserve"><path d="M250 0C111.9 0 0 111.9 0 250s111.9 250 250 250 250-111.9 250-250S388.1 0 250 0zm0 468.8c-120.8 0-218.8-98-218.8-218.8S129.2 31.2 250 31.2s218.8 98 218.8 218.8-98 218.8-218.8 218.8z" fill="#0f87c9"/><path d="M330.2 118.4c-76 .1-92.4 73.6-92.4 131.7s15 131.5 90.9 131.5 92.4-73.4 92.4-131.5-15-131.7-90.9-131.7zm-.8 221.2c-35.7 0-37.5-64.1-37.5-89.5 0-25.7 1-89.2 37.5-89.2 35.9 0 37 62.8 37 89.2.1 25-1.3 89.5-37 89.5zM94.2 163.1l-15.3 7.1L96 208.8l13.2-6.8c9.3-4.7 34.6-17.8 43.1-24.6v197.9h53.4V123.5H162c-11.4 8.9-38.5 25.6-67.8 39.6z" fill="#0f87c9"/></svg>