<?xml version="1.0" encoding="utf-8"?>

<svg version="1.1" id="Calque_1" xmlns="http://www.w3.org/2000/svg" xmlns:xlink="http://www.w3.org/1999/xlink" x="0px" y="0px"
	 viewBox="0 0 500 500" style="enable-background:new 0 0 500 500;" xml:space="preserve">
<style type="text/css">
	.st0{fill-rule:evenodd;clip-rule:evenodd;fill:#0F87C9;}
	.st1{fill:#0F87C9;}
</style>
<g>
	<g>
		<path class="st1" d="M0,250C0,111.9,111.9,0,250,0c138.1,0,250,111.9,250,250c0,138.1-111.9,250-250,250C111.9,500,0,388.1,0,250
			 M289.1,316.6c0-25.1-22.6-38.7-46.1-50.5c-18,7-36,25-36,46.5c0,22.7,14.9,44.2,41.5,44.2C274.7,356.9,289.1,338.4,289.1,316.6
			 M284.8,184c0-19.1-12.5-34.8-35.2-34.8c-21.5,0-35.2,13.4-35.2,32.5c0,22.7,22.7,34.8,40.3,42.2
			C269.2,217.3,284.8,201.2,284.8,184 M346.2,312.3c0-36.4-22.2-58.2-47.7-70.4c25.8-15.6,39.1-35.6,39.1-61.4
			c0-47.4-40.2-71.1-88.8-71.1c-47.3,0-88.7,31.6-88.7,77.4c0,28.6,14.9,45.3,38.7,60.2c-26.6,13.6-47.3,35.1-47.3,71.9
			c0,41.8,34.8,78.5,96.2,78.5C304.4,397.5,346.2,364.7,346.2,312.3"/>
	</g>
</g>
</svg>
