<?xml version="1.0" encoding="utf-8"?>

<svg version="1.1" id="DESKTOP" xmlns="http://www.w3.org/2000/svg" xmlns:xlink="http://www.w3.org/1999/xlink" x="0px" y="0px"
	 width="753px" height="500px" viewBox="0 0 753 500" style="enable-background:new 0 0 753 500;" xml:space="preserve">
<style type="text/css">
	.st0{fill:#0088CE;}
</style>
<path class="st0" d="M745.2,197.6L376.5,0L7.7,197.4c0,0-7.7,4.5-7.7,13.1c0,8.1,6.6,14.8,14.8,14.8h27V500h96.8V376.7
	c0-26.8,22-48.6,49.2-48.6s49.2,21.8,49.2,48.6V500h71.7V330.4c0-36.7,30.1-66.7,67.6-66.7s67.6,30.1,67.6,66.7V500h71.2V376.7
	c0-26.8,22-48.6,49.2-48.6s49.2,21.8,49.2,48.6V500h97.4V225.2h27.1c8.1,0,14.8-6.6,14.8-14.8C753,204.8,749.7,200.2,745.2,197.6z
	 M376.2,215.1c-38.1,0-69.6-31.6-69.6-70s31.5-70,69.6-70c39.2,0,70,31.8,70,70C446.4,183.3,415.4,215.1,376.2,215.1z"/>
</svg>
