<svg version="1.1" id="Calque_1" x="0" y="0" xml:space="preserve" viewBox="0 0 500 500"><path d="M250 37.3c-117.3 0-212.7 95.1-212.7 213 0 117.2 95.4 212.5 212.7 212.5 117.4 0 212.8-95.3 212.8-212.5 0-117.8-95.4-213-212.8-213m0 462.7C111.9 500 0 388.4 0 250.3 0 111.7 111.9 0 250 0s250 111.7 250 250.3C500 388.4 388.1 500 250 500" fill="#0f87c9"/><path d="M301.7 252.6c0 61.2-34.5 78.4-79.5 78.4h-25.4V178.7h23.6c32 0 81.3 8.6 81.3 73.9m53.3-3.2c0-109.8-97.1-111.5-141.9-111.5H145v233.4h65.8c71.7 0 144.2-19.9 144.2-121.9" fill="#0f87c9"/></svg>