<svg version="1.1" id="Calque_1" x="0" y="0" viewBox="0 0 500 500" xml:space="preserve"><path id="_x36_" d="M332.1 293.7c0-47.8-33.9-75.5-75.6-75.5-26.9 0-43.2 9.8-51.8 17.4 3.2-51.2 29.6-76.9 64.7-76.9 14.3 0 27.4 3.2 34.1 6.2l8-43.3c-10.5-2.6-23.5-4.3-37.9-4.3-80.1 0-120.9 60.5-120.9 149 0 67.5 24.5 115.6 93.1 115.6 52.4-.1 86.3-37.4 86.3-88.2m-50.9 5.4c0 21.9-12.6 42.5-37.2 42.5-25.3 0-38.9-23.5-38.9-47.7 0-7.5 0-17.3 2.9-21.6 5-8 17.7-14 33.2-14 24.4 0 40 16.9 40 40.8" fill="#0f87c9"/><path d="M500 250c0 138.9-111.7 250-249.5 250C112.6 500 0 388.3 0 250 0 112.6 112.6 0 250.5 0 383.9 0 500 112 500 250m-34 .2c0-119.1-97.1-215.8-215.5-215.8-118.9 0-215.9 96.7-215.9 215.8 0 119.5 97 215.7 215.9 215.7 118.4 0 215.5-96.7 215.5-215.7" fill="#0f87c9"/></svg>