<?xml version="1.0" encoding="utf-8"?>
<svg version="1.1" id="Calque_1" xmlns="http://www.w3.org/2000/svg" xmlns:xlink="http://www.w3.org/1999/xlink" x="0px" y="0px"
	 viewBox="0 0 500 500" style="enable-background:new 0 0 500 500;" xml:space="preserve">
<style type="text/css">
	.linetram1-1{fill:#0F87C9;}
</style>
<g>
	<g>
		<g>
			<path class="linetram1-1" d="M296.4,387.5V118h-47.1c-12.3,9.6-41.3,27.5-72.7,42.4l-16.4,7.7l18.3,41.2l14.2-7.3
				c9.9-5,37.1-19.1,46.3-26.4v211.8H296.4z M500,249.9c0,139-111.7,250.1-249.5,250.1C112.6,500,0,388.3,0,249.9
				C0,112.6,112.6,0,250.5,0C383.9,0,500,112,500,249.9 M466,249.9C466,131,368.9,34.5,250.5,34.5C131.7,34.5,34.6,131,34.6,249.9
				c0,119.4,97.1,215.5,215.9,215.5C368.9,465.4,466,368.8,466,249.9"/>
			<path class="linetram1-1" d="M296.4,387.5V118h-47.1c-12.3,9.6-41.3,27.5-72.7,42.4l-16.4,7.7l18.3,41.2l14.2-7.3
				c9.9-5,37.1-19.1,46.3-26.4v211.8H296.4z M500,249.9c0,139-111.7,250.1-249.5,250.1C112.6,500,0,388.3,0,249.9
				C0,112.6,112.6,0,250.5,0C383.9,0,500,112,500,249.9 M466,249.9C466,131,368.9,34.5,250.5,34.5C131.7,34.5,34.6,131,34.6,249.9
				c0,119.4,97.1,215.5,215.9,215.5C368.9,465.4,466,368.8,466,249.9"/>
		</g>
	</g>
</g>
</svg>
