<?xml version="1.0" encoding="utf-8"?>
<svg version="1.1" id="Calque_1" xmlns="http://www.w3.org/2000/svg" xmlns:xlink="http://www.w3.org/1999/xlink" x="0px" y="0px"
	 viewBox="0 0 500 500" style="enable-background:new 0 0 500 500;" xml:space="preserve">
  <style type="text/css">
    .st0{fill:#0F87C9;}
  </style>
  <path id="_x38_" class="st0" d="M337.8,303.8c0-33.1-20.3-53.2-43.6-64.2c23.6-14.4,35.8-32.6,35.8-56.1c0-43.3-36.8-65.1-81.1-65.1
    c-43.2,0-81.1,29-81.1,70.7c0,26,13.6,41.4,35.3,55c-24.3,12.5-43.2,32.2-43.2,65.7c0,38.3,31.7,71.8,87.8,71.8
    C299.5,381.7,337.8,351.7,337.8,303.8 M281.7,186.7c0,15.8-14.3,30.3-27.5,36.4c-16-6.8-36.8-17.9-36.8-38.5
    c0-17.5,12.5-29.7,32.1-29.7C270.3,154.9,281.7,169.2,281.7,186.7 M285.6,307.8c0,20-13.2,36.8-37.1,36.8
    c-24.3,0-37.8-19.7-37.8-40.4c0-19.6,16.4-36,32.8-42.5C264.9,272.4,285.6,284.9,285.6,307.8"/>
  <path class="st0" d="M500,250c0,138.9-111.7,250-249.5,250C112.6,500,0,388.3,0,250C0,112.6,112.6,0,250.5,0
  C383.9,0,500,112,500,250 M466,250.2c0-119.1-97.1-215.8-215.5-215.8c-118.9,0-215.9,96.7-215.9,215.8
  c0,119.5,97,215.7,215.9,215.7C368.9,465.9,466,369.2,466,250.2"/>
</svg>
