<svg version="1.1" id="Calque_1" x="0" y="0" viewBox="0 0 500 500" xml:space="preserve"><path d="M0 250C0 112 111.9 0 250 0s250 112 250 250-111.9 250-250 250S0 388.1 0 250m343.5 38.6c0-19.2-8.6-41-29.5-41-10.1 0-16.3 5.3-21.6 13.1v-41.5h-21v110.2h20.2v-4.1c4.1 3.7 11.1 6.1 17 6.1 25.5 0 34.9-24.9 34.9-42.8m-21.9 3c0-10.7-2.2-25.9-15.5-25.9-4.1 0-7.4 1.8-9.7 4-3.5 3.4-4 5.7-4 10.3v26c0 5.5 3.3 10.5 12.8 10.5 13.4 0 16.4-14 16.4-24.9m61.7-41.7h-21.1v79.6h21.1v-79.6zm1.2-21.1c0-6.5-4.4-11.1-11.6-11.1-7.1 0-11.7 4.6-11.7 11.1 0 6.4 4.6 11 11.7 11 7.2 0 11.6-4.7 11.6-11M225 316.2c0-17-4.6-31.2-14-42.4-8.8-10.3-20.6-16.8-35.2-19.4v-.8c27.3-10.3 40.9-29.1 40.9-56.4 0-17.7-7-32.6-21.2-44.5-15-12.9-35.1-19.4-60-19.4-27.8 0-53.2 7.5-76.2 22.6l17.6 37.3C91 181.1 106.8 175 124 175c12.7 0 22.5 3 29.5 9 6.2 5.5 9.3 12.5 9.3 21.2 0 9.5-3.6 17.2-10.9 23-7.4 5.7-17.1 8.6-29.3 8.6H96v42h26.2c32 0 48.2 12.8 48.2 38.4 0 10.8-4.4 19.7-13.2 26.8-8.7 7.1-20.3 10.6-34.7 10.6-18.9 0-35.6-5.5-49.9-16.6l-19.4 39.2c22.7 12.7 47.1 19 72.9 19 28.9 0 52.7-7.6 71.1-23 18.5-15.2 27.8-34.3 27.8-57m233.1-10.5c0-12.1-7-18.7-17.7-22.6l-9.7-3.7c-5.1-1.7-8.3-3.7-8.3-7.9 0-4.7 4-7.6 11-7.6 5.1 0 11.5 1.8 16.1 4.8l6.4-15.3c-4.2-2.1-11.5-5.3-21.4-5.3-18.7 0-31.3 11.8-31.3 26.8 0 9.5 4.6 16.7 15.9 21l9.4 3.6c4.2 1.6 10.1 3.2 10.1 8.8 0 6.2-6.7 8-12.2 8-6.2 0-13.6-2.4-18.6-6l-6.4 15.7c4.5 2.7 13.5 6.1 23.4 6.1 20.8.1 33.3-10.9 33.3-26.4" fill="#0f87c9"/></svg>