<svg version="1.1" id="Calque_1" x="0" y="0" viewBox="0 0 500 500" xml:space="preserve"><path d="M0 250C0 112 111.9 0 250 0c138 0 250 112 250 250 0 138.1-111.9 250-250 250S0 388.1 0 250m289.7 58c0-25.8-16.8-44.2-43.4-44.2-16.8 0-30.5 6.6-36 15.3-3.1 4.7-3.1 15.3-3.1 23.5 0 26.1 14.8 51.6 42.3 51.6 26.5-.1 40.2-22.3 40.2-46.2m55.2-5.9c0-51.6-36.8-81.8-81.8-81.8-29.3 0-47 10.6-56.3 18.8 3.5-55.5 32.1-83.3 70-83.3 15.6 0 29.7 3.5 37.1 6.6l8.6-46.9c-11.4-2.8-25.5-4.7-41.1-4.7-86.8 0-131 65.6-131 161.5 0 73.1 26.6 125.1 100.9 125.1 56.8.1 93.6-40.2 93.6-95.3" fill="#0f87c9"/></svg>