<svg viewBox="0 0 507.2 500"><path d="M16 153.9c5.3.8 10.4-.7 14.4-3.9-22.3 159.4-2 245.1-1 249.3 2.5 14.5 9.1 22.9 19.8 26.1 0 11.5.1 49.1.1 49.1 0 14.1 11.5 25.6 25.6 25.6h20c14.1 0 25.6-11.5 25.6-25.6 0 0-.1-34.7-.1-47.7h263v47.6c0 14.1 11.5 25.7 25.6 25.7l23.8-.1c13.2 0 21.8-10 21.8-25.6v-49.3c12.6-3.4 21.9-13.4 23.7-26.9l-.2 1c.6-2.6 9.4-39.6 9.4-108.7 0-37.4-2.6-84.4-10.4-140.5 4 3 9 4.6 14.4 3.8 10.2-1.6 17.2-11.3 15.6-21.5l-5.6-35.1C499.9 87 490.2 80 480.1 81.6c-5.6.9-10.1 4.2-12.9 8.6-1.5-8-3-16.1-4.8-24.3v-.1C457.9 43 435.4.3 380.9.1H254.7L126.4 0C71.7.2 49.2 43.2 45 65.8c-1.7 8.3-3.3 16.4-4.8 24.4-2.8-4.5-7.3-7.7-12.9-8.6C17.1 80 7.4 87 5.8 97.3L.2 132.4c-1.6 10.2 5.5 19.8 15.8 21.5zm69.2 245.4c-19.1 0-34.5-15.4-34.5-34.6 0-19.1 15.4-34.6 34.5-34.6s34.6 15.4 34.6 34.6c0 19.1-15.5 34.6-34.6 34.6zm248.2-130.1h-28.2c5.6-12.5 15.8-22.1 28.2-27.1v27.1zm38.1 0v-27.3c12.7 4.9 23 14.7 28.7 27.3h-28.7zm47.9 130.1c-19.1 0-34.5-15.4-34.5-34.6 0-19.1 15.4-34.6 34.5-34.6s34.5 15.4 34.5 34.6c0 19.1-15.4 34.6-34.5 34.6zM134.3 16.5h238.6v32.4H134.3V16.5zM73.5 74.9c.1-.5.9-4.4 3-9.5h354.3c2.1 5.2 2.9 8.9 2.9 9.4 14.3 69 22 134.2 23.1 194.3h-33.5c-9.3-31-38-52.6-70.7-52.6s-61.4 21.6-70.7 52.6H50.3c1.1-59.9 8.9-125.2 23.2-194.2zm279.2 131.4c12.4 0 22.4-10 22.4-22.4s-10-22.4-22.4-22.4-22.4 10-22.4 22.4c0 12.3 10 22.4 22.4 22.4z" fill="#0088ce"/></svg>