<svg version="1.1" id="Calque_1" x="0" y="0" viewBox="0 0 500 500" xml:space="preserve"><path d="M0 250C0 111.9 111.9 0 250 0s250 111.9 250 250-111.9 250-250 250S0 388.1 0 250m289.1 66.6c0-25.1-22.6-38.7-46.1-50.5-18 7-36 25-36 46.5 0 22.7 14.9 44.2 41.5 44.2 26.2.1 40.6-18.4 40.6-40.2M284.8 184c0-19.1-12.5-34.8-35.2-34.8-21.5 0-35.2 13.4-35.2 32.5 0 22.7 22.7 34.8 40.3 42.2 14.5-6.6 30.1-22.7 30.1-39.9m61.4 128.3c0-36.4-22.2-58.2-47.7-70.4 25.8-15.6 39.1-35.6 39.1-61.4 0-47.4-40.2-71.1-88.8-71.1-47.3 0-88.7 31.6-88.7 77.4 0 28.6 14.9 45.3 38.7 60.2-26.6 13.6-47.3 35.1-47.3 71.9 0 41.8 34.8 78.5 96.2 78.5 56.7.1 98.5-32.7 98.5-85.1" fill="#0f87c9"/></svg>