<?xml version="1.0" encoding="utf-8"?>

<svg version="1.1" id="Calque_1" xmlns="http://www.w3.org/2000/svg" xmlns:xlink="http://www.w3.org/1999/xlink" x="0px" y="0px"
	 viewBox="0 0 500 500" style="enable-background:new 0 0 500 500;" xml:space="preserve">
<style type="text/css">
	.st0{fill-rule:evenodd;clip-rule:evenodd;fill:#0F87C9;}
	.st1{fill:#0F87C9;}
</style>
<path class="st1" d="M250,0C112,0,0,111.9,0,250c0,138.1,112,250,250,250c138,0,250-111.9,250-250C500,111.9,388.1,0,250,0z
	 M340.3,389.5H161.2v-36.4c7-32.1,38.7-60.2,75.5-92.3C255,244.8,275,225.6,275,199c0-23.8-15.6-43-45.8-43
	c-24.3,0-41.1,17.6-47.7,25l-28.9-38.3c26.6-23,51.2-34,88.4-34c48.4,0,94.3,27.4,94.3,83.7c0,47.3-30.1,68.8-63.4,98.9
	c-14.1,12.9-41.9,36-45.3,52h113.8V389.5z"/>
</svg>
