<svg version="1.1" id="Calque_1" x="0" y="0" viewBox="0 0 500 500" xml:space="preserve"><path id="path3707" d="M189 394.7c-40.2 0-62.5-10.1-81-21.1l22.2-43.4c11.6 8.5 31.2 18.5 55.1 18.5 32.2 0 52.9-19.1 52.9-42.8 0-32.3-24.9-43.5-53.5-43.5h-29.1v-46.6h29.7c27.5 0 44.4-13.7 44.4-35.4 0-18-13.2-34.4-42.9-34.4-25.9 0-42.8 12.1-51.8 20.1l-20.6-41.2c23.8-15.9 49.7-24.9 85.1-24.9 57.2 0 89.5 33.9 89.5 71.4 0 29.1-15.3 51.9-45 63v1.1c30.8 5.8 54.5 29.6 54.5 68.8 0 49.2-44.5 90.4-109.5 90.4z" fill="#0f87c9"/><path id="path3618" d="M337.5 257.9v-10.8h-25v-15.7h22.9v-10.3h-22.9v-12.3h23.7V198h-37v59.8h38.3" fill="#0f87c9"/><path id="path3620" d="M386.4 239.7c0-7.6-4.4-12.7-13.5-16.7l-6.4-2.8c-3.4-1.5-6.9-3-6.9-7.1 0-3.3 2.7-5.8 8.6-5.8 5 0 9.4 1.3 13 3.1l3.9-10.2c-4.9-2.5-11-3.4-16.3-3.4-13.1 0-21.6 7.6-21.6 18 0 8.2 4.7 13.1 13.5 17l6.4 2.8c5.2 2.3 7 3.9 7 7.3 0 5.1-4.2 7-9.8 7-5.5 0-11.1-1.9-14.4-3.9l-3.6 10.3c3.9 1.9 9.7 4 16.8 4 12.2 0 23.3-5.3 23.3-19.6" fill="#0f87c9"/><path id="path3622" d="M440.7 208.9v-10.8h-50v10.8h18.4v49h13.2v-49h18.4" fill="#0f87c9"/><path d="M500 250c0 138.9-111.7 250-249.5 250C112.6 500 0 388.3 0 250 0 112.6 112.6 0 250.5 0 383.9 0 500 112 500 250m-34 .2c0-119.1-97.1-215.8-215.5-215.8-118.9 0-215.9 96.7-215.9 215.8 0 119.5 97 215.7 215.9 215.7 118.4 0 215.5-96.7 215.5-215.7" fill="#0f87c9"/></svg>