<?xml version="1.0" encoding="utf-8"?>

<svg version="1.1" id="DESKTOP" xmlns="http://www.w3.org/2000/svg" xmlns:xlink="http://www.w3.org/1999/xlink" x="0px" y="0px"
	 width="372px" height="499.9px" viewBox="0 0 372 499.9" style="enable-background:new 0 0 372 499.9;" xml:space="preserve">
<style type="text/css">
	.st0{fill:#0088CE;}
</style>
<path class="st0" d="M371.6,282.8c0-28.7-12.5-90.8-15.2-105.3s-6.5-38.8-25.7-53.2c-19.1-14.3-37.9-12-52.6-12h-89.7L230,71.6
	c3.2-3.1,4.8-7.4,4.4-11.8s-2.7-8.4-6.3-10.9L160.5,2.6C153.8-2,144.6-0.3,140,6.4c-1.7,2.5-2.6,5.4-2.6,8.3c0,4.7,2.2,9.3,6.4,12.1
	c0,0,34.8,23.8,52.8,36.2c-15.9,15.5-47.3,46.3-47.3,46.3c-0.9,0.9-1.6,1.9-2.3,2.9H91c-25.4,0-39.7,1.3-55.1,16.7
	s-17.2,32.8-21.4,54s-8.6,44.4-10.1,56.2c-1.5,11.9-5.8,50.4-4,78.5c2.5,38,8,83.1,18.7,134.5c0,0,9,47.5,59.4,47.7h103.7h0.3
	l111.2,0.1c50.4-0.2,59.4-47.8,59.4-47.8c10.6-51,16.1-95.6,18.6-133.4C372.4,306.7,371.6,294.5,371.6,282.8z M74.5,468.6
	c-13.3,0-24.1-10.8-24.1-24.1c0-13.3,10.8-24,24.1-24s24.1,10.8,24.1,24C98.6,457.8,87.8,468.6,74.5,468.6z M170.1,397.6H145
	c3.9-12.5,13.3-22.3,25.1-27V397.6z M201.5,397.5v-27.1c12,4.6,21.5,14.5,25.4,27.1H201.5z M245.1,397.6c0.1-1,0-2-0.2-3
	c-7.1-26.5-31.3-45-58.8-45s-51.7,18.5-58.8,45c-0.3,1-0.3,2-0.2,3h-19.3c-36.8-0.1-43.3-30.5-43.3-30.5
	c-7.8-32.9-11.8-61.7-13.6-86c-1.3-17.9,1.8-42.6,2.9-50.2c1.1-7.6,4.3-18.5,7.4-32.1c3-13.6,4.4-24.7,15.6-34.5
	s21.6-10.7,40.1-10.7h136.5c10.7,0,24.4-1.5,38.3,7.7c13.9,9.1,16.8,24.7,18.7,34c2,9.2,11.1,45.1,11.1,63.5c0,7.5,0.6,15.3,0,23
	c-1.8,24.1-5.9,52.7-13.6,85.3c0,0-6.6,30.5-43.3,30.5L245.1,397.6z M297.5,468.6c-13.3,0-24.1-10.8-24.1-24.1
	c0-13.3,10.8-24,24.1-24c13.3,0,24.1,10.8,24.1,24C321.6,457.8,310.9,468.6,297.5,468.6z M204.5,322.7c0,10.2-8.3,18.4-18.5,18.4
	c-10.2,0-18.5-8.2-18.5-18.4c0-10.2,8.3-18.4,18.5-18.4C196.2,304.2,204.5,312.5,204.5,322.7z"/>
</svg>
