<?xml version="1.0" encoding="utf-8"?>

<svg version="1.1" id="DESKTOP" xmlns="http://www.w3.org/2000/svg" xmlns:xlink="http://www.w3.org/1999/xlink" x="0px" y="0px"
	 width="500px" height="500px" viewBox="0 0 500 500" style="enable-background:new 0 0 500 500;" xml:space="preserve">
<style type="text/css">
	.st0{fill:#0088CE;}
</style>
<path class="st0" d="M265.3,337.6c33.8,0,56.4-19.4,56.4-59.2V174.5c0-8.6-8.6-13.1-16.9-13.1c-8.9,0-16.9,4.5-16.9,13.1v99.4
	c0,20.1-6.4,33.1-22.6,33.1c-15.6,0-23.2-12.4-23.2-33.1v-99.4c0-8.6-9.6-13.1-17.5-13.1c-9.2,0-17.5,4.5-17.5,13.1v103.2
	C207,318.8,227.7,337.6,265.3,337.6z M342.7,330.9c7.6,3.8,20.7,6.7,32.5,6.7c30.6,0,55.7-20.7,55.7-53.2
	c0-25.5-14.3-40.4-32.5-50.6l-13.7-7.3c-8.3-4.5-15-11.1-15-20.1c0-9.9,8-16.9,20.1-16.9c8,0,15.6,3.2,21.3,5.4
	c8.9,4.5,14.3-1.3,16.9-10.5c3.2-10.5-1.3-14.3-8.9-18.2c-7.3-3.8-18.2-6.4-28.7-6.4c-29.3,0-53.8,19.4-53.8,50.6
	c0,24.2,12.4,37.9,32.5,49.4l14.3,8c8.9,5.1,14.3,11.8,14.3,21.3c0,11.8-11.1,17.5-22.6,17.5c-8.6,0-19.4-3.8-24.8-6.4
	c-9.2-4.5-14.3,1.3-17.5,11.1C329.6,322.6,334.4,327.1,342.7,330.9z M250.6,500C388.9,500,500,389.5,500,251.3
	C500,112.4,383.8,0,250.6,0C112.4,0,0,112.4,0,251.3C0,388.2,112.7,500,250.6,500z M250.6,34.1c118.2,0,215,98.7,215,217.5
	c0,117.5-96.8,214.3-215,214.3c-118.8,0-216.2-96.2-216.2-214.3C34.4,132.2,132.2,34.1,250.6,34.1z M190.8,285.7
	c0-29-20.1-39.5-30.6-41.1V244c12.4-6.4,27.7-18.2,27.7-39.5c0-28.7-25.2-42.4-49.4-42.4H91.7c-8.6,0-13.7,7-13.7,14.3v146.2
	c0,8.9,8.9,13.4,16.9,13.4h44.3C165.9,335.7,190.8,321.3,190.8,285.7z M111.5,190.8h13.1c15,0,28,5.1,28,22c0,16.2-13.7,22-28,22
	h-13.1C111.5,234.8,111.5,190.8,111.5,190.8z M113.4,307v-48.7h15c12.4,0,29.3,4.5,29.3,23.6c0,16.9-9.6,24.8-29.3,24.8h-15
	C113.4,306.7,113.4,307,113.4,307z"/>
</svg>
