<?xml version="1.0" encoding="utf-8"?>
<svg version="1.1" id="Calque_1" xmlns="http://www.w3.org/2000/svg" xmlns:xlink="http://www.w3.org/1999/xlink" x="0px" y="0px"
	 viewBox="0 0 500 500" style="enable-background:new 0 0 500 500;" xml:space="preserve">
<style type="text/css">
	.st1{fill:#0F87C9;}
</style>
<g>
	<g>
		<path class="st1" d="M341,307.3c0-38.4-22.9-60.9-53.2-66.7v-0.8c29.1-10.8,44.2-32.5,44.2-60.9c0-36.5-31.8-69-87.6-69
			c-32.2,0-58.5,8.9-82.2,24.5l19,40.3c8.8-7.7,25.6-19.8,50.8-19.8c28.7,0,41.9,15.1,41.9,32.6c0,20.9-16.6,34.1-43.4,34.1h-28.7
			v45.4h28.4c27.9,0,51.9,10.1,51.9,41.5c0,23.3-19.7,40.4-51.6,40.4c-23.2,0-42.3-8.9-53.8-17.8l-21,42.2
			c22.1,12.5,43.5,20.6,78.8,20.6C298,393.7,341,355.3,341,307.3"/>
		<path class="st1" d="M500,250c0,138.9-111.7,250-249.5,250C112.6,500,0,388.3,0,250C0,112.6,112.6,0,250.5,0
			C383.9,0,500,112,500,250 M466,250.2c0-119.1-97.1-215.8-215.5-215.8c-118.9,0-215.9,96.7-215.9,215.8
			c0,119.5,97,215.7,215.9,215.7C368.9,465.9,466,369.2,466,250.2"/>
	</g>
</g>
</svg>
