<?xml version="1.0" encoding="utf-8"?>

<svg version="1.1" id="Calque_1" xmlns="http://www.w3.org/2000/svg" xmlns:xlink="http://www.w3.org/1999/xlink" x="0px" y="0px"
	 viewBox="0 0 500 500" style="enable-background:new 0 0 500 500;" xml:space="preserve">
<style type="text/css">
	.st0{fill-rule:evenodd;clip-rule:evenodd;fill:#0F87C9;}
	.st1{fill:#0F87C9;}
</style>
<g>
	<g>
		<path class="st1" d="M0,250C0,112,111.9,0,250,0c138,0,250,112,250,250c0,138.1-111.9,250-250,250C111.9,500,0,388.1,0,250
			 M289.7,308c0-25.8-16.8-44.2-43.4-44.2c-16.8,0-30.5,6.6-36,15.3c-3.1,4.7-3.1,15.3-3.1,23.5c0,26.1,14.8,51.6,42.3,51.6
			C276,354.1,289.7,331.9,289.7,308 M344.9,302.1c0-51.6-36.8-81.8-81.8-81.8c-29.3,0-47,10.6-56.3,18.8c3.5-55.5,32.1-83.3,70-83.3
			c15.6,0,29.7,3.5,37.1,6.6l8.6-46.9c-11.4-2.8-25.5-4.7-41.1-4.7c-86.8,0-131,65.6-131,161.5c0,73.1,26.6,125.1,100.9,125.1
			C308.1,397.5,344.9,357.2,344.9,302.1"/>
	</g>
</g>
</svg>
