<?xml version="1.0" encoding="utf-8"?>
<svg version="1.1" id="Calque_1" xmlns="http://www.w3.org/2000/svg" xmlns:xlink="http://www.w3.org/1999/xlink" x="0px" y="0px"
	 viewBox="0 0 500 500" style="enable-background:new 0 0 500 500;" xml:space="preserve">
<style type="text/css">
	.st0{fill:#0F87C9;}
</style>
	<g>
		<path class="st0" d="M250,0C111.9,0,0,111.9,0,250s111.9,250,250,250s250-111.9,250-250S388.1,0,250,0z M250,468.8
			c-120.8,0-218.8-98-218.8-218.8S129.2,31.2,250,31.2s218.8,98,218.8,218.8S370.8,468.8,250,468.8z"/>
		<g>
			<path class="st0" d="M330.2,118.4c-76,0.1-92.4,73.6-92.4,131.7s15,131.5,90.9,131.5s92.4-73.4,92.4-131.5
				S406.1,118.4,330.2,118.4z M329.4,339.6c-35.7,0-37.5-64.1-37.5-89.5c0-25.7,1-89.2,37.5-89.2c35.9,0,37,62.8,37,89.2
				C366.5,275.1,365.1,339.6,329.4,339.6z"/>
			<path class="st0" d="M94.2,163.1l-15.3,7.1l17.1,38.6l13.2-6.8c9.3-4.7,34.6-17.8,43.1-24.6v197.9h53.4V123.5H162
				C150.6,132.4,123.5,149.1,94.2,163.1z"/>
		</g>
	</g>
</svg>
