<svg version="1.1" id="Calque_1" x="0" y="0" viewBox="0 0 500 500" xml:space="preserve"><path id="_x33_" d="M174.1 389.2c-38 0-59-9.5-76.5-19.9l21-41c11 8 29.5 17.5 52 17.5 30.4 0 50-18 50-40.5 0-30.5-23.5-41-50.6-41h-27.5v-44h28c25.9 0 42-12.9 42-33.4 0-17-12.5-32.5-40.5-32.5-24.4 0-40.4 11.4-49 19l-19.4-39c22.4-15 47-23.5 80.4-23.5 54.1 0 84.5 32 84.5 67.5 0 27.5-14.5 49-42.5 59.5v1c29.1 5.5 51.5 27.9 51.5 64.9 0 46.5-42 85.4-103.4 85.4" fill="#0f87c9"/><path id="a" d="M421.7 305.7l-2.1-24c-1.6.5-4.5 1.3-6.1 1.3-4.5 0-5-4.2-5-9.2v-63.4c0-40.6-31.9-47.8-51.7-47.8-22.7 0-39.6 4.2-56.2 14.8l12.1 25.6c6.1-5.3 18.5-12.9 34.9-12.9 17.7 0 25.9 7.1 25.9 18v9.8c0 4.8-3.4 5-9.2 5-31.1 0-71.3 7.4-71.3 45.7 0 24 16.9 42.5 41.7 42.5 19.3 0 30.1-7.4 41.7-21.1 2.1 11.1 8.7 19.3 21.9 19.3 8.6-.1 17.8-2.2 23.4-3.6M373.1 259c0 6.9-1.9 12.1-6.1 16.6-4.8 5-11.6 7.6-19.8 7.6-10.3 0-17.7-7.4-17.7-17.7 0-16.9 19.5-20.1 32.5-20.1 4 0 7.9-.3 11.1 0" fill="#0f87c9"/><path d="M500 250c0 138.9-111.7 250-249.5 250C112.6 500 0 388.3 0 250 0 112.6 112.6 0 250.5 0 383.9 0 500 112 500 250m-34 .2c0-119.1-97.1-215.8-215.5-215.8-118.9 0-215.9 96.7-215.9 215.8 0 119.5 97 215.7 215.9 215.7 118.4 0 215.5-96.7 215.5-215.7" fill="#0f87c9"/></svg>