<?xml version="1.0" encoding="utf-8"?>

<svg version="1.1" id="Calque_1" xmlns="http://www.w3.org/2000/svg" xmlns:xlink="http://www.w3.org/1999/xlink" x="0px" y="0px"
	 width="500px" height="500px" viewBox="0 0 500 500" style="enable-background:new 0 0 500 500;" xml:space="preserve">
<style type="text/css">
	.st0{fill:#0F87C9;}
</style>
<path class="st0" d="M250,37.3c-117.3,0-212.7,95.1-212.7,213c0,117.2,95.4,212.5,212.7,212.5c117.4,0,212.8-95.3,212.8-212.5
	C462.8,132.5,367.4,37.3,250,37.3 M250,500C111.9,500,0,388.4,0,250.3C0,111.7,111.9,0,250,0s250,111.7,250,250.3
	C500,388.4,388.1,500,250,500"/>
<path class="st0" d="M301.7,252.6c0,61.2-34.5,78.4-79.5,78.4h-25.4V178.7h23.6C252.4,178.7,301.7,187.3,301.7,252.6 M355,249.4
	c0-109.8-97.1-111.5-141.9-111.5H145v233.4h65.8C282.5,371.3,355,351.4,355,249.4"/>
</svg>
