<svg version="1.1" id="Calque_1" x="0" y="0" xml:space="preserve" viewBox="0 0 500 500"><path d="M34.5 416.1V84c0-27.3 22-49.4 49-49.4h333.1c27.2 0 49.1 22.1 49.1 49.4v332.1c0 27.3-21.9 49.4-49.1 49.4H83.4c-26.9 0-48.9-22.1-48.9-49.4M83.4 0C37.5 0 0 37.7 0 84v332.1C0 462.4 37.5 500 83.4 500h333.1c46 0 83.5-37.6 83.5-83.9V84c0-46.3-37.5-84-83.5-84H83.4z" fill="#0f87c9"/><path d="M206.9 129.5v136.2c0 41.2 15.8 61.9 42.8 61.9 27.9 0 43.4-19.8 43.4-61.9V129.5h53.2v132.9c0 73.2-36.7 108-98.4 108-59.5 0-94.2-33.3-94.2-108.7V129.5h53.2z" fill="#0f87c9"/></svg>