<svg viewBox="0 0 500 500"><path d="M249.8008,38.0512c-116.8308,0-211.65,95.0184-211.65,212.4468,0,116.532,94.8192,211.4508,211.65,211.4508,116.93,0,212.0484-94.9188,212.0484-211.4508,0-117.4284-95.0184-212.4468-212.0484-212.4468m0,460.9488C112.2532,499,1,387.8464,1,250.498,1,111.9544,112.2532,1,249.8008,1A248.7954,248.7954,0,0,1,499,250.498C499,387.8464,387.5476,499,249.8008,499" fill="#0f87c9"/><path d="M278.5,288.5h-61l24.2-74.4c2.9-9.2,5.9-21.5,5.9-29.4h.6c0,7.2,2.8,19.5,6.2,29.4ZM361,361.2,277.7,127.3H221.8L139,361.2h51l14.7-44.4H291l14.6,44.4Z" fill="#0f87c9"/></svg>