<?xml version="1.0" encoding="utf-8"?>

<svg version="1.1" id="DESKTOP" xmlns="http://www.w3.org/2000/svg" xmlns:xlink="http://www.w3.org/1999/xlink" x="0px" y="0px"
	 width="447.9px" height="500px" viewBox="0 0 447.9 500" style="enable-background:new 0 0 447.9 500;" xml:space="preserve">
<style type="text/css">
	.st0{fill:#1387C9;}
</style>
<path class="st0" d="M299.6,84.8c24.4,0,44.1-19,44.1-42.4S323.9,0,299.6,0c-24.4,0-44.2,19-44.2,42.4S275.2,84.8,299.6,84.8z
	 M7.5,276.3c-11.9,14.5-9.3,35.6,5.8,47l79.6,60.4c6.1,4.6,13.8,7.2,21.6,7.2c10.7,0,20.7-4.7,27.3-12.7l41.4-50.3
	c11.9-14.5,9.3-35.6-5.7-47L148,258.5l-2-1.5l-29.4-22.3c4.3-3.7,9.6-6.1,15.5-6.8c1.1-0.1,2.2,0,3.3,0c-0.1,0.6-0.2,1.2-0.2,1.8
	c-0.7,10.8,7.8,20.1,19,20.8c3.2,0.2,6.2-0.4,8.9-1.4c0.2,0.9,0.5,1.8,0.6,2.7c0.7,5.7-0.5,11.3-3.2,16.2l15.5,11.7
	c5.9-8.9,8.4-19.4,7-30.1c-0.9-6.8-3.3-13.2-7-18.9c0.8-9.1,2.8-18.2,6.3-26.9c9.6-24.3,28.5-43.6,53.2-54.3
	c7.2-3.1,14.6-5.3,22.2-6.7v128.4c-1.9,22.9-7.4,51.9-21.5,75.6c-21.6,36.7-64.5,46.4-65,46.5c-14.2,3.1-23.2,16.7-20,30.3
	c3.1,13.7,17.1,22.4,31.4,19.4c2.7-0.5,66.1-14.2,99.7-71.1c2-3.3,3.6-6.8,5.3-10.2c-0.2,56.3-0.3,113-0.3,113
	c0,14,11.8,25.4,26.4,25.4s26.5-11.3,26.6-25.4l0.7-238.1c0-1.1-0.2-2.1-0.3-3.1v-9.7c21.7,22.1,51,37.5,84.2,41.8
	c11.2,1.5,21.4-6.1,22.9-16.8c1.4-10.7-6.4-20.6-17.5-22c-49.9-6.4-87.6-47.9-87.8-96.3c0-5.8-2.8-11-7-14.6
	c-2.1-2.2-4.7-4.2-7.9-5.3c-35.5-12.9-74.1-11.9-108.8,3.1c-34.6,14.9-61.1,42-74.6,76.1c-2.5,6.4-4.5,12.8-6,19.3
	c-2.8-0.1-5.6-0.1-8.4,0.2c-11,1.3-21,6.1-28.5,13.6l-3.4-2.5c-14.6-11-37.5-8.4-48.9,5.5L7.5,276.3z M147.9,258.4l12.5,9.5l0,0
	l-14.2-10.7L147.9,258.4z"/>
</svg>
