<svg version="1.1" id="Calque_1" x="0" y="0" xml:space="preserve" viewBox="0 0 500 500"><path d="M34.4 416.1V83.9c0-27.2 22-49.3 49.1-49.3h333.1c27.1 0 49.1 22.2 49.1 49.3v332.2c0 27.3-22 49.4-49.1 49.4H83.4c-27 0-49-22.1-49-49.4M83.4 0C37.5 0 0 37.7 0 83.9v332.2C0 462.4 37.5 500 83.4 500h333.1c46 0 83.5-37.6 83.5-83.9V83.9C500 37.7 462.6 0 416.5 0H83.4z" fill="#0f87c9"/><path d="M218.2 243.2c4.6 1 10.2 1.4 17.9 1.4 28.3 0 45.9-14.4 45.9-38.4 0-21.7-14.8-34.9-41.7-34.9-10.9 0-18.2.8-22.1 1.9v70zm-52.9-107.6c16.5-2.9 39.6-5 72.1-5 32.9 0 56.7 6.4 72.5 19.3 15.1 11.7 24.8 31.3 24.8 54.6 0 23.5-7.3 43.3-21.4 56.3-18.2 16.8-45.5 25-76.9 25-7.1 0-13.4-.3-18.3-1.4v85.1h-52.8V135.6z" fill="#0f87c9"/></svg>