<?xml version="1.0" encoding="utf-8"?>

<svg version="1.1" id="Calque_1" xmlns="http://www.w3.org/2000/svg" xmlns:xlink="http://www.w3.org/1999/xlink" x="0px" y="0px"
	 width="500px" height="500px" viewBox="0 0 500 500" style="enable-background:new 0 0 500 500;" xml:space="preserve">
<style type="text/css">
	.st0{fill:#0F87C9;}
</style>
<path class="st0" d="M249.8,37.2c-117.3,0-212.5,95.4-212.5,213.3c0,117,95.2,212.3,212.5,212.3c117.4,0,212.9-95.3,212.9-212.3
	C462.7,132.6,367.3,37.2,249.8,37.2 M249.8,500C111.7,500,0,388.4,0,250.5C0,111.4,111.7,0,249.8,0C388.1,0,500,111.4,500,250.5
	C500,388.4,388.1,500,249.8,500"/>
<path class="st0" d="M278.5,288.5h-61l24.2-74.4c2.9-9.2,5.9-21.5,5.9-29.4h0.6c0,7.2,2.8,19.5,6.2,29.4L278.5,288.5z M361,361.2
	l-83.3-233.9h-55.9L139,361.2h51l14.7-44.4H291l14.6,44.4H361z"/>
</svg>
