<svg version="1.1" id="Calque_1" x="0" y="0" viewBox="0 0 500 500" xml:space="preserve"><path id="_x38_" d="M337.8 303.8c0-33.1-20.3-53.2-43.6-64.2 23.6-14.4 35.8-32.6 35.8-56.1 0-43.3-36.8-65.1-81.1-65.1-43.2 0-81.1 29-81.1 70.7 0 26 13.6 41.4 35.3 55-24.3 12.5-43.2 32.2-43.2 65.7 0 38.3 31.7 71.8 87.8 71.8 51.8.1 90.1-29.9 90.1-77.8m-56.1-117.1c0 15.8-14.3 30.3-27.5 36.4-16-6.8-36.8-17.9-36.8-38.5 0-17.5 12.5-29.7 32.1-29.7 20.8 0 32.2 14.3 32.2 31.8m3.9 121.1c0 20-13.2 36.8-37.1 36.8-24.3 0-37.8-19.7-37.8-40.4 0-19.6 16.4-36 32.8-42.5 21.4 10.7 42.1 23.2 42.1 46.1" fill="#0f87c9"/><path d="M500 250c0 138.9-111.7 250-249.5 250C112.6 500 0 388.3 0 250 0 112.6 112.6 0 250.5 0 383.9 0 500 112 500 250m-34 .2c0-119.1-97.1-215.8-215.5-215.8-118.9 0-215.9 96.7-215.9 215.8 0 119.5 97 215.7 215.9 215.7 118.4 0 215.5-96.7 215.5-215.7" fill="#0f87c9"/></svg>