<svg version="1.1" id="Calque_1" x="0" y="0" viewBox="0 0 500 500" xml:space="preserve"><path d="M0 250C0 111.9 111.9 0 250 0s250 111.9 250 250-111.9 250-250 250S0 388.1 0 250m206.1-51.1c0 25.9 16.8 44.2 43.4 44.2 16.8 0 30.5-6.6 36-15.3 3.1-4.7 3.1-15.3 3.1-23.4 0-26.2-14.8-51.6-42.2-51.6-26.6 0-40.3 22.3-40.3 46.1m-55.1 5.9c0 51.7 36.7 81.8 81.7 81.8 29.3 0 46.9-10.6 56.2-18.8-3.5 55.5-32 83.3-69.9 83.3-15.6 0-29.7-3.6-37.1-6.7l-8.6 47c11.4 2.7 25.4 4.7 41.1 4.7 86.8 0 131-65.8 131-161.5 0-73.2-26.6-125.1-100.9-125.1-56.8-.2-93.5 40.1-93.5 95.3" fill="#0f87c9"/></svg>