<?xml version="1.0" encoding="utf-8"?>

<svg version="1.1" id="Calque_1" xmlns="http://www.w3.org/2000/svg" xmlns:xlink="http://www.w3.org/1999/xlink" x="0px" y="0px"
	 width="500px" height="500px" viewBox="0 0 500 500" style="enable-background:new 0 0 500 500;" xml:space="preserve">
<style type="text/css">
	.st0{fill:#0F87C9;}
</style>
<path class="st0" d="M34.5,416V84c0-27.4,21.9-49.5,49-49.5h333.1c27.1,0,49.1,22.1,49.1,49.5v332c0,27.3-22,49.4-49.1,49.4H83.5
	C56.4,465.4,34.5,443.3,34.5,416 M83.5,0C37.5,0,0,37.7,0,84v332c0,46.3,37.5,84,83.5,84h333.1c46,0,83.4-37.7,83.4-84V84
	c0-46.3-37.4-84-83.4-84H83.5z"/>
<path class="st0" d="M152.3,368.5V131.3h62.3l49,87c14,25,27.7,54.5,38.5,81.3h0.7c-3.1-31.3-4.2-63.3-4.2-99.2v-69.1h49v237.2
	h-56.1l-50.4-91.4c-14-25.8-29.7-56-41-83.7h-1.4c1.7,31.6,2.4,65.1,2.4,103.7v71.4H152.3z"/>
</svg>
