<svg viewBox="0 0 500 500"><path d="M46.5 500h407c25.7 0 46.5-20.8 46.5-46.5v-407C500 20.8 479.2 0 453.5 0h-407C20.8 0 0 20.8 0 46.5v407C0 479.2 20.8 500 46.5 500zM91.1 94.3c.1-2.1 1.9-3.8 4-3.8h63.3c1.6 0 3.1 1 3.7 2.5l89 224 88.6-224c.6-1.5 2.1-2.5 3.7-2.5H404c2.1 0 3.9 1.7 4 3.8l11.3 311.1c0 1.1-.4 2.1-1.1 2.9s-1.8 1.2-2.9 1.2h-55.5c-2.2 0-3.9-1.7-4-3.9l-5.6-186.4L275.6 407c-.6 1.5-2.1 2.5-3.7 2.5h-44.2c-1.6 0-3.1-1-3.7-2.5l-75.5-189-5.2 187.6c-.1 2.2-1.8 3.9-4 3.9H84.7c-1.1 0-2.1-.4-2.9-1.2-.8-.8-1.2-1.8-1.1-2.9L91.1 94.3z" fill="#0088ce"/></svg>