<svg version="1.1" id="Calque_1" x="0" y="0" viewBox="0 0 500 500" xml:space="preserve"><path id="_x35_" d="M333.5 292.6c0-38.8-28.5-77.9-99.1-81.5l-7.4-.3 3.6-49.4h93v-42.9H187.9l-10.3 134.3 40.2.4c47.6.5 60 26 60 44.7 0 30.3-25.2 41.8-45.3 41.8-22 0-36.6-8.1-49.1-16.5l-19 40.3c20 11.3 43.5 18.7 70.9 18.7 59-.2 98.2-40.2 98.2-89.6" fill="#0f87c9"/><path d="M500 250c0 138.9-111.7 250-249.5 250C112.6 500 0 388.3 0 250 0 112.6 112.6 0 250.5 0 383.9 0 500 112 500 250m-34 .2c0-119.1-97.1-215.8-215.5-215.8-118.9 0-215.9 96.7-215.9 215.8 0 119.5 97 215.7 215.9 215.7 118.4 0 215.5-96.7 215.5-215.7" fill="#0f87c9"/></svg>