<svg viewBox="0 0 500 500"><path d="M383.8 127.9c0 11.7-9.5 21.1-21.1 21.1-11.7 0-21.2-9.5-21.2-21.1 0-11.7 9.5-21.2 21.2-21.2 11.6.1 21.1 9.5 21.1 21.2zM136 106.8c-11.7 0-21.2 9.5-21.2 21.2s9.5 21.1 21.2 21.1 21.1-9.5 21.1-21.1c0-11.8-9.4-21.2-21.1-21.2zm113.7 0c-11.7 0-21.2 9.5-21.2 21.2s9.5 21.1 21.2 21.1 21.1-9.5 21.1-21.1c0-11.8-9.4-21.2-21.1-21.2zm230.9 94.9c-2.1.6-4.8.6-7.2.9 12.9 27.8 19.4 54.9 19.4 83.9 0 12.7-1.2 25.4-3.4 37.8v69.1c0 20.7-9.2 34.5-22.9 34.5H431c-15.1 0-19.8-21-21.4-35.1-7.9 0-16.4.1-16.4.1l-9.6-.2H117.4l-9.8.2H93.9c-1.5 14.1-6.3 35-21.4 35H37c-13.7 0-22.9-13.9-22.9-34.5v-57.2c-3.9-15.8-6-32.9-6-49.7 0-29 6.5-56.1 19.3-83.8-2.7-.3-5.7-.3-7.9-1C6.6 197.9 0 189.3 0 176.1c0-15.4 8.7-25.4 23.9-27.2 17.9-2.2 26.4-.9 32.3 2.8 1.1-1.9 3.2-5.4 3.2-5.4 17.2-29.3 35-59.7 49.8-70.6 15.2-11.2 53.4-16.1 123.7-15.7H268.1c70.2-.4 108.3 4.5 123.5 15.7 14.7 10.9 32.4 41 49.4 70.2 0 0 2.1 3.4 3.3 5.5 5.8-3.4 14.3-4.6 31.8-2.4 15.2 1.9 23.9 11.8 23.9 27.2 0 13.1-6.5 21.7-19.4 25.5zM107 317.6c0-18-14.6-32.6-32.5-32.6-18 0-32.5 14.6-32.5 32.6s14.6 32.6 32.5 32.6 32.5-14.6 32.5-32.6zm10.8-134.8c-12.8 5.1-23.1 15.5-28 28.9h28v-28.9zm64.3 28.9c-4.9-13.5-15.3-24-28.4-29.1v29.1h28.4zm49.4-28.9c-12.8 5.1-23.1 15.5-27.9 28.9h27.9v-28.9zm63.9 27.6c-5.1-12.9-15.3-22.9-27.9-27.8v29.1h4v-.1h23.8c-.1-.4 0-.8.1-1.2zm49.1-27.6c-12.4 5-22.5 14.9-27.5 27.6.1.4.1.8.2 1.2h27.3v-28.8zm18.2-24.1c31.4 0 59.1 21.2 67.2 51.6.1.4.2.9.2 1.4h22.7c-1.8-3.8-3.6-7.6-5.7-11.4-5.5-9.3-25.5-42.9-25.5-42.9-13.7-23.4-32.4-55.3-43.3-63.4-6-4.4-28.2-11.7-110-11.3h-35.5c-82-.4-104.2 6.9-110.2 11.3-11.1 8.2-30 40.4-43.7 63.9 0 0-19.5 32.6-24.7 41.4-2.2 4.2-4.3 8.3-6.2 12.4h20.5c.1-.4.1-.9.2-1.4 8.1-30.4 35.8-51.6 67.2-51.6 23.1 0 44.1 11.5 56.8 29.5 12.8-18.1 33.8-29.5 56.9-29.5 22.8 0 43.6 11.2 56.4 29 13-17.7 33.8-29 56.7-29zm43.2 52.9v.1h2.8c-4.9-13.5-15.4-24-28.4-29.1v29h25.6zm52.2 106c0-18-14.6-32.6-32.5-32.6-18 0-32.5 14.6-32.5 32.6s14.6 32.6 32.5 32.6 32.5-14.6 32.5-32.6zM486.9 470H13.1C5.9 470 0 476.7 0 485s5.9 15 13.1 15h473.8c7.2 0 13.1-6.7 13.1-15s-5.9-15-13.1-15z" fill="#0088ce"/></svg>