<svg viewBox="0 0 500 500"><path d="M257.6 68.2h15.2v136.4H288V68.2h15v197h15.2v-197h15.2v197h15.2v-197h15.2v197H379v-197h15.2v197h15.2V53h-167v151.5h15.2V68.2zm-37.9 60.6h-30.3V98.5h-83.3v60.6H90.9v45.5h128.8v-75.8zm37.9 295.4v-53h68.2v53h106.1V280.3h-144v-60.6H68.2v204.5h189.4zm98.5-128.8h22.7v22.7h-22.7v-22.7zm37.8 0h22.7v22.7h-22.7v-22.7zm-75.7 0h22.7v22.7h-22.7v-22.7zm-37.9 0H303v22.7h-22.7v-22.7zm-37.9 0h22.7v22.7h-22.7v-22.7zm-37.9 0h22.7v22.7h-22.7v-22.7zm-37.8 0h22.7v22.7h-22.7v-22.7zm189.4 37.9h22.7V356h-22.7v-22.7zm37.8 0h22.7V356h-22.7v-22.7zm-37.8 37.9h22.7v22.7h-22.7v-22.7zm37.8 0h22.7v22.7h-22.7v-22.7zm-75.7-37.9h22.7V356h-22.7v-22.7zm-37.9 0H303V356h-22.7v-22.7zm-37.9 0h22.7V356h-22.7v-22.7zm-37.9 0h22.7V356h-22.7v-22.7zm-37.8 0h22.7V356h-22.7v-22.7zm37.8 37.9h22.7v22.7h-22.7v-22.7zm-37.8 0h22.7v22.7h-22.7v-22.7zm-30.3-83.3H90.9v-45.5h45.5v45.5zM500 485c0 8.3-5.9 15-13.1 15H13.1C5.9 500 0 493.3 0 485c0-8.2 5.9-15 13.1-15h473.8c7.2.1 13.1 6.8 13.1 15z" fill="#0088ce"/></svg>