<svg version="1.1" id="DESKTOP" x="0" y="0" viewBox="0 0 500 500" xml:space="preserve"><path d="M322.7 287.2c7.9 0 14.2-3.7 14.2-11v-47.9H349l23.7 53.2c2 4.2 5.8 5.8 9.9 5.8 8.5 0 20.6-7.9 15.8-17.4l-22.6-47.4c13.7-6.9 25.3-19 25.3-40.6 0-28.4-21.1-41.6-41.6-41.6H320c-7.4 0-11.6 5.8-11.6 12.1v123.7c.1 7.4 7.4 11.1 14.3 11.1zm14.1-122.7h10.1c13.1 0 24.8 5.8 24.8 20.5 0 17.9-16.3 22.1-26.3 22.1h-8.5v-42.6zM214.2 275.6V152.4c0-6.3 4.2-12.1 11.6-12.1h53.7c7.4 0 11.6 6.8 11.6 13.2 0 5.8-4.2 13.1-11.6 13.1h-36.8v33.2h33.1c7.4 0 11.6 5.8 11.6 12.1 0 5.8-4.3 12.1-11.6 12.1h-33.1v36.3h40c7.4 0 11.6 6.8 11.6 13.1 0 5.8-4.2 13.2-11.6 13.2h-54.2c-6.9.1-14.3-3.6-14.3-11zm-95.3 11.6c7.9 0 14.2-3.7 14.2-11v-47.9h12.1l23.6 53.2c2.1 4.2 5.8 5.8 10 5.8 8.5 0 20.6-7.9 15.8-17.4L172 222.5c13.6-6.9 25.3-19 25.3-40.6 0-28.4-21.1-41.6-41.6-41.6h-39.5c-7.4 0-11.6 5.8-11.6 12.1v123.7c.1 7.4 7.5 11.1 14.3 11.1zm14.2-122.7h10c13.1 0 24.8 5.8 24.8 20.5 0 17.9-16.3 22.1-26.3 22.1h-8.4v-42.6zm116.8 263.6h.7c103.7 0 189.5-72.8 208.9-170.4 2.9-14 4.4-28.5 4.4-43.4 0-119.2-95.7-214.6-214-214.6C131.7-.4 36.1 95.1 36.1 214.2c0 118.2 95.6 213.9 213.8 213.9zm0-396.6c100.5 0 182.1 81.7 182.1 182.8 0 100.3-81.7 182-182.1 182-100.4 0-181.9-81.7-181.9-182 0-101.1 81.5-182.8 181.9-182.8zm237 438.5H13.1C5.9 470 0 476.7 0 485s5.9 15 13.1 15h473.8c7.2 0 13.1-6.7 13.1-15s-5.9-15-13.1-15z" fill="#0088ce"/></svg>