<svg viewBox="0 0 500 500"><path d="M250.3.3C132 .3 36.1 96.2 36.1 214.5S132 428.7 250.3 428.7c101.5.4 189-71 209-170.5 3-14.2 4.5-28.8 4.5-43.3C464.3 96.8 368.7.7 250.5.3h-.2zm0 396.6c-100.7.1-182.5-81.4-182.6-182.2S149.2 32.3 249.9 32.1c100.7-.1 182.5 81.4 182.6 182.2v.6c-.1 100.6-81.7 182-182.2 182zm83.6-279H167.8c-8.3.1-14.9 6.9-14.8 15.1 0 .4 0 .8.1 1.1-.5 8.5 6 15.7 14.5 16.2h65.3v171.8c1.2 9.2 9.6 15.8 18.8 14.7 9.3 1.4 18.1-5.1 19.4-14.4v-172h65c8.5-.5 15.1-7.7 14.7-16.2.8-8.2-5.2-15.5-13.4-16.3-1.2-.2-2.3-.1-3.5 0zm153 352.1H13.1C5.9 470 0 476.7 0 485s5.9 15 13.1 15h473.8c7.2 0 13.1-6.7 13.1-15s-5.9-15-13.1-15z" fill="#0088ce"/></svg>