<svg viewBox="0 0 500 500"><path d="M202.7 287.9l-7.6 11.7c-4.3 6.4-2.6 15.1 3.8 19.5.2.1.4.3.6.4l1.7 1.1 21.7-32.6h-20.2v-.1zm-10.5 94.7c.2 6.4 5.4 11.4 11.8 11.4h37.9c6.3 0 11.4-5.1 11.4-11.4s-5.1-11.4-11.4-11.4H204c-6.4-.1-11.7 5-11.8 11.4zm99-8.4c2.1 1.1 4.4 2 6.8 2.5 5.6.7 11.1-1.7 14.3-6.4l142.3-210.8c4.3-6.4 2.6-15.1-3.8-19.5-.2-.1-.4-.3-.6-.4l-16-10c-1.4 2.1-4.1 2.7-6.3 1.5l-32.6-20.4c-2-1.4-2.5-4.2-1.1-6.2l-17-10.7-158.6 235 72.6 45.4zM217 363.6h34.5l-35.2-22.3c-6.2-.3-11.5 4.4-11.8 10.6s4.4 11.5 10.6 11.8c.7 0 1.3 0 1.9-.1zM136.4 394h54.7c-8.9-7.1-10.4-20-3.3-29 2.8-3.5 6.6-6 10.9-7.1-6.4-9.4-3.9-22.2 5.5-28.6.2-.1.4-.3.6-.4 0 0-11.4-7.6-12.2-8.2-3.6-2.4-6.3-6-7.6-10.2-.8 1.5-1.8 3-2.9 4.3-4.4 4.6-9.5 8.6-15.2 11.7v-15.8c15.2-10.2 24-34.8 24.1-35.2l1.1-3h30.3c12.9.3 23.6-9.9 24-22.7 0-2.6-.4-5.1-1.2-7.6h-66.7c-2.8 0-5.7.7-8.2 2l-44.5 26.4c-2.8 1.5-4.6 4.4-4.6 7.6v100.6c0 8.4 6.8 15.2 15.2 15.2-.1 0 0 0 0 0zm-30.3-9.8V282.4c0-5.4-4.3-9.7-9.7-9.7H45.5V394h50.8c5.4 0 9.8-4.4 9.8-9.8zm-22.7-85.8c-4.2-.3-7.3-3.9-7-8.1s3.9-7.3 8.1-7c4 .3 7 3.6 7 7.5 0 4.2-3.4 7.6-7.6 7.6h-.5zm276-215.1l-1.7-1.1c-6.9-4.4-16-2.5-20.6 4.2L236.8 234.9H257L359.4 83.3zM500 485c0 8.3-5.9 15-13.1 15H13.1C5.9 500 0 493.3 0 485c0-8.2 5.9-15 13.1-15h473.8c7.2.1 13.1 6.8 13.1 15z" fill="#0088ce"/></svg>