<svg version="1.1" id="DESKTOP" x="0" y="0" viewBox="0 0 500 500" xml:space="preserve"><path d="M408.9 242.1c0-24.6-10.7-77.7-13-90.1-2.3-12.4-5.6-33.3-22-45.5-16.4-12.3-32.5-10.3-45-10.3h-76.8l35.7-34.9c2.7-2.7 4.1-6.3 3.7-10.1-.3-3.8-2.3-7.2-5.4-9.3L228.2 2.2c-5.8-3.9-13.6-2.5-17.6 3.3-1.5 2.2-2.2 4.7-2.2 7.1 0 4 1.9 8 5.5 10.4 0 0 29.8 20.4 45.2 31-13.6 13.3-40.5 39.6-40.5 39.6-.8.8-1.4 1.6-1.9 2.5h-48c-21.7 0-34 1.1-47.1 14.3-13.2 13.1-14.8 28.1-18.3 46.3-3.6 18.2-7.4 38-8.7 48.1-1.3 10.2-5 43.2-3.5 67.2 2.1 32.5 6.9 71.1 16 115.2 0 0 7.7 40.7 50.9 40.8h184.2c43.1-.1 50.9-40.9 50.9-40.9 9.1-43.6 13.8-81.9 15.9-114.2.6-10.3-.1-20.8-.1-30.8zM154.5 401.2c-11.4 0-20.6-9.2-20.6-20.6 0-11.4 9.2-20.6 20.6-20.6 11.4 0 20.6 9.2 20.6 20.6.1 11.4-9.2 20.6-20.6 20.6zm81.9-60.8H215c3.4-10.7 11.4-19.1 21.5-23.1v23.1zm26.9 0v-23.2c10.2 4 18.4 12.4 21.8 23.2h-21.8zm37.3 0c.1-.8 0-1.7-.2-2.5-6.1-22.7-26.8-38.5-50.3-38.5-23.6 0-44.3 15.8-50.4 38.5-.2.9-.3 1.7-.2 2.6h-16.6c-31.5-.1-37.1-26.1-37.1-26.1-6.7-28.2-10.1-52.8-11.7-73.7-1.1-15.3 1.6-36.4 2.5-42.9.9-6.5 3.7-15.9 6.3-27.5 2.6-11.6 3.8-21.2 13.4-29.6 9.6-8.4 18.5-9.2 34.4-9.2h116.9c9.1 0 20.9-1.2 32.8 6.6 11.9 7.8 14.3 21.2 16 29.1 1.7 7.9 9.5 38.6 9.5 54.3 0 6.4.5 13.1 0 19.7-1.6 20.7-5 45.1-11.6 73 0 0-5.6 26.1-37.1 26.2h-16.6zm44.9 60.8c-11.4 0-20.6-9.2-20.6-20.6 0-11.4 9.2-20.6 20.6-20.6 11.4 0 20.6 9.2 20.6 20.6 0 11.4-9.2 20.6-20.6 20.6zm-79.7-124.9c0 8.7-7.1 15.8-15.8 15.8-8.7 0-15.8-7.1-15.8-15.8 0-8.7 7.1-15.8 15.8-15.8 8.8 0 15.8 7 15.8 15.8zM486.9 470H13.1C5.9 470 0 476.7 0 485s5.9 15 13.1 15h473.8c7.2 0 13.1-6.7 13.1-15s-5.9-15-13.1-15z" fill="#0088ce"/></svg>