<?xml version="1.0" encoding="utf-8"?>
<!-- Generator: Adobe Illustrator 21.0.2, SVG Export Plug-In . SVG Version: 6.00 Build 0)  -->
<svg version="1.1" id="DESKTOP" xmlns="http://www.w3.org/2000/svg" xmlns:xlink="http://www.w3.org/1999/xlink" x="0px" y="0px"
	 viewBox="0 0 500 500" style="enable-background:new 0 0 500 500;" xml:space="preserve">
<style type="text/css">
	.st0{fill:#0088CE;}
</style>
<path class="st0" d="M194.7,130.3c16.7-3.8,27.3-20.5,23.5-37.9v-0.8c-4.5-17.4-22.7-27.3-39.4-22.7c-16.7,3.8-27.3,20.5-23.5,37.9
	v0.8C160.6,124.2,178.1,134.8,194.7,130.3z M261.4,309.1c-15.2-0.8-30.3-3.8-44.7-8.3c-94.7-33.3-93.2-143.9-88.6-189.4
	c0.8-9.1-6.1-17.4-15.2-18.2l0,0c-9.8-0.8-18.2,5.3-18.9,15.2c-13.6,111.4,28,195.5,109.8,224.2c18.2,6.1,36.4,9.8,55.3,10.6
	c9.1,0.8,17.4-6.8,17.4-15.9C277.3,317.4,270.5,309.8,261.4,309.1L261.4,309.1z M409.1,299.2c-21.2-16.7-43.2-31.8-65.9-45.5
	c-17.4-9.1-59.8-12.9-72-13.6h-0.8h-15.9l-12.1-45.5c26.5,11.4,56.8,11.4,83.3,0c7.6-3,10.6-11.4,7.6-18.9c0,0,0,0,0-0.8
	c-3.8-7.6-12.1-10.6-19.7-7.6c-31.1,13.6-67.4,3.8-87.1-23.5c-3-4.5-9.1-6.8-14.4-6.1c-1.5,0-3,0-3.8,0
	c-11.4,1.5-22.7,6.1-32.6,12.9c-3.8,2.3-5.3,6.8-4.5,10.6l0.8,2.3l0,0l25,96.2l0,0c0.8,9.8,9.1,17.4,18.9,17.4l38.6,0.8
	c21.2,0,44.7,3,50.8,6.1c4.5,5.3,12.1,28,16.7,49.2l6.8,37.9c2.3,10.6,12.1,17.4,22.7,15.2c10.6-1.5,17.4-11.4,15.9-22l0,0
	l-7.6-37.9v-0.8c-0.8-4.5-2.3-10.6-4.5-17.4c12.1,8.3,22.7,16.7,28.8,21.2c8.3,6.1,20.5,5.3,27.3-3
	C419,318.2,418.2,306.1,409.1,299.2C409.9,300,409.9,299.2,409.1,299.2z M500,485c0,8.3-5.9,15-13.1,15H13.1C5.9,500,0,493.3,0,485
	c0-8.2,5.9-15,13.1-15h473.8C494.1,470.1,500,476.8,500,485z"/>
</svg>
