<svg viewBox="0 0 500 500"><path d="M373.9 148.9h-35.5c-2.1-47-41.4-83.7-88.4-82.6-47-1.1-86.3 35.6-88.4 82.6h-35.5c-30.4.6-54.6 25.7-54.1 56.1v149.8c-.5 30.4 23.7 55.5 54.1 56.1H374c30.4-.5 54.6-25.6 54.1-56V205.1c.5-30.4-23.7-55.6-54.2-56.2.1 0 .1 0 0 0zM250 88c33.8.6 61.5 27.2 63.5 61h-127c2-33.8 29.7-60.4 63.5-61zm-57.3 212.1c-5.2 11.1-18 16.3-37.9 15.8-10-.5-19.8-2.9-28.9-7l4.8-10.8c8.3 4.2 17.4 6.5 26.7 6.9 9.5 0 16.1-1.9 18.1-6.3 2.6-5.7-4.8-10-14-14.6-11.7-5.8-25.2-12.7-20.5-25.2 4-10.5 19.6-15.2 36.9-15.2 4.4.1 8.8.6 13.1 1.4l-3.1 10.2c-3.6-.9-7.3-1.4-11-1.5-8.6 0-18.1 1.9-20 7.6s4.9 7.6 14.4 12c12.2 6.4 27.3 13.7 21.2 26.9v-.2h.2zm189-44.5h-37.9l-5.5 17.6h31.5l-3.2 10.4h-31.2l-8.2 27c-9.5 3.8-19.6 5.7-29.8 5.5-21.7 0-36.9-10.7-39.3-26.6h-1l-7.6 25.4h-16.1c-5.2-18.9-13.5-36.8-24.5-53l-9.6 30.5h-1c-1.6-4.9-4.8-9-9.1-11.7l11.1-35.6h14.8c11.6 14.8 20.8 31.3 27.2 48.9l15.2-48.9h13.7l-4.7 15.2h.4c.2.1.5.1.8 0 10.5-11 25.3-17 40.5-16.4 5.1 0 10.1.3 15.2 1.1l-3.7 11.3c-3.9-.5-7.8-.8-11.7-.8-18.8 0-32.8 9.5-34.9 24.4-1 5.8.5 11.7 4.2 16.2 6.3 6.2 15 9.3 23.8 8.4 4.5.1 9-.4 13.3-1.4l17.9-58h53l-3.6 10.5zM500 485c0 8.3-5.9 15-13.1 15H13.1C5.9 500 0 493.3 0 485c0-8.2 5.9-15 13.1-15h473.8c7.2.1 13.1 6.8 13.1 15z" fill="#0088ce"/></svg>