<?xml version="1.0" encoding="utf-8"?>

<svg version="1.1" id="DESKTOP" xmlns="http://www.w3.org/2000/svg" xmlns:xlink="http://www.w3.org/1999/xlink" x="0px" y="0px"
	 width="500px" height="500px" viewBox="0 0 500 500" style="enable-background:new 0 0 500 500;" xml:space="preserve">
<style type="text/css">
	.st0{fill:#0088CE;}
</style>
<path class="st0" d="M383.8,127.9c0,11.7-9.5,21.1-21.1,21.1c-11.7,0-21.2-9.5-21.2-21.1c0-11.7,9.5-21.2,21.2-21.2
	C374.3,106.8,383.8,116.2,383.8,127.9z M136,106.8c-11.7,0-21.2,9.5-21.2,21.2s9.5,21.1,21.2,21.1s21.1-9.5,21.1-21.1
	C157.1,116.2,147.7,106.8,136,106.8z M249.7,106.8c-11.7,0-21.2,9.5-21.2,21.2s9.5,21.1,21.2,21.1s21.1-9.5,21.1-21.1
	C270.8,116.2,261.4,106.8,249.7,106.8z M480.6,201.7c-2.1,0.6-4.8,0.6-7.2,0.9c12.9,27.8,19.4,54.9,19.4,83.9
	c0,12.7-1.2,25.4-3.4,37.8c0,1.4,0,69.1,0,69.1c0,20.7-9.2,34.5-22.9,34.5H431c-15.1,0-19.8-21-21.4-35.1c-7.9,0-16.4,0.1-16.4,0.1
	l-9.6-0.2H117.4l-9.8,0.2c0,0-6.9,0-13.7,0c-1.5,14.1-6.3,35-21.4,35H37c-13.7,0-22.9-13.9-22.9-34.5c0,0,0-55.4,0-57.2
	c-3.9-15.8-6-32.9-6-49.7c0-29,6.5-56.1,19.3-83.8c-2.7-0.3-5.7-0.3-7.9-1C6.6,197.9,0,189.3,0,176.1c0-15.4,8.7-25.4,23.9-27.2
	c17.9-2.2,26.4-0.9,32.3,2.8c1.1-1.9,3.2-5.4,3.2-5.4c17.2-29.3,35-59.7,49.8-70.6c15.2-11.2,53.4-16.1,123.7-15.7h4.7h25.7h4.8
	c70.2-0.4,108.3,4.5,123.5,15.7c14.7,10.9,32.4,41,49.4,70.2c0,0,2.1,3.4,3.3,5.5c5.8-3.4,14.3-4.6,31.8-2.4
	c15.2,1.9,23.9,11.8,23.9,27.2C500,189.3,493.5,197.9,480.6,201.7z M107,317.6c0-18-14.6-32.6-32.5-32.6c-18,0-32.5,14.6-32.5,32.6
	s14.6,32.6,32.5,32.6S107,335.6,107,317.6z M117.8,182.8c-12.8,5.1-23.1,15.5-28,28.9h28V182.8z M182.1,211.7
	c-4.9-13.5-15.3-24-28.4-29.1v29.1H182.1z M231.5,182.8c-12.8,5.1-23.1,15.5-27.9,28.9h27.9V182.8z M295.4,210.4
	c-5.1-12.9-15.3-22.9-27.9-27.8v29.1h4v-0.1h23.8C295.2,211.2,295.3,210.8,295.4,210.4z M344.5,182.8c-12.4,5-22.5,14.9-27.5,27.6
	c0.1,0.4,0.1,0.8,0.2,1.2h27.3V182.8z M362.7,158.7c31.4,0,59.1,21.2,67.2,51.6c0.1,0.4,0.2,0.9,0.2,1.4h22.7
	c-1.8-3.8-3.6-7.6-5.7-11.4c-5.5-9.3-25.5-42.9-25.5-42.9c-13.7-23.4-32.4-55.3-43.3-63.4c-6-4.4-28.2-11.7-110-11.3h-4.9h-25.7
	h-4.9c-82-0.4-104.2,6.9-110.2,11.3c-11.1,8.2-30,40.4-43.7,63.9c0,0-19.5,32.6-24.7,41.4c-2.2,4.2-4.3,8.3-6.2,12.4h20.5
	c0.1-0.4,0.1-0.9,0.2-1.4c8.1-30.4,35.8-51.6,67.2-51.6c23.1,0,44.1,11.5,56.8,29.5c12.8-18.1,33.8-29.5,56.9-29.5
	c22.8,0,43.6,11.2,56.4,29C319,170,339.8,158.7,362.7,158.7z M405.9,211.6v0.1h2.8c-4.9-13.5-15.4-24-28.4-29.1v29H405.9z
	 M458.1,317.6c0-18-14.6-32.6-32.5-32.6c-18,0-32.5,14.6-32.5,32.6s14.6,32.6,32.5,32.6S458.1,335.6,458.1,317.6z M486.9,470H13.1
	C5.9,470,0,476.7,0,485s5.9,15,13.1,15h473.8c7.2,0,13.1-6.7,13.1-15S494.1,470,486.9,470z"/>
</svg>
