<?xml version="1.0" encoding="utf-8"?>

<svg version="1.1" id="DESKTOP" xmlns="http://www.w3.org/2000/svg" xmlns:xlink="http://www.w3.org/1999/xlink" x="0px" y="0px"
	 viewBox="0 0 500 500" style="enable-background:new 0 0 500 500;" xml:space="preserve">
<style type="text/css">
	.st0{fill:#0088CE;}
	.st1{fill:none;}
	.st2{fill:#1387C9;}
	.st3{fill:#0F87C9;}
</style>
<path class="st0" d="M114.2,424l20.9-23.2h229.8l20.9,23.2c4.9,5.5,12.9,5.5,17.8,0c4.9-5.5,4.9-14.3,0-19.8l-60.4-67.4
	c1.4-0.9,2.7-1.9,3.7-2.9c11.2-9.1,21.7-23,29.3-44.6c10.6-30.3,18.1-57.3,20.2-90.6c2.8-41-14-104.9-25.1-134.6l-3.9-10.5
	c-2.4-6.6-11.5-20.9-27.8-37.8C325.4,1.1,311.9,0,291.5,0h-83c-20.4,0-33.9,1.1-47.8,15.6c-16.3,17-25.4,31.2-27.8,37.8L128.9,64
	c-11.2,29.7-28,93.6-25.1,134.6c2,33.2,9.6,60.2,20.2,90.6c7.6,21.6,18,35.6,29.3,44.6c1,0.9,2.3,1.9,3.7,2.8l-60.5,67.4
	c-4.9,5.5-4.9,14.4,0,19.8C101.4,429.4,109.3,429.4,114.2,424z M160.2,372.7l22.3-24.8c10.8,2.5,20.8,2.5,28.1,2.5h22.9v0l33,0h22.9
	c7.3,0,17.3,0,28.1-2.5l22.3,24.8H160.2z M322.8,312.2c-11.5,0-20.8-9.3-20.8-20.8s9.3-20.8,20.8-20.8c11.5,0,20.8,9.3,20.8,20.8
	S334.3,312.2,322.8,312.2z M134.8,178.7c-12.7,0,7.3-111.8,16.4-111.8h195.4c9.9,0,33.1,111.8,17.5,111.8H134.8z M156,291.4
	c0-11.5,9.3-20.8,20.8-20.8c11.5,0,20.8,9.3,20.8,20.8s-9.3,20.8-20.8,20.8C165.3,312.2,156,302.8,156,291.4z M486.9,470H13.1
	C5.9,470,0,476.7,0,485c0,8.3,5.9,15,13.1,15h473.8c7.2,0,13.1-6.7,13.1-15C500,476.7,494.1,470,486.9,470z"/>
</svg>
