<?xml version="1.0" encoding="utf-8"?>
<!-- Generator: Adobe Illustrator 21.0.2, SVG Export Plug-In . SVG Version: 6.00 Build 0)  -->
<svg version="1.1" id="DESKTOP" xmlns="http://www.w3.org/2000/svg" xmlns:xlink="http://www.w3.org/1999/xlink" x="0px" y="0px"
	 viewBox="0 0 500 500" style="enable-background:new 0 0 500 500;" xml:space="preserve">
<style type="text/css">
	.st0{fill:#0088CE;}
</style>
<path class="st0" d="M329.4,75.8H177.9c-19,0.4-34.2,16-33.9,35v240.6c-0.2,19.1,15.1,34.8,34.2,35l0,0h151.5
	c19-0.4,34.2-16,33.9-35V110.8C363.8,91.6,348.5,76,329.4,75.8L329.4,75.8z M212.1,348.5c0,4-3.1,7.3-7,7.6h-23.8
	c-4-0.3-7.1-3.6-7-7.6v-15.2c0-4,3.1-7.3,7-7.6h23.8c4,0.3,7.1,3.6,7,7.6V348.5z M272.7,348.5c0,4.2-3.4,7.6-7.6,7.6h-22.7
	c-4.2,0-7.6-3.4-7.6-7.6v-15.2c0-4.2,3.4-7.6,7.6-7.6h22.7c4.2,0,7.6,3.4,7.6,7.6V348.5z M333.3,348.5c0,4-3.1,7.3-7,7.6h-23.8
	c-4-0.3-7.1-3.6-7-7.6v-15.2c0-4,3.1-7.3,7-7.6h23.8c4,0.3,7.1,3.6,7,7.6V348.5z M333.3,286.6c-0.3,9.3-8.1,16.7-17.4,16.4H191.7
	c-9.3,0.3-17.1-7.1-17.4-16.4V130.1c0.3-9.3,8.1-16.7,17.4-16.4h124.2c9.3-0.3,17.1,7.1,17.4,16.4V286.6z M500,485
	c0,8.3-5.9,15-13.1,15H13.1C5.9,500,0,493.3,0,485c0-8.2,5.9-15,13.1-15h473.8C494.1,470.1,500,476.8,500,485z"/>
</svg>
