<svg version="1.1" id="DESKTOP" x="0" y="0" viewBox="0 0 500 500" xml:space="preserve"><path d="M49 131.7c4.5.7 8.9-.6 12.2-3.3-18.9 136.5-1.7 209.9-.9 213.5 2.1 12.4 7.7 19.7 16.7 22.3 0 9.8.1 42.1.1 42.1 0 12.1 9.7 21.9 21.6 21.9h16.9c11.9 0 21.7-9.8 21.7-21.9 0 0-.1-29.7-.1-40.8h222.5v40.8c0 12.1 9.7 21.9 21.6 21.9l20.1-.1c11.2 0 18.5-8.6 18.5-21.9V364c10.6-2.9 18.5-11.4 20.1-23l-.1.8c.6-2.3 8-33.9 8-93.1 0-32.1-2.2-72.3-8.8-120.3 3.3 2.6 7.7 3.9 12.2 3.2 8.6-1.4 14.6-9.6 13.2-18.4l-4.7-30c-1.4-8.8-9.5-14.8-18.1-13.4-4.7.7-8.5 3.5-10.9 7.3-1.3-6.9-2.6-13.8-4-20.9v-.1c-3.7-19.4-22.7-56-68.9-56.2h-107L142.4 0C96.2.2 77.1 37 73.6 56.4c-1.5 7.1-2.8 14.1-4.1 20.9-2.4-3.8-6.2-6.6-10.9-7.3-8.6-1.4-16.8 4.6-18.1 13.4l-4.7 30c-1.5 8.7 4.5 16.9 13.2 18.3zm58.6 210.2c-16.1 0-29.2-13.2-29.2-29.6 0-16.3 13.1-29.6 29.2-29.6s29.2 13.2 29.2 29.6c0 16.4-13.1 29.6-29.2 29.6zm209.9-111.4h-23.9c4.7-10.7 13.3-19 23.9-23.2v23.2zm32.2 0v-23.4c10.7 4.2 19.5 12.6 24.3 23.4h-24.3zm40.5 111.4c-16.1 0-29.2-13.2-29.2-29.6 0-16.3 13.1-29.6 29.2-29.6s29.2 13.2 29.2 29.6c0 16.4-13 29.6-29.2 29.6zM149.1 14.1h201.8v27.7H149.1V14.1zM97.6 64.2c.1-.4.8-3.7 2.5-8.2h299.7c1.8 4.4 2.4 7.6 2.5 8.1 12.1 59 18.6 114.9 19.5 166.4h-28.3c-7.9-26.6-32.1-45.1-59.7-45.1s-51.9 18.5-59.8 45.1H78c1-51.4 7.5-107.3 19.6-166.3zm236.3 112.5c10.5 0 18.9-8.6 18.9-19.2s-8.5-19.2-18.9-19.2c-10.5 0-19 8.6-19 19.2 0 10.5 8.5 19.2 19 19.2zm153 293.2H13.1c-7.2 0-13.1 6.7-13.1 15s5.9 15 13.1 15h473.8c7.2 0 13.1-6.7 13.1-15 0-8.2-5.9-15-13.1-15z" fill="#0f87c9"/></svg>