<?xml version="1.0" encoding="utf-8"?>

<svg version="1.1" id="DESKTOP" xmlns="http://www.w3.org/2000/svg" xmlns:xlink="http://www.w3.org/1999/xlink" x="0px" y="0px"
	 width="500px" height="500px" viewBox="0 0 500 500" style="enable-background:new 0 0 500 500;" xml:space="preserve">
<style type="text/css">
	.st0{fill:#0F87C9;}
</style>
<path class="st0" d="M103.4,395.5c46.7,0,86.3-31.2,99-73.7l33.5,3.1c17.5,1.6,33.2-12.3,35.1-31.1c0.1-1,0.2-3.1,0.2-3.1
	c0-0.6,0-1.2-0.1-1.7c1.2-46.4,27.4-88.5,68.3-110.1l8.7,22c-32.7,17.4-55.1,51.8-55.1,91.3c0,57,46.4,103.4,103.5,103.4
	S500,349.2,500,292.2s-46.4-103.4-103.4-103.4c-8.5,0-16.8,1.2-24.8,3.1l-12.3-31.3l-22.6-65.4c-1.8-5.1-6.5-8.5-11.9-8.5l-55.7-0.2
	c-7,0-12.7,5.6-12.7,12.6l0,0c0,7,5.6,12.6,12.6,12.6c0,0,34.1,0.1,46.7,0.2c2.8,8.1,10,28.8,14.8,43
	c-40.9,20.4-70.1,57.9-80.6,101.4c-11.3,1-36.6,3.5-48.3,4.7c-2.7-8.5-43-105.2-43-105.2h12.7c7,0,12.7-5.7,12.7-12.6
	c0-7-5.7-12.6-12.7-12.6h-62.2c-7,0-12.7,5.6-12.7,12.6s5.7,12.6,12.7,12.6h22.4l17.1,43.6c-13.7-6.7-29.1-10.6-45.4-10.6
	C46.4,188.8,0,235.2,0,292.2S46.4,395.5,103.4,395.5z M386.4,298.1c2.6,6.5,9.9,9.7,16.4,7.1s9.7-9.9,7.1-16.4l-27.8-70.5
	c4.7-0.9,9.5-1.4,14.4-1.4c41.5,0,75.3,33.7,75.3,75.2s-33.8,75.3-75.3,75.3c-41.6,0-75.4-33.8-75.4-75.3
	c0-27.6,15.1-51.8,37.3-64.9L386.4,298.1z M103.4,216.9c31.6,0,58.7,19.6,69.8,47.2l-0.5,0.1l-68.8,7.6
	c-9.9,1.1-17.5,10.1-17.6,20.5c-0.2,10.4,7.1,19.3,16.9,20.2l68.5,6.4l1.8,0.2c-10.9,28.2-38.2,48.3-70.3,48.3
	c-41.5,0-75.3-33.8-75.3-75.3C28.1,250.7,61.9,216.9,103.4,216.9z M500,484.5c0,8.3-5.9,15-13.1,15H13.1c-7.2,0-13.1-6.7-13.1-15
	s5.9-15,13.1-15h473.8C494.1,469.5,500,476.2,500,484.5z"/>
</svg>
