<svg viewBox="0 0 500 500"><path d="M103.4 395.5c46.7 0 86.3-31.2 99-73.7l33.5 3.1c17.5 1.6 33.2-12.3 35.1-31.1.1-1 .2-3.1.2-3.1 0-.6 0-1.2-.1-1.7 1.2-46.4 27.4-88.5 68.3-110.1l8.7 22c-32.7 17.4-55.1 51.8-55.1 91.3 0 57 46.4 103.4 103.5 103.4S500 349.2 500 292.2s-46.4-103.4-103.4-103.4c-8.5 0-16.8 1.2-24.8 3.1l-12.3-31.3-22.6-65.4c-1.8-5.1-6.5-8.5-11.9-8.5l-55.7-.2c-7 0-12.7 5.6-12.7 12.6s5.6 12.6 12.6 12.6c0 0 34.1.1 46.7.2 2.8 8.1 10 28.8 14.8 43-40.9 20.4-70.1 57.9-80.6 101.4-11.3 1-36.6 3.5-48.3 4.7-2.7-8.5-43-105.2-43-105.2h12.7c7 0 12.7-5.7 12.7-12.6 0-7-5.7-12.6-12.7-12.6h-62.2c-7 0-12.7 5.6-12.7 12.6s5.7 12.6 12.7 12.6h22.4l17.1 43.6c-13.7-6.7-29.1-10.6-45.4-10.6C46.4 188.8 0 235.2 0 292.2s46.4 103.3 103.4 103.3zm283-97.4c2.6 6.5 9.9 9.7 16.4 7.1s9.7-9.9 7.1-16.4l-27.8-70.5c4.7-.9 9.5-1.4 14.4-1.4 41.5 0 75.3 33.7 75.3 75.2s-33.8 75.3-75.3 75.3c-41.6 0-75.4-33.8-75.4-75.3 0-27.6 15.1-51.8 37.3-64.9l28 70.9zm-283-81.2c31.6 0 58.7 19.6 69.8 47.2l-.5.1-68.8 7.6c-9.9 1.1-17.5 10.1-17.6 20.5-.2 10.4 7.1 19.3 16.9 20.2l68.5 6.4 1.8.2c-10.9 28.2-38.2 48.3-70.3 48.3-41.5 0-75.3-33.8-75.3-75.3.2-41.4 34-75.2 75.5-75.2zM500 484.5c0 8.3-5.9 15-13.1 15H13.1c-7.2 0-13.1-6.7-13.1-15s5.9-15 13.1-15h473.8c7.2 0 13.1 6.7 13.1 15z" fill="#0f87c9"/></svg>