<?xml version="1.0" encoding="utf-8"?>
<!-- Generator: Adobe Illustrator 21.0.2, SVG Export Plug-In . SVG Version: 6.00 Build 0)  -->
<svg version="1.1" id="DESKTOP" xmlns="http://www.w3.org/2000/svg" xmlns:xlink="http://www.w3.org/1999/xlink" x="0px" y="0px"
	 viewBox="0 0 500 500" style="enable-background:new 0 0 500 500;" xml:space="preserve">
<style type="text/css">
	.st0{fill:#0088CE;}
</style>
<path class="st0" d="M388.6,232.6V219c0-76.5-62.1-138.6-138.6-138.6S111.4,142.5,111.4,219v13.6C85.6,246.2,69,272,68.2,300.8
	c1.5,44.7,40.9,79.5,87.1,79.5c6.8,0,11.4-5.3,11.4-12.1V233.3c0-6.8-5.3-11.4-12.1-11.4s-13.6,0.8-19.7,2.3v-4.5
	c0-63.6,51.5-115.2,115.2-115.2S365.2,156,365.2,219.7v4.5c-6.8-1.5-13.6-2.3-20.5-2.3c-6.1,0-11.4,5.3-11.4,11.4v135.6
	c0,6.8,5.3,11.4,12.1,11.4c45.5,0,85.6-34.8,87.1-79.5C430.3,272,414.4,246.2,388.6,232.6z M500,485c0,8.3-5.9,15-13.1,15H13.1
	C5.9,500,0,493.3,0,485c0-8.2,5.9-15,13.1-15h473.8C494.1,470.1,500,476.8,500,485z"/>
</svg>
