<?xml version="1.0" encoding="utf-8"?>
<!-- Generator: Adobe Illustrator 21.0.2, SVG Export Plug-In . SVG Version: 6.00 Build 0)  -->
<svg version="1.1" id="DESKTOP" xmlns="http://www.w3.org/2000/svg" xmlns:xlink="http://www.w3.org/1999/xlink" x="0px" y="0px"
	 viewBox="0 0 500 500" style="enable-background:new 0 0 500 500;" xml:space="preserve">
<style type="text/css">
	.st0{fill:#0088CE;}
</style>
<path class="st0" d="M347,219.7c-28-9.8-43.9-38.6-39.4-67.4c0.8-6.1-2.3-12.1-7.6-14.4l-0.8-0.8c-31.8-19.7-75.8-31.8-118.2,26.5
	c-5.3,8.3-9.1,17.4-11.4,26.5c-1.5,7.6,3.8,14.4,10.6,15.2s12.9-3,15.2-9.1c1.5-5.3,3.8-11.4,6.8-15.9
	c18.2-24.2,34.8-31.8,42.4-29.5l-21.2,54.5l0,0l-6.8,18.9c0,0.8-12.9,35.6-30.3,54.5c-12.1,12.9-37.1,3.8-37.1,3.8
	c-8.3-3.8-18.2,0.8-22,9.8c-3.8,8.3,0.8,18.2,9.8,22c17.4,6.8,52.3,11.4,74.2-12.1c11.4-12.9,20.5-27.3,28-43.2
	c12.1,9.8,22,22,30.3,35.6c8.3,15.9,10.6,53.8,9.8,74.2c0,3.8,0.8,7.6,3,9.8h-90.9c-3.8-0.8-6.8,2.3-7.6,6.1
	c-0.8,3.8,2.3,6.8,6.1,7.6c0.8,0,0.8,0,1.5,0h16.7c-0.8,1.5-0.8,2.3-0.8,3.8c0,5.3,4.5,9.8,9.8,10.6c5.3,0.8,9.8-4.5,10.6-9.8
	c0-1.5,0-3-0.8-3.8h78.8c-2.3,5.3,0,11.4,5.3,12.9c5.3,2.3,11.4,0,12.9-5.3c0.8-1.5,0.8-2.3,0.8-3.8s0-2.3-0.8-3.8h21.2
	c3.8-0.8,6.1-3.8,6.1-7.6c0-3-3-5.3-6.1-6.1h-35.6c2.3-3,3-6.1,3-9.1c0-6.1,1.5-58.3-12.9-87.9c-8.3-16.7-19.7-31.8-33.3-44.7
	l18.9-44.7c9.1,24.2,28,43.2,52.3,51.5c6.8,2.3,14.4-0.8,17.4-8.3C357.6,229.6,353.8,222,347,219.7L347,219.7z M298.5,121.2
	c15.2-2.3,25.8-16.7,23.5-31.8c-2.3-15.2-16.7-25.8-31.8-23.5c-15.2,2.3-25.8,15.9-23.5,31.8C268.9,112.9,283.3,123.5,298.5,121.2
	C298.5,122,298.5,122,298.5,121.2z M500,485c0,8.3-5.9,15-13.1,15H13.1C5.9,500,0,493.3,0,485c0-8.2,5.9-15,13.1-15h473.8
	C494.1,470.1,500,476.8,500,485z"/>
</svg>
