<svg version="1.1" id="DESKTOP" x="0" y="0" viewBox="0 0 500 500" xml:space="preserve"><path d="M82.6 411.2h334.7c21.1 0 38.3-17.1 38.3-38.3V38.2c0-21.1-17.1-38.2-38.3-38.2H82.6C61.5 0 44.4 17.1 44.4 38.2v334.7c0 21.2 17.1 38.3 38.2 38.3zm36.7-333.6c.1-1.8 1.5-3.2 3.3-3.2h52c1.3 0 2.6.8 3 2.1l73.2 184.2 72.8-184.2c.5-1.2 1.7-2.1 3-2.1h49.9c1.8 0 3.2 1.4 3.3 3.2l9.3 255.9c0 .9-.3 1.7-.9 2.4-.6.6-1.5 1-2.4 1h-45.6c-1.8 0-3.2-1.4-3.3-3.2l-4.6-153.3L271 334.7c-.5 1.3-1.7 2.1-3 2.1h-36.3c-1.3 0-2.6-.8-3-2.1l-62.1-155.4-4.2 154.3c-.1 1.8-1.5 3.2-3.3 3.2h-44.9c-.9 0-1.8-.4-2.4-1-.6-.6-1-1.5-.9-2.4l8.4-255.8zm367.6 392.3H13.1c-7.2 0-13.1 6.7-13.1 15s5.9 15 13.1 15h473.8c7.2 0 13.1-6.7 13.1-15 0-8.2-5.9-15-13.1-15z" fill="#0088ce"/></svg>