<svg viewBox="0 0 500 500"><path d="M287.4 87.9H121.2v177.3h166.2V87.9zM145.8 312c-22.7-.1-41.2 18.2-41.4 40.9-.1 22.7 18.2 41.2 40.9 41.4 22.7.1 41.2-18.2 41.4-40.9v-.2c.1-22.7-18.2-41.1-40.9-41.2zm190.5 2.4c-22-.1-40 17.6-40.2 39.7-.1 22 17.6 40 39.7 40.2 22 .1 40-17.6 40.2-39.7v-.2c.1-22-17.7-39.9-39.7-40zm10-162.1h-40.6c-.9 0-1.6.6-1.7 1.5v127.5H104.9V156.4c0-4.7-4.2-4-5.8-4H74.5s-5.3-.7-5.3 3v208.2h21.7c-.7-3.6-1-7.2-1.1-10.8-1-31.3 23.6-57.4 54.9-58.4s57.4 23.6 58.4 54.9c.1 4.8-.3 9.6-1.4 14.3h80.5c-6-30 13.5-59.1 43.5-65.1s59.1 13.5 65.1 43.5c1.4 7.1 1.4 14.5 0 21.6h39V246.4l-83.5-94.1zm67 94.5h-66.4c-.5 0-.5-.6-.5-.6v-72.7s0-.8 1 0l65.9 72.4c.6.8 0 .8 0 .9zM500 485c0 8.3-5.9 15-13.1 15H13.1C5.9 500 0 493.3 0 485c0-8.2 5.9-15 13.1-15h473.8c7.2.1 13.1 6.8 13.1 15z" fill="#0088ce"/></svg>