<?xml version="1.0" encoding="utf-8"?>
<!-- Generator: Adobe Illustrator 21.0.2, SVG Export Plug-In . SVG Version: 6.00 Build 0)  -->
<svg version="1.1" id="DESKTOP" xmlns="http://www.w3.org/2000/svg" xmlns:xlink="http://www.w3.org/1999/xlink" x="0px" y="0px"
	 viewBox="0 0 500 500" style="enable-background:new 0 0 500 500;" xml:space="preserve">
<style type="text/css">
	.st0{fill:#0088CE;}
</style>
<path class="st0" d="M279.5,220.5c-32.6-4.5-56.8-31.8-56.8-64.4c0-3.8-1.5-7.6-4.5-9.8c-1.5-1.5-3-3-5.3-3.8
	c-47.7-18.2-100.8,5.3-118.9,53c-1.5,4.5-3,8.3-3.8,12.9c-1.5,0-3.8,0-5.3,0c-6.8,0.8-13.6,3.8-18.2,9.1l-2.3-1.5
	c-9.8-7.6-24.2-6.1-31.8,3.8l-26.5,34c-7.6,9.8-6.1,23.5,3.8,31.8l50.8,40.2c3.8,3,9.1,4.5,14.4,4.5c6.8,0,13.6-3,17.4-8.3
	l27.3-34.1c7.6-9.8,6.1-23.5-3.8-31.8l-19-15.2l-1.5-0.8l0.8,0.8l-1.5-0.8l-18.9-14.4c3-2.3,6.1-3.8,9.8-4.5H88c0,0.8,0,0.8,0,1.5
	c-0.8,7.6,5.3,13.6,12.1,13.6c2.3,0,3.8,0,6.1-0.8c0,0.8,0,1.5,0.8,1.5c0.8,3.8,0,7.6-2.3,10.6l9.8,7.6c6.8-9.8,6.8-22.7,0-32.6
	c2.3-29.5,24.2-53.8,53-59.1V250c-0.8,17.4-6.1,34.8-13.6,50.8c-9.8,15.2-25,26.5-42.4,31.1c-9.1,2.3-15.2,11.4-12.9,20.5
	s11.4,15.2,20.5,12.9l0,0c26.5-6.8,50-23.5,64.4-47c1.5-2.3,2.3-4.5,3.8-6.8c0,37.9,0,75.8,0,75.8c0,9.8,7.6,17.4,17.4,17.4
	S222,397,222,387.2V227.3c0-0.8,0-1.5,0-2.3v-6.8c14.4,15.2,34.1,25,54.5,28c6.8,1.5,14.4-3,15.9-9.8s-3-14.4-9.8-15.9
	C280.3,220.5,280.3,220.5,279.5,220.5L279.5,220.5z M390.9,125c15.9,0,28.8-12.9,28-28.8s-12.1-28-28-28s-28,12.9-28,28.8
	C362.9,112.2,375.8,125,390.9,125L390.9,125z M193.9,125c15.9,0,28.8-12.9,28-28.8s-12.1-28-28-28s-28,12.9-28,28.8
	C165.9,112.2,178.8,125,193.9,125C193.9,125,194.7,125,193.9,125L193.9,125z M95.5,241.7l8.3,6.1L95.5,241.7L95.5,241.7z
	 M481.1,213.7c-32.6-3.8-56.8-31.8-57.6-64.4c0-6.8-5.3-12.1-11.4-12.9c-24.2-3-49.2,3.8-68.2,18.9c-26.5,21.2-40.2,55.3-34.1,88.6
	c1.5,6.8,8.3,11.4,15.9,9.8c6.1-1.5,10.6-6.8,10.6-12.9c0-0.8,0-1.5,0-2.3c-0.8-3.8-0.8-7.6-0.8-12.1c0-2.3,0-5.3,0.8-7.6
	c2.3-17.4,10.6-33.3,25-43.9l2.3-1.5v212.1c0,9.8,7.6,17.4,17.4,17.4s17.4-7.6,17.4-17.4c0,0,0-61.4,0-104.5
	c8.3,10.6,15.2,21.2,21.2,33.3c7.6,15.9,11.4,33.3,11.4,50.8c0,5.3-0.8,11.4-1.5,16.7c-1.5,9.1,4.5,18.2,14.4,19.7
	c8.3,1.5,16.7-3.8,18.9-12.1c5.3-30.3,1.5-61.4-11.4-88.6c-8.3-18.2-19.7-34.8-32.6-50v-46.2c14.4,18.9,36.4,31.8,60.6,34.8
	c6.8,1.5,14.4-3,15.9-9.8s-3-14.4-9.8-15.9C481.8,213.7,481.1,213.7,481.1,213.7L481.1,213.7z M500,485c0,8.3-5.9,15-13.1,15H13.1
	C5.9,500,0,493.3,0,485c0-8.2,5.9-15,13.1-15h473.8C494.1,470.1,500,476.8,500,485z"/>
</svg>
