<?xml version="1.0" encoding="utf-8"?>
<!-- Generator: Adobe Illustrator 21.0.2, SVG Export Plug-In . SVG Version: 6.00 Build 0)  -->
<svg version="1.1" id="DESKTOP" xmlns="http://www.w3.org/2000/svg" xmlns:xlink="http://www.w3.org/1999/xlink" x="0px" y="0px"
	 viewBox="0 0 500 500" style="enable-background:new 0 0 500 500;" xml:space="preserve">
<style type="text/css">
	.st0{fill:#0088CE;}
</style>
<path class="st0" d="M245.5,129.6c-41.7,0.8-75.8,34.8-75,77.3c0,25.8,12.9,49.2,25,70.5c9.8,18.2,19.7,34.8,19.7,51.5v4.5
	c0,3.8,3,6.8,6.8,6.8l0,0h48.5c3.8,0,6.8-3,6.8-6.8l0,0v-5.3c0-16.7,9.8-34.1,19.7-53.8c11.4-22,24.2-44.7,24.2-68.2
	C320.5,164.4,287.1,130.3,245.5,129.6z M273.5,352.3l-52.3,8.3c-4.5,0.8-7.6,4.5-6.8,9.1c0.8,3.8,3.8,6.8,7.6,6.8h0.8l52.3-8.3
	c4.5-0.8,7.6-4.5,6.8-9.1C281.8,355.3,278.8,352.3,273.5,352.3C274.2,352.3,274.2,352.3,273.5,352.3z M273.5,372.7l-52.3,8.3
	c-4.5,0.8-7.6,4.5-6.8,9.1c0.8,3.8,3.8,6.8,7.6,6.8h0.8l52.3-8.3c4.5-0.8,7.6-4.5,6.8-9.1C281.8,375,278,372,273.5,372.7
	C274.2,372.7,274.2,372.7,273.5,372.7L273.5,372.7z M267.4,400.8h-34.8c-4.5,0-8.3,3.8-8.3,8.3s3.8,8.3,8.3,8.3h34.8
	c4.5,0,8.3-3.8,8.3-8.3C275,403.8,272,400.8,267.4,400.8z M386.4,200h-18.9c-5.3,0.8-9.8,5.3-9.1,10.6c0.8,4.5,4.5,9.1,9.1,9.1h18.9
	c5.3-0.8,9.8-5.3,9.1-10.6C395.5,203.8,390.9,200,386.4,200z M142.4,209.9c0-5.3-3.8-9.8-9.1-9.8l0,0h-19.7
	c-5.3,0.8-9.8,5.3-9.1,10.6c0.8,4.5,4.5,9.1,9.1,9.1h18.9C137.9,219.7,142.4,215.2,142.4,209.9L142.4,209.9z M351.5,154.6
	c1.5,0,3-0.8,4.5-1.5l16.7-9.8c4.5-3,6.1-9.1,3.8-13.6c-2.3-4.5-7.6-6.1-12.1-3.8h-0.8l-16.7,9.8c-4.5,3-6.1,9.1-3.8,13.6
	C344.7,153.1,347.7,154.6,351.5,154.6L351.5,154.6z M143.9,258.4l-16.7,9.8c-4.5,3-6.1,9.1-3.8,13.6c1.5,3,4.5,5.3,8.3,5.3
	c1.5,0,3-0.8,4.5-1.5l16.7-9.8c4.5-3,6.1-9.1,3.8-13.6C154.5,257.6,149.2,255.3,143.9,258.4L143.9,258.4z M322.7,74.3
	c-4.5-3-9.8-1.5-12.9,3c0,0,0,0,0,0.8L300,95.5c-3,4.5-1.5,10.6,3.8,13.6c1.5,0.8,3,1.5,4.5,1.5c3.8,0,6.8-1.5,8.3-4.5l9.8-17.4
	C328.8,82.6,327.3,76.5,322.7,74.3z M246.2,93.2c5.3,0,9.8-4.5,9.8-9.8l0,0V62.9c0-5.3-3.8-9.8-9.1-9.8c-5.3-0.8-9.8,3.8-10.6,9.1
	c0,0.8,0,1.5,0,1.5v19.7C236.4,88.7,240.9,93.2,246.2,93.2L246.2,93.2z M183.3,104.6c1.5,3,4.5,5.3,8.3,5.3c1.5,0,3-0.8,4.5-1.5
	c4.5-3,6.1-9.1,3.8-13.6l-9.8-17.4c-2.3-4.5-7.6-6.1-12.1-3.8h-0.8c-4.5,3-6.1,9.1-3.8,13.6L183.3,104.6z M153.8,136.4l-16.7-9.8
	c-4.5-3-9.8-1.5-12.9,3c0,0,0,0,0,0.8c-3,4.5-1.5,10.6,3.8,13.6l16.7,9.8c1.5,0.8,3,1.5,4.5,1.5c3,0,6.8-2.3,8.3-4.5
	C159.8,145.5,158.3,139.4,153.8,136.4z M372.7,269l-16.7-9.8c-4.5-3-9.8-1.5-12.9,3c0,0,0,0,0,0.8c-3,4.5-1.5,10.6,3.8,13.6
	l16.7,9.8c1.5,0.8,3,1.5,4.5,1.5c3.8,0,6.8-2.3,8.3-4.5C378.8,278.1,377.3,272,372.7,269L372.7,269z M500,485c0,8.3-5.9,15-13.1,15
	H13.1C5.9,500,0,493.3,0,485c0-8.2,5.9-15,13.1-15h473.8C494.1,470.1,500,476.8,500,485z"/>
</svg>
