<svg viewBox="0 0 500 500"><path d="M494.8 227.3L250 96 5.1 227.1s-5.1 3-5.1 8.7c0 5.4 4.4 9.8 9.8 9.8h17.9V428H92v-81.9c0-17.8 14.6-32.3 32.7-32.3s32.7 14.5 32.7 32.3V428H205V315.5c0-24.4 20-44.3 44.9-44.3s44.9 20 44.9 44.3V428h47.3v-81.9c0-17.8 14.6-32.3 32.7-32.3s32.7 14.5 32.7 32.3V428h64.7V245.6h18c5.4 0 9.8-4.4 9.8-9.8 0-3.8-2.2-6.9-5.2-8.5zm-245 11.5c-25.3 0-46.2-21-46.2-46.5s20.9-46.5 46.2-46.5c26 0 46.5 21.1 46.5 46.5.1 25.5-20.5 46.5-46.5 46.5zM486.9 470H13.1C5.9 470 0 476.7 0 485s5.9 15 13.1 15h473.8c7.2 0 13.1-6.7 13.1-15s-5.9-15-13.1-15z" fill="#0088ce"/></svg>