<svg viewBox="0 0 500 500"><path d="M388.6 232.6V219c0-76.5-62.1-138.6-138.6-138.6S111.4 142.5 111.4 219v13.6C85.6 246.2 69 272 68.2 300.8c1.5 44.7 40.9 79.5 87.1 79.5 6.8 0 11.4-5.3 11.4-12.1V233.3c0-6.8-5.3-11.4-12.1-11.4s-13.6.8-19.7 2.3v-4.5c0-63.6 51.5-115.2 115.2-115.2S365.2 156 365.2 219.7v4.5c-6.8-1.5-13.6-2.3-20.5-2.3-6.1 0-11.4 5.3-11.4 11.4v135.6c0 6.8 5.3 11.4 12.1 11.4 45.5 0 85.6-34.8 87.1-79.5-2.2-28.8-18.1-54.6-43.9-68.2zM500 485c0 8.3-5.9 15-13.1 15H13.1C5.9 500 0 493.3 0 485c0-8.2 5.9-15 13.1-15h473.8c7.2.1 13.1 6.8 13.1 15z" fill="#0088ce"/></svg>