<?xml version="1.0" encoding="utf-8"?>
<!-- Generator: Adobe Illustrator 21.0.2, SVG Export Plug-In . SVG Version: 6.00 Build 0)  -->
<svg version="1.1" id="DESKTOP" xmlns="http://www.w3.org/2000/svg" xmlns:xlink="http://www.w3.org/1999/xlink" x="0px" y="0px"
	 viewBox="0 0 500 500" style="enable-background:new 0 0 500 500;" xml:space="preserve">
<style type="text/css">
	.st0{fill:#0088CE;}
</style>
<path class="st0" d="M253,167.4c4.5-2.3,6.1-7.6,3.8-12.1l0,0l-34.1-68.9c-2.3-4.5-7.6-6.1-12.1-3.8l0,0l-34.1,16.7l41.7,84.8
	L253,167.4z M362.9,362.1l-34.1-68.9c-2.3-4.5-7.6-6.1-12.1-3.8l0,0l-34.1,16.7l41.7,84.8l34.1-16.7
	C362.9,372,365.1,366.7,362.9,362.1L362.9,362.1z M251.5,313.6c-3.8-2.3-7.6-5.3-9.8-9.8c-3-6.1-7.6-13.6-7.6-13.6l-32.6-58.3
	c0,0-3-7.6-6.1-13.6c-1.5-4.5-2.3-9.1-1.5-13.6c0.8-6.1,4.5-11.4,10.6-13.6L162.8,107c-23.5,25.8-35.6,82.6-18.2,135.6l6.1,15.2
	l32.6,58.3l8.3,13.6c31.1,47,84.1,71.2,118.2,68.2l-41.7-84.8C263.6,316.7,256.8,316.7,251.5,313.6z M500,485c0,8.3-5.9,15-13.1,15
	H13.1C5.9,500,0,493.3,0,485c0-8.2,5.9-15,13.1-15h473.8C494.1,470.1,500,476.8,500,485z"/>
</svg>
