<svg viewBox="0 0 500 500"><path d="M194.7 130.3c16.7-3.8 27.3-20.5 23.5-37.9v-.8c-4.5-17.4-22.7-27.3-39.4-22.7-16.7 3.8-27.3 20.5-23.5 37.9v.8c5.3 16.6 22.8 27.2 39.4 22.7zm66.7 178.8c-15.2-.8-30.3-3.8-44.7-8.3-94.7-33.3-93.2-143.9-88.6-189.4.8-9.1-6.1-17.4-15.2-18.2-9.8-.8-18.2 5.3-18.9 15.2-13.6 111.4 28 195.5 109.8 224.2 18.2 6.1 36.4 9.8 55.3 10.6 9.1.8 17.4-6.8 17.4-15.9.8-9.9-6-17.5-15.1-18.2zm147.7-9.9c-21.2-16.7-43.2-31.8-65.9-45.5-17.4-9.1-59.8-12.9-72-13.6h-16.7l-12.1-45.5c26.5 11.4 56.8 11.4 83.3 0 7.6-3 10.6-11.4 7.6-18.9v-.8c-3.8-7.6-12.1-10.6-19.7-7.6-31.1 13.6-67.4 3.8-87.1-23.5-3-4.5-9.1-6.8-14.4-6.1h-3.8c-11.4 1.5-22.7 6.1-32.6 12.9-3.8 2.3-5.3 6.8-4.5 10.6l.8 2.3 25 96.2c.8 9.8 9.1 17.4 18.9 17.4l38.6.8c21.2 0 44.7 3 50.8 6.1 4.5 5.3 12.1 28 16.7 49.2l6.8 37.9c2.3 10.6 12.1 17.4 22.7 15.2 10.6-1.5 17.4-11.4 15.9-22l-7.6-37.9v-.8c-.8-4.5-2.3-10.6-4.5-17.4 12.1 8.3 22.7 16.7 28.8 21.2 8.3 6.1 20.5 5.3 27.3-3 7.6-8.2 6.8-20.3-2.3-27.2.8.8.8 0 0 0zM500 485c0 8.3-5.9 15-13.1 15H13.1C5.9 500 0 493.3 0 485c0-8.2 5.9-15 13.1-15h473.8c7.2.1 13.1 6.8 13.1 15z" fill="#0088ce"/></svg>