<?xml version="1.0" encoding="utf-8"?>
<!-- Generator: Adobe Illustrator 21.0.2, SVG Export Plug-In . SVG Version: 6.00 Build 0)  -->
<svg version="1.1" id="DESKTOP" xmlns="http://www.w3.org/2000/svg" xmlns:xlink="http://www.w3.org/1999/xlink" x="0px" y="0px"
	 viewBox="0 0 500 500" style="enable-background:new 0 0 500 500;" xml:space="preserve">
<style type="text/css">
	.st0{fill:#0088CE;}
</style>
<path class="st0" d="M106.1,121.2H394c21.2,0,37.9,16.7,37.9,37.9l0,0l0,0H68.2l0,0l0,0C68.2,137.9,84.9,121.2,106.1,121.2z
	 M68.2,189.4v128.8c0,21.2,16.7,37.9,37.9,37.9H394c21.2,0,37.9-16.7,37.9-37.9V189.4H68.2z M139.4,312.9l-37.1-43.2l37.1-46.2
	V312.9z M219,318.2l-37.1-43.9l37.9-47L219,318.2z M500,485c0,8.3-5.9,15-13.1,15H13.1C5.9,500,0,493.3,0,485c0-8.2,5.9-15,13.1-15
	h473.8C494.1,470.1,500,476.8,500,485z"/>
</svg>
