<svg version="1.1" id="DESKTOP" x="0" y="0" viewBox="0 0 500 500" xml:space="preserve"><path d="M114.2 424l20.9-23.2h229.8l20.9 23.2c4.9 5.5 12.9 5.5 17.8 0s4.9-14.3 0-19.8l-60.4-67.4c1.4-.9 2.7-1.9 3.7-2.9 11.2-9.1 21.7-23 29.3-44.6 10.6-30.3 18.1-57.3 20.2-90.6 2.8-41-14-104.9-25.1-134.6l-3.9-10.5c-2.4-6.6-11.5-20.9-27.8-37.8C325.4 1.1 311.9 0 291.5 0h-83c-20.4 0-33.9 1.1-47.8 15.6-16.3 17-25.4 31.2-27.8 37.8l-4 10.6c-11.2 29.7-28 93.6-25.1 134.6 2 33.2 9.6 60.2 20.2 90.6 7.6 21.6 18 35.6 29.3 44.6 1 .9 2.3 1.9 3.7 2.8L96.5 404c-4.9 5.5-4.9 14.4 0 19.8 4.9 5.6 12.8 5.6 17.7.2zm46-51.3l22.3-24.8c10.8 2.5 20.8 2.5 28.1 2.5h78.8c7.3 0 17.3 0 28.1-2.5l22.3 24.8H160.2zm162.6-60.5c-11.5 0-20.8-9.3-20.8-20.8s9.3-20.8 20.8-20.8 20.8 9.3 20.8 20.8-9.3 20.8-20.8 20.8zm-188-133.5c-12.7 0 7.3-111.8 16.4-111.8h195.4c9.9 0 33.1 111.8 17.5 111.8H134.8zM156 291.4c0-11.5 9.3-20.8 20.8-20.8s20.8 9.3 20.8 20.8-9.3 20.8-20.8 20.8-20.8-9.4-20.8-20.8zM486.9 470H13.1C5.9 470 0 476.7 0 485s5.9 15 13.1 15h473.8c7.2 0 13.1-6.7 13.1-15s-5.9-15-13.1-15z" fill="#0088ce"/></svg>