<?xml version="1.0" encoding="utf-8"?>

<svg version="1.1" id="DESKTOP" xmlns="http://www.w3.org/2000/svg" xmlns:xlink="http://www.w3.org/1999/xlink" x="0px" y="0px"
	 width="500px" height="500px" viewBox="0 0 500 500" style="enable-background:new 0 0 500 500;" xml:space="preserve">
<style type="text/css">
	.st0{fill:#0088CE;}
</style>
<path class="st0" d="M473.3,229c0,107.4-87.3,194.7-194.7,194.7c-53.4,0-105.1-22.3-141.7-61.2c-7.3-7.7-6.9-19.9,0.8-27.2
	c7.7-7.3,19.9-6.9,27.2,0.8c29.8,31.7,70.2,49.1,113.7,49.1c86.1,0,156.2-70.1,156.2-156.2S364.7,72.8,278.6,72.8
	s-156.2,70-156.2,156.2c0,0.2,0,0.3,0,0.5l28.4-38.2c6.4-8.5,18.4-10.3,26.9-4s10.3,18.4,4,26.9l-65.4,87.9l-87.8-65.3
	c-8.5-6.3-10.3-18.4-4-26.9s18.4-10.3,26.9-4L83.9,230c0-0.3-0.1-0.7-0.1-1c0-107.4,87.3-194.7,194.7-194.7
	C385.9,34.3,473.3,121.6,473.3,229z M386.9,267c1,0.2,2,0.2,3,0.2c9.3,0,17.5-6.8,19-16.3c1.6-10.5-5.5-20.3-16-22l-111.1-17.5
	l-41.2-79c-4.9-9.4-16.5-13.1-26-8.2c-9.4,4.9-13.1,16.5-8.2,26l50.2,96.3L386.9,267z M486.9,469.7H13.1c-7.2,0-13.1,6.7-13.1,15
	s5.9,15,13.1,15h473.8c7.2,0,13.1-6.7,13.1-15C500,476.5,494.1,469.7,486.9,469.7z"/>
</svg>
