<?xml version="1.0" encoding="utf-8"?>
<!-- Generator: Adobe Illustrator 21.0.2, SVG Export Plug-In . SVG Version: 6.00 Build 0)  -->
<svg version="1.1" id="DESKTOP" xmlns="http://www.w3.org/2000/svg" xmlns:xlink="http://www.w3.org/1999/xlink" x="0px" y="0px"
	 viewBox="0 0 500 500" style="enable-background:new 0 0 500 500;" xml:space="preserve">
<style type="text/css">
	.st0{fill:#0088CE;}
</style>
<path class="st0" d="M331.8,127.3c16.7,0,29.5-13.6,29.5-29.5c0-16.7-13.6-29.5-29.5-29.5s-29.5,13.6-29.5,29.5
	C302.2,114.4,315.9,127.3,331.8,127.3L331.8,127.3z M420.4,226.5c-34.1-4.5-59.1-33.3-59.1-67.4c0-3.8-2.3-7.6-5.3-9.8
	c-1.5-1.5-3-3-5.3-3.8c-24.2-9.1-50-8.3-73.5,2.3c-32.6,14.4-54.5,45.5-56.8,81.1c0,4.5,1.5,8.3,4.5,11.4l-19.7,23.5l-3.8,4.5
	c-1.5-3.8-3.8-6.8-6.8-9.1L168.1,238c-4.5-3.8-10.6-5.3-16.7-5.3h-2.3c-6.8,0.8-12.9,3.8-16.7,9.1L70.3,316
	c-3.8,4.5-6.1,10.6-5.3,17.4c0.8,6.8,3.8,12.9,9.1,17.4L100,372l0,0c-0.8,0-2.3,0.8-3,0.8c-11.4,4.5-17.4,17.4-12.9,29.5
	c4.5,11.4,17.4,17.4,29.5,12.9c9.1-3.8,14.4-12.1,14.4-21.2c0-4.5-1.5-9.1-3.8-12.9l118.2-140.2c1.5-0.8,2.3-2.3,3-3.8l0.8-1.5l0,0
	c0.8-1.5,0.8-3,0.8-3.8c0.8-6.8,2.3-13.6,4.5-19.7c6.8-16.7,19.7-30.3,36.4-37.9c4.5-2.3,9.8-3.8,15.2-4.5v89.4
	c-0.8,18.2-6.1,36.4-14.4,53c-9.8,15.9-25.8,27.3-43.9,32.6c-9.8,2.3-15.9,11.4-13.6,21.2c2.3,9.8,11.4,15.9,21.2,13.6l0,0
	c28-6.8,52.3-25,67.4-49.2c1.5-2.3,2.3-4.5,3.8-6.8c0,39.4,0,78.8,0,78.8c0,9.8,8.3,18.2,18.2,18.2c9.8,0,18.2-8.3,18.2-18.2
	l0.8-165.9c0-0.8,0-1.5,0-2.3v-6.8c15.2,15.9,34.8,25.8,56.1,28.8c7.6,0.8,14.4-4.5,15.2-11.4C433.3,234.1,428,227.3,420.4,226.5
	L420.4,226.5L420.4,226.5z M500,485c0,8.3-5.9,15-13.1,15H13.1C5.9,500,0,493.3,0,485c0-8.2,5.9-15,13.1-15h473.8
	C494.1,470.1,500,476.8,500,485z"/>
</svg>
