<svg viewBox="0 0 500 500"><path d="M368.2 103.8L91.7 242.4c-3.8 1.5-5.3 6.1-3.8 9.8.8 1.5 1.5 2.3 3 3l60.6 40.2c6.8 4.5 15.9 3.8 22-1.5l125.8-109.8c1.5-1.5 4.5-1.5 6.1 0 1.5 1.5 1.5 4.5 0 6.1l-103 129.5c-3.8 4.5-5.3 9.8-5.3 15.2v57.6c0 2.3 2.3 4.5 4.5 4.5 1.5 0 3-.8 3.8-2.3l22-29.5c5.3-6.8 14.4-8.3 21.2-3.8l49.2 32.6c5.3 3 11.4 2.3 15.2-3 .8-.8 1.5-2.3 1.5-3.8l68.2-272.7c.8-5.3-2.3-10.6-7.6-11.4-2.4-.1-4.6-.1-6.9.7zM500 485c0 8.3-5.9 15-13.1 15H13.1C5.9 500 0 493.3 0 485c0-8.2 5.9-15 13.1-15h473.8c7.2.1 13.1 6.8 13.1 15z" fill="#0088ce"/></svg>