<?xml version="1.0" encoding="utf-8"?>

<svg version="1.1" id="DESKTOP" xmlns="http://www.w3.org/2000/svg" xmlns:xlink="http://www.w3.org/1999/xlink" x="0px" y="0px"
	 viewBox="0 0 500 500" style="enable-background:new 0 0 500 500;" xml:space="preserve">
<style type="text/css">
	.st0{fill:#0088CE;}
	.st1{fill:none;}
	.st2{fill:#1387C9;}
	.st3{fill:#0F87C9;}
</style>
<path class="st0" d="M467.3,370.8l-186-348.4C273.6,8.1,262.2,0,250,0c-12.1,0-23.6,8.1-31.1,22.3L32.8,370.8
	c-7.5,13.9-8.3,28.4-1.9,39.7c6.4,11.1,18.8,17.6,34.2,17.6H435c15.4,0,27.9-6.5,34.1-17.6C475.5,399.2,474.8,384.8,467.3,370.8z
	 M250,378.8c-13.1,0-23.5-11-23.5-24.7c0-13.5,10.4-24.5,23.5-24.5c13.1,0,23.6,11,23.6,24.5C273.6,367.8,263,378.8,250,378.8z
	 M268.7,291.4c-0.4,10-9.2,18.2-18.7,18.2c-9.5,0-18.3-8.2-18.7-18.2l-10-156.3c-0.4-10,7.2-18.1,16.8-18.1h23.8
	c9.6,0,17.1,8.2,16.9,18.1L268.7,291.4z M486.9,470H13.1C5.9,470,0,476.7,0,485c0,8.3,5.9,15,13.1,15h473.8c7.2,0,13.1-6.7,13.1-15
	C500,476.7,494.1,470,486.9,470z"/>
</svg>
