<?xml version="1.0" encoding="utf-8"?>
<!-- Generator: Adobe Illustrator 21.0.2, SVG Export Plug-In . SVG Version: 6.00 Build 0)  -->
<svg version="1.1" id="DESKTOP" xmlns="http://www.w3.org/2000/svg" xmlns:xlink="http://www.w3.org/1999/xlink" x="0px" y="0px"
	 viewBox="0 0 500 500" style="enable-background:new 0 0 500 500;" xml:space="preserve">
<style type="text/css">
	.st0{fill:#0088CE;}
</style>
<path class="st0" d="M373.9,148.9h-35.5c-2.1-47-41.4-83.7-88.4-82.6c-47-1.1-86.3,35.6-88.4,82.6h-35.5
	C95.7,149.5,71.5,174.6,72,205v149.8c-0.5,30.4,23.7,55.5,54.1,56.1l0,0H374c30.4-0.5,54.6-25.6,54.1-56l0,0V205.1
	C428.6,174.7,404.4,149.5,373.9,148.9C374,148.9,374,148.9,373.9,148.9z M250,88c33.8,0.6,61.5,27.2,63.5,61h-127
	C188.5,115.2,216.2,88.6,250,88z M192.7,300.1c-5.2,11.1-18,16.3-37.9,15.8c-10-0.5-19.8-2.9-28.9-7l4.8-10.8
	c8.3,4.2,17.4,6.5,26.7,6.9c9.5,0,16.1-1.9,18.1-6.3c2.6-5.7-4.8-10-14-14.6c-11.7-5.8-25.2-12.7-20.5-25.2
	c4-10.5,19.6-15.2,36.9-15.2c4.4,0.1,8.8,0.6,13.1,1.4l-3.1,10.2c-3.6-0.9-7.3-1.4-11-1.5c-8.6,0-18.1,1.9-20,7.6s4.9,7.6,14.4,12
	c12.2,6.4,27.3,13.7,21.2,26.9v-0.2H192.7z M381.7,255.6h-37.9l-5.5,17.6h31.5l-3.2,10.4h-31.2l-8.2,27c-9.5,3.8-19.6,5.7-29.8,5.5
	c-21.7,0-36.9-10.7-39.3-26.6c0,0,0,0-0.5,0s-0.5,0-0.5,0l-7.6,25.4h-16.1c-5.2-18.9-13.5-36.8-24.5-53l-9.6,30.5c0,0,0,0-0.5,0
	s-0.5,0-0.5,0c-1.6-4.9-4.8-9-9.1-11.7l11.1-35.6h14.8c11.6,14.8,20.8,31.3,27.2,48.9l15.2-48.9h13.7l-4.7,15.2c0,0,0,0,0.4,0
	c0.2,0.1,0.5,0.1,0.8,0c10.5-11,25.3-17,40.5-16.4c5.1,0,10.1,0.3,15.2,1.1l-3.7,11.3c-3.9-0.5-7.8-0.8-11.7-0.8
	c-18.8,0-32.8,9.5-34.9,24.4c-1,5.8,0.5,11.7,4.2,16.2c6.3,6.2,15,9.3,23.8,8.4c4.5,0.1,9-0.4,13.3-1.4l17.9-58h53L381.7,255.6z
	 M500,485c0,8.3-5.9,15-13.1,15H13.1C5.9,500,0,493.3,0,485c0-8.2,5.9-15,13.1-15h473.8C494.1,470.1,500,476.8,500,485z"/>
</svg>
