<?xml version="1.0" encoding="utf-8"?>

<svg version="1.1" id="DESKTOP" xmlns="http://www.w3.org/2000/svg" xmlns:xlink="http://www.w3.org/1999/xlink" x="0px" y="0px"
	 viewBox="0 0 500 500" style="enable-background:new 0 0 500 500;" xml:space="preserve">
<style type="text/css">
	.st0{fill:#0088CE;}
	.st1{fill:none;}
	.st2{fill:#1387C9;}
	.st3{fill:#0F87C9;}
</style>
<path class="st0" d="M263.1,289c28.9,0,48.3-16.6,48.3-50.7v-88.9c0-7.4-7.4-11.2-14.5-11.2c-7.6,0-14.5,3.8-14.5,11.2v85.1
	c0,17.2-5.5,28.4-19.4,28.4c-13.4,0-19.9-10.6-19.9-28.4v-85.1c0-7.4-8.2-11.2-15-11.2c-7.9,0-15,3.8-15,11.2v88.3
	C213.2,272.9,230.9,289,263.1,289z M329.3,283.3c6.5,3.3,17.7,5.7,27.8,5.7c26.2,0,47.7-17.7,47.7-45.5c0-21.8-12.3-34.6-27.8-43.4
	l-11.7-6.3c-7.1-3.8-12.8-9.5-12.8-17.2c0-8.5,6.8-14.5,17.2-14.5c6.8,0,13.4,2.7,18.3,4.6c7.6,3.8,12.3-1.1,14.5-9
	c2.7-9-1.1-12.3-7.6-15.5c-6.3-3.3-15.5-5.5-24.5-5.5c-25.1,0-46.1,16.6-46.1,43.4c0,20.7,10.6,32.4,27.8,42.3l12.3,6.8
	c7.6,4.4,12.3,10.1,12.3,18.3c0,10.1-9.5,15-19.4,15c-7.4,0-16.6-3.3-21.3-5.5c-7.9-3.8-12.3,1.1-15,9.5
	C318.2,276.2,322.3,280,329.3,283.3z M250.5,428.1c118.3,0,213.5-94.6,213.5-212.9C464,96.2,364.5,0,250.5,0
	C132.2,0,36,96.2,36,215.1C36,332.4,132.5,428.1,250.5,428.1z M250.5,29.2c101.2,0,184,84.5,184,186.2c0,100.6-82.9,183.5-184,183.5
	c-101.7,0-185.1-82.3-185.1-183.5C65.4,113.2,149.1,29.2,250.5,29.2z M199.3,244.6c0-24.8-17.2-33.8-26.2-35.2v-0.5
	c10.6-5.5,23.7-15.5,23.7-33.8c0-24.5-21.5-36.3-42.3-36.3h-40.1c-7.4,0-11.7,6-11.7,12.3v125.2c0,7.6,7.6,11.5,14.5,11.5h37.9
	C178,287.4,199.3,275.1,199.3,244.6z M131.4,163.3h11.2c12.8,0,24,4.4,24,18.8c0,13.9-11.7,18.8-24,18.8h-11.2V163.3z M133,262.8
	v-41.7h12.8c10.6,0,25.1,3.8,25.1,20.2c0,14.5-8.2,21.3-25.1,21.3H133V262.8z M486.9,469.9H13.1c-7.2,0-13.1,6.7-13.1,15
	c0,8.3,5.9,15,13.1,15h473.8c7.2,0,13.1-6.7,13.1-15C500,476.7,494.1,469.9,486.9,469.9z"/>
</svg>
