<svg viewBox="0 0 500 500"><path d="M320.2 236.2c12.5-3.8 19.5-16.9 15.8-29.4-3.8-12.5-16.9-19.5-29.4-15.8-12.4 3.7-19.5 16.8-15.8 29.2 3.7 12.5 16.8 19.6 29.3 16h.1zM154.8 126c16 0 28.9-13 28.9-29s-13-28.9-29-28.9-28.9 13-28.9 29 13 28.9 29 28.9zM398 323.6c8.9 4.6 15.7 12.6 18.7 22.1 2.7 6.9 10.4 10.4 17.3 7.7 6.4-2.5 9.9-9.4 8.1-16-11.3-34-48-52.5-82-41.4h1.1l-2.5.6-6.3-20.1c4.9 2 9.9 3.4 15.2 4.2 15.9 2.3 32.1-1.8 45-11.4 4.1-3.1 4.9-8.9 1.9-13-3.1-4.1-8.9-4.9-13-1.9-18.8 14.1-45.5 10.3-59.6-8.5-1.8-2.4-4.6-3.8-7.6-3.6h-.8c-7.7-.1-15.4 1-22.7 3.4-2.8.8-5.2 2.6-6.7 5.1l-17.5-19.2c-1.9-2.1-4.7-3.3-7.6-3.3h-31.7c-1.5-4.7-5.5-8.1-10.4-8.9-31.9-5.4-55.2-33-55.2-65.4 0-6.7-5.1-12.4-11.7-13.2-51-6.6-97.8 29.4-104.4 80.4-1.2 9.6-1 19.3.7 28.7 1.4 7.3 8.4 12.1 15.6 10.7 6.3-1.2 10.9-6.7 11-13.1.1-.8.1-1.6 0-2.3-.7-3.9-1-7.8-1-11.7 0-2.7.2-5.4.5-8.1 2.3-21.8 15.3-41 34.6-51.3V253c-1 18-5.8 35.6-14.1 51.6-9.7 15.6-24.9 26.9-42.7 31.7-9.4 2.1-15.2 11.4-13.1 20.7 2.1 9.4 11.4 15.2 20.7 13.1 27.4-6.9 50.9-24.3 65.5-48.5 1.3-2.3 2.3-4.6 3.5-7v77c.6 9.6 8.9 16.9 18.5 16.2 8.7-.6 15.7-7.5 16.2-16.2V229.5c.1-.7.1-1.5 0-2.2v-8.1c13.8 13.9 31.6 23.3 50.8 26.8 4 1 8.1 1.5 12.2 1.6H264c.6 11.7 2.7 49 5.5 72 1.2 12.9 8.5 24.5 19.6 31.1l-6.9 13.7c-1.1-.1-2.1-.1-3.2 0-12.2-.1-22.1 9.8-22.2 21.9-.1 12.2 9.8 22.1 21.9 22.2 12.2.1 22.1-9.8 22.2-21.9 0-6-2.4-11.8-6.8-16l7.2-14.4c11.2 3.2 22.8 4.6 34.4 4.3h40.8l16.4 17.9c-4 11.4 2 23.9 13.4 27.9s23.9-2 27.9-13.4-2-23.9-13.4-27.9c-2.4-.8-4.9-1.3-7.5-1.2-1.9 0-3.8.3-5.6.8l-39.5-43.3c10.2-3.3 20.7-2.4 29.8 2.3zm-61.9 16.6c-30.3 0-44.3-7-46.4-23.3-2-16.3-3.8-41.4-4.7-57.5l27.7 30.3 33.6 36.8 12.3 13.5-22.5.2zM500 485c0 8.3-5.9 15-13.1 15H13.1C5.9 500 0 493.3 0 485c0-8.2 5.9-15 13.1-15h473.8c7.2.1 13.1 6.8 13.1 15z" fill="#0088ce"/></svg>