<?xml version="1.0" encoding="utf-8"?>

<svg version="1.1" id="DESKTOP" xmlns="http://www.w3.org/2000/svg" xmlns:xlink="http://www.w3.org/1999/xlink" x="0px" y="0px"
	 viewBox="0 0 500 500" style="enable-background:new 0 0 500 500;" xml:space="preserve">
<style type="text/css">
	.st0{fill:#0088CE;}
	.st1{fill:none;}
	.st2{fill:#1387C9;}
	.st3{fill:#0F87C9;}
</style>
<path class="st3" d="M49,131.7c4.5,0.7,8.9-0.6,12.2-3.3c-18.9,136.5-1.7,209.9-0.9,213.5c2.1,12.4,7.7,19.7,16.7,22.3
	c0,9.8,0.1,42.1,0.1,42.1c0,12.1,9.7,21.9,21.6,21.9h16.9c11.9,0,21.7-9.8,21.7-21.9c0,0-0.1-29.7-0.1-40.8h222.5
	c0,11.1,0,40.8,0,40.8c0,12.1,9.7,21.9,21.6,21.9l20.1-0.1c11.2,0,18.5-8.6,18.5-21.9c0,0,0-32.4,0-42.2c10.6-2.9,18.5-11.4,20.1-23
	l-0.1,0.8c0.6-2.3,8-33.9,8-93.1c0-32.1-2.2-72.3-8.8-120.3c3.3,2.6,7.7,3.9,12.2,3.2c8.6-1.4,14.6-9.6,13.2-18.4l-4.7-30
	c-1.4-8.8-9.5-14.8-18.1-13.4c-4.7,0.7-8.5,3.5-10.9,7.3c-1.3-6.9-2.6-13.8-4-20.9v-0.1c-3.7-19.4-22.7-56-68.9-56.2H250.9L142.4,0
	C96.2,0.2,77.1,37,73.6,56.4c-1.5,7.1-2.8,14.1-4.1,20.9c-2.4-3.8-6.2-6.6-10.9-7.3c-8.6-1.4-16.8,4.6-18.1,13.4l-4.7,30
	C34.3,122.1,40.3,130.3,49,131.7z M107.6,341.9c-16.1,0-29.2-13.2-29.2-29.6c0-16.3,13.1-29.6,29.2-29.6c16.1,0,29.2,13.2,29.2,29.6
	C136.8,328.7,123.7,341.9,107.6,341.9z M317.5,230.5h-23.9c4.7-10.7,13.3-19,23.9-23.2V230.5z M349.7,230.5v-23.4
	c10.7,4.2,19.5,12.6,24.3,23.4H349.7z M390.2,341.9c-16.1,0-29.2-13.2-29.2-29.6c0-16.3,13.1-29.6,29.2-29.6
	c16.1,0,29.2,13.2,29.2,29.6C419.4,328.7,406.4,341.9,390.2,341.9z M149.1,14.1h201.8v27.7H149.1V14.1z M97.6,64.2
	c0.1-0.4,0.8-3.7,2.5-8.2h299.7c1.8,4.4,2.4,7.6,2.5,8.1c12.1,59,18.6,114.9,19.5,166.4h-28.3c-7.9-26.6-32.1-45.1-59.7-45.1
	c-27.6,0-51.9,18.5-59.8,45.1h-196C79,179.1,85.5,123.2,97.6,64.2z M333.9,176.7c10.5,0,18.9-8.6,18.9-19.2
	c0-10.6-8.5-19.2-18.9-19.2c-10.5,0-19,8.6-19,19.2C314.9,168,323.4,176.7,333.9,176.7z M486.9,469.9H13.1c-7.2,0-13.1,6.7-13.1,15
	c0,8.3,5.9,15,13.1,15h473.8c7.2,0,13.1-6.7,13.1-15C500,476.7,494.1,469.9,486.9,469.9z"/>
</svg>
