<svg viewBox="0 0 500 500"><path d="M329.4 75.8H177.9c-19 .4-34.2 16-33.9 35v240.6c-.2 19.1 15.1 34.8 34.2 35h151.5c19-.4 34.2-16 33.9-35V110.8c.2-19.2-15.1-34.8-34.2-35zM212.1 348.5c0 4-3.1 7.3-7 7.6h-23.8c-4-.3-7.1-3.6-7-7.6v-15.2c0-4 3.1-7.3 7-7.6h23.8c4 .3 7.1 3.6 7 7.6v15.2zm60.6 0c0 4.2-3.4 7.6-7.6 7.6h-22.7c-4.2 0-7.6-3.4-7.6-7.6v-15.2c0-4.2 3.4-7.6 7.6-7.6h22.7c4.2 0 7.6 3.4 7.6 7.6v15.2zm60.6 0c0 4-3.1 7.3-7 7.6h-23.8c-4-.3-7.1-3.6-7-7.6v-15.2c0-4 3.1-7.3 7-7.6h23.8c4 .3 7.1 3.6 7 7.6v15.2zm0-61.9c-.3 9.3-8.1 16.7-17.4 16.4H191.7c-9.3.3-17.1-7.1-17.4-16.4V130.1c.3-9.3 8.1-16.7 17.4-16.4h124.2c9.3-.3 17.1 7.1 17.4 16.4v156.5zM500 485c0 8.3-5.9 15-13.1 15H13.1C5.9 500 0 493.3 0 485c0-8.2 5.9-15 13.1-15h473.8c7.2.1 13.1 6.8 13.1 15z" fill="#0088ce"/></svg>