<?xml version="1.0" encoding="utf-8"?>
<!-- Generator: Adobe Illustrator 21.0.2, SVG Export Plug-In . SVG Version: 6.00 Build 0)  -->
<svg version="1.1" id="DESKTOP" xmlns="http://www.w3.org/2000/svg" xmlns:xlink="http://www.w3.org/1999/xlink" x="0px" y="0px"
	 viewBox="0 0 500 500" style="enable-background:new 0 0 500 500;" xml:space="preserve">
<style type="text/css">
	.st0{fill:#0088CE;}
</style>
<path class="st0" d="M434.8,384.9l-2.3-3.8c0.8-0.8,0.8-2.3,0-3c-0.8-1.5,0.8-2.3,0-3.8s1.5-4.5,0-5.3s-0.8-3-2.3-1.5
	s-2.3,3-2.3,5.3c0,1.5,0,2.3,0,3.8c0,0.8,0,1.5,0,3c0,0-2.3-3.8-3-3c-0.8,0.8-0.8,2.3-3.8,3.8c-1.5,1.5-3,2.3-5.3,2.3
	c-1.5,0-3,0.8-3.8,1.5c-0.8,0.8-1.5,2.3-2.3,3c-0.8,0.8-1.5,0.8-2.3,3c-0.8,2.3-1.5,1.5,0,2.3s3,2.3,4.5,3c0,0-3.8-1.5-3.8,0
	c-0.8,0.8-0.8,2.3,0,3c0.8,0.8,1.5,1.5,3,2.3c0.8,0.8,3.8,0,1.5,1.5c-0.8,0.8-0.8,0.8-1.5,1.5c-2.3,2.3-3,2.3-2.3,3
	c0.8,0.8,0,1.5,2.3,1.5s3,0,3,0l-0.8,1.5c-0.8,0.8,1.5,0.8-0.8,2.3s-3,0-1.5,1.5c1.5,0.8,2.3,1.5,3.8,1.5c0,0,3,1.5,2.3,1.5
	c-0.8,0-2.3,1.5-2.3,2.3c0,1.5,0.8,1.5,2.3,3s4.5,1.5,4.5,2.3s0.8,1.5,1.5,2.3c0.8,0.8,1.5,1.5,2.3,1.5h1.5c0.8-0.8,1.5-1.5,1.5-2.3
	c0.8-1.5-1.5,0,0.8-2.3s3.8-3,1.5-3.8s-3.8-1.5-1.5-1.5c1.5,0,2.3-0.8,3.8-1.5c-0.8-3-0.8-6.1,0-9.1c1.5-3.8,1.5-2.3,2.3-6.1
	c0.8-3.8,1.5-3,1.5-6.1C435.6,392.4,435.6,388.6,434.8,384.9z M406.8,328.8c0-1.5-0.8,0-0.8-1.5s1.5-3,0-3s0,0.8-2.3,1.5
	c-0.8,0-2.3,0-3,0s-1.5,0-2.3,0s-0.8,1.5-2.3,0s0,0-2.3-0.8s-2.3-2.3-4.5-2.3c-2.3,0-2.3,0-3-0.8c-0.8-0.8-1.5-2.3-2.3-3
	s-1.5-1.5-0.8-2.3s3-0.8,1.5-1.5c-1.5-0.8-3-0.8-2.3-2.3c0.8-1.5,0.8-1.5,0.8-2.3s0.8-2.3,1.5-3s0-2.3,1.5-2.3s3,0.8,2.3,0
	c-0.8-0.8-1.5-0.8-1.5-2.3c0-0.8,0-2.3-0.8-3c0-0.8-0.8,0-3-0.8c-2.3-0.8-3-0.8-3-1.5s0-0.8,0-2.3s0-3-1.5-3s-1.5,0-1.5-1.5
	s-1.5-3,0-3s0,0.8,1.5,0s2.3-0.8,3.8-0.8s1.5,0,2.3-0.8s1.5-1.5,2.3-1.5s1.5,0,2.3-0.8s3-1.5,1.5-2.3s0-0.8,0.8-2.3s1.5-2.3,0-2.3
	c-0.8-0.8-1.5-0.8-2.3-1.5c-1.5-1.5-1.5,0-1.5-2.3s-0.8-3-1.5-3c-0.8,0,2.3-0.8,0-2.3s-1.5,0-2.3-1.5s-2.3-1.5-2.3-2.3
	s0-3.8,1.5-3.8s1.5,1.5,3,0s3.8-1.5,3-3.8c-0.8-2.3-1.5-1.5-2.3-2.3s-0.8-1.5-1.5-1.5s-0.8,0-0.8-0.8s1.5-1.5,0-1.5s-1.5,0-2.3-0.8
	s-0.8-1.5,0-2.3s2.3-5.3,0.8-5.3h-1.5c0,0-1.5-2.3,0-3l1.5-0.8l0,0c0,0-0.8-0.8-1.5,0c-2.3,0-4.5,0.8-6.1,0.8
	c-0.8,0.8-2.3,1.5-3.8,1.5s-1.5-0.8-1.5-1.5c-0.8,0-0.8,0-1.5,0.8c-0.8,0-2.3,0-1.5,1.5c0.8,0.8,0.8,1.5,0.8,2.3s2.3,1.5,1.5,2.3
	c-0.8,0-1.5,0.8-3,1.5c-0.8,0.8-1.5,2.3-3,1.5s-3-0.8-3-0.8c0-0.8,0.8-1.5,1.5-2.3c0.8-0.8,1.5-1.5,2.3-1.5c0.8-0.8,0.8-2.3,1.5-3
	c0-0.8,0.8-1.5,0-2.3s-2.3,0-1.5-1.5s1.5-3,1.5-4.5c0-0.8,0.8-0.8,1.5-2.3c0.8-1.5,6.1-4.5,6.8-6.8s1.5-3.8,0.8-4.5
	c-0.8-0.8-0.8-1.5,0-1.5l0,0c0.8-0.8,1.5-0.8,3-1.5c1.5-1.5,3.8-3.8,5.3-5.3c2.3-1.5,3.8-3,4.5-6.1c0.8-1.5,0.8-0.8,2.3-2.3
	s3-3,0.8-3c-2.3,0-3.8,0.8-3.8,0.8s0.8-1.5,1.5-2.3c0.8-0.8-4.5-0.8-2.3-1.5c2.3-0.8,4.5-1.5,5.3,0s-0.8,2.3,1.5,2.3s1.5,0.8,3.8,0
	c1.5-0.8,2.3-1.5,3.8-2.3c0.8-0.8,0,0,0.8-1.5s3.8-0.8,2.3-2.3s-3.8-1.5-2.3-3.8s0-4.5,0.8-6.1l0.8-0.8c0,0,0,0,0-0.8s2.3-3,1.5-3.8
	s-0.8-1.5,0-4.5s1.5-5.3,3-8.3c1.5-3.8,0-5.3,1.5-8.3c0.8-2.3,2.3-3.8,3.8-6.1s0.8-3,2.3-3.8s1.5,0,2.3-0.8s0.8-3.8,2.3-5.3
	s3-2.3,2.3-2.3c-2.3,0-3.8-0.8-6.1-2.3c-0.8-0.8-1.5-2.3-2.3-2.3s0,1.5-3,0s-4.5,0.8-6.1-0.8c-1.5-1.5-3-0.8-3-1.5
	c0-0.8,0.8-2.3-0.8-2.3c-1.5,0-2.3,0-3,0c-0.8,0-1.5,1.5-2.3,1.5s-3.8,0-3.8,0s-1.5,0.8-1.5,0s-0.8-2.3-1.5-3
	c-0.8-0.8-1.5-0.8-2.3-1.5c-0.8,0-1.5,0-2.3,0.8s0,2.3-0.8,2.3s-2.3,0-2.3-1.5s-1.5-2.3-0.8-2.3s-1.5-2.3-2.3-2.3s0-0.8,0-2.3
	s-0.8-3-1.5-3.8c-0.8-0.8-2.3-0.8-3.8-0.8s-1.5-2.3-3.8-2.3s-2.3,0.8-3.8,1.5s-2.3,1.5-3,0.8c-0.8-0.8-1.5-1.5-2.3-1.5
	s-0.8,0-1.5-0.8c-0.8-0.8-2.3-2.3-3-1.5c-0.8,0.8-0.8,0.8-2.3,0.8s-1.5-0.8-2.3,0s-2.3,0.8-3,1.5c-0.8,0,0,3-1.5,0s-0.8-3-1.5-3.8
	c-0.8-0.8-0.8,0-1.5-1.5c-0.8-0.8-1.5-1.5-3-1.5c-0.8,0-1.5-0.8-2.3-1.5c0-0.8-0.8-1.5-1.5-2.3c-0.8-0.8-1.5-0.8-1.5-0.8
	s0-1.5-1.5-1.5s-2.3,0.8-2.3,0s0-2.3,0-3c0-0.8,0-0.8,0-2.3s-0.8-0.8-0.8-2.3s-0.8-1.5,0-3c0.8-0.8,1.5-2.3,1.5-3
	c0-0.8,0.8-2.3,0-2.3c-1.5,0-2.3,0.8-3,1.5c-0.8,0.8-1.5,0.8-1.5,1.5c0,0.8,0,2.3,0,3c0,0.8,0,1.5-0.8,1.5s-1.5,0-2.3,0.8
	c0,0-3.8,1.5-6.1,0.8c-2.3-0.8-1.5-0.8-2.3-0.8s-1.5,0-2.3-1.5s-1.5-1.5,0-2.3s3-1.5,2.3-2.3c-0.8-0.8-1.5,0-1.5-1.5s-0.8,0,0-3
	s3-3.8,1.5-3.8s-0.8-0.8-3-1.5c-2.3-0.8-2.3-1.5-3-1.5c-0.8,0-0.8-0.8-2.3,0s0,0.8-3,0.8s-1.5-0.8-3,0s-0.8,3-1.5,0.8s-3-3-4.5-3.8
	s-2.3,0.8-3-0.8c-0.8-1.5-0.8-2.3-1.5-1.5c-0.8,0.8-2.3,3.8-3.8,1.5c-0.8-2.3-2.3-4.5-2.3-6.8c0-0.8-0.8-2.3-1.5-3
	c-0.8-0.8-0.8-3-2.3-3s-2.3,0.8-3,1.5c-0.8,0.8-1.5,2.3-2.3,2.3s-2.3,0-3-1.5c-0.8-1.5-0.8-1.5-1.5-2.3c-0.8-0.8-1.5,0-2.3-0.8
	s-1.5,0-1.5-1.5s-0.8-3.8-0.8-4.5s0.8-2.3,0-3.8l-1.5-1.5c-2.3,1.5-3.8,2.3-6.1,2.3c-2.3,0-6.1-1.5-4.5-0.8c1.5,0.8,4.5,1.5,0,1.5
	c-3.8,0-6.8,1.5-9.8,3c-2.3,1.5-5.3,1.5-4.5,3s1.5,2.3,0.8,3.8c-0.8,1.5-1.5,0.8-1.5,2.3c0,1.5-0.8,0.8,0,3.8S241,73,241,73
	s-1.5-0.8-1.5,1.5s-0.8,3,0.8,3.8s1.5,0,0,0.8s-2.3,1.5-1.5,3s1.5,1.5,2.3,3s2.3,1.5,0,1.5s-3.8-0.8-4.5,0.8c-0.8,0.8-0.8,2.3-1.5,3
	c-3,2.3-6.1,4.5-9.1,6.8c-3,1.5-6.8,3-10.6,3c-2.3,0-0.8-0.8-4.5,0.8c-3.8,1.5-5.3,3-7.6,4.5c-1.5,0.8-2.3,1.5-3.8,2.3
	c0,0,1.5-0.8,0,1.5s-3.8,3.8-2.3,6.1s2.3,2.3,3,2.3c0.8,0,0,1.5,0,1.5h3c3.8-1.5,7.6-0.8,4.5-0.8c-1.5,0-3,0.8-4.5,0.8l-0.8,0.8
	c-3.8,2.3-6.8,2.3-7.6,3.8s0,0-3,1.5l-3,1.5c0.8-0.8,0.8-1.5,0-1.5c-2.3-1.5-4.5-2.3-6.8-3c-3-0.8-7.6-0.8-8.3-0.8s-1.5-2.3-4.5-0.8
	c-3,0.8-1.5,2.3-2.3,3c-0.8,0.8-0.8,0-0.8-0.8c0-3-2.3-5.3-3-6.8c-0.8-1.5-3-0.8-0.8-3c2.3-2.3,2.3-1.5,2.3-3s1.5-3-3-2.3
	c-2.3,0-4.5,0.8-6.1,2.3c-0.8,0-3,0.8-3.8,0s-0.8-0.8-2.3-1.5c-1.5-0.8-0.8-1.5-2.3-1.5s-2.3-2.3-2.3,0s0.8,2.3,1.5,3
	c0.8,0.8-0.8,0.8,0,2.3s-0.8,2.3,0,3.8s1.5,0.8,1.5,2.3s-0.8,2.3,0,3.8s1.5,0.8,2.3,1.5c0.8,0.8,0.8,1.5,1.5,2.3
	c0.8,0.8-0.8,0,0.8,1.5c0.8,0.8,0.8,0.8,1.5,1.5c0-2.3,1.5,0.8,1.5,0.8c-0.8,0-0.8,0-1.5-0.8c0,0.8,0,1.5,0,1.5c0,4.5-1.5,6.1,0,6.8
	c1.5,0.8,3-2.3,2.3,0s0,3-1.5,4.5s-2.3,0-1.5,2.3s1.5,3.8,3,6.1l1.5,0.8c0.8,0,1.5,0.8,3,0.8c-3,0.8-6.1,0.8-9.1,0.8
	c-1.5,0-6.1,0.8-5.3-0.8c0.8-1.5,2.3-3.8,0.8-3s-2.3,1.5-3.8,3s-5.3-2.3-6.8-0.8s-1.5,3.8-1.5,1.5c0-1.5-0.8-2.3-1.5-2.3l0,0
	c-0.8,0,0.8-3-1.5-1.5s-3,0.8-4.5,3c-0.8,0.8-1.5,2.3-3,3c-1.5,0.8-3,3-3,1.5s0-0.8-1.5-2.3s-0.8-1.5-2.3-3.8s-2.3-1.5-2.3-3
	s2.3-1.5,0-1.5s-3,1.5-2.3-0.8c0.8-2.3,1.5-3,0-2.3c-0.8,0-0.8,0.8-1.5,0.8c0.8,0.8-0.8,0.8-0.8,0.8l0.8-0.8c0,0,0-0.8-0.8-0.8
	c-1.5-1.5,0.8-3.8-1.5-1.5s-2.3,3-2.3,2.3c0-0.8,1.5-2.3-1.5-0.8s-4.5,0.8-5.3,0s-1.5-1.5-1.5,0.8s2.3,1.5,1.5,3s-1.5,1.5-3,2.3
	s-1.5,0-3-0.8s-3-2.3-3,0s0.8,2.3,0,2.3s-0.8,0-1.5,0c0,0.8-1.5,0.8-1.5,0.8l1.5-0.8c0,0,0-0.8-1.5-1.5c-3-2.3-3-1.5-5.3-0.8
	c-0.8,0-2.3,0.8-3,1.5c-1.5,0.8,0-2.3-4.5,0c-3,0.8-5.3,2.3-7.6,3.8c-1.5,1.5-2.3,1.5-3,3c-0.8,1.5,0,2.3,0,3.8s-1.5,3,0,3.8
	s0.8,0.8,3,0s2.3-1.5,3.8-1.5s1.5-0.8,2.3,0c0.8,1.5,2.3,2.3,3.8,3.8c0.8,0,0.8,1.5-1.5,0s-3-2.3-3.8-1.5s0.8,0-0.8,1.5
	c-1.5,1.5-1.5,0.8-0.8,2.3c0.8,1.5-0.8,1.5,0,2.3s2.3,0,3-0.8c0.8-0.8,1.5-1.5,3,0s3.8,2.3,3,3.8s-0.8,0.8-3.8,0.8s-3-0.8-4.5,0
	s-3.8-1.5-3.8-0.8c0,0.8,1.5,0.8,3.8,2.3s2.3,0,3.8,0.8s1.5,6.1,1.5,6.8c0,0.8,1.5,1.5,3,0.8c1.5-0.8,2.3-1.5,2.3-2.3s2.3-0.8,3-0.8
	c0.8,0,1.5,0,3,0c0.8,0,0-3,1.5-1.5s0.8,3,2.3,3.8s1.5,0.8,3,0s3-1.5,3,0s-0.8,1.5,0.8,2.3c1.5,0.8,2.3,0.8,3.8,1.5
	c0.8,0.8,2.3,0.8,3,0.8s0.8-1.5,2.3,0.8s2.3,2.3,2.3,4.5s-0.8,4.5,0.8,3.8s0.8-4.5,3-3.8c2.3,0.8,4.5,0,5.3,1.5s0,1.5,2.3,1.5
	c2.3-0.8,3.8-1.5,5.3-1.5c1.5,0,4.5,0,3.8,1.5c-0.8,1.5-2.3,2.3-1.5,3c0.8,0.8-1.5,0.8-1.5,2.3c0,0.8,0,2.3,0.8,3
	c0.8,0.8,0,0.8,2.3,1.5c1.5,0,2.3,0.8,3.8,0.8c0.8,0,4.5-2.3,6.1-2.3c1.5,0,6.1-1.5,1.5,0c-4.5,1.5-5.3,1.5-5.3,3s-2.3,1.5-1.5,2.3
	s0,0.8,2.3,1.5s3.8,0.8,4.5,2.3s-3,6.8-3.8,5.3c-0.8-0.8-1.5-2.3-1.5-3.8c0-0.8-3-3-3-0.8s0.8,2.3,1.5,3.8c0.8,1.5,2.3,0.8,2.3,3
	s-0.8,1.5,1.5,3.8s4.5,3,6.1,4.5c0.8,1.5,1.5,3,2.3,5.3c0,0.8-0.8,0.8,1.5,2.3s4.5,1.5,6.1,3c1.5,1.5,1.5,0.8,2.3,1.5
	c1.5,0.8,0.8,0.8,3,1.5c1.5,0,3.8,0.8,5.3,1.5c0.8,0.8,0,1.5-0.8,3s-0.8,3-2.3,1.5s0-1.5-2.3-2.3s-5.3-2.3-6.1-0.8s-0.8,1.5,0.8,2.3
	c1.5,0.8,2.3,0,3.8,1.5s2.3,0.8,3.8,0.8s3,0,3.8,0.8s2.3,2.3,2.3,3s-1.5,0-1.5,0.8s0,0.8-0.8,3c-0.8,2.3,0.8,4.5-0.8,3.8
	c-1.5-0.8-2.3,0.8-2.3-1.5s0.8-3-0.8-3.8c-1.5-0.8-3-3-3.8-2.3c-0.8,0.8-1.5,0.8-0.8,2.3c0.8,1.5,1.5,2.3,2.3,3.8
	c0.8,0.8,1.5,0.8,2.3,2.3s-0.8,1.5,1.5,2.3s3.8,1.5,1.5,0.8c-2.3-0.8-3-2.3-2.3-0.8c0.8,1.5-0.8,1.5,0.8,3s0,0,5.3,3
	s8.3,5.3,12.9,22c-0.8,1.5-5.3-1.5-4.5-6.1c0.8-4.5-1.5-5.3-3.8-7.6c-1.5-1.5-3-3-3.8-4.5c0-0.8,0-2.3-1.5-1.5s-2.3,0.8-2.3,3
	c0,2.3-0.8,6.8,0,7.6s2.3,1.5,2.3,3s0.8,3.8,0,3.8s-1.5-6.1-2.3-3.8c-0.8,2.3-0.8,2.3,0,5.3c0,3,0,6.8,0,9.8v4.5
	c0-1.5,0-6.1,3.8-3.8c3.8,2.3,5.3,3.8,2.3,3.8s-4.5-0.8-5.3,0s-0.8,0.8-1.5,2.3c-0.8,1.5-0.8-1.5,0,3c0,5.3-0.8,9.8-2.3,15.2
	c-0.8,2.3-2.3,9.8-3,12.1c0,2.3-0.8,5.3-2.3,7.6c-1.5,3-3,5.3-5.3,7.6l-1.5,0.8c-0.8,0.8,1.5,1.5,1.5,1.5c0.8,0.8,2.3,1.5,3.8,1.5
	c2.3,0,0,0,0.8,0s1.5,0.8,3.8,1.5s0,3.8-0.8,5.3s-0.8,0.8,0,2.3s1.5-0.8,2.3-1.5c0-0.8,0.8-0.8,1.5-0.8s1.5,2.3,1.5,2.3
	c0.8,0.8,2.3,0.8,3,1.5c2.3,0.8,2.3,1.5,3.8,2.3s2.3-0.8,5.3-1.5c3-0.8,1.5,1.5,1.5,2.3c0.8,0.8,0.8,2.3,1.5,3
	c0.8,0.8,1.5,1.5,2.3,2.3s1.5-1.5,2.3-1.5s0.8,0,2.3,0s0,0,3.8-0.8s0.8,0.8,2.3,1.5c1.5,0.8,2.3,2.3,3,3.8c0.8,0.8,1.5,1.5,3,0.8
	c1.5-0.8,3-1.5,4.5-1.5c2.3-0.8,2.3,1.5,2.3,2.3s0.8-0.8,1.5-0.8c0.8,0,1.5,0,4.5,0.8s3-0.8,4.5,0s1.5-0.8,0.8-1.5
	c-0.8-0.8-1.5-3.8,0-5.3s3,0.8,6.8,2.3s2.3,0.8,3.8,0.8s2.3,1.5,3,1.5c1.5,0,3,0,4.5,0c3.8,0,1.5,2.3,2.3,3.8s0,1.5,1.5,0.8
	c1.5-0.8,0.8-1.5,2.3-2.3s0,0,3,0.8s1.5,0.8,2.3,1.5c0.8,0.8,0,0.8,0,3.8s0,0.8,1.5,1.5c1.5,0.8,1.5,1.5,3.8,0s1.5,0,1.5,0.8
	s-0.8,0-0.8,1.5s0.8,0.8,1.5,0.8c0.8,0,1.5,0,2.3,0s0.8-0.8,3-2.3c2.3-1.5,0,0,1.5,0s2.3,0.8,4.5,1.5c2.3,0.8,1.5,2.3,2.3,2.3h2.3
	c2.3,0,0-0.8,0.8-2.3s1.5-1.5,3-1.5s3-0.8,3.8-0.8c1.5-0.8,2.3,0,3.8,1.5c0.8,0.8,1.5,0.8,2.3,0.8l0.8-0.8c0.8,0,0.8-1.5-0.8-3
	c-1.5-0.8-2.3-2.3-2.3-3.8s0-2.3,0-3.8c0-0.8,0-3.8,0-6.1c0-0.8,0-2.3,0-3.8c0.8-4.5,3.8-8.3,8.3-9.8c2.3,0,3,0.8,3.8,0
	s0.8-1.5,1.5-2.3c0-0.8,0.8-1.5,1.5-2.3c0,0,0-2.3,0.8-1.5s-0.8,2.3,2.3,1.5c1.5-0.8,3-1.5,4.5-2.3s0-0.8,1.5-2.3s1.5-1.5,3-2.3
	s3-2.3,2.3,0c-0.8,2.3-1.5,2.3-1.5,3c0,0.8,0,1.5,1.5,0.8c1.5-0.8,1.5-1.5,2.3-0.8c0.8,0.8,1.5-0.8,2.3-1.5s2.3-1.5,1.5,0
	s-2.3,2.3,0,2.3s1.5,0,2.3,0s1.5-1.5,2.3-0.8c0.8,0.8,0,2.3,0.8,1.5s0-1.5,0.8-0.8s0.8,1.5,0.8,2.3s1.5,0,2.3,0s1.5,0,3,0
	c0.8,0,0-1.5,0.8-2.3s0.8-0.8,2.3,0s2.3,1.5,3,0.8l0.8-0.8c0-0.8,0-1.5,0.8-2.3s2.3,0,3,0.8c0.8,0.8,0,1.5-0.8,2.3s-3,2.3-2.3,3
	c0.8,0.8,1.5,2.3,3,1.5s3-2.3,3.8-1.5s2.3,0.8,1.5,1.5s-2.3,0.8-1.5,1.5c0.8,0.8,0,0.8,1.5,2.3c1.5,0.8,2.3,1.5,3.8,1.5
	s1.5,0.8,2.3,0s1.5-1.5,2.3,0s3,1.5,3,2.3s-0.8,2.3,1.5,2.3s2.3-0.8,2.3-1.5c0-0.8-2.3-1.5,0-0.8c1.5,0,3,0.8,4.5,0.8
	c0.8,0,0,1.5,0.8,2.3s0.8,0,0.8-0.8s-1.5-1.5,0.8-1.5s3-0.8,3.8,0s0.8,1.5,1.5,0.8c0.8-0.8,0-1.5,0.8-1.5s2.3-0.8,3-1.5
	c0.8-0.8,2.3-0.8,2.3,0s0.8,1.5,1.5,0s2.3-2.3,0.8-3s-3,0-2.3-1.5c0.8-1.5,1.5-0.8,2.3-2.3s0.8-2.3,2.3-2.3s2.3,0,3-0.8s0-2.3,2.3-3
	c2.3-0.8,2.3,0,3-0.8c0.8-0.8,1.5-0.8,1.5-1.5s0-1.5,0.8-2.3s1.5-0.8,2.3-1.5s0.8-0.8,1.5-0.8c0.8,0,0.8,1.5,1.5,0s-0.8-0.8,0.8-1.5
	c1.5-0.8,0.8-0.8,1.5-1.5c0.8-0.8,1.5,0,1.5-0.8s0-1.5,0-2.3s-0.8,0,0-1.5s1.5-2.3,2.3-3c0.8,0,1.5-0.8,1.5-1.5
	c0.8-0.8,0-1.5,0.8-1.5C408.3,331.8,406.8,330.3,406.8,328.8z M500,485c0,8.3-5.9,15-13.1,15H13.1C5.9,500,0,493.3,0,485
	c0-8.2,5.9-15,13.1-15h473.8C494.1,470.1,500,476.8,500,485z"/>
</svg>
