<svg viewBox="0 0 500 500"><path d="M253 167.4c4.5-2.3 6.1-7.6 3.8-12.1l-34.1-68.9c-2.3-4.5-7.6-6.1-12.1-3.8l-34.1 16.7 41.7 84.8 34.8-16.7zm109.9 194.7l-34.1-68.9c-2.3-4.5-7.6-6.1-12.1-3.8l-34.1 16.7 41.7 84.8 34.1-16.7c4.5-2.2 6.7-7.5 4.5-12.1zm-111.4-48.5c-3.8-2.3-7.6-5.3-9.8-9.8-3-6.1-7.6-13.6-7.6-13.6l-32.6-58.3s-3-7.6-6.1-13.6c-1.5-4.5-2.3-9.1-1.5-13.6.8-6.1 4.5-11.4 10.6-13.6L162.8 107c-23.5 25.8-35.6 82.6-18.2 135.6l6.1 15.2 32.6 58.3 8.3 13.6c31.1 47 84.1 71.2 118.2 68.2l-41.7-84.8c-4.5 3.6-11.3 3.6-16.6.5zM500 485c0 8.3-5.9 15-13.1 15H13.1C5.9 500 0 493.3 0 485c0-8.2 5.9-15 13.1-15h473.8c7.2.1 13.1 6.8 13.1 15z" fill="#0088ce"/></svg>