<?xml version="1.0" encoding="utf-8"?>
<!-- Generator: Adobe Illustrator 21.0.2, SVG Export Plug-In . SVG Version: 6.00 Build 0)  -->
<svg version="1.1" id="DESKTOP" xmlns="http://www.w3.org/2000/svg" xmlns:xlink="http://www.w3.org/1999/xlink" x="0px" y="0px"
	 viewBox="0 0 500 500" style="enable-background:new 0 0 500 500;" xml:space="preserve">
<style type="text/css">
	.st0{fill:#0088CE;}
</style>
<path class="st0" d="M450.8,216.5c-116.6-76.4-290.9-87.7-370.1-87.7c-11.4,0-20.8,0-27.7,0.5c-4.5,0-7.6,2.3-7.6,6.9v204.5
	c-0.2,3.6,2.6,6.6,6.2,6.8c0.1,0,0.1,0,0.2,0h358c3.2,0,5.8,0,7.6-4.6l36.9-118C455.5,221.7,454,218,450.8,216.5z M156.3,296.8
	c-7.1,15.2-24.9,22.3-52.3,21.7c-13.8-0.7-27.4-4-40.1-9.6l6.7-15.2c11.6,5.8,24.2,9,37.1,9.5c13.3,0,22.7-2.6,25.2-8.6
	c3.6-7.6-6.6-13.7-19.5-20c-16.3-7.6-35-17.4-28.4-34.4c5.8-14,27.2-20.5,51.3-20.5c6.1,0.1,12.2,0.8,18.2,2l-4.3,14
	c-5-1.3-10-2-15.2-2.1c-12,0-25.2,2.7-27.7,10.4c-2.1,6.5,6.8,9.9,19.9,16.4C143.9,268.8,164.7,278.7,156.3,296.8z M418.7,236.1
	h-52.1l-7.6,24.1h43.7l-4.5,14.2h-43.7l-11.4,36.2c-13.2,5.2-27.2,7.7-41.4,7.6c-30.3,0-51.2-14.6-54.5-36.4c0,0,0-0.5-0.7-0.5
	s-0.6,0-0.7,0.5l-11.1,34.9h-22c-7.2-26.1-18.7-50.8-34-73L165.5,286c0,0,0,0.5-0.7,0.5s-0.6,0-0.8-0.5c-2-6.6-6.3-12.3-12.1-16.1
	l15.2-48.7h20.8c15.8,20.1,28.3,42.6,37,66.7l20.9-67h19.3l-6.7,21.5c0,0,0,0.5,0.5,0.5c0.4,0,0.8-0.1,1.1-0.5
	c14.7-15.2,35.1-23.4,56.2-22.7c7.1-0.1,14.3,0.4,21.4,1.4l-5.2,15.2c-5.4-0.7-10.8-1-16.2-1c-26.1,0-45.5,13-48.5,33.4
	c-1.4,7.9,0.7,16,5.8,22.2c6.7,7.6,18.4,11.5,33,11.5c6.3,0.1,12.5-0.6,18.6-2l24.8-79.2h73.2L418.7,236.1z M500,485
	c0,8.3-5.9,15-13.1,15H13.1C5.9,500,0,493.3,0,485c0-8.2,5.9-15,13.1-15h473.8C494.1,470.1,500,476.8,500,485z"/>
</svg>
