<svg version="1.1" id="DESKTOP" x="0" y="0" viewBox="0 0 500 500" xml:space="preserve"><path d="M263.1 289c28.9 0 48.3-16.6 48.3-50.7v-88.9c0-7.4-7.4-11.2-14.5-11.2-7.6 0-14.5 3.8-14.5 11.2v85.1c0 17.2-5.5 28.4-19.4 28.4-13.4 0-19.9-10.6-19.9-28.4v-85.1c0-7.4-8.2-11.2-15-11.2-7.9 0-15 3.8-15 11.2v88.3c.1 35.2 17.8 51.3 50 51.3zm66.2-5.7c6.5 3.3 17.7 5.7 27.8 5.7 26.2 0 47.7-17.7 47.7-45.5 0-21.8-12.3-34.6-27.8-43.4l-11.7-6.3c-7.1-3.8-12.8-9.5-12.8-17.2 0-8.5 6.8-14.5 17.2-14.5 6.8 0 13.4 2.7 18.3 4.6 7.6 3.8 12.3-1.1 14.5-9 2.7-9-1.1-12.3-7.6-15.5-6.3-3.3-15.5-5.5-24.5-5.5-25.1 0-46.1 16.6-46.1 43.4 0 20.7 10.6 32.4 27.8 42.3l12.3 6.8c7.6 4.4 12.3 10.1 12.3 18.3 0 10.1-9.5 15-19.4 15-7.4 0-16.6-3.3-21.3-5.5-7.9-3.8-12.3 1.1-15 9.5-2.8 9.7 1.3 13.5 8.3 16.8zm-78.8 144.8c118.3 0 213.5-94.6 213.5-212.9C464 96.2 364.5 0 250.5 0 132.2 0 36 96.2 36 215.1c0 117.3 96.5 213 214.5 213zm0-398.9c101.2 0 184 84.5 184 186.2 0 100.6-82.9 183.5-184 183.5-101.7 0-185.1-82.3-185.1-183.5 0-102.2 83.7-186.2 185.1-186.2zm-51.2 215.4c0-24.8-17.2-33.8-26.2-35.2v-.5c10.6-5.5 23.7-15.5 23.7-33.8 0-24.5-21.5-36.3-42.3-36.3h-40.1c-7.4 0-11.7 6-11.7 12.3v125.2c0 7.6 7.6 11.5 14.5 11.5h37.9c22.9-.4 44.2-12.7 44.2-43.2zm-67.9-81.3h11.2c12.8 0 24 4.4 24 18.8 0 13.9-11.7 18.8-24 18.8h-11.2v-37.6zm1.6 99.5v-41.7h12.8c10.6 0 25.1 3.8 25.1 20.2 0 14.5-8.2 21.3-25.1 21.3H133v.2zm353.9 207.1H13.1c-7.2 0-13.1 6.7-13.1 15s5.9 15 13.1 15h473.8c7.2 0 13.1-6.7 13.1-15 0-8.2-5.9-15-13.1-15z" fill="#0088ce"/></svg>