<svg xmlns="http://www.w3.org/2000/svg" xmlns:xlink="http://www.w3.org/1999/xlink" width="20" height="20" viewBox="0 0 20 20">
    <defs>
        <path id="a" d="M20 20h-4.143v-6.496c0-1.55-.027-3.543-2.154-3.543-2.157 0-2.486 1.688-2.486 3.43V20H7.078V6.64h3.973v1.827h.056c.553-1.05 1.906-2.158 3.922-2.158C19.225 6.31 20 9.075 20 12.673V20zM2.405 4.816A2.405 2.405 0 0 1
 0 2.407a2.404 2.404 0 1 1 4.807 0 2.407 2.407 0 0 1-2.402 2.409zM.33 20h4.148V6.64H.33V20z"/>
    </defs>
    <use fill="#0088CE" fill-rule="evenodd" xlink:href="#a"/>
</svg>
