<svg viewBox="0 0 500 499.9965"><path d="M499,303.8191V487.9328H392.2625V316.15c0-43.1533-15.4384-72.6037-54.0739-72.6037-29.4932,0-47.0447,19.8474-54.7662,39.0465-2.8159,6.8635-3.5407,16.4167-3.5407,26.0244V487.9328H173.1083s1.438-290.9439,0-321.0879h106.763v45.513c-.2165.34-.4979.7074-.7017,1.0374h.7017v-1.0374c14.1845-21.847,39.5165-53.0562,96.2175-53.0562C446.3375,159.3006,499,205.1932,499,303.8191ZM61.4188,12.0647C24.8917,12.0647,1,36.0235,1,67.53c0,30.82,23.2005,55.5061,59.0016,55.5061h.7132c37.2345,0,60.391-24.6813,60.391-55.5061C120.4041,36.0235,97.9493,12.0647,61.4188,12.0647ZM7.3414,487.9328H114.0743V166.8449H7.3414Z" fill="#0088ce"/></svg>