<?xml version="1.0" encoding="utf-8"?>
<!-- Generator: Adobe Illustrator 22.0.1, SVG Export Plug-In . SVG Version: 6.00 Build 0)  -->
<svg version="1.1" id="Calque_1" xmlns="http://www.w3.org/2000/svg" xmlns:xlink="http://www.w3.org/1999/xlink" x="0px" y="0px"
	 viewBox="0 0 50 50" style="enable-background:new 0 0 50 50;" xml:space="preserve">
<style type="text/css">
	.st0{fill:#323232;}
</style>
<title>Icons/Interface/Liste</title>
<desc>Created with Sketch.</desc>
<g id="Icons_x2F_Interface_x2F_Liste">
	<g id="Fill-1">
		<path id="path-1_1_" class="st0" d="M4.9,46.5c0.3-0.1,0.5-0.1,0.8-0.2c0.3-0.1,0.5-0.2,0.7-0.4c0.2-0.1,0.4-0.3,0.6-0.5
			c0.8-0.8,1.2-1.8,1.2-2.9c0-0.3,0-0.5-0.1-0.8C8,41.5,8,41.2,7.9,40.9c-0.1-0.2-0.2-0.5-0.4-0.7C7.3,40,7.2,39.8,7,39.6
			c-0.2-0.2-0.4-0.4-0.6-0.5c-0.2-0.1-0.5-0.3-0.7-0.4c-0.3-0.1-0.5-0.2-0.8-0.2c-1.3-0.3-2.7,0.2-3.7,1.1C1,39.8,0.8,40,0.7,40.2
			c-0.1,0.2-0.3,0.5-0.4,0.7c-0.1,0.2-0.2,0.5-0.2,0.8C0,42,0,42.2,0,42.5c0,1.1,0.4,2.1,1.2,2.9C2,46.2,3,46.6,4.1,46.6
			C4.4,46.6,4.6,46.6,4.9,46.5 M4.9,29.3c0.3-0.1,0.5-0.1,0.8-0.2c0.2-0.1,0.5-0.2,0.7-0.4c0.2-0.1,0.4-0.3,0.6-0.5
			c0.8-0.8,1.2-1.8,1.2-2.9c0-1.1-0.4-2.1-1.2-2.9c-0.2-0.2-0.4-0.4-0.6-0.5c-0.2-0.1-0.5-0.3-0.7-0.4c-0.3-0.1-0.5-0.2-0.8-0.2
			c-0.5-0.1-1.1-0.1-1.6,0c-0.3,0.1-0.5,0.1-0.8,0.2c-0.2,0.1-0.5,0.2-0.7,0.4c-0.2,0.1-0.4,0.3-0.6,0.5C0.4,23.2,0,24.2,0,25.3
			c0,0.3,0,0.5,0.1,0.8c0.1,0.3,0.1,0.5,0.2,0.8c0.1,0.2,0.2,0.5,0.4,0.7C0.8,27.8,1,28,1.2,28.2c0.2,0.2,0.4,0.4,0.6,0.5
			C2,28.8,2.3,29,2.5,29.1c0.2,0.1,0.5,0.2,0.8,0.2c0.3,0.1,0.5,0.1,0.8,0.1S4.6,29.4,4.9,29.3 M7,11c0.8-0.8,1.2-1.8,1.2-2.9
			C8.2,7,7.7,6,7,5.2C6.8,5,6.6,4.8,6.4,4.7C6.1,4.5,5.9,4.4,5.7,4.3C5.4,4.2,5.2,4.1,4.9,4.1C4.4,4,3.8,4,3.3,4.1
			C3,4.1,2.8,4.2,2.5,4.3C2.3,4.4,2,4.5,1.8,4.7C1.6,4.8,1.4,5,1.2,5.2C0.4,6,0,7,0,8.1c0,1.1,0.4,2.1,1.2,2.9
			C2,11.7,3,12.2,4.1,12.2S6.2,11.7,7,11 M50,42.5c0-2.3-1.8-4.1-4.1-4.1H17c-2.3,0-4.1,1.8-4.1,4.1s1.8,4.1,4.1,4.1h28.9
			C48.2,46.6,50,44.8,50,42.5 M50,25.3c0-2.3-1.8-4.1-4.1-4.1H17c-2.3,0-4.1,1.8-4.1,4.1c0,2.3,1.8,4.1,4.1,4.1h28.9
			C48.2,29.4,50,27.6,50,25.3 M45.9,12.2H17c-2.3,0-4.1-1.8-4.1-4.1S14.8,4,17,4h28.9C48.2,4,50,5.8,50,8.1S48.2,12.2,45.9,12.2"/>
	</g>
</g>
</svg>
