<?xml version="1.0" encoding="utf-8"?>
<!-- Generator: Adobe Illustrator 21.0.2, SVG Export Plug-In . SVG Version: 6.00 Build 0)  -->
<svg version="1.1" id="Calque_1" xmlns="http://www.w3.org/2000/svg" xmlns:xlink="http://www.w3.org/1999/xlink" x="0px" y="0px"
	 viewBox="0 0 500 500" style="enable-background:new 0 0 500 500;" xml:space="preserve">
<style type="text/css">
	.st0{fill:#0F87C9;}
</style>
<path class="st0" d="M348.6,89.4C357.2,83.3,382,65.8,383,65c3.2-2.3-0.7-8.4-5.8-12.5c-5.1-4.1-11.7-5.7-13.1-2.8
	c0,0-16.4,37.3-16.9,38.5C346.6,89.4,346.8,90.6,348.6,89.4z M344.1,98c-1.8,10.3-6.9,40.2-7.1,41.4c-0.6,3.8,6.4,5.4,13,4.8
	c6.6-0.7,12.3-4.2,11.3-7.2c0,0-14.9-37.9-15.4-39.1C345.5,96.6,344.5,95.9,344.1,98z M348.9,95.4c-1.2-0.5-2.5-0.3-1.2,1.4
	c6.1,8.5,23.7,33.2,24.4,34.3c2.3,3.2,8.4-0.7,12.6-5.8s5.8-11.7,2.9-13C387.6,112.3,350.2,96,348.9,95.4z M349.7,93.4
	c10.4,1.7,40.4,6.8,41.6,7c3.9,0.6,5.4-6.4,4.8-12.9c-0.7-6.5-4.2-12.3-7.3-11.3c0,0-38.1,14.8-39.3,15.3
	C348.3,92,347.5,93,349.7,93.4z M195.9,283.7v125.7h-62.5c-7.1,0-12.8,5.7-12.8,12.8s5.7,12.7,12.8,12.7h150.7
	c7.1,0,12.8-5.7,12.8-12.7s-5.7-12.8-12.8-12.8h-62.6v-123c19.2-29.4,57.7-88.4,84.6-129.7c11.6,6.9,24.6,10.6,38.4,10.6
	c41.3,0,75-33.5,75-74.6s-33.6-74.6-75-74.6c-40.2,0-73,31.7-74.8,71.3H158.4L105.2,4.5c-2.8-4.5-8.7-5.8-13.2-3s-5.9,8.7-3.1,13.2
	l46.9,74.6h-31.3c-27.5,0-25.6,16.2-21.5,22.4L195.9,283.7z M344.5,30.7c34.3,0,62.2,27.8,62.2,61.9s-27.9,61.9-62.2,61.9
	c-11.2,0-21.9-2.9-31.4-8.5c12.4-19.2,21.2-32.7,22.1-34.4c3.7-6.5,3.4-22.4-20.7-22.4h-32C284.2,56.7,311.3,30.7,344.5,30.7z
	 M302.8,114.8c-6.1,9.4-14.6,22.4-24.3,37.5H198l-23.5-37.5H302.8z M151.7,114.8l23.5,37.5h-35.1l-24.6-37.5H151.7z M345,87.5
	c1.8-10.3,6.8-40.2,7.1-41.5c0.6-3.8-6.5-5.4-13-4.7c-6.6,0.7-12.4,4.2-11.3,7.2c0,0,14.9,37.9,15.4,39.2
	C343.6,88.8,344.6,89.6,345,87.5z M341,88.9c-6.1-8.5-23.7-33.2-24.4-34.3c-2.3-3.2-8.4,0.7-12.6,5.8s-5.8,11.7-2.9,13
	c0,0,37.5,16.3,38.7,16.9C341,90.9,342.3,90.7,341,88.9z M500,485c0,8.3-5.9,15-13.1,15H13.1C5.9,500,0,493.3,0,485
	c0-8.2,5.9-15,13.1-15h473.8C494.1,470.1,500,476.8,500,485z"/>
</svg>
