<svg viewBox="0 0 500 500"><path d="M348.6 89.4C357.2 83.3 382 65.8 383 65c3.2-2.3-.7-8.4-5.8-12.5s-11.7-5.7-13.1-2.8c0 0-16.4 37.3-16.9 38.5-.6 1.2-.4 2.4 1.4 1.2zm-4.5 8.6c-1.8 10.3-6.9 40.2-7.1 41.4-.6 3.8 6.4 5.4 13 4.8 6.6-.7 12.3-4.2 11.3-7.2 0 0-14.9-37.9-15.4-39.1-.4-1.3-1.4-2-1.8.1zm4.8-2.6c-1.2-.5-2.5-.3-1.2 1.4 6.1 8.5 23.7 33.2 24.4 34.3 2.3 3.2 8.4-.7 12.6-5.8s5.8-11.7 2.9-13c0 0-37.4-16.3-38.7-16.9zm.8-2c10.4 1.7 40.4 6.8 41.6 7 3.9.6 5.4-6.4 4.8-12.9-.7-6.5-4.2-12.3-7.3-11.3 0 0-38.1 14.8-39.3 15.3-1.2.5-2 1.5.2 1.9zM195.9 283.7v125.7h-62.5c-7.1 0-12.8 5.7-12.8 12.8s5.7 12.7 12.8 12.7h150.7c7.1 0 12.8-5.7 12.8-12.7s-5.7-12.8-12.8-12.8h-62.6v-123c19.2-29.4 57.7-88.4 84.6-129.7 11.6 6.9 24.6 10.6 38.4 10.6 41.3 0 75-33.5 75-74.6s-33.6-74.6-75-74.6c-40.2 0-73 31.7-74.8 71.3H158.4L105.2 4.5c-2.8-4.5-8.7-5.8-13.2-3s-5.9 8.7-3.1 13.2l46.9 74.6h-31.3c-27.5 0-25.6 16.2-21.5 22.4l112.9 172zm148.6-253c34.3 0 62.2 27.8 62.2 61.9s-27.9 61.9-62.2 61.9c-11.2 0-21.9-2.9-31.4-8.5 12.4-19.2 21.2-32.7 22.1-34.4 3.7-6.5 3.4-22.4-20.7-22.4h-32c1.7-32.5 28.8-58.5 62-58.5zm-41.7 84.1c-6.1 9.4-14.6 22.4-24.3 37.5H198l-23.5-37.5h128.3zm-151.1 0l23.5 37.5h-35.1l-24.6-37.5h36.2zM345 87.5c1.8-10.3 6.8-40.2 7.1-41.5.6-3.8-6.5-5.4-13-4.7-6.6.7-12.4 4.2-11.3 7.2 0 0 14.9 37.9 15.4 39.2.4 1.1 1.4 1.9 1.8-.2zm-4 1.4c-6.1-8.5-23.7-33.2-24.4-34.3-2.3-3.2-8.4.7-12.6 5.8s-5.8 11.7-2.9 13c0 0 37.5 16.3 38.7 16.9 1.2.6 2.5.4 1.2-1.4zM500 485c0 8.3-5.9 15-13.1 15H13.1C5.9 500 0 493.3 0 485c0-8.2 5.9-15 13.1-15h473.8c7.2.1 13.1 6.8 13.1 15z" fill="#0f87c9"/></svg>