<?xml version="1.0" encoding="utf-8"?>

<svg version="1.1" id="DESKTOP" xmlns="http://www.w3.org/2000/svg" xmlns:xlink="http://www.w3.org/1999/xlink" x="0px" y="0px"
	 viewBox="0 0 500 500" style="enable-background:new 0 0 500 500;" xml:space="preserve">
<style type="text/css">
	.st0{fill:#0088CE;}
</style>
<path class="st0" d="M25,450h450c14.4,0,25,10.6,25,25l0,0c0,14.4-10.6,25-25,25H25c-14.4,0-25-10.6-25-25l0,0
	C0,460.6,10.6,450,25,450z"/>
<path class="st0" d="M314.4,218.2c0-50-40.9-90.9-90.9-90.9s-90.9,40.9-90.9,90.9s40.9,90.9,90.9,90.9
	C275,309.1,315.9,268.2,314.4,218.2L314.4,218.2z M419.7,387.9c0,14.4-12.9,26.5-26.5,26.5l0,0c-6.8,0-12.9-3.8-18.2-6.8l-69.7-69.7
	c-23.5,15.9-51.5,25-81.8,25c-19.7,0-37.9-3.8-55.3-10.6c-34.1-14.4-62.9-41.7-77.3-77.3s-14.4-76.5,0-112.9s40.9-62.9,76.5-76.5
	s76.5-14.4,112.1,0c34.1,14.4,62.9,40.9,76.5,76.5c19.7,44.7,14.4,96.2-14.4,137.1l69.7,69.7C418.2,375,419.7,380.3,419.7,387.9
	L419.7,387.9z"/>
</svg>
