<svg width="50px" height="50px" viewBox="0 0 50 50" version="1.1" xmlns="http://www.w3.org/2000/svg" xmlns:xlink="http://www.w3.org/1999/xlink">
    <defs>
        <path d="M24.9025885,46.4533523 C37.6384894,46.4533523 48,36.0332162 48,23.2266762 C48,10.4186539 37.6384894,0 24.9025885,0 C12.1666875,0 1.80517694,10.4186539 1.80517694,23.2266762 C1.80517694,28.9006849 3.84603601,34.2634235 7.53545079,38.4981787 C6.38351882,40.1553212 1.28504439,47.4968482 1.28504439,47.4968482 C1.09256596,47.7740268 1,48.0912258 1,48.4084248 C1,48.7523041 1.11019757,49.0947012 1.32765412,49.379291 C1.7493435,49.9321659 2.47811679,50.1411615 3.12607853,49.9025211 C3.12607853,49.9025211 15.688602,45.276455 16.6789108,44.9147888 C19.3030824,45.9197465 22.0624297,46.4533523 24.9025885,46.4533523" id="path-1"></path>
    </defs>
</svg>