<?xml version="1.0" encoding="utf-8"?>
<!-- Generator: Adobe Illustrator 22.0.1, SVG Export Plug-In . SVG Version: 6.00 Build 0)  -->
<svg version="1.1" id="Calque_1" xmlns="http://www.w3.org/2000/svg" xmlns:xlink="http://www.w3.org/1999/xlink" x="0px" y="0px"
	 viewBox="0 0 50 50" style="enable-background:new 0 0 50 50;" xml:space="preserve">
<style type="text/css">
	.st0{fill:#0088CE;}
</style>
<title>Icons/Interface/Message</title>
<desc>Created with Sketch.</desc>
<g id="Icons_x2F_Interface_x2F_Message">
	<g id="Fill-1">
		<path id="path-1_1_" class="st0" d="M24.9,46.5C37.6,46.5,48,36,48,23.2C48,10.4,37.6,0,24.9,0S1.8,10.4,1.8,23.2
			c0,5.7,2,11,5.7,15.3c-1.2,1.7-6.3,9-6.3,9C1.1,47.8,1,48.1,1,48.4c0,0.3,0.1,0.7,0.3,1c0.4,0.6,1.2,0.8,1.8,0.5
			c0,0,12.6-4.6,13.6-5C19.3,45.9,22.1,46.5,24.9,46.5"/>
	</g>
</g>
</svg>
