<svg viewBox="0 0 500 500"><path d="M499,249.7433a41.6108,41.6108,0,0,0-41.6053-41.6053H416.1072a41.6053,41.6053,0,0,0,0,83.2106h41.2875A41.6108,41.6108,0,0,0,499,249.7433m-373.5019,0A41.6108,41.6108,0,0,0,83.8928,208.138H42.6053a41.6053,41.6053,0,0,0,0,83.2106H83.8928a41.6108,41.6108,0,0,0,41.6053-41.6053m186.7547,0a41.6108,41.6108,0,0,0-41.6052-41.6053H229.3524a41.6053,41.6053,0,0,0,0,83.2106h41.2952a41.6108,41.6108,0,0,0,41.6052-41.6053M499,74.7515a41.6108,41.6108,0,0,0-41.6053-41.6053H416.1072a41.6053,41.6053,0,1,0,0,83.2106h41.2875A41.6108,41.6108,0,0,0,499,74.7515m-373.5019,0A41.6108,41.6108,0,0,0,83.8928,33.1462H42.6053a41.6053,41.6053,0,0,0,0,83.2106H83.8928a41.6108,41.6108,0,0,0,41.6053-41.6053m186.7547,0a41.6108,41.6108,0,0,0-41.6052-41.6053H229.3524a41.6053,41.6053,0,0,0,0,83.2106h41.2952a41.6108,41.6108,0,0,0,41.6052-41.6053M499,424.7426a41.6108,41.6108,0,0,0-41.6053-41.6052H416.1072a41.6053,41.6053,0,1,0,0,83.21h41.2875A41.6108,41.6108,0,0,0,499,424.7426m-373.5019,0a41.6108,41.6108,0,0,0-41.6053-41.6052H42.6053a41.6053,41.6053,0,1,0,0,83.21H83.8928a41.6108,41.6108,0,0,0,41.6053-41.6053m186.7547,0a41.6107,41.6107,0,0,0-41.6052-41.6052H229.3524a41.6053,41.6053,0,0,0,0,83.21h41.2952a41.6108,41.6108,0,0,0,41.6052-41.6053" fill="#0088ce" fill-rule="evenodd"/></svg>