<?xml version="1.0" encoding="utf-8"?>
<!-- Generator: Adobe Illustrator 21.0.2, SVG Export Plug-In . SVG Version: 6.00 Build 0)  -->
<svg version="1.1" id="Calque_1" xmlns="http://www.w3.org/2000/svg" xmlns:xlink="http://www.w3.org/1999/xlink" x="0px" y="0px"
	 viewBox="0 0 500 500" style="enable-background:new 0 0 500 500;" xml:space="preserve">
<style type="text/css">
	.st0{fill:#0F87C9;}
</style>
<path class="st0" d="M439.7,256.9c16.3,0.1,29.6-13,29.7-29.3c0.1-16.2-13.1-29.5-29.4-29.6s-29.6,13.1-29.7,29.4
	C410.2,243.6,423.4,256.9,439.7,256.9z M246.7,152c3.7,1.2,8.8,1.9,12,2.7c14.8,3.8,18.8,7.3,22.6,14.5c2.7,5.1,3.6,18.5-8.9,35
	c-1.4,1.8-6.2,6.8-6.2,14.9v16.5c0,14.5,11.5,26.3,25.7,26.3h23.8c6.3,0,12.1-2.4,16.6-6.3h37.9l0,0c9.3,0.2,21.5,1.2,28-12.6
	c4.5-9.6,3.3-19.5-1.4-25.6c-1.4-1.9-3.1-3.3-4.9-4.3c-0.3-0.1-2.6-1.2-3.6-1.5c-10.4-3.5-19-10.7-24.1-20.5
	c-5.3-10.1-6.4-21.7-3-32.6c2-6.6-1.6-13.6-8.3-15.7c-6.6-2.1-13.6,1.6-15.7,8.3c-5.4,17.3-3.7,35.7,4.7,51.7
	c0.3,0.5,0.6,1.1,0.9,1.6h-5.9c-4.6-7-12.5-11.6-21.3-11.6h-4.5c5-18.4,1.2-31-2.4-38c-10-19.2-23.2-23.1-41.4-28.3
	c-0.4-0.1-0.8-0.2-1.2-0.4l2-4.7c2.5-5.9-0.2-12.7-6.1-15.2s-12.7,0.2-15.3,6.1l-8.6,20C234.4,142.8,237.6,149.2,246.7,152z
	 M298.6,220.5c3-4.8,5.4-9.4,7.4-13.8h9.7c6.5,0,11.8,5.6,11.8,12.4v16.5c0,6.9-5.3,12.4-11.8,12.4h-23.8c-6.5,0-11.8-5.6-11.8-12.4
	v-8.9c1.8,0.7,3.6,1,5.5,1C290.6,227.9,295.7,225.3,298.6,220.5z M219.3,296c0,9.5,7.7,17.2,17.3,17.2h237.6
	c9.5,0,17.2-7.7,17.2-17.2s-7.7-17.2-17.2-17.2H236.5C227,278.7,219.3,286.4,219.3,296z M77,30.3c1.8-2.6,4.4-4.4,7.5-5
	c2.2-0.5,4.4-0.2,6.4,0.5c-2,3.2-3.5,6.7-4.4,10.5c-4.7,19.4,7.1,39,26.6,43.8c19.4,4.7,39-7.2,43.8-26.6c4.7-19.4-7.1-39-26.6-43.8
	c-6.5-1.6-13.1-1.3-19.1,0.5c-0.9-1.6-2.2-3-3.8-4.1c-8.2-5.5-18-7.4-27.7-5.5c-9.6,1.9-18,7.5-23.4,15.7C52.4,22,54,29.8,59.8,33.7
	C65.4,37.6,73.2,36.1,77,30.3z M46.7,331.5l-0.1,82.2c0,12,9.7,21.7,21.7,21.7l0,0c12,0,21.7-9.7,21.7-21.7c0,0,0-39.7,0.1-82.5
	c10.2-0.1,20.3-0.3,29.6-0.5c8.7,22.1,10.9,42.4,10.9,56.7c0,13.1-1.8,21.2-1.8,21.4c-0.4,1.6-0.5,3.2-0.5,4.8
	c0,9.9,6.8,18.9,16.8,21.2c11.6,2.7,23.3-4.4,26-16.1c0.5-1.9,9.7-42.8-7.2-93.7c-9.3-30.1-48.5-128.6-48.5-137
	c0-0.4,2.4-13.8,2.4-13.8c3.4,2.2,7,4.3,10.7,6.1c14.5,7.1,30.5,10.6,47.4,10.6c13.5,0,27.7-2.3,42.1-6.8
	c8.8-2.7,13.6-12.1,10.9-20.8c-2.7-8.8-12.1-13.6-20.8-10.9c-24.3,7.6-46.8,6.9-65-2c-4-2-7.8-4.4-11.4-7.1
	c-5.4-5.1-11.4-12.8-12.5-22.6c-1.2-11.4-1-25.6-16.7-30c-16.8-4.7-25.6-0.9-32.9,4.9c-8.1,6.4-10.9,27.3-11.5,33
	c-0.1,0.2-7.3,53.6-10.7,66.1C44.3,206,4.6,325.1,9,329.5C10.4,330.9,25.9,331.4,46.7,331.5z M500,485c0,8.3-5.9,15-13.1,15H13.1
	C5.9,500,0,493.3,0,485c0-8.2,5.9-15,13.1-15h473.8C494.1,470.1,500,476.8,500,485z"/>
</svg>
