<svg viewBox="0 0 500 500"><path d="M439.7 256.9c16.3.1 29.6-13 29.7-29.3.1-16.2-13.1-29.5-29.4-29.6s-29.6 13.1-29.7 29.4c-.1 16.2 13.1 29.5 29.4 29.5zM246.7 152c3.7 1.2 8.8 1.9 12 2.7 14.8 3.8 18.8 7.3 22.6 14.5 2.7 5.1 3.6 18.5-8.9 35-1.4 1.8-6.2 6.8-6.2 14.9v16.5c0 14.5 11.5 26.3 25.7 26.3h23.8c6.3 0 12.1-2.4 16.6-6.3h37.9c9.3.2 21.5 1.2 28-12.6 4.5-9.6 3.3-19.5-1.4-25.6-1.4-1.9-3.1-3.3-4.9-4.3-.3-.1-2.6-1.2-3.6-1.5-10.4-3.5-19-10.7-24.1-20.5-5.3-10.1-6.4-21.7-3-32.6 2-6.6-1.6-13.6-8.3-15.7-6.6-2.1-13.6 1.6-15.7 8.3-5.4 17.3-3.7 35.7 4.7 51.7.3.5.6 1.1.9 1.6h-5.9c-4.6-7-12.5-11.6-21.3-11.6h-4.5c5-18.4 1.2-31-2.4-38-10-19.2-23.2-23.1-41.4-28.3-.4-.1-.8-.2-1.2-.4l2-4.7c2.5-5.9-.2-12.7-6.1-15.2s-12.7.2-15.3 6.1l-8.6 20c-3.7 10.5-.5 16.9 8.6 19.7zm51.9 68.5c3-4.8 5.4-9.4 7.4-13.8h9.7c6.5 0 11.8 5.6 11.8 12.4v16.5c0 6.9-5.3 12.4-11.8 12.4h-23.8c-6.5 0-11.8-5.6-11.8-12.4v-8.9c1.8.7 3.6 1 5.5 1 5 .2 10.1-2.4 13-7.2zM219.3 296c0 9.5 7.7 17.2 17.3 17.2h237.6c9.5 0 17.2-7.7 17.2-17.2s-7.7-17.2-17.2-17.2H236.5c-9.5-.1-17.2 7.6-17.2 17.2zM77 30.3c1.8-2.6 4.4-4.4 7.5-5 2.2-.5 4.4-.2 6.4.5-2 3.2-3.5 6.7-4.4 10.5-4.7 19.4 7.1 39 26.6 43.8 19.4 4.7 39-7.2 43.8-26.6 4.7-19.4-7.1-39-26.6-43.8-6.5-1.6-13.1-1.3-19.1.5-.9-1.6-2.2-3-3.8-4.1C99.2.6 89.4-1.3 79.7.6c-9.6 1.9-18 7.5-23.4 15.7-3.9 5.7-2.3 13.5 3.5 17.4 5.6 3.9 13.4 2.4 17.2-3.4zM46.7 331.5l-.1 82.2c0 12 9.7 21.7 21.7 21.7S90 425.7 90 413.7c0 0 0-39.7.1-82.5 10.2-.1 20.3-.3 29.6-.5 8.7 22.1 10.9 42.4 10.9 56.7 0 13.1-1.8 21.2-1.8 21.4-.4 1.6-.5 3.2-.5 4.8 0 9.9 6.8 18.9 16.8 21.2 11.6 2.7 23.3-4.4 26-16.1.5-1.9 9.7-42.8-7.2-93.7-9.3-30.1-48.5-128.6-48.5-137 0-.4 2.4-13.8 2.4-13.8 3.4 2.2 7 4.3 10.7 6.1 14.5 7.1 30.5 10.6 47.4 10.6 13.5 0 27.7-2.3 42.1-6.8 8.8-2.7 13.6-12.1 10.9-20.8-2.7-8.8-12.1-13.6-20.8-10.9-24.3 7.6-46.8 6.9-65-2-4-2-7.8-4.4-11.4-7.1-5.4-5.1-11.4-12.8-12.5-22.6-1.2-11.4-1-25.6-16.7-30-16.8-4.7-25.6-.9-32.9 4.9-8.1 6.4-10.9 27.3-11.5 33-.1.2-7.3 53.6-10.7 66.1C44.3 206 4.6 325.1 9 329.5c1.4 1.4 16.9 1.9 37.7 2zM500 485c0 8.3-5.9 15-13.1 15H13.1C5.9 500 0 493.3 0 485c0-8.2 5.9-15 13.1-15h473.8c7.2.1 13.1 6.8 13.1 15z" fill="#0f87c9"/></svg>