<svg viewBox="0 0 500 500"><path d="M114.2054,251c0,33.0074-25.3383,59.76-56.6127,59.76C26.3582,310.76,1,284.0074,1,251s25.3582-59.76,56.5927-59.76C88.8671,191.24,114.2054,217.9926,114.2054,251ZM499,251c0,33.0074-25.3382,59.76-56.5927,59.76S385.7947,284.0074,385.7947,251s25.3581-59.76,56.6126-59.76S499,217.9926,499,251Zm-192.4073,0c0,33.0074-25.3183,59.76-56.5927,59.76-31.2545,0-56.5927-26.7526-56.5927-59.76S218.7455,191.24,250,191.24C281.2744,191.24,306.5927,217.9926,306.5927,251Z" fill="#0086d1" fill-rule="evenodd"/></svg>