<svg width="50px" height="50px" viewBox="0 0 50 50" version="1.1" xmlns="http://www.w3.org/2000/svg" xmlns:xlink="http://www.w3.org/1999/xlink">
    <defs>
        <path d="M11.3658181,26 C11.3658181,29.313622 8.82185885,32 5.68190909,32 C2.54595926,32 0,29.313622 0,26 C0,22.686378 2.54595926,20 5.68190909,20 C8.82185885,20 11.3658181,22.686378 11.3658181,26 Z M50,26 C50,29.313622 47.4560407,32 44.3180909,32 C41.1801411,32 38.6341819,29.313622 38.6341819,26 C38.6341819,22.686378 41.1801411,20 44.3180909,20 C47.4560407,20 50,22.686378 50,26 Z M30.6819091,26 C30.6819091,29.313622 28.1399498,32 25,32 C21.8620502,32 19.3180909,29.313622 19.3180909,26 C19.3180909,22.686378 21.8620502,20 25,20 C28.1399498,20 30.6819091,22.686378 30.6819091,26 Z" id="path-1"></path>
    </defs>
</svg>