<?xml version="1.0" encoding="UTF-8"?>
<svg width="50px" height="50px" viewBox="0 0 50 50" version="1.1" xmlns="http://www.w3.org/2000/svg" xmlns:xlink="http://www.w3.org/1999/xlink">
    <!-- Generator: Sketch 49.2 (51160) - http://www.bohemiancoding.com/sketch -->
    <title>Icons/Interface/Modifier</title>
    <desc>Created with Sketch.</desc>
    <defs>
        <path d="M46.3150745,19.3030724 L30.7206095,3.6299656 L32.1805863,2.1649702 C35.0457325,-0.721656734 40.0611961,-0.721656734 42.9286745,2.1649702 L47.7727191,7.03344291 C49.2093736,8.47499839 50,10.3935564 50,12.434002 C50,14.4744476 49.2093736,16.3930055 47.7727191,17.836905 L46.3150745,19.3030724 Z M30.4582334,16.7492924 L33.2592433,19.5655996 L20.8202873,32.0696283 L18.0192775,29.2521491 L30.4582334,16.7492924 Z M7.67816363,34.4733928 L15.4491585,42.2835762 L4.79902402,45.1772351 L7.67816363,34.4733928 Z M2.50061001,49.9285082 C13.4051325,47.2145105 19.044191,45.8081246 19.4177856,45.7093506 C19.8096032,45.6024457 20.321167,45.321167 20.8506064,44.893612 L43.5128985,22.1193795 L27.9172674,6.44627276 L5.25730748,29.2169893 C5.00817871,29.477478 4.82446289,29.8513794 4.74188435,30.1100505 L0.0680927047,47.4860679 C-0.116153573,48.1752017 0.0797538615,48.9123874 0.580017488,49.4151738 C0.959005084,49.7937286 1.46509929,50 1.98402077,50 C2.15427366,50 2.33035712,49.9765601 2.50061001,49.9285082 Z" id="path-1"></path>
    </defs>
    <g id="Icons/Interface/Modifier" stroke="none" stroke-width="1" fill="none" fill-rule="evenodd">
        <mask id="mask-2" fill="white">
            <use xlink:href="#path-1"></use>
        </mask>
        <use id="Fill-1" fill="#0088CE" xlink:href="#path-1"></use>
    </g>
</svg>