<svg viewBox="0 0 500 500"><path d="M462.2981,193.2586,306.9773,37.1545l14.5414-14.5914c28.5368-28.7508,78.4908-28.7508,107.0509,0l48.2467,48.49a76.3329,76.3329,0,0,1,0,107.6025ZM304.364,167.8229l27.8981,28.0505L208.37,320.4135,180.472,292.3514ZM77.4745,344.355l77.3991,77.7894L48.7983,450.9653ZM25.9061,498.2879q162.9135-40.5471,168.495-42.0228c3.9025-1.0647,8.9977-3.8663,14.2709-8.1247L434.3885,221.309,279.056,65.2049,53.3628,292.0012a24.8023,24.8023,0,0,0-5.1336,8.8949L1.6782,473.9612A19.8344,19.8344,0,0,0,20.7608,499,19.0575,19.0575,0,0,0,25.9061,498.2879Z" fill="#0088ce" fill-rule="evenodd"/></svg>