<?xml version="1.0" encoding="utf-8"?>
<!-- Generator: Adobe Illustrator 21.0.2, SVG Export Plug-In . SVG Version: 6.00 Build 0)  -->
<svg version="1.1" id="Calque_1" xmlns="http://www.w3.org/2000/svg" xmlns:xlink="http://www.w3.org/1999/xlink" x="0px" y="0px"
	 viewBox="0 0 500 500" style="enable-background:new 0 0 500 500;" xml:space="preserve">
<style type="text/css">
	.st0{fill:#0F87C9;}
</style>
<path class="st0" d="M358.6,387.8c0,26.2,21.2,47.3,47.3,47.3c26.2,0,47.3-21.2,47.3-47.3c0-26.2-21.2-47.3-47.3-47.3
	C379.8,340.5,358.6,361.7,358.6,387.8z M380.9,212.2l-49.7,86.7l130.3-27.7L380.9,212.2z M458.7,113.8L361.3,98l-15.9,97.4
	l97.4,15.9L458.7,113.8z M493.5,306.4l-4.9-22.9l-178,38.2l4.9,22.9L493.5,306.4z M23.9,279.9c6.6-1.2,11.2-6.9,11.2-13.4
	c0-0.8-0.1-1.6-0.2-2.5c-0.7-4-1.1-8-1.1-12.1c0-2.7,0.2-5.4,0.5-8.1c2.1-18,11.2-34.2,25.5-45.4c0.8-0.6,1.5-1.1,2.3-1.7l0.1,220.7
	c0,9.8,7.9,17.8,17.8,17.8c9.8,0,17.8-8,17.8-17.8c0,0,0.1-63.5,0.1-108.7c7.9,10.2,15.8,22,21.6,34.6c9.4,20.5,11.5,39.5,11.5,52.5
	c0,10.7-1.4,17.4-1.5,17.5c-0.3,1.3-0.4,2.6-0.4,3.9c0,8.1,5.6,15.5,13.8,17.3c9.5,2.2,19-3.7,21.3-13.2c0.4-1.7,10-43.9-12.3-92.8
	c-9.1-20-22.3-38-34-51.8V228c14.5,19,35.9,32.5,60.9,36.4c2.3,11.7,8.4,22.3,18,29.7c5.4,4.2,11.5,7.1,17.9,8.8v20.9l-0.1-0.1
	l-0.1,100.2c0,6.2,5,11.3,11.2,11.3l0,0c6.2,0,11.3-5,11.3-11.3l0.1-58.4c6.2,5.4,12.1,11.9,15.1,18.3c8,17.6,4.8,37.4,4.8,37.5
	c-1.4,6,2.3,12.1,8.3,13.6c0.9,0.2,1.8,0.3,2.6,0.3c5.1,0,9.7-3.5,10.9-8.6c0.2-0.9,5.1-27.1-6.2-52c-3.8-8.4-10.1-16-16.6-22.3V302
	c5.2-1.8,10.2-4.4,14.6-7.9c10.5-8.2,17.1-20,18.7-33.2c0.6-5,0.5-10-0.4-14.8c-0.9-5.2-5.9-8.7-11-7.7c-5.2,0.9-8.6,5.9-7.7,11
	c0.5,3,0.6,6.1,0.2,9.2c-1,8.2-5.4,15.1-11.6,20.5c-12.4,10.7-35.9,12.4-50.5,0c-6.3-5.3-10.6-12.3-11.6-20.5
	c-0.4-3-0.3-6.1,0.3-9.2c0.9-5.2-2.5-10.1-7.7-11c-0.9-0.2-1.8-0.1-2.7,0c-0.7-0.2-1.4-0.6-2.2-0.7c-33.6-4.3-59-33.1-59.2-67
	c0-6.9-5.2-12.7-12.1-13.5c-25.3-3-50.2,4-70.3,19.8c-20,15.8-32.7,38.3-35.7,63.6C6,250.1,6.3,259.7,8,269
	C9.3,276.4,16.5,281.3,23.9,279.9z M239,276.2c11.5-3.4,18-15.5,14.6-27s-15.5-18-27-14.6s-18,15.5-14.6,27
	C215.5,273,227.5,279.6,239,276.2z M91.7,145.6c16.4,0,29.6-13.3,29.6-29.6c0-16.4-13.2-29.6-29.6-29.6c-16.3,0-29.6,13.2-29.6,29.6
	S75.3,145.6,91.7,145.6z M500,485c0,8.3-5.9,15-13.1,15H13.1C5.9,500,0,493.3,0,485c0-8.2,5.9-15,13.1-15h473.8
	C494.1,470.1,500,476.8,500,485z"/>
</svg>
