<svg viewBox="0 0 500 500"><path d="M28 126.5h24c28.4 0 35.6-17.1 35.6-31s-7.2-31-35.6-31H13v110.9h15v-48.9zm0-48.9h19.8c11.9 0 23.8 2.8 23.8 17.9 0 15-11.9 17.9-23.8 17.9H28V77.6zm89.1 48.9h16.8l28.2 48.9h18.8l-31.5-50.6c16.8-1.9 27.3-15.2 27.3-29.3 0-13.9-7.2-31-35.6-31h-39v110.9h15.1v-48.9h-.1zm0-48.9h19.7c11.9 0 23.8 2.8 23.8 17.9 0 15-11.9 17.9-23.8 17.9h-19.7V77.6zm128.5 100.6c33.8 0 57.8-25.4 57.8-58.3s-24-58.3-57.8-58.3c-33.9 0-57.8 25.4-57.8 58.3-.1 32.9 23.9 58.3 57.8 58.3zm0-102.5c25.4 0 41.8 19.9 41.8 44.2s-16.4 44.2-41.8 44.2-41.8-19.9-41.8-44.2c-.1-24.3 16.4-44.2 41.8-44.2zm49.3 218.7s-16.2 2.1-25.4 3.2c0 0 62.5-41.6 63.5-42.2 3.3-2.1 12.9.4 17.4 6.5.2.3.5.6.4.8 0 .2-.4.3-.4.3-9.4 6.1-41.7 26.1-45.4 28.5-2 1.2-6 2.4-10.1 2.9zM492.8 216c-13.8 7.4-33.4 14.8-44.4 14.8H51.6c-10.9 0-30.6-7.4-44.4-14.8-6.6-3.5-9.1-11.7-5.5-18.2 3.5-6.6 11.6-9.1 18.2-5.6 14.2 7.5 28.4 11.6 31.7 11.6h396.8c3.4 0 17.6-4.1 31.7-11.6 6.7-3.5 14.8-1 18.3 5.6 3.5 6.5 1 14.7-5.6 18.2zm-92.3 44.1c4.8 7.8 2.7 18.6-5 23.4l-75.8 48.8c-.7.5-71.1 42-71.1 42-13.1 6.7-72.1 19.9-136.5 21.6v-56.6l4.6.5 12.6.9c7.4-19.7 39.6-42.8 39.6-42.8l48.8-40.9c6.4-5.3 15.9-4.5 21.2 1.9 5.4 6.4 4.5 15.9-1.9 21.3l-6.5 5.6c-8.7 7.3-10.1 12.8-11 18.6l7.8.7v-.1s26.2 1.6 29 1.5 5.3-.6 9.2-1.1c1.8-.3 10.2-1.3 18.8-2.4l12.8-1.6c5.1-.6 9.7-2 12.3-3.7 3.8-2.5 67-42.6 67-42.6 2.7-1.7 5.9-2.5 9.1-2.5 5.7-.1 11.6 2.6 15 7.5zm-98.7-.2c3 0 6 .7 8.7 2.1-9.7 6.4-46.8 30.8-56.5 37.1l-16.3-.7c1.2-.4 2.6-.9 3.7-1.4 2.7-1.1 6.8-3 9.4-4.9 2.5-1.8 41.2-29.4 41.2-29.4 2.8-1.8 6.3-2.8 9.8-2.8zM94.5 321.8H70.6v89.7h23.9c3.7 0 6.7-3.1 6.7-6.8v-75.9c0-3.9-3-7-6.7-7zm-8.9 82.6c-3.8 0-7-3.1-7-7s3.1-7 6.9-7 6.9 3.1 6.9 7c.2 3.9-3 7-6.8 7zM350.9 97.5l-8.1-9.9 30.8-25h11.8v114.9h-13.6V80.1h-.3l-20.6 17.4zm59.4-2.8h8.7l15.5 25.7h8.3L426.6 94c8.9-1.4 14.3-6.8 14.3-15.1 0-14.1-11.7-15.8-22.8-15.8h-14.6v57.2h6.8V94.7zm0-25.2h9.5c6.6 0 13.8 1.2 13.8 9.5 0 9.5-9.8 9.5-17.3 9.5h-6.1v-19h.1zm80.1 50.9H453V63.2h36v6.3h-29.2v17.9H487v6.3h-27.2v20.4h30.6v6.3zM500 485c0 8.3-5.9 15-13.1 15H13.1C5.9 500 0 493.3 0 485c0-8.2 5.9-15 13.1-15h473.8c7.2.1 13.1 6.8 13.1 15z" fill="#0f87c9"/></svg>