<?xml version="1.0" encoding="utf-8"?>
<!-- Generator: Adobe Illustrator 21.0.2, SVG Export Plug-In . SVG Version: 6.00 Build 0)  -->
<svg version="1.1" id="Calque_1" xmlns="http://www.w3.org/2000/svg" xmlns:xlink="http://www.w3.org/1999/xlink" x="0px" y="0px"
	 viewBox="0 0 500 500" style="enable-background:new 0 0 500 500;" xml:space="preserve">
<style type="text/css">
	.st0{fill:#0F87C9;}
</style>
<path class="st0" d="M28,126.5h24c28.4,0,35.6-17.1,35.6-31s-7.2-31-35.6-31H13v110.9h15V126.5z M28,77.6h19.8
	c11.9,0,23.8,2.8,23.8,17.9c0,15-11.9,17.9-23.8,17.9H28V77.6z M117.1,126.5h16.8l28.2,48.9h18.8l-31.5-50.6
	c16.8-1.9,27.3-15.2,27.3-29.3c0-13.9-7.2-31-35.6-31h-39v110.9h15.1v-48.9H117.1z M117.1,77.6h19.7c11.9,0,23.8,2.8,23.8,17.9
	c0,15-11.9,17.9-23.8,17.9h-19.7C117.1,113.4,117.1,77.6,117.1,77.6z M245.6,178.2c33.8,0,57.8-25.4,57.8-58.3s-24-58.3-57.8-58.3
	c-33.9,0-57.8,25.4-57.8,58.3C187.7,152.8,211.7,178.2,245.6,178.2z M245.6,75.7c25.4,0,41.8,19.9,41.8,44.2s-16.4,44.2-41.8,44.2
	s-41.8-19.9-41.8-44.2C203.7,95.6,220.2,75.7,245.6,75.7z M294.9,294.4c0,0-16.2,2.1-25.4,3.2c0,0,62.5-41.6,63.5-42.2
	c3.3-2.1,12.9,0.4,17.4,6.5c0.2,0.3,0.5,0.6,0.4,0.8c0,0.2-0.4,0.3-0.4,0.3c-9.4,6.1-41.7,26.1-45.4,28.5
	C303,292.7,299,293.9,294.9,294.4z M492.8,216c-13.8,7.4-33.4,14.8-44.4,14.8H51.6c-10.9,0-30.6-7.4-44.4-14.8
	c-6.6-3.5-9.1-11.7-5.5-18.2c3.5-6.6,11.6-9.1,18.2-5.6c14.2,7.5,28.4,11.6,31.7,11.6h396.8c3.4,0,17.6-4.1,31.7-11.6
	c6.7-3.5,14.8-1,18.3,5.6C501.9,204.3,499.4,212.5,492.8,216z M400.5,260.1c4.8,7.8,2.7,18.6-5,23.4l-75.8,48.8
	c-0.7,0.5-71.1,42-71.1,42c-13.1,6.7-72.1,19.9-136.5,21.6v-56.6l4.6,0.5l12.6,0.9c7.4-19.7,39.6-42.8,39.6-42.8l48.8-40.9
	c6.4-5.3,15.9-4.5,21.2,1.9c5.4,6.4,4.5,15.9-1.9,21.3l-6.5,5.6c-8.7,7.3-10.1,12.8-11,18.6l7.8,0.7V305c0,0,26.2,1.6,29,1.5
	s5.3-0.6,9.2-1.1c1.8-0.3,10.2-1.3,18.8-2.4l12.8-1.6c5.1-0.6,9.7-2,12.3-3.7c3.8-2.5,67-42.6,67-42.6c2.7-1.7,5.9-2.5,9.1-2.5
	C391.2,252.5,397.1,255.2,400.5,260.1z M301.8,259.9c3,0,6,0.7,8.7,2.1c-9.7,6.4-46.8,30.8-56.5,37.1l-16.3-0.7
	c1.2-0.4,2.6-0.9,3.7-1.4c2.7-1.1,6.8-3,9.4-4.9c2.5-1.8,41.2-29.4,41.2-29.4C294.8,260.9,298.3,259.9,301.8,259.9z M94.5,321.8
	H70.6v89.7h23.9c3.7,0,6.7-3.1,6.7-6.8v-75.9C101.2,324.9,98.2,321.8,94.5,321.8z M85.6,404.4c-3.8,0-7-3.1-7-7s3.1-7,6.9-7
	s6.9,3.1,6.9,7C92.6,401.3,89.4,404.4,85.6,404.4z M350.9,97.5l-8.1-9.9l30.8-25h11.8v114.9h-13.6V80.1h-0.3L350.9,97.5z
	 M410.3,94.7h8.7l15.5,25.7h8.3L426.6,94c8.9-1.4,14.3-6.8,14.3-15.1c0-14.1-11.7-15.8-22.8-15.8h-14.6v57.2h6.8L410.3,94.7
	L410.3,94.7z M410.3,69.5h9.5c6.6,0,13.8,1.2,13.8,9.5c0,9.5-9.8,9.5-17.3,9.5h-6.1v-19H410.3z M490.4,120.4H453V63.2h36v6.3h-29.2
	v17.9H487v6.3h-27.2v20.4h30.6V120.4z M500,485c0,8.3-5.9,15-13.1,15H13.1C5.9,500,0,493.3,0,485c0-8.2,5.9-15,13.1-15h473.8
	C494.1,470.1,500,476.8,500,485z"/>
</svg>
