<svg viewBox="0 0 500 500"><path d="M204.4 198.1c18.8 27.1 54.2 36.9 84.2 23.4 7.3-3.3 15.9 0 19.2 7.3 3.3 7.3 0 15.9-7.3 19.2-26.3 11.8-55.6 11-80.4-.3l11.5 44.6 15.1.2h1.1c12.1.9 52.9 4.4 69.6 13.6 22.2 12.3 62 44.3 63.7 45.6 8.1 6.6 9.4 18.4 2.8 26.6-6.5 8.1-18.4 9.4-26.5 2.8-5.5-4.4-16.2-12.8-27.6-21.3 1.9 7 3.3 13.2 4.2 17.7 0 .2.1.4.1.6l6.9 38.3c1.9 10.3-5 20-15.3 21.9-10.3 1.8-20.1-5-21.9-15.2 0 0-6.7-37.2-6.8-38-4.6-21.1-12-43.6-16.3-48.8-5.8-3.4-28.5-6.3-49-6.2l-37.5-.6c-9.8-.1-17.7-7.8-18.4-17.5h-.1l-24.1-93.5h.1c-.4-1.3-.6-2.3-.6-2.5-.8-3-.4-6.6 4.2-10.7 10.6-8.4 18-9.7 31.1-13 1.4-.3 2.7-.4 4-.4 5.1-.7 10.7 1.5 14 6.2zm-21.7 186.7c17.4 6.3 35.4 9.9 53.6 10.7 9.3.4 17.2-6.8 17.6-16.2.4-9.3-6.8-17.2-16.2-17.5-14.7-.6-29.3-3.5-43.4-8.7-91.5-33.4-90.2-143.4-85.3-189.1 1-9.3-5.7-17.6-15-18.5-9.3-1-17.6 5.8-18.6 15C63.6 272.1 103.7 356 182.7 384.8zm-8.8-201.9c16.8-4.3 26.9-21.5 22.5-38.3-4.3-16.8-21.4-26.9-38.3-22.6-16.8 4.3-26.9 21.4-22.5 38.2 4.4 16.9 21.6 27 38.3 22.7zm132.6-31.7h-46.1l45-58.2V81.4h-63v13.3h43.3l-45.1 58.4v11.5h65.9v-13.4zm70.2-30.1H338l37.7-48.9v-9.8h-52.9v11.2h36.4l-37.8 49v9.6h55.4v-11.1h-.1zm72.4-25.9h-34.4l33.6-43.5V43h-47.1v10h32.4l-33.7 43.6v8.6h49.2v-10zM500 485c0 8.3-5.9 15-13.1 15H13.1C5.9 500 0 493.3 0 485c0-8.2 5.9-15 13.1-15h473.8c7.2.1 13.1 6.8 13.1 15z" fill="#0f87c9"/></svg>