<?xml version="1.0" encoding="utf-8"?>
<!-- Generator: Adobe Illustrator 21.0.2, SVG Export Plug-In . SVG Version: 6.00 Build 0)  -->
<svg version="1.1" id="Calque_1" xmlns="http://www.w3.org/2000/svg" xmlns:xlink="http://www.w3.org/1999/xlink" x="0px" y="0px"
	 viewBox="0 0 500 500" style="enable-background:new 0 0 500 500;" xml:space="preserve">
<style type="text/css">
	.st0{fill:#0F87C9;}
</style>
<path class="st0" d="M204.4,198.1c18.8,27.1,54.2,36.9,84.2,23.4c7.3-3.3,15.9,0,19.2,7.3c3.3,7.3,0,15.9-7.3,19.2
	c-26.3,11.8-55.6,11-80.4-0.3l11.5,44.6l15.1,0.2c0.3,0,0.7,0,1.1,0c12.1,0.9,52.9,4.4,69.6,13.6c22.2,12.3,62,44.3,63.7,45.6
	c8.1,6.6,9.4,18.4,2.8,26.6c-6.5,8.1-18.4,9.4-26.5,2.8c-5.5-4.4-16.2-12.8-27.6-21.3c1.9,7,3.3,13.2,4.2,17.7
	c0,0.2,0.1,0.4,0.1,0.6l6.9,38.3c1.9,10.3-5,20-15.3,21.9c-10.3,1.8-20.1-5-21.9-15.2c0,0-6.7-37.2-6.8-38
	c-4.6-21.1-12-43.6-16.3-48.8c-5.8-3.4-28.5-6.3-49-6.2l-37.5-0.6c-9.8-0.1-17.7-7.8-18.4-17.5h-0.1l-24.1-93.5h0.1
	c-0.4-1.3-0.6-2.3-0.6-2.5c-0.8-3-0.4-6.6,4.2-10.7c10.6-8.4,18-9.7,31.1-13c1.4-0.3,2.7-0.4,4-0.4
	C195.5,191.2,201.1,193.4,204.4,198.1z M182.7,384.8c17.4,6.3,35.4,9.9,53.6,10.7c9.3,0.4,17.2-6.8,17.6-16.2
	c0.4-9.3-6.8-17.2-16.2-17.5c-14.7-0.6-29.3-3.5-43.4-8.7C102.8,319.7,104.1,209.7,109,164c1-9.3-5.7-17.6-15-18.5
	c-9.3-1-17.6,5.8-18.6,15C63.6,272.1,103.7,356,182.7,384.8z M173.9,182.9c16.8-4.3,26.9-21.5,22.5-38.3
	c-4.3-16.8-21.4-26.9-38.3-22.6c-16.8,4.3-26.9,21.4-22.5,38.2C140,177.1,157.2,187.2,173.9,182.9z M306.5,151.2h-46.1l45-58.2V81.4
	h-63v13.3h43.3l-45.1,58.4v11.5h65.9L306.5,151.2L306.5,151.2z M376.7,121.1H338l37.7-48.9v-9.8h-52.9v11.2h36.4l-37.8,49v9.6h55.4
	v-11.1H376.7z M449.1,95.2h-34.4l33.6-43.5V43h-47.1v10h32.4l-33.7,43.6v8.6h49.2V95.2z M500,485c0,8.3-5.9,15-13.1,15H13.1
	C5.9,500,0,493.3,0,485c0-8.2,5.9-15,13.1-15h473.8C494.1,470.1,500,476.8,500,485z"/>
</svg>
