<svg viewBox="0 0 500 500"><path d="M277.2243,61.147,154.1194,3.38a25.1508,25.1508,0,0,0-33.5612,12.4276A25.6843,25.6843,0,0,0,132.8454,49.752l46.48,21.8135A188.27,188.27,0,0,0,56.5745,204.5368c-20.1569,80.7766,13.561,164.0888,83.9031,207.3067a25.0715,25.0715,0,0,0,34.7186-8.5782A25.7253,25.7253,0,0,0,166.72,368.15c-51.2617-31.4958-75.8311-92.2175-61.133-151.0989A137.14,137.14,0,0,1,199.28,118.8219l-20.6067,50.932A25.67,25.67,0,0,0,192.4924,203.09a24.9208,24.9208,0,0,0,9.5629,1.9119,25.2833,25.2833,0,0,0,23.3968-15.8885ZM443.4231,295.4558A188.2548,188.2548,0,0,1,320.6669,428.4323l46.49,21.8185A25.6758,25.6758,0,0,1,379.4445,484.19,25.2491,25.2491,0,0,1,356.5076,499a24.9481,24.9481,0,0,1-10.6243-2.3823L222.7784,438.8508l51.7671-127.9666a25.1813,25.1813,0,0,1,32.96-13.9765,25.6661,25.6661,0,0,1,13.8238,33.3361l-20.6068,50.9321a137.1644,137.1644,0,0,0,93.6985-98.2294c14.6931-58.8814-9.8763-119.6032-61.138-151.0989a25.7223,25.7223,0,0,1-8.4813-35.1152A25.1206,25.1206,0,0,1,359.52,88.1543C429.8672,131.3721,463.5851,214.6792,443.4231,295.4558Z" fill="#0088ce" fill-rule="evenodd"/></svg>