<svg viewBox="0 0 500 500"><path d="M293.9 172.3c-5.9 0-10.7 4.8-10.7 10.7 0 5.9 4.8 10.7 10.7 10.7 0 0 28.9.1 39.7.2 2.4 6.9 8.5 24.5 12.6 36.5-34.8 17.4-59.5 49.2-68.5 86.2-9.6.8-31.1 3-41 4-2.3-7.2-5.4-14.1-9.4-20.4l-27.1-69H211c6 0 10.7-4.8 10.7-10.7 0-6-4.8-10.7-10.7-10.7h-52.8c-6 0-10.7 4.8-10.7 10.7 0 6 4.8 10.7 10.7 10.7h19l14.5 37c-11.7-5.7-24.7-9-38.6-9-48.4 0-87.9 39.4-87.9 87.8 0 48.5 39.4 87.9 87.9 87.9 39.7 0 73.3-26.5 84.1-62.7l28.5 2.7c.8.1 1.6.1 2.3.1 13.9 0 26-11.4 27.5-26.5.1-.9.1-1.7.1-2.6v-.1-1.5c1-39.4 23.3-75.2 58-93.6l7.4 18.7c-27.8 14.8-46.8 44-46.8 77.6 0 48.5 39.4 87.9 87.9 87.9 48.4 0 87.9-39.4 87.9-87.9 0-48.4-39.4-87.8-87.9-87.8-7.2 0-14.3 1-21 2.6l-10.5-26.6-19.2-55.5c-1.5-4.3-5.6-7.3-10.1-7.3l-47.4-.1zM153.1 411.1c-35.3 0-64-28.7-64-64s28.7-64 64-64c26.9 0 49.8 16.6 59.3 40.1l-.5.1-58.4 6.5c-8.4.9-14.8 8.5-14.9 17.4-.2 8.9 6 16.4 14.4 17.2l58.2 5.4 1.6.1c-9.3 24.1-32.5 41.2-59.7 41.2zm240.4-58.9c1.7 4.2 5.7 6.8 10 6.8 1.3 0 2.6-.3 3.9-.7 5.5-2.2 8.2-8.4 6.1-14l-23.6-59.9c4-.8 8-1.2 12.2-1.2 35.3 0 64 28.7 64 64s-28.7 64-64 64-64-28.7-64-64c0-23.5 12.8-44 31.7-55.1l23.7 60.1zM181.7 14.4L34.5 68.1C21.9 72.7 14.1 84.5 14 97.2l202.1-73.7c-8.2-9.6-21.8-13.6-34.4-9.1zM44.4 186.5c5.9 16.2 23.8 24.5 40 18.6l147.2-53.6c16.2-5.9 24.5-23.8 18.6-40l-24.9-68.3-205.8 75 24.9 68.3zM500 485c0 8.3-5.9 15-13.1 15H13.1C5.9 500 0 493.3 0 485c0-8.2 5.9-15 13.1-15h473.8c7.2.1 13.1 6.8 13.1 15z" fill="#0f87c9"/></svg>