<svg xmlns="http://www.w3.org/2000/svg" viewBox="0 0 90 90"><title>sami-smile</title><path d="M60,28.53a6.23,6.23,0,0,1,4.45-1.75,6.07,6.07,0,0,1,4.4,1.75A6.13,6.13,0,0,1,70.72,33a5.77,5.77,0,0,1-1.85,4.35,5.86,5.86,0,0,1-4.4,1.9A6,6,0,0,1,60,37.38,5.83,5.83,0,0,1,58.22,33,6.2,6.2,0,0,1,60,28.53Z"/><path d="M21.27,28.53a6.23,6.23,0,0,1,4.45-1.75,6.07,6.07,0,0,1,4.4,1.75A6.13,6.13,0,0,1,32,33a5.77,5.77,0,0,1-1.85,4.35,5.86,5.86,0,0,1-4.4,1.9,6,6,0,0,1-4.45-1.9A5.83,5.83,0,0,1,19.47,33,6.2,6.2,0,0,1,21.27,28.53Z"/><path d="M70,55q-25,21.8-50,0A3.09,3.09,0,0,1,19,52.93a3,3,0,0,1,.8-2.2,2.76,2.76,0,0,1,2-1,3.05,3.05,0,0,1,2.2.75q21,18.3,42.05,0a3.05,3.05,0,0,1,2.2-.75,3.12,3.12,0,0,1,2.1,1,3.23,3.23,0,0,1,.7,2.2A3.17,3.17,0,0,1,70,55Z"/></svg>