<svg viewBox="0 0 500 500"><path d="M79.9589,159.109A39.8028,39.8028,0,0,1,91.9,129.5886a41.9981,41.9981,0,0,1,70.9815,29.52,38.8741,38.8741,0,0,1-12.6042,29.1887A38.2772,38.2772,0,0,1,121.42,200.57,41.3338,41.3338,0,0,1,79.9589,159.109Z" fill="#0f87c9"/><path d="M387.7667,380.3458a18.84,18.84,0,0,1-13.2676,5.9705,19.3707,19.3707,0,0,1-14.2627-5.9705,18.1766,18.1766,0,0,1-6.6338-13.2675q-.3979-45.7733-26.5351-69.9865h0q-27.8619-22.29-78.2787-22.2232-48.1613,0-75.6252,23.2183t-27.1985,68.9914a18.84,18.84,0,0,1-5.97,13.2675,19.1056,19.1056,0,0,1-13.931,5.9705,19.3705,19.3705,0,0,1-14.2626-5.9705,19.9011,19.9011,0,0,1-5.97-13.9309q0-64.6794,41.1295-99.5068h0q36.4194-33.169,101.8286-33.169,67.6647,0,104.1505,32.1739,40.4,33.8322,40.7978,99.8385A19.9015,19.9015,0,0,1,387.7667,380.3458Z" fill="#0f87c9"/><path d="M407.3363,188.2977A38.2772,38.2772,0,0,1,378.4794,200.57a40.201,40.201,0,0,1-29.52-12.2725,42.0583,42.0583,0,0,1,0-58.7091,41.9981,41.9981,0,0,1,70.9815,29.52A38.8737,38.8737,0,0,1,407.3363,188.2977Z" fill="#0f87c9"/></svg>