<svg xmlns="http://www.w3.org/2000/svg" viewBox="0 0 90 90"><title>sami-confused</title><path d="M15.35,33.48a2.93,2.93,0,0,1-1.5-1.75,3.1,3.1,0,0,1,.2-2.3,2.7,2.7,0,0,1,1.7-1.5l14-4.6a3,3,0,0,1,2.3.2,2.84,2.84,0,0,1,1.5,1.75,3,3,0,0,1-.15,2.25,3.08,3.08,0,0,1-1.75,1.55l-14,4.55A3.25,3.25,0,0,1,15.35,33.48Z"/><path d="M21,43.68a6,6,0,0,1-1.75-4.4A6.16,6.16,0,0,1,21,34.83a6.42,6.42,0,0,1,4.5-1.75,6.23,6.23,0,0,1,6.25,6.2,5.73,5.73,0,0,1-1.9,4.4,5.74,5.74,0,0,1-4.35,1.85A6.26,6.26,0,0,1,21,43.68Z"/><path d="M66,60.78a2.77,2.77,0,0,1-1.9,1.3l-33.25,6.5a2.91,2.91,0,0,1-2.25-.45,3,3,0,0,1-1.3-1.95,2.64,2.64,0,0,1,.5-2.2,2.78,2.78,0,0,1,1.9-1.3L63,56.18a2.62,2.62,0,0,1,2.25.45,3,3,0,0,1,1.3,1.9A2.75,2.75,0,0,1,66,60.78Z"/><path d="M68.6,43.68a5.74,5.74,0,0,1-4.35,1.85,6.26,6.26,0,0,1-4.5-1.85A6,6,0,0,1,58,39.28a6.16,6.16,0,0,1,1.75-4.45,6.42,6.42,0,0,1,4.5-1.75,6.23,6.23,0,0,1,6.25,6.2A5.73,5.73,0,0,1,68.6,43.68Z"/><path d="M76,31.73a2.87,2.87,0,0,1-1.5,1.75,3.25,3.25,0,0,1-2.3.15l-14-4.55a2.93,2.93,0,0,1-1.7-1.55,2.68,2.68,0,0,1-.2-2.25,2.9,2.9,0,0,1,1.5-1.75,3,3,0,0,1,2.3-.2L74,27.93a3,3,0,0,1,1.8,1.5A3.14,3.14,0,0,1,76,31.73Z"/></svg>