<svg xmlns="http://www.w3.org/2000/svg" viewBox="0 0 90 90"><title>sami-sad</title><path d="M19.32,33.12a6,6,0,0,1,1.8-4.45,6.21,6.21,0,0,1,4.45-1.75,6.23,6.23,0,0,1,6.25,6.2,5.86,5.86,0,0,1-1.9,4.4,5.77,5.77,0,0,1-4.35,1.85,6.06,6.06,0,0,1-4.45-1.85A6,6,0,0,1,19.32,33.12Z"/><path d="M65.72,66.47a2.84,2.84,0,0,1-2,.9,2.92,2.92,0,0,1-2.15-.9,2.74,2.74,0,0,1-1-2q-.06-6.9-4-10.55h0q-4.2-3.36-11.8-3.35-7.26,0-11.4,3.5t-4.1,10.4a2.84,2.84,0,0,1-.9,2,2.88,2.88,0,0,1-2.1.9,2.92,2.92,0,0,1-2.15-.9,3,3,0,0,1-.9-2.1q0-9.75,6.2-15v0q5.49-5,15.35-5,10.2,0,15.7,4.85,6.09,5.1,6.15,15.05A3,3,0,0,1,65.72,66.47Z"/><path d="M68.67,37.52a5.77,5.77,0,0,1-4.35,1.85,6.06,6.06,0,0,1-4.45-1.85,6.34,6.34,0,0,1,0-8.85,6.21,6.21,0,0,1,4.45-1.75,6.23,6.23,0,0,1,6.25,6.2A5.86,5.86,0,0,1,68.67,37.52Z"/></svg>