<svg viewBox="0 0 500 500"><path d="M80.0425,140.0612A38.6745,38.6745,0,0,0,91.983,168.9176a40.4657,40.4657,0,0,0,29.52,12.2722,39.2047,39.2047,0,0,0,29.188-12.2722,38.0108,38.0108,0,0,0,12.2722-28.8564,40.7968,40.7968,0,0,0-39.8519-41.72q-.804-.0185-1.6083-.0052a40.2662,40.2662,0,0,0-41.46,39.0357q-.0366,1.212,0,2.4246Z" fill="#0f87c9"/><path d="M403.1007,247.5262a19.37,19.37,0,0,0-14.2624-5.97H112.879a18.4421,18.4421,0,0,0-13.9307,5.97,19.9008,19.9008,0,0,0-5.97,14.594q.3979,71.9749,44.4453,109.1233h.3317q40.2,34.8267,114.43,34.8266,71.6433,0,111.7768-36.1533,45.1087-37.48,45.1087-107.7966A19.9008,19.9008,0,0,0,403.1007,247.5262Zm-65.3414,92.8709v-.3316Q306.5812,366.2682,252.1854,366.6q-57.0493,0-88.5591-25.54a93.4015,93.4015,0,0,1-29.188-59.0394H367.6107A94.7276,94.7276,0,0,1,337.7593,340.3971Z" fill="#0f87c9"/><path d="M378.5562,181.19a38.0768,38.0768,0,0,0,28.8563-12.2722,37.6128,37.6128,0,0,0,12.604-28.8563,39.8019,39.8019,0,0,0-12.604-29.8514,38.94,38.94,0,0,0-28.8563-11.8743,40.2662,40.2662,0,0,0-41.46,39.0357q-.0366,1.212,0,2.4246a38.6743,38.6743,0,0,0,12.2722,29.1217A40.465,40.465,0,0,0,378.5562,181.19Z" fill="#0f87c9"/></svg>