<svg viewBox="0 0 500 500"><path d="M499.0067,249.9143c0,118.1824-96.1571,214.34-214.34,214.34a215.2236,215.2236,0,0,1-156.0624-67.3614,21.1875,21.1875,0,1,1,30.7668-29.1385,170.4307,170.4307,0,0,0,125.21,54.0776c94.8716,0,172.0029-77.1313,172.0029-172.0029S379.4531,77.9971,284.7529,77.9971,112.75,155.1284,112.75,250v.6l31.281-42.0794a21.1687,21.1687,0,0,1,34.0235,25.1962l-71.9035,96.757L9.5654,258.4844a21.16,21.16,0,1,1,25.2819-33.9378l35.7375,26.5675c0-.4285-.0857-.7713-.0857-1.1141,0-118.0967,96.1572-214.2538,214.34-214.2538C402.85,35.6605,499.0067,131.8176,499.0067,249.9143Zm-95.043,41.908a21.6937,21.6937,0,0,0,3.2567.2571A21.166,21.166,0,0,0,410.477,250L288.0953,230.8029l-45.25-87.0728a21.2171,21.2171,0,0,0-37.623,19.6257l55.2775,106.0127,143.4643,22.4538Z" fill="#0088ce"/></svg>