<?xml version="1.0" encoding="utf-8"?>

<svg version="1.1" id="DESKTOP" xmlns="http://www.w3.org/2000/svg" xmlns:xlink="http://www.w3.org/1999/xlink" x="0px" y="0px"
	 viewBox="0 0 500 500" style="enable-background:new 0 0 500 500;" xml:space="preserve">
<style type="text/css">
	.st0{fill:#0088CE;}
</style>
<path class="st0" d="M346.2,211.3c0.8-35.6-13.6-70.5-39.4-95.5c-25-25.8-59.1-40.2-95.5-39.4c-35.6-0.8-70.5,13.6-94.7,39.4
	c-25.8,25-40.2,59.1-39.4,95.5c-0.8,35.6,13.6,70.5,39.4,95.5c25,25.8,59.1,40.2,95.5,39.4c35.6,0.8,70.5-13.6,95.5-39.4
	C332.5,281.7,346.9,247.6,346.2,211.3L346.2,211.3z M500,461.4c-0.8,21.2-17.4,37.9-38.7,38.7c-9.9,0-19.7-3.8-27.3-11.4
	L331.8,385.6c-34.9,24.3-77.3,37.9-119.7,37.1c-28,0-56.1-5.3-81.8-16.7c-51.5-20.5-92.5-61.4-113.7-112.2
	c-22-52.3-22-112.2,0-164.5C37.7,77.9,77.9,37.7,129.4,16.5c52.3-22,112.2-22,164.5,0c50.8,21.2,91.7,61.4,112.9,112.9
	c11.4,25.8,16.7,53.8,16.7,81.8c0,43.2-12.9,84.9-37.1,119.7l103.1,103.1C496.2,441.7,500,451.5,500,461.4z"/>
</svg>
