<?xml version="1.0" encoding="utf-8"?>

<svg version="1.1" id="DESKTOP" xmlns="http://www.w3.org/2000/svg" xmlns:xlink="http://www.w3.org/1999/xlink" x="0px" y="0px"
	 width="581.1px" height="500px" viewBox="0 0 581.1 500" style="enable-background:new 0 0 581.1 500;" xml:space="preserve">
<style type="text/css">
	.st0{fill:#0088CE;}
</style>
<path class="st0" d="M581.1,249.9c0,137.9-112.2,250.1-250.1,250.1c-68.6,0-135-28.6-182.1-78.6c-9.4-10-9-25.6,1-35
	c9.9-9.3,25.6-8.8,34.9,1c38.4,40.7,90.2,63.1,146.1,63.1c110.7,0,200.7-90,200.7-200.7S441.6,49.3,331.1,49.3
	s-200.7,90-200.7,200.7c0,0.2,0,0.5,0,0.7l36.5-49.1c8.1-10.9,23.7-13.3,34.6-5.1c10.9,8.1,13.3,23.6,5.1,34.5l-83.9,112.9L10,259.9
	c-10.9-8.1-13.3-23.6-5.1-34.5c8.1-10.9,23.7-13.3,34.6-5.1l41.7,31c0-0.5-0.1-0.9-0.1-1.3C81.1,112.2,193.3,0,331.2,0
	C468.9-0.1,581.1,112.1,581.1,249.9z M470.2,298.8c1.3,0.2,2.6,0.3,3.8,0.3c12,0,22.4-8.7,24.4-20.9c2.1-13.5-7.1-26.2-20.6-28.2
	l-142.8-22.4L282.2,126c-6.3-12.1-21.2-16.9-33.4-10.5c-12.1,6.3-16.9,21.3-10.5,33.4l64.5,123.7L470.2,298.8z"/>
</svg>
