<?xml version="1.0" encoding="utf-8"?>

<svg version="1.1" id="Calque_1" xmlns="http://www.w3.org/2000/svg" xmlns:xlink="http://www.w3.org/1999/xlink" x="0px" y="0px"
	 viewBox="0 0 423.5 500" style="enable-background:new 0 0 423.5 500;" xml:space="preserve">
<style type="text/css">
	.st0{fill:#0088CE;}
</style>
<path class="st0" d="M326.5,307.6c-28.8,0-53.8,12.9-71.2,32.6L186.4,300c3-9.8,5.3-19.7,5.3-30.3c0-14.4-3.8-28.8-9.8-40.9
	l80.3-60.6c17.4,15.2,39.4,24.2,63.6,24.2c53,0,96.2-43.2,95.5-96.2C422.7,42.4,379.5,0,326.5,0s-96.2,43.2-95.5,96.2
	c0,14.4,3.8,28,9.1,40.9l-80.3,60.6c-16.7-15.2-39.4-24.2-63.6-24.2c-53,0-96.2,43.2-96.2,96.2s43.2,96.2,96.2,96.2
	c28.8,0,53.8-12.9,71.2-32.6l68.9,40.2c-3,9.8-5.3,19.7-5.3,30.3c0,53,43.2,96.2,96.2,96.2s96.2-43.2,96.2-96.2
	C422.7,350.8,379.5,307.6,326.5,307.6z"/>
</svg>
