<?xml version="1.0" encoding="utf-8"?>
<!-- Generator: Adobe Illustrator 22.0.1, SVG Export Plug-In . SVG Version: 6.00 Build 0)  -->
<svg version="1.1" id="Calque_1" xmlns="http://www.w3.org/2000/svg" xmlns:xlink="http://www.w3.org/1999/xlink" x="0px" y="0px"
	 viewBox="0 0 50 50" style="enable-background:new 0 0 50 50;" xml:space="preserve">
<style type="text/css">
	.st0{fill:#323232;}
</style>
<title>Icons/Interface/Trier</title>
<desc>Created with Sketch.</desc>
<g id="Icons_x2F_Interface_x2F_Trier">
	<g id="Fill-1">
		<path id="path-1_1_" class="st0" d="M20.9,26.3c-0.8-0.6-2-0.4-2.6,0.4l-5.7,7.7V10.8c0-1-0.8-1.8-1.8-1.8S9,9.8,9,10.8v23.6
			l-5.7-7.7c-0.6-0.8-1.7-1-2.6-0.4c-0.8,0.6-1,1.7-0.4,2.6l9,12.2c0,0,0,0,0,0.1c0.1,0.1,0.1,0.1,0.2,0.2c0,0,0.1,0.1,0.1,0.1
			c0,0,0,0,0,0c0.1,0.1,0.2,0.1,0.3,0.2c0,0,0,0,0,0c0.1,0.1,0.2,0.1,0.3,0.1c0,0,0.1,0,0.1,0c0.1,0,0.2,0,0.4,0h0h0
			c0.1,0,0.2,0,0.4,0c0,0,0.1,0,0.1,0c0.1,0,0.2-0.1,0.3-0.1c0,0,0,0,0,0c0.1,0,0.2-0.1,0.3-0.2c0,0,0,0,0,0c0,0,0.1-0.1,0.1-0.1
			c0.1-0.1,0.1-0.1,0.2-0.2c0,0,0,0,0-0.1l9-12.2C21.9,28,21.7,26.9,20.9,26.3z M47.9,34.6H25.2c-1.1,0-2.1,0.9-2.1,2.1
			c0,1.1,0.9,2.1,2.1,2.1h22.7c1.1,0,2.1-0.9,2.1-2.1C50,35.6,49.1,34.6,47.9,34.6z M47.9,23.7H30c-1.1,0-2.1,0.9-2.1,2.1
			c0,1.1,0.9,2.1,2.1,2.1h17.9c1.1,0,2.1-0.9,2.1-2.1C50,24.6,49.1,23.7,47.9,23.7z M23.2,16.8c-1.1,0-2.1-0.9-2.1-2.1
			s0.9-2.1,2.1-2.1h24.7c1.1,0,2.1,0.9,2.1,2.1s-0.9,2.1-2.1,2.1H23.2z"/>
	</g>
</g>
</svg>
