<svg viewBox="0 0 500 500"><path d="M209.3047,259.0719a18.2654,18.2654,0,0,0-25.5307,3.9053l-56.6316,77.0873V105.0859a18.2625,18.2625,0,1,0-36.525,0V340.0645L33.9858,262.9772a18.2662,18.2662,0,0,0-29.4408,21.63L94.16,406.5868c.1462.1981.3443.3349.4953.5282a18.694,18.694,0,0,0,1.8536,1.9763c.3679.3395.7216.6933,1.1084,1,.16.1273.2829.283.4527.4009a17.3431,17.3431,0,0,0,2.6366,1.6036c.1038.0566.217.0849.3207.1368a18.2379,18.2379,0,0,0,3.2639,1.17c.2877.0708.5754.1462.8678.2075a18.6128,18.6128,0,0,0,3.7072.4245h.0283a18.612,18.612,0,0,0,3.7072-.4245c.2925-.0613.58-.1367.8679-.2075a18.1073,18.1073,0,0,0,3.2638-1.17c.1085-.0519.217-.08.3208-.1368a17.3422,17.3422,0,0,0,2.6365-1.6036c.17-.1179.2924-.2736.4528-.4009.3868-.3066.74-.66,1.1084-1a18.7148,18.7148,0,0,0,1.8536-1.9763c.1509-.1933.349-.33.4952-.5282l89.61-121.9795A18.2667,18.2667,0,0,0,209.3047,259.0719Zm268.9708,83.0632H251.9046a20.7269,20.7269,0,0,0,0,41.4538H478.2755a20.7269,20.7269,0,0,0,0-41.4538Zm0-109.2966H299.8766a20.7269,20.7269,0,0,0,0,41.4537H478.2755a20.7269,20.7269,0,0,0,0-41.4537ZM232.4111,164.9861a20.7269,20.7269,0,0,1,0-41.4537H478.2755a20.7269,20.7269,0,0,1,0,41.4537Z" fill="#0f87c9" fill-rule="evenodd"/></svg>