<svg viewBox="0 0 500 500"><path d="M344.34,220.4768H159.9077a24.1213,24.1213,0,0,1,0-48.24H344.34a24.1211,24.1211,0,0,1,0,48.2405m-52.36,96.838H159.9077a24.1075,24.1075,0,0,1,0-48.2131H291.98a24.1073,24.1073,0,0,1,0,48.2131M253.4862-.1337c-126.978,0-230.2821,103.7844-230.2821,231.3458A230.25,230.25,0,0,0,80.3592,383.3194c-11.4964,16.5012-62.3584,89.6171-62.3584,89.6171a15.9546,15.9546,0,0,0,.4358,18.7525,15.75,15.75,0,0,0,17.9257,5.2167s125.2617-46.0715,135.1235-49.6682a228.897,228.897,0,0,0,82,15.32c126.9779,0,230.2548-103.8118,230.2548-231.3459C483.741,103.6507,380.4641-.1337,253.4862-.1337" fill="#0088ce" fill-rule="evenodd"/></svg>