<?xml version="1.0" encoding="utf-8"?>
<!-- Generator: Adobe Illustrator 22.0.1, SVG Export Plug-In . SVG Version: 6.00 Build 0)  -->
<svg version="1.1" id="Calque_1" xmlns="http://www.w3.org/2000/svg" xmlns:xlink="http://www.w3.org/1999/xlink" x="0px" y="0px"
	 viewBox="0 0 50 50" style="enable-background:new 0 0 50 50;" xml:space="preserve">
<style type="text/css">
	.st0{fill:#0088CE;}
</style>
<title>Icons/Interface/Support</title>
<desc>Created with Sketch.</desc>
<g id="Icons_x2F_Interface_x2F_Support">
	<g id="Fill-1">
		<path id="path-1_1_" class="st0" d="M33.5,21.1H15.9c-1.3,0-2.3-1-2.3-2.3c0-1.3,1-2.3,2.3-2.3h17.7c1.3,0,2.3,1,2.3,2.3
			C35.8,20.1,34.8,21.1,33.5,21.1 M28.5,30.4H15.9c-1.3,0-2.3-1-2.3-2.3c0-1.3,1-2.3,2.3-2.3h12.7c1.3,0,2.3,1,2.3,2.3
			C30.8,29.4,29.8,30.4,28.5,30.4 M24.8,0C12.7,0,2.8,9.9,2.8,22.2c0,5.4,2,10.5,5.5,14.6c-1.1,1.6-6,8.6-6,8.6
			C2.1,45.6,2,45.9,2,46.2c0,0.3,0.1,0.7,0.3,0.9c0.4,0.5,1.1,0.7,1.7,0.5c0,0,12-4.4,13-4.8c2.5,1,5.1,1.5,7.9,1.5
			c12.2,0,22.1-10,22.1-22.2C46.9,9.9,37,0,24.8,0"/>
	</g>
</g>
</svg>
