<?xml version="1.0" encoding="utf-8"?>
<!-- Generator: Adobe Illustrator 22.0.1, SVG Export Plug-In . SVG Version: 6.00 Build 0)  -->
<svg version="1.1" id="Calque_1" xmlns="http://www.w3.org/2000/svg" xmlns:xlink="http://www.w3.org/1999/xlink" x="0px" y="0px"
	 viewBox="0 0 50 50" style="enable-background:new 0 0 50 50;" xml:space="preserve">
<style type="text/css">
	.st0{fill:#0088CE;}
</style>
<title>Icons/Interface/Tag</title>
<desc>Created with Sketch.</desc>
<g id="Icons_x2F_Interface_x2F_Tag">
	<g id="Fill-1">
		<path id="path-1_1_" class="st0" d="M18.1,14.6c-1.6,1.6-4.1,1.6-5.7,0c-1.6-1.6-1.6-4.1,0-5.7c1.6-1.6,4.1-1.6,5.7,0
			C19.6,10.5,19.6,13.1,18.1,14.6 M20.4,0c0.9,0,1.7,0.3,2.3,0.9l22.2,22.2c1.3,1.3,1.3,3.3,0,4.5L31.1,41.5c-1.3,1.3-3.3,1.3-4.5,0
			L4.4,19.3c-0.6-0.6-0.9-1.4-0.9-2.3L4.6,4.4c0-1.8,1.4-3.2,3.2-3.2L20.4,0z M2.5,45h45c1.4,0,2.5,1.1,2.5,2.5
			c0,1.4-1.1,2.5-2.5,2.5h-45C1.1,50,0,48.9,0,47.5C0,46.1,1.1,45,2.5,45z"/>
	</g>
</g>
</svg>
