<svg viewBox="0 0 500 500"><path d="M358.6,381.8a47.3,47.3,0,1,0,47.3-47.3A47.2655,47.2655,0,0,0,358.6,381.8Zm22.3-175.6-49.7,86.7,130.3-27.7Zm77.8-98.4L361.3,92l-15.9,97.4,97.4,15.9Zm34.8,192.6-4.9-22.9-178,38.2,4.9,22.9ZM23.9,273.9a13.5994,13.5994,0,0,0,11.2-13.4,22.8562,22.8562,0,0,0-.2-2.5,69.8122,69.8122,0,0,1-1.1-12.1,73.373,73.373,0,0,1,.5-8.1,67.3286,67.3286,0,0,1,25.5-45.4c.8-.6,1.5-1.1,2.3-1.7l.1,220.7a17.8,17.8,0,0,0,35.6,0s.1-63.5.1-108.7c7.9,10.2,15.8,22,21.6,34.6A126.3769,126.3769,0,0,1,131,389.8c0,10.7-1.4,17.4-1.5,17.5a17.2227,17.2227,0,0,0-.4,3.9,17.7942,17.7942,0,0,0,35.1,4.1c.4-1.7,10-43.9-12.3-92.8-9.1-20-22.3-38-34-51.8V222a94.8739,94.8739,0,0,0,60.9,36.4,49.0442,49.0442,0,0,0,18,29.7,49.8972,49.8972,0,0,0,17.9,8.8v20.9l-.1-.1-.1,100.2a11.2671,11.2671,0,0,0,11.2,11.3h0A11.2882,11.2882,0,0,0,237,417.9l.1-58.4c6.2,5.4,12.1,11.9,15.1,18.3,8,17.6,4.8,37.4,4.8,37.5a11.394,11.394,0,0,0,8.3,13.6,12.2158,12.2158,0,0,0,2.6.3,11.213,11.213,0,0,0,10.9-8.6c.2-.9,5.1-27.1-6.2-52-3.8-8.4-10.1-16-16.6-22.3V296a49.8727,49.8727,0,0,0,32.9-55.9,9.4945,9.4945,0,1,0-18.7,3.3,31.4626,31.4626,0,0,1,.2,9.2c-1,8.2-5.4,15.1-11.6,20.5-12.4,10.7-35.9,12.4-50.5,0-6.3-5.3-10.6-12.3-11.6-20.5a28.5343,28.5343,0,0,1,.3-9.2,9.4517,9.4517,0,0,0-7.7-11,8.1563,8.1563,0,0,0-2.7,0,14.1612,14.1612,0,0,0-2.2-.7,68.0727,68.0727,0,0,1-59.2-67,13.6223,13.6223,0,0,0-12.1-13.5,95.4322,95.4322,0,0,0-106,83.4A96.4717,96.4717,0,0,0,8,263,13.5766,13.5766,0,0,0,23.9,273.9ZM239,270.2a21.7044,21.7044,0,1,0-27-14.6A21.6979,21.6979,0,0,0,239,270.2ZM91.7,139.6A29.6,29.6,0,1,0,62.1,110,29.5969,29.5969,0,0,0,91.7,139.6ZM500,485c0,8.3-5.9,15-13.1,15H13.1C5.9,500,0,493.3,0,485c0-8.2,5.9-15,13.1-15H486.9C494.1,470.1,500,476.8,500,485Z" fill="#0f87c9"/></svg>