<svg viewBox="0 0 500 500"><path d="M155.1554,423.0287H236.739a335.7383,335.7383,0,0,0,36.234-2.112,109.4188,109.4188,0,0,0,35.5266-9.853,70.0057,70.0057,0,0,0,26.72-22.1568q10.55-14.406,10.55-39.0434,0-39.3771-25.6736-54.854-25.6885-15.4669-79.83-15.4719h-85.11Zm0-219.4659h80.8862q44.3086,0,66.48-17.2253,22.1469-17.23,22.1469-45.37,0-32.3386-22.8642-48.1791-22.8492-15.8256-73.504-15.8206H155.1554ZM66.5282.9935h194.131a233.8715,233.8715,0,0,1,55.5614,6.6849A142.7537,142.7537,0,0,1,365.117,29.4865,116.8347,116.8347,0,0,1,399.9362,68.53q13.3449,23.91,13.36,57.6635,0,42.2165-23.92,69.6385-23.91,27.422-62.595,39.3921v1.4047A129.2611,129.2611,0,0,1,370.0385,249.64,114.8853,114.8853,0,0,1,404.16,275.6621a120.7023,120.7023,0,0,1,22.1468,36.5727,122.0568,122.0568,0,0,1,8.09,44.6722q0,40.7969-16.1792,67.8751a128.3233,128.3233,0,0,1-42.55,43.6063q-26.3909,16.5429-60.4928,23.5715a342.8409,342.8409,0,0,1-69.28,7.0336H66.5282Z" fill="#0088ce" fill-rule="evenodd"/></svg>