<svg width="50px" height="50px" viewBox="0 0 50 50" version="1.1" xmlns="http://www.w3.org/2000/svg" xmlns:xlink="http://www.w3.org/1999/xlink">
    <defs>
        <path d="M5.5,34 C2.463,34 0,36.463 0,39.5 C0,42.537 2.463,45 5.5,45 C8.537,45 11,42.537 11,39.5 C11,36.463 8.537,34 5.5,34 Z M5.5,20 C2.463,20 0,22.463 0,25.5 C0,28.537 2.463,31 5.5,31 C8.537,31 11,28.537 11,25.5 C11,22.463 8.537,20 5.5,20 Z M5.5,6 C2.463,6 0,8.463 0,11.5 C0,14.537 2.463,17 5.5,17 C8.537,17 11,14.537 11,11.5 C11,8.463 8.537,6 5.5,6 Z M47.585,17 C48.919,17 50,16.104 50,15 C50,13.896 48.919,13 47.585,13 L16.415,13 C15.081,13 14,13.896 14,15 C14,16.104 15.081,17 16.415,17 L47.585,17 Z M47.913,20 L16.087,20 C14.935,20 14,20.896 14,22 C14,23.104 14.935,24 16.087,24 L47.913,24 C49.065,24 50,23.104 50,22 C50,20.896 49.065,20 47.913,20 Z M47.913,34 L16.087,34 C14.935,34 14,34.896 14,36 C14,37.104 14.935,38 16.087,38 L47.913,38 C49.065,38 50,37.104 50,36 C50,34.896 49.065,34 47.913,34 Z M16.173,10 L47.827,10 C49.027,10 50,9.104 50,8 C50,6.896 49.027,6 47.827,6 L16.173,6 C14.973,6 14,6.896 14,8 C14,9.104 14.973,10 16.173,10 Z M16.415,45 L47.585,45 C48.919,45 50,44.104 50,43 C50,41.896 48.919,41 47.585,41 L16.415,41 C15.081,41 14,41.896 14,43 C14,44.104 15.081,45 16.415,45 Z M50,29 C50,30.104 48.919,31 47.585,31 L16.415,31 C15.081,31 14,30.104 14,29 C14,27.896 15.081,27 16.415,27 L47.585,27 C48.919,27 50,27.896 50,29 Z" id="path-1"></path>
    </defs>
</svg>