<svg width="50px" height="50px" viewBox="0 0 50 50" version="1.1" xmlns="http://www.w3.org/2000/svg" xmlns:xlink="http://www.w3.org/1999/xlink">
    <defs>
        <path d="M38.068,17 C39.135,17 40,16.104 40,15 C40,13.896 39.135,13 38.068,13 L1.932,13 C0.865,13 0,13.896 0,15 C0,16.104 0.865,17 1.932,17 L38.068,17 Z M47.913,20 L2.087,20 C0.935,20 0,20.896 0,22 C0,23.104 0.935,24 2.087,24 L47.913,24 C49.066,24 50,23.104 50,22 C50,20.896 49.066,20 47.913,20 Z M47.913,34 L2.087,34 C0.935,34 0,34.896 0,36 C0,37.104 0.935,38 2.087,38 L47.913,38 C49.066,38 50,37.104 50,36 C50,34.896 49.066,34 47.913,34 Z M2.172,10 L47.828,10 C49.027,10 50,9.104 50,8 C50,6.896 49.027,6 47.828,6 L2.172,6 C0.973,6 0,6.896 0,8 C0,9.104 0.973,10 2.172,10 Z M1.932,45 L38.068,45 C39.135,45 40,44.104 40,43 C40,41.896 39.135,41 38.068,41 L1.932,41 C0.865,41 0,41.896 0,43 C0,44.104 0.865,45 1.932,45 Z M40,29 C40,30.104 39.135,31 38.068,31 L1.932,31 C0.865,31 0,30.104 0,29 C0,27.896 0.865,27 1.932,27 L38.068,27 C39.135,27 40,27.896 40,29 Z" id="path-1"></path>
    </defs>
</svg>