<svg viewBox="0 0 500 500"><path d="M448.0374,149.3433V162.44c-.6468,160.5565-131.291,290.2305-291.8475,289.6646A290.6146,290.6146,0,0,1,1.05,406.5085a202.2786,202.2786,0,0,0,24.2533,0,204.867,204.867,0,0,0,127.0061-43.575,102.4169,102.4169,0,0,1-95.5578-70.9811,103.6192,103.6192,0,0,0,19.3218,1.8594,103.2452,103.2452,0,0,0,26.7594-3.7189,102.5175,102.5175,0,0,1-81.976-100.2467A101.6338,101.6338,0,0,0,67.2614,202.62,102.4857,102.4857,0,0,1,36.1364,66.2355,290.3177,290.3177,0,0,0,246.8971,173.0306,102.463,102.463,0,0,1,420.9546,79.5747a202.3855,202.3855,0,0,0,64.7561-24.9,102.8041,102.8041,0,0,1-44.8685,56.6718A205.122,205.122,0,0,0,499.05,95.1777,205.9483,205.9483,0,0,1,448.0374,149.3433Z" fill="#0088ce"/></svg>