<svg viewBox="0 0 500 500"><path d="M359.8352,463.1114a21.5727,21.5727,0,0,1-7.7736,1.5286,19.3682,19.3682,0,0,1-19.1658-19.2874c0-8.7221,4.5122-13.5327,11.66-17.7589,4.2-2.4277,8.98-3.9114,13.4474-6.3392a205.6935,205.6935,0,0,0,24.5716-15.331,193.7109,193.7109,0,0,0,0-310.847,205.6935,205.6935,0,0,0-24.5716-15.331c-4.4676-2.4278-9.2479-3.9115-13.4474-6.3392-7.1481-4.2262-11.66-9.0368-11.66-17.7589A19.3682,19.3682,0,0,1,352.0616,36.36a21.5727,21.5727,0,0,1,7.7736,1.5286C444.1829,74.35,499,158.0192,499,250.5S444.1829,426.65,359.8352,463.1114ZM329.59,392.3458a22.03,22.03,0,0,1-7.4609,1.4837A19.3861,19.3861,0,0,1,302.695,374.587c0-8.4523,4.78-14.1621,11.66-17.7588,8.0864-4.2262,15.5472-7.8678,22.74-13.2629a115.707,115.707,0,0,0,0-186.1306c-7.1928-5.395-14.6536-9.0367-22.74-13.2629-6.88-3.5967-11.66-9.3065-11.66-17.7588a19.32,19.32,0,0,1,19.1212-19.2425,22.3378,22.3378,0,0,1,7.7736,1.4837c56.2913,23.7833,92.7914,80.7015,92.7914,141.8458S385.8811,368.5625,329.59,392.3458Zm-30.2008-71.08a16.6565,16.6565,0,0,1-7.5055,1.5286,19.1559,19.1559,0,0,1-19.1212-19.2875c0-22.8841,34.713-16.5449,34.713-53.0067s-34.713-30.1226-34.713-53.0067a19.1559,19.1559,0,0,1,19.1212-19.2875,16.6551,16.6551,0,0,1,7.5055,1.5286c28.101,11.15,46.3733,40.643,46.3733,70.7656S327.49,309.8459,299.389,321.2656Zm-68.5325,93.0652a19.3976,19.3976,0,0,1-19.1659,19.2874,18.8147,18.8147,0,0,1-13.4474-5.7547L98.5717,327.6048H20.1659A19.3681,19.3681,0,0,1,1,308.3173V192.6826a19.3681,19.3681,0,0,1,19.1659-19.2874H98.5717L198.2432,73.1365a18.8148,18.8148,0,0,1,13.4474-5.7548,19.3977,19.3977,0,0,1,19.1659,19.2875Z" fill="#0088ce" fill-rule="evenodd"/></svg>