<svg viewBox="0 0 500 500"><path d="M421.6763,346.7254a22.7631,22.7631,0,0,1-10.1945,2.0785,26.1236,26.1236,0,0,1-26.1881-26.2266c0-31.1173,47.4317-22.5585,47.4317-72.0773,0-49.58-47.4317-40.96-47.4317-72.0774a26.1236,26.1236,0,0,1,26.1881-26.2266,22.7633,22.7633,0,0,1,10.1945,2.0786c38.397,15.1613,63.3642,55.2654,63.3642,96.2254S460.0733,331.1973,421.6763,346.7254Zm-93.6424,126.548A26.44,26.44,0,0,1,301.8457,499.5a25.7687,25.7687,0,0,1-18.3744-7.8252l-136.19-136.3295H40.1476A26.44,26.44,0,0,1,13.96,329.1187V171.8813a26.4,26.4,0,0,1,26.1881-26.2266H147.2808L283.4713,9.264A25.9608,25.9608,0,0,1,301.8457,1.5a26.4,26.4,0,0,1,26.1882,26.2266Z" fill="#0088ce" fill-rule="evenodd"/></svg>