<?xml version="1.0" encoding="utf-8"?>

<svg version="1.1" id="DESKTOP" xmlns="http://www.w3.org/2000/svg" xmlns:xlink="http://www.w3.org/1999/xlink" x="0px" y="0px"
	 width="522.1px" height="500px" viewBox="0 0 522.1 500" style="enable-background:new 0 0 522.1 500;" xml:space="preserve">
<style type="text/css">
	.st0{fill:#0088CE;}
</style>
<path class="st0" d="M514.9,433.1l-217.3-407C288.6,9.4,275.4,0,261.1,0c-14.2,0-27.6,9.5-36.3,26.1L7.3,433.1
	c-8.8,16.3-9.7,33.2-2.2,46.4C12.5,492.5,27,500,45,500h432.1c18,0,32.6-7.5,39.9-20.6C524.5,466.3,523.7,449.4,514.9,433.1z
	 M261.1,442.5c-15.2,0-27.5-12.9-27.5-28.8s12.2-28.6,27.5-28.6c15.2,0,27.6,12.8,27.6,28.6C288.6,429.5,276.3,442.5,261.1,442.5z
	 M282.9,340.3c-0.4,11.6-10.8,21.3-21.8,21.3c-11.1,0-21.4-9.6-21.8-21.3l-11.7-182.6c-0.4-11.7,8.4-21.2,19.6-21.2H275
	c11.3,0,20,9.5,19.7,21.2L282.9,340.3z"/>
</svg>
