<svg viewBox="0 0 500 500"><path d="M492.1433,424.6553,284.8653,36.4264C276.28,20.4966,263.6892,11.53,250.0487,11.53c-13.5451,0-26.3271,9.0619-34.6258,24.8963L7.9541,424.6553c-8.3941,15.5482-9.2526,31.6688-2.0985,44.26,7.0587,12.4005,20.89,19.5545,38.06,19.5545H456.0867c17.17,0,31.0964-7.154,38.06-19.65C501.3005,456.3241,500.5374,440.2035,492.1433,424.6553Zm-242.0946,8.9665c-14.4989,0-26.2316-12.3051-26.2316-27.4717s11.6373-27.281,26.2316-27.281c14.499,0,26.3271,12.21,26.3271,27.281C276.28,421.2213,264.5477,433.6218,250.0487,433.6218Zm20.7946-97.4865c-.3816,11.065-10.3019,20.3176-20.7946,20.3176-10.588,0-20.413-9.1572-20.7945-20.3176l-11.16-174.1784c-.3816-11.16,8.0126-20.2222,18.696-20.2222h26.5178c10.7789,0,19.0776,9.0618,18.7915,20.2222Z" fill="#0088ce"/></svg>