<svg viewBox="0 0 500 500"><path d="M63.8 108c47-53.1 114.5-83.6 185.4-83.6 73.3 0 142.4 32.2 189.6 88.4 2.4 2.9 5.9 4.4 9.4 4.4 2.8 0 5.5-.9 7.8-2.9 5.2-4.3 5.8-12 1.5-17.2C405.6 35.4 329.7 0 249.2 0 171.4 0 97.1 33.5 45.5 91.8c-4.5 5.1-4 12.8 1.1 17.3 5 4.4 12.7 4 17.2-1.1zM250 52.5c-63.9 0-124.1 28.2-165.1 77.3-4.3 5.2-3.6 12.9 1.6 17.2s12.9 3.6 17.2-1.6C140 102 193.3 77 250 77c56.8 0 110.2 25.1 146.6 68.8 2.4 2.9 5.9 4.4 9.4 4.4 2.7 0 5.5-.9 7.8-2.8 5.2-4.3 5.9-12 1.6-17.2-41-49.3-101.3-77.7-165.4-77.7zm136.7 199.7c6.2 0 11.2-4.6 11.2-10.3s-5-10.3-11.2-10.3-11.2 4.6-11.2 10.3 5 10.3 11.2 10.3zm-89.6 69.2h22.3v-36h37v-17.5h-37v-17.2h41.2v-17.6h-63.5v88.3zm78.7 0h22.3v-64.5h-22.3v64.5zm18.5-155h-30.1c-28.8-30-69.3-48.7-114.2-48.7s-85.5 18.8-114.3 48.8H103c-48.4 0-87.8 40.6-87.8 90.3v38.6c0 49.7 39.4 90.3 87.8 90.3h32.7c28.8 30.1 69.4 48.8 114.4 48.8 44.9 0 85.4-18.7 114.3-48.7h30.1c49.9 0 90.5-40.6 90.5-90.5v-38.6c-.2-49.7-40.8-90.3-90.7-90.3zm-239.9 155h-19.3l-16.9-57h-.4l-16.2 57H82l-29.5-88.3h23.3l16.5 59.4h.4l16.9-59.4H128l16.9 59.4h.4l16.6-59.4h21.7l-29.2 88.3zm54.8-89.8c6.2 0 11.2 4.6 11.2 10.3s-5 10.3-11.2 10.3-11.2-4.6-11.2-10.3 5-10.3 11.2-10.3zm-10.9 25.3h22.3v64.5h-22.3v-64.5zm251.9 38.7c0 30.8-25.1 55.9-55.9 55.9H217.1c2.1-1.3 15.9-10.3 24.5-21.7 9.4-12.4 10.4-26.5 10.4-40.2s-3.8-38 8.4-61.3c10.3-19.7 36.1-27.2 43-27.2h90.9c30.8 0 55.9 25.1 55.9 55.9v38.6zM500 485c0 8.3-5.9 15-13.1 15H13.1C5.9 500 0 493.3 0 485c0-8.2 5.9-15 13.1-15h473.8c7.2.1 13.1 6.8 13.1 15z" fill="#0f87c9"/></svg>