<?xml version="1.0" encoding="utf-8"?>
<!-- Generator: Adobe Illustrator 21.0.2, SVG Export Plug-In . SVG Version: 6.00 Build 0)  -->
<svg version="1.1" id="Calque_1" xmlns="http://www.w3.org/2000/svg" xmlns:xlink="http://www.w3.org/1999/xlink" x="0px" y="0px"
	 viewBox="0 0 500 500" style="enable-background:new 0 0 500 500;" xml:space="preserve">
<style type="text/css">
	.st0{fill:#0F87C9;}
</style>
<path class="st0" d="M63.8,108c47-53.1,114.5-83.6,185.4-83.6c73.3,0,142.4,32.2,189.6,88.4c2.4,2.9,5.9,4.4,9.4,4.4
	c2.8,0,5.5-0.9,7.8-2.9c5.2-4.3,5.8-12,1.5-17.2C405.6,35.4,329.7,0,249.2,0C171.4,0,97.1,33.5,45.5,91.8c-4.5,5.1-4,12.8,1.1,17.3
	C51.6,113.5,59.3,113.1,63.8,108z M250,52.5c-63.9,0-124.1,28.2-165.1,77.3c-4.3,5.2-3.6,12.9,1.6,17.2s12.9,3.6,17.2-1.6
	C140,102,193.3,77,250,77c56.8,0,110.2,25.1,146.6,68.8c2.4,2.9,5.9,4.4,9.4,4.4c2.7,0,5.5-0.9,7.8-2.8c5.2-4.3,5.9-12,1.6-17.2
	C374.4,80.9,314.1,52.5,250,52.5z M386.7,252.2c6.2,0,11.2-4.6,11.2-10.3s-5-10.3-11.2-10.3s-11.2,4.6-11.2,10.3
	S380.5,252.2,386.7,252.2z M297.1,321.4h22.3v-36h37v-17.5h-37v-17.2h41.2v-17.6h-63.5V321.4z M375.8,321.4h22.3v-64.5h-22.3V321.4z
	 M394.3,166.4h-30.1c-28.8-30-69.3-48.7-114.2-48.7s-85.5,18.8-114.3,48.8H103c-48.4,0-87.8,40.6-87.8,90.3v38.6
	c0,49.7,39.4,90.3,87.8,90.3h32.7c28.8,30.1,69.4,48.8,114.4,48.8c44.9,0,85.4-18.7,114.3-48.7h30.1c49.9,0,90.5-40.6,90.5-90.5
	v-38.6C484.8,207,444.2,166.4,394.3,166.4z M154.4,321.4h-19.3l-16.9-57h-0.4l-16.2,57H82l-29.5-88.3h23.3l16.5,59.4h0.4l16.9-59.4
	H128l16.9,59.4h0.4l16.6-59.4h21.7L154.4,321.4z M209.2,231.6c6.2,0,11.2,4.6,11.2,10.3s-5,10.3-11.2,10.3s-11.2-4.6-11.2-10.3
	S203,231.6,209.2,231.6z M198.3,256.9h22.3v64.5h-22.3V256.9z M450.2,295.6c0,30.8-25.1,55.9-55.9,55.9H217.1
	c2.1-1.3,15.9-10.3,24.5-21.7c9.4-12.4,10.4-26.5,10.4-40.2s-3.8-38,8.4-61.3c10.3-19.7,36.1-27.2,43-27.2h90.9
	c30.8,0,55.9,25.1,55.9,55.9L450.2,295.6L450.2,295.6z M500,485c0,8.3-5.9,15-13.1,15H13.1C5.9,500,0,493.3,0,485
	c0-8.2,5.9-15,13.1-15h473.8C494.1,470.1,500,476.8,500,485z"/>
</svg>
