<svg viewBox="0 0 500 500"><path d="M500 485c0 8.3-5.9 15-13.1 15H13.1C5.9 500 0 493.3 0 485c0-8.2 5.9-15 13.1-15h473.8c7.2.1 13.1 6.8 13.1 15zM96.5 156.5c1 5.3 4 14.6 13.2 22.8h5.6c11.3-10.1 13.3-22 13.7-25.7-11.1-.9-22 .1-32.5 2.9zm10.3 28.1c-1.6 0-2.9 1.3-2.9 2.8V199c0 1.6 1.3 2.9 2.9 2.9h11.5c1.6 0 2.9-1.3 2.9-2.9v-11.5c0-1.6-1.3-2.8-2.9-2.8l-11.5-.1zm246.8 83c11.6 0 21-9.4 21-21s-9.4-21-21-21-21 9.4-21 21 9.5 21 21 21zm-73.4-22.4c1.5 4.1 6.2 6.3 10.4 4.9 4.2-1.5 6.4-6.2 4.9-10.5-2-5.3-5.9-9.6-11-12s-10.9-2.7-16.3-.7c-.8.3-1.6.8-2.3 1.3-3-1.6-6.4-2.5-9.8-2.5-11.6 0-21 9.4-21 20.9 0 11.6 9.4 21 21 21s21-9.4 21-21c0-1.5-.2-3.1-.5-4.7.4.1.7.2 1 .4 1.2.6 2.2 1.6 2.6 2.9zM61.4 121.6c6 2.1 12.7-1.1 14.9-6.9.6-1.8 2-3.2 3.7-4.1.5-.2.9-.4 1.5-.5-.5 2.2-.8 4.4-.8 6.6 0 16.5 13.4 29.9 29.9 29.9 16.4 0 29.8-13.4 29.8-29.9 0-16.4-13.4-29.8-29.8-29.8-4.9 0-9.7 1.2-14 3.5-1-.8-2-1.4-3.2-1.9-7.6-2.8-15.9-2.4-23.2 1-7.4 3.4-12.9 9.5-15.7 17.1-2.2 6.2.9 12.8 6.9 15zm76.1 152.9v-49.2c15.1 19.8 37.5 33.7 63.6 37 7.6 1 14.5-4.3 15.4-11.9 1-7.5-4.3-14.4-11.9-15.4-33.8-4.3-59.5-33.4-59.7-67.5 0-6.2-4.2-11.5-10-13.1-.4 4.4-2.3 15.4-11.7 25.8 1.8 1 3.1 2.9 3.1 5.1v33.3c0 3.2-2.6 5.9-5.8 5.9h-16c-3.2 0-5.9-2.6-5.9-5.9v-33.3c0-2.2 1.3-4.1 3.1-5.1-7.2-8-10-16.3-11.1-21.8-10.3 3.5-20 8.6-28.8 15.5-20.2 15.9-32.9 38.6-36 64.1-1.2 9.6-.8 19.3.9 28.7 1.4 7.5 8.6 12.4 16 11 6.7-1.2 11.3-7 11.3-13.5 0-.8 0-1.7-.2-2.5-.7-4-1.1-8.1-1.1-12.2 0-2.7.2-5.5.5-8.2 2.1-18.2 11.3-34.4 25.7-45.7.7-.6 1.5-1.1 2.3-1.7l.3 222.1c0 9.8 8.1 17.9 18 17.9 9.8 0 17.8-8 17.8-17.9 0 0 .1-64 .2-109.4 7.9 10.2 15.9 22.2 21.6 34.8 9.4 20.6 11.5 39.7 11.5 52.9 0 10.8-1.4 17.5-1.4 17.6-.3 1.3-.5 2.7-.5 4 0 8.2 5.6 15.6 13.9 17.4 9.6 2.3 19.1-3.6 21.4-13.2.4-1.8 10.1-44.2-12.3-93.5-9.2-20.1-22.4-38.1-34.2-52.1zM433.8 26.2H140.2c-22.1 0-40.2 18-40.2 40.2v14.3c3.4-1 7-1.7 10.6-1.7 3.9 0 7.7.8 11.2 1.9V66.4c0-10.1 8.2-18.3 18.3-18.3h293.6c10.1 0 18.4 8.2 18.4 18.3v103.9c-28.5 15.3-82.6 9.3-129.4-15.7-63.9-34.1-114.4-37.9-163.5-12.3-5.1 2.6-10.4 5.2-15.6 7.5 5.3 3.8 8.8 9.8 9.1 16.6 5.1-2.3 10.3-4.8 15.2-7.4 43.1-22.4 87.7-18.1 145.9 12.2 13.1 6.9 40.5 17.9 62.3 22.4 12.3 2.4 24.3 3.7 35.6 3.7 15 0 28.6-2.3 40.3-6.7v29.6c0 10.1-8.2 18.3-18.4 18.3h-53.1c1 2.4 1.6 5.1 1.6 7.9 0 5.4-2.1 10.2-5.4 13.9h56.9c22.2 0 40.2-18 40.2-40.2V66.4c.2-22.1-17.9-40.2-40-40.2zm-52.4 257c-9.6-7.6-21.1-11.6-33.2-11.6-2.2 0-4.3.2-6.5.4-4.4.5-7.6 4.2-7.6 8.5-.1 16.7-11.4 36.4-26.9 41.7-.1-1.2 0-2.4-.2-3.6-3.3-26.9-26.3-47.3-53.4-47.3-2.2 0-4.4.1-6.6.4-4.3.5-7.6 4.2-7.6 8.6-.1 18.7-14.1 34.2-32.6 36.1-4.8.5-8.2 4.8-7.7 9.6.5 4.7 4.7 8.3 9.5 7.7 12.4-1.3 23.7-6.8 32.3-15.5-1.7 5.2-5.3 14.9-8.6 24 0 0-11.9 31.7-14.1 39.1-8 24.5-3.6 44-3.4 44.9 1.3 5.6 7 9.1 12.6 7.8 4.8-1.1 8.2-5.5 8.2-10.3 0-.8-.1-1.5-.3-2.3 0-.1-.8-4-.8-10.3 0-6.9 1-16.7 5.2-27.4 4.5.1 9.9.2 14.8.3 0 20.7.1 39.9.1 39.9 0 5.8 4.7 10.5 10.5 10.5s10.5-4.7 10.5-10.5v-39.7c10 0 17.5-.3 18.2-1 1.3-1.3-5.9-23.2-11.7-41.3-3-9.3-5.7-17.9-6.7-21.8v-9.4c.2-3.2.6-6.8.8-10.1l.3-3.6c7.4 5.9 12.2 14.5 13.4 23.8.2 1.6.3 3 .3 4.5 0 2.1-.2 4.2-.6 6.4-.1.5-.1 1-.1 1.5 0 4.2 3.1 7.3 7.1 8.5 2 .6 5.8.2 10.5-1.3 12.2-2.8 22.8-14.1 31.1-24.7v25.4c-6.9 8.2-14.6 18.7-19.9 30.4-13.1 28.9-7.5 53.8-7.2 54.9 1.3 5.6 6.9 9.1 12.5 7.7 4.8-1.1 8.1-5.4 8.1-10.2 0-.8-.1-1.6-.3-2.3 0-.1-.8-4-.8-10.3 0-7.7 1.3-18.9 6.8-31 3.4-7.4 8.1-14.4 12.7-20.4 0 26.7.1 64.2.1 64.2 0 5.8 4.7 10.5 10.5 10.5s10.5-4.7 10.5-10.5V297.4c7.4 6 12 14.5 13.1 23.9.2 1.6.2 3.1.2 4.4 0 2.2-.2 4.4-.6 6.5-.1.6-.1 1.1-.1 1.6 0 4.2 3 7.8 7.1 8.5.5.1 1.1.2 1.6.2 4.2 0 7.8-3 8.5-7.1 1-5.3 1.2-10.7.5-16.1-1.7-14.4-8.8-27.2-20.1-36.1z" fill="#0f87c9"/></svg>