<?xml version="1.0" encoding="utf-8"?>
<svg version="1.1" id="DESKTOP" xmlns="http://www.w3.org/2000/svg" xmlns:xlink="http://www.w3.org/1999/xlink" x="0px" y="0px"
	 width="693.9px" height="500px" viewBox="0 0 693.9 500" style="enable-background:new 0 0 693.9 500;" xml:space="preserve">
<path class="st0" d="M384.8,486.8c-19.3-17.6-19.3-46.2,0-63.8l140.2-127.8H49.6C22.2,295.1,0,275,0,250s22.2-45.1,49.6-45.1h475.5
	L384.9,77c-19.3-17.6-19.3-46.2,0-63.8C394.6,4.4,407.2,0,420,0s25.4,4.4,35,13.2l224.4,204.9c19.3,17.6,19.3,46.2,0,63.8
	L454.9,486.8C435.6,504.4,404.2,504.4,384.8,486.8z"/>
</svg>
