<?xml version="1.0" encoding="utf-8"?>
<svg version="1.1" id="DESKTOP" xmlns="http://www.w3.org/2000/svg" xmlns:xlink="http://www.w3.org/1999/xlink" x="0px" y="0px"
	 viewBox="0 0 541.2 500" style="enable-background:new 0 0 541.2 500;" xml:space="preserve">
<style type="text/css">
	.st0{fill:#0088CE;}
</style>
<path class="st0" d="M541.3,249.1L305.6,488.6c-15.2,15.2-42.6,15.2-61.6,0l0,0c-15.2-15.2-15.2-46.4,0-61.6l174.1-177.9L243.3,75.8
	c-15.2-19-15.2-46.4,0-61.6c3.8-3.8,3.8-3.8,7.6-7.6c19-11.4,42.6-7.6,57.8,7.6L541.3,249.1z"/>
<path class="st0" d="M309.4,249.1L73.7,488.6c-15.2,15.2-42.6,15.2-61.6,0l0,0C-3,473.4-3,442.2,12.2,427l174.1-177.9L11.4,75.8
	c-15.2-19-15.2-46.4,0-61.6c3.8-3.8,3.8-3.8,7.6-7.6C38-4.8,61.6-1,76.8,14.2L309.4,249.1z"/>
</svg>
