<?xml version="1.0" encoding="utf-8"?>
<svg version="1.1" id="DESKTOP" xmlns="http://www.w3.org/2000/svg" xmlns:xlink="http://www.w3.org/1999/xlink" x="0px" y="0px"
	 viewBox="0 0 500 500" style="enable-background:new 0 0 500 500;" xml:space="preserve">
<style type="text/css">
	.st0{fill:#0088CE;}
	.st1{fill:none;}
</style>
<path class="st0" d="M499,189.6c-2.4-7.7-8.8-13.3-16.5-14.5l-148.1-22.5L268.3,12.5C264.9,5.2,257.8,0.6,250,0.6
	c-7.8,0-14.9,4.6-18.3,11.9l-66.2,140.1L17.4,175.1c-7.7,1.2-14,6.8-16.4,14.5c-2.4,7.7-0.4,16.2,5.2,21.8l107.1,109L88,474.4
	c-1.3,8,1.8,16.1,8.1,20.9c3.6,2.7,7.8,4.1,12,4.1c3.3,0,6.5-0.8,9.5-2.5L250,424.2l132.4,72.7c6.9,3.7,15.2,3.1,21.5-1.6
	c6.3-4.8,9.4-12.8,8.1-20.9l-25.3-154l107.1-109C499.4,205.8,501.4,197.3,499,189.6z"/>
</svg>
