<?xml version="1.0" encoding="utf-8"?>

<svg version="1.1" id="Calque_1" xmlns="http://www.w3.org/2000/svg" xmlns:xlink="http://www.w3.org/1999/xlink" x="0px" y="0px"
	 viewBox="0 0 500 500" style="enable-background:new 0 0 500 500;" xml:space="preserve">
<style type="text/css">
	.st0{fill:#0088CE;}
</style>
<g id="MOBILE">
	<path class="st0" d="M355.3,169.7c-5.3-11.4-13.6-19.7-25-25c-7.6-2.3-15.9-5.3-25-5.3c-13.6-1.5-18.9-1.5-55.3-1.5
		s-40.2,0-55.3,1.5c-9.1,0-17.4,1.5-25,5.3c-11.4,5.3-19.7,13.6-25,25c-2.3,7.6-5.3,15.9-5.3,25c-1.5,13.6-1.5,18.9-1.5,55.3
		s0,40.2,1.5,55.3c0,9.1,1.5,17.4,5.3,25c5.3,11.4,13.6,19.7,25,25c7.6,2.3,15.9,5.3,25,5.3c13.6,0,18.9,1.5,55.3,1.5
		s40.2,0,55.3-1.5c9.1,0,17.4-1.5,25-5.3c11.4-5.3,19.7-13.6,25-25c2.3-7.6,5.3-15.9,5.3-25c0-13.6,1.5-18.9,1.5-55.3
		s0-40.2-1.5-55.3C359.8,187.9,357.6,178.8,355.3,169.7z M250,318.9c-38.6,0-68.9-31.1-68.9-68.9s31.1-68.9,68.9-68.9
		c38.6,0,68.9,31.1,68.9,68.9S288.6,318.9,250,318.9L250,318.9z M322.7,193.9c-9.1,0-15.9-6.1-15.9-15.2c0-9.1,6.1-15.9,15.2-15.9
		s15.9,6.1,15.9,15.2l0,0C337.1,186.4,330.3,193.9,322.7,193.9L322.7,193.9z"/>
	<circle class="st0" cx="250" cy="250" r="44.7"/>
	<path class="st0" d="M250,0C112.9,0,0,112.9,0,250s112.9,250,250,250s250-112.1,250-250S387.9,0,250,0z M384.1,305.3
		c0,11.4-2.3,22.7-6.1,32.6c-7.6,17.4-21.2,32.6-38.6,38.6c-9.8,3.8-21.2,6.1-32.6,6.1c-13.6,0-18.9,1.5-55.3,1.5s-40.9,0-55.3-1.5
		c-11.4,0-22.7-2.3-32.6-6.1c-17.4-7.6-32.6-21.2-38.6-40.2c-3.8-9.8-6.1-21.2-6.1-32.6c-1.5-13.6-1.5-18.9-1.5-55.3
		s0-40.9,1.5-55.3c0-11.4,2.3-22.7,6.1-32.6c7.6-17.4,21.2-32.6,38.6-38.6c9.8-3.8,21.2-6.1,32.6-6.1c13.6-1.5,18.9-1.5,55.3-1.5
		s40.9,0,55.3,1.5c11.4,0,22.7,2.3,32.6,6.1c17.4,7.6,32.6,21.2,38.6,40.2c3.8,9.8,6.1,21.2,6.1,32.6c0,15.2,1.5,18.9,1.5,55.3
		S384.8,290.9,384.1,305.3z"/>
</g>
</svg>
