<?xml version="1.0" encoding="utf-8"?>

<svg version="1.1" id="Calque_1" xmlns="http://www.w3.org/2000/svg" xmlns:xlink="http://www.w3.org/1999/xlink" x="0px" y="0px"
	 viewBox="0 0 500 500" style="enable-background:new 0 0 500 500;" xml:space="preserve">
<style type="text/css">
	.st0{fill:#1F7DBF;}
</style>
<g>
	<path class="st0" d="M122,203.8c-2.3,3.8-3,8.3-3.8,12.9l9.1,3.8l22-39.4C137.1,184.8,127.3,192.4,122,203.8z"/>
	<path class="st0" d="M164.4,235.6l17.4,6.8c-4.5-6.8-7.6-13.6-9.1-22L164.4,235.6z"/>
	<path class="st0" d="M250,0C112.1,0,0,112.1,0,250s112.1,250,250,250s250-112.1,250-250S387.9,0,250,0z M195.5,109.8
		c12.9,0,23.5,10.6,23.5,23.5c0,12.9-10.6,23.5-23.5,23.5c-12.9,0-23.5-10.6-23.5-23.5C171.2,120.5,181.8,109.8,195.5,109.8z
		 M423.5,364.4H235.6v-2.3c0.8-3.8,0.8-7.6,3-12.1c1.5-2.3,3-4.5,4.5-6.1c1.5-2.3,3.8-3.8,4.5-6.1l0.8-0.8l0.8-0.8
		c3.8-0.8,6.8-3.8,9.8-6.8c3-3,5.3-5.3,9.1-7.6c3-1.5,4.5-3,6.8-5.3l-9.1-7.6l-0.8-4.5l10.6-12.1l-68.9-28h-1.5l0,0
		c-3,0-5.3-0.8-7.6-2.3c-2.3-1.5-3.8-3-5.3-3.8l-30.3-12.1l0,0c10.6,15.2,16.7,29.5,18.9,42.4c5.3,27.3,1.5,48.5,0.8,52.3
		c-1.5,6.8-7.6,12.1-15.2,12.1h-3c-8.3-1.5-13.6-9.8-12.1-17.4c0,0,3.8-18.2-0.8-40.9c-1.5-8.3-6.1-17.4-10.6-25
		c-2.3,12.1-5.3,23.5-12.1,32.6c-11.4,15.9-28,34.1-34.8,40.9l-0.8,0.8c-5.3,6.1-15.9,6.1-22,0.8c-6.1-5.3-6.8-15.2-0.8-21.2
		c5.3-5.3,22-23.5,32.6-37.9c4.5-6.8,6.8-20.5,8.3-30.3l0.8-3c0-0.8,0-2.3,0.8-3c0.8-3.8,1.5-7.6,3.8-11.4l0.8-1.5l3-5.3l-6.1-4.5
		c-2.3,0.8-3.8,0.8-6.1,0.8h-1.5c-6.8-0.8-12.1-7.6-10.6-14.4c0.8-6.1,3-12.9,6.1-18.9c11.4-22.7,36.4-37.9,62.1-37.9
		c10.6,0,20.5,2.3,30.3,6.8c2.3,0.8,3.8,2.3,4.5,3.8c4.5,3.8,6.1,10.6,2.3,15.9c-6.1,8.3-8.3,20.5-6.1,31.8
		c2.3,11.4,8.3,21.2,17.4,27.3c4.5,3,6.1,7.6,5.3,12.1l67.4,27.3l12.1-14.4l5.3-0.8l6.8,5.3c2.3-1.5,4.5-2.3,6.8-3.8
		c2.3-0.8,4.5-2.3,6.8-3.8l1.5-0.8c1.5-0.8,1.5-1.5,2.3-1.5h1.5l0,0c0,0,0.8,0,1.5,0c1.5,0,3-1.5,4.5-3c2.3-2.3,3.8-4.5,7.6-4.5
		c1.5,0,3-0.8,4.5-0.8c2.3,0,4.5-0.8,6.1-0.8c1.5,0,3-0.8,4.5-1.5c1.5-0.8,3-0.8,4.5-1.5c7.6-2.3,15.9,1.5,20.5,8.3
		c6.8,11.4,23.5,40.9,50.8,87.9c1.5,2.3,3.8,8.3,0.8,12.9C431.1,362.9,428,363.6,423.5,364.4z"/>
</g>
</svg>
