<?xml version="1.0" encoding="utf-8"?>
<svg version="1.1" id="DESKTOP" xmlns="http://www.w3.org/2000/svg" xmlns:xlink="http://www.w3.org/1999/xlink" x="0px" y="0px"
	 viewBox="0 0 500 500" style="enable-background:new 0 0 500 500;" xml:space="preserve">
<style type="text/css">
	.st0{fill:#0088CE;}
</style>
<path class="st0" d="M250,0C112.9,0,0,112.9,0,250s112.9,250,250,250s250-112.1,250-250S387.9,0,250,0z M250,112.9
	c34.8,0,62.9,27.3,62.9,62.9s-27.3,62.9-62.9,62.9s-62.9-27.3-62.9-62.9S215.2,112.9,250,112.9z M375,350H125v-43.9
	c0-13.6,9.8-26.5,22.7-30.3l73.5-15.2c18.9-5.3,37.9-5.3,55.3,0l73.5,15.2c13.6,3.8,23.5,15.9,23.5,30.3V350H375z"/>
</svg>
