<?xml version="1.0" encoding="utf-8"?>

<svg version="1.1" id="Calque_1" xmlns="http://www.w3.org/2000/svg" xmlns:xlink="http://www.w3.org/1999/xlink" x="0px" y="0px"
	 viewBox="0 0 500 500" style="enable-background:new 0 0 500 500;" xml:space="preserve">
<style type="text/css">
	.st0{fill:#1F7DBF;}
</style>
<path class="st0" d="M250,116.7c-73.5,0-133.3,59.8-133.3,133.3S176.5,383.3,250,383.3S383.3,323.5,383.3,250S323.5,116.7,250,116.7
	z M320.5,318.9l-87.9-52.3v-100h25v87.9l75,44.7L320.5,318.9z"/>
<path class="st0" d="M250,0C112.1,0,0,112.1,0,250s112.1,250,250,250s250-112.1,250-250S387.9,0,250,0z M250,416.7
	c-91.7,0-166.7-75-166.7-166.7S157.6,83.3,250,83.3s166.7,75,166.7,166.7S341.7,416.7,250,416.7z"/>
</svg>
