<?xml version="1.0" encoding="utf-8"?>

<svg version="1.1" id="DESKTOP" xmlns="http://www.w3.org/2000/svg" xmlns:xlink="http://www.w3.org/1999/xlink" x="0px" y="0px"
	 width="500px" height="500px" viewBox="0 0 500 500" enable-background="new 0 0 500 500" xml:space="preserve">
<path fill="#0088CE" d="M250,0C112.1,0,0,112.1,0,250s112.1,250,250,250s250-112.1,250-250S387.9,0,250,0z M413.6,297.7h-3
	l-173.5-25c-1.5,0-3-1.5-3.8-3l-63.6-130.3c-5.3-10.6-1.5-24.2,9.8-29.5l0,0l0,0c3-1.5,6.1-2.3,9.8-2.3c8.3,0,15.9,4.5,19.7,12.1
	L262.9,228c0.8,1.5,2.3,2.3,3.8,3l150,22c10.6,1.5,18.9,11.4,18.9,22c0,0.8,0,2.3,0,3C434.1,289.4,425,297,413.6,297.7z"/>
</svg>
