<?xml version="1.0" encoding="utf-8"?>
<!-- Generator: Adobe Illustrator 22.0.1, SVG Export Plug-In . SVG Version: 6.00 Build 0)  -->
<svg version="1.1" id="Calque_1" xmlns="http://www.w3.org/2000/svg" xmlns:xlink="http://www.w3.org/1999/xlink" x="0px" y="0px"
	 viewBox="0 0 50 50" style="enable-background:new 0 0 50 50;" xml:space="preserve">
<style type="text/css">
	.st0{fill:#0088CE;}
</style>
<title>Icons/Interface/Distribution</title>
<desc>Created with Sketch.</desc>
<g id="Icons_x2F_Interface_x2F_Distribution">
	<g id="Fill-1">
		<path id="path-1_1_" class="st0" d="M18.7,21.5c1.1-1.1,1.2-3,0-4.2l-3.4-3.4c-1.8-1.8-4.2-2.8-6.7-2.8l-5.8,0
			c-1.6,0-2.9,1.3-2.9,2.9v0.1c0,1.6,1.3,2.9,2.9,2.9h5.8c0.9,0,1.8,0.4,2.4,1l3.4,3.4C15.7,22.6,17.6,22.6,18.7,21.5 M26.6,29.2
			c-1.1,1.1-1.2,3,0,4.2l3.4,3.4c1.8,1.8,4.1,2.7,6.6,2.8l1.2,0c0.8,0,1.4,0.6,1.4,1.4V44c0,0.7,0.8,1.1,1.4,0.7l8.9-6.8
			c0.8-0.6,0.8-1.7,0-2.3l-8.9-6.8c-0.6-0.4-1.4,0-1.4,0.7v2.9c0,0.8-0.6,1.4-1.4,1.4h-1.2c-0.9,0-1.8-0.4-2.4-1l-3.5-3.5
			C29.6,28.1,27.7,28.1,26.6,29.2 M2.9,33.7h5.8c0.9,0,1.8-0.4,2.4-1L30,13.9c1.8-1.8,4.1-2.7,6.6-2.8l1.2,0c0.8,0,1.4-0.6,1.4-1.4
			V6.9c0-0.7,0.8-1.1,1.4-0.7l8.9,6.8c0.8,0.6,0.8,1.7,0,2.3l-8.9,6.8c-0.6,0.4-1.4,0-1.4-0.7v-2.9c0-0.8-0.6-1.4-1.4-1.4h-1.2
			c-0.9,0-1.8,0.4-2.4,1L15.4,36.9c-1.8,1.8-4.2,2.8-6.7,2.8l-5.8,0c-1.6,0-2.9-1.4-2.9-3C0,35,1.3,33.7,2.9,33.7"/>
	</g>
</g>
</svg>
