<?xml version="1.0" encoding="utf-8"?>
<!-- Generator: Adobe Illustrator 22.0.1, SVG Export Plug-In . SVG Version: 6.00 Build 0)  -->
<svg version="1.1" id="Calque_1" xmlns="http://www.w3.org/2000/svg" xmlns:xlink="http://www.w3.org/1999/xlink" x="0px" y="0px"
	 viewBox="0 0 50 50" style="enable-background:new 0 0 50 50;" xml:space="preserve">
<style type="text/css">
	.st0{fill:#0088CE;}
</style>
<title>Icons/Alerte/Divers</title>
<desc>Created with Sketch.</desc>
<g id="Icons_x2F_Alerte_x2F_Divers">
	<g id="Fill-1">
		<path id="path-1_1_" class="st0" d="M26.9,31.3h-3.9L22.5,10h4.8L26.9,31.3z M24.9,39c-1.4,0-2.4-1-2.4-2.4c0-1.5,1-2.4,2.4-2.4
			c1.4,0,2.4,1,2.4,2.4C27.3,38.1,26.3,39,24.9,39z M25,0C11.2,0,0,11.2,0,25c0,13.8,11.2,25,25,25c13.8,0,25-11.2,25-25
			C50,11.2,38.8,0,25,0z"/>
	</g>
</g>
</svg>
