<?xml version="1.0" encoding="utf-8"?>

<svg version="1.1" id="Calque_1" xmlns="http://www.w3.org/2000/svg" xmlns:xlink="http://www.w3.org/1999/xlink" x="0px" y="0px"
	 viewBox="0 0 475 500" style="enable-background:new 0 0 475 500;" xml:space="preserve">
<style type="text/css">
	.st0{fill:#0088CE;}
</style>
<g>
	<path class="st0" d="M209.8,354.5c7.6,7.6,18.2,11.4,28,11.4c9.8,0,20.5-3.8,28-11.4l140.2-140.2c15.2-15.2,15.2-40.9,0-56.1
		c-15.2-15.2-40.9-15.2-56.1,0l-72.7,72.7V39.4c0-22-17.4-39.4-39.4-39.4s-39.4,17.4-39.4,39.4v190.9l-72.7-72.7
		c-15.2-15.2-40.9-15.2-56.1,0c-15.2,15.2-15.2,40.9,0,56.1L209.8,354.5z"/>
	<path class="st0" d="M435.6,420.5H39.4c-22,0-39.4,17.4-39.4,39.4C0,482.6,17.4,500,39.4,500h396.2c22,0,39.4-17.4,39.4-39.4
		C475.8,438.6,457.6,420.5,435.6,420.5z"/>
</g>
</svg>
