<?xml version="1.0" encoding="utf-8"?>
<!-- Generator: Adobe Illustrator 22.0.1, SVG Export Plug-In . SVG Version: 6.00 Build 0)  -->
<svg version="1.1" id="Calque_1" xmlns="http://www.w3.org/2000/svg" xmlns:xlink="http://www.w3.org/1999/xlink" x="0px" y="0px"
	 viewBox="0 0 50 50" style="enable-background:new 0 0 50 50;" xml:space="preserve">
<style type="text/css">
	.st0{fill:#0088CE;}
</style>
<title>Icons/Interface/LienExterne</title>
<desc>Created with Sketch.</desc>
<g id="Icons_x2F_Interface_x2F_LienExterne">
	<g id="Combined-Shape">
		<path id="path-1_1_" class="st0" d="M45.8,0C48.1,0,50,1.9,50,4.2V25c0,2.3-1.9,4.2-4.2,4.2c-2.3,0-4.2-1.9-4.2-4.2V14.2
			L23.8,32.1c-0.8,0.8-1.9,1.2-2.9,1.2c-1.1,0-2.1-0.4-2.9-1.2c-1.6-1.6-1.6-4.3,0-5.9L35.8,8.3H25c-2.3,0-4.2-1.9-4.2-4.2
			S22.7,0,25,0H45.8z M37.5,50H4.2C1.9,50,0,48.1,0,45.8V12.5c0-2.3,1.9-4.2,4.2-4.2s4.2,1.9,4.2,4.2v29.2h29.2
			c2.3,0,4.2,1.9,4.2,4.2C41.7,48.1,39.8,50,37.5,50z"/>
	</g>
</g>
</svg>
