<?xml version="1.0" encoding="utf-8"?>
<!-- Generator: Adobe Illustrator 21.0.2, SVG Export Plug-In . SVG Version: 6.00 Build 0)  -->
<svg version="1.1" id="Calque_1" xmlns="http://www.w3.org/2000/svg" xmlns:xlink="http://www.w3.org/1999/xlink" x="0px" y="0px"
	 viewBox="0 0 500 500" style="enable-background:new 0 0 500 500;" xml:space="preserve">
<style type="text/css">
	.st0{fill:#0F87C9;}
</style>
<path class="st0" d="M107.6,435c45.4,0,83.8-30.3,96.2-71.7l32.6,3c17,1.5,32.2-12,34.1-30.2c0.1-1,0.2-3,0.2-3c0-0.6,0-1.1-0.1-1.7
	c1.1-45.1,26.7-86.1,66.3-107.1l8.4,21.4c-31.8,16.9-53.5,50.3-53.5,88.8c0,55.4,45.1,100.5,100.5,100.5s100.5-45.1,100.5-100.5
	S447.7,234,392.3,234c-8.3,0-16.4,1.1-24.1,3l-12-30.4L334.5,143c-1.7-4.9-6.4-8.3-11.6-8.3l-54.2-0.2c-6.8,0-12.3,5.4-12.3,12.2
	l0,0c0,6.8,5.5,12.3,12.3,12.3c0,0,33.1,0.1,45.4,0.2c2.7,7.9,9.7,28,14.4,41.8c-39.7,19.9-68.1,56.3-78.3,98.6
	c-11,0.9-35.5,3.4-46.9,4.6C200.6,296,161.5,202,161.5,202h12.3c6.8,0,12.3-5.5,12.3-12.3s-5.5-12.3-12.3-12.3h-60.4
	c-6.8,0-12.3,5.5-12.3,12.3s5.5,12.3,12.3,12.3H135l16.6,42.3c-13.3-6.6-28.3-10.3-44.1-10.3C52.2,234,7.1,279.1,7.1,334.5
	S52.2,435,107.6,435z M382.6,340.3c2.5,6.3,9.6,9.4,16,6.9c6.3-2.5,9.4-9.6,6.9-16l-27-68.6c4.5-0.9,9.2-1.4,14-1.4
	c40.4,0,73.2,32.8,73.2,73.2s-32.8,73.2-73.2,73.2s-73.2-32.8-73.2-73.2c0-26.9,14.6-50.3,36.3-63.1L382.6,340.3z M107.6,261.4
	c30.7,0,57.1,19.1,67.9,45.9l-0.5,0.1l-66.8,7.4c-9.6,1.1-17,9.8-17.1,20c-0.2,10.2,6.9,18.7,16.5,19.6l66.6,6.2l1.8,0.2
	c-10.6,27.5-37.2,47-68.3,47c-40.4,0-73.2-32.8-73.2-73.2C34.4,294.2,67.2,261.4,107.6,261.4z M486.9,470H13.1
	C5.9,470,0,476.7,0,484.9c0,8.4,5.9,15.1,13.1,15.1h473.8c7.2,0,13.1-6.7,13.1-15.1C500,476.7,494.1,470,486.9,470z"/>
</svg>
