<?xml version="1.0" encoding="utf-8"?>
<!-- Generator: Adobe Illustrator 22.0.1, SVG Export Plug-In . SVG Version: 6.00 Build 0)  -->
<svg version="1.1" id="Calque_1" xmlns="http://www.w3.org/2000/svg" xmlns:xlink="http://www.w3.org/1999/xlink" x="0px" y="0px"
	 viewBox="0 0 50 50" style="enable-background:new 0 0 50 50;" xml:space="preserve">
<style type="text/css">
	.st0{fill:#0088CE;}
</style>
<title>Icons/Alerte/Interrogation</title>
<desc>Created with Sketch.</desc>
<g id="Icons_x2F_Alerte_x2F_Interrogation">
	<g id="Fill-1">
		<path id="path-1_1_" class="st0" d="M32.6,20.6c-0.3,0.7-0.7,1.4-1.2,2.1L29.1,25l-0.4,0.3c-0.4,0.4-0.7,0.7-1,1
			c-0.2,0.3-0.4,0.5-0.6,0.8c-0.1,0.3-0.2,0.6-0.3,1c-0.1,0.4-0.1,0.8-0.1,1.3v1.7h-3.7v-2.3c0-0.7,0.1-1.3,0.2-1.7
			c0.1-0.5,0.3-0.9,0.5-1.2c0.2-0.4,0.5-0.7,0.8-1.1c0.3-0.3,0.8-0.8,1.3-1.2c0.4-0.4,0.8-0.8,1.2-1.2c0.4-0.4,0.8-0.8,1.1-1.2
			c0.3-0.4,0.6-0.9,0.8-1.3c0.2-0.5,0.3-1,0.3-1.6c0-0.6-0.1-1.1-0.3-1.6c-0.2-0.5-0.5-0.9-0.9-1.3c-0.4-0.4-0.8-0.6-1.3-0.8
			c-0.5-0.2-1-0.3-1.6-0.3c-1.3,0-2.3,0.4-3,1.2c-0.8,0.8-1.2,1.8-1.4,3.1L17,18.1c0.3-2.2,1.3-4,2.8-5.2c1.5-1.3,3.4-1.9,5.7-1.9
			c1.1,0,2.1,0.2,3,0.5c0.9,0.3,1.7,0.8,2.4,1.4c0.7,0.6,1.2,1.3,1.6,2.2c0.4,0.9,0.6,1.9,0.6,3C33,19,32.9,19.9,32.6,20.6
			 M26.7,38.3C26.2,38.8,25.7,39,25,39s-1.3-0.2-1.8-0.7c-0.5-0.5-0.8-1.1-0.8-1.8c0-0.7,0.2-1.3,0.8-1.8c0.5-0.5,1.1-0.7,1.8-0.7
			s1.3,0.2,1.8,0.7s0.7,1.1,0.7,1.8C27.5,37.2,27.2,37.8,26.7,38.3 M25,0C11.2,0,0,11.2,0,25c0,13.8,11.2,25,25,25
			c13.8,0,25-11.2,25-25C50,11.2,38.8,0,25,0"/>
	</g>
</g>
</svg>
