<?xml version="1.0" encoding="utf-8"?>

<svg version="1.1" id="DESKTOP" xmlns="http://www.w3.org/2000/svg" xmlns:xlink="http://www.w3.org/1999/xlink" x="0px" y="0px"
	 width="500px" height="500px" viewBox="0 0 500 500" style="enable-background:new 0 0 500 500;" xml:space="preserve">
<style type="text/css">
	.st0{fill:#0088CE;}
</style>
<path class="st0" d="M335,335.7c9.2,0,16.5-4.3,16.5-12.9v-56h14.2l27.7,62.2c2.4,4.9,6.8,6.7,11.6,6.7c9.9,0,24-9.2,18.5-20.3
	L397.1,260c16-8,29.5-22.2,29.5-47.4c0-33.2-24.7-48.6-48.6-48.6h-46.1c-8.6,0-13.5,6.8-13.5,14.1v144.6
	C318.3,331.4,326.9,335.7,335,335.7z M351.5,192.3h11.8c15.4,0,29,6.8,29,24c0,20.9-19.1,25.9-30.8,25.9h-9.9v-49.9H351.5z
	 M208.2,322.2v-144c0-7.4,4.9-14.1,13.5-14.1h62.8c8.6,0,13.5,8,13.5,15.4c0,6.8-4.9,15.4-13.5,15.4h-43.1v38.8h38.7
	c8.6,0,13.6,6.8,13.6,14.2c0,6.8-5,14.1-13.6,14.1h-38.7v42.5h46.7c8.7,0,13.6,8,13.6,15.4c0,6.8-4.9,15.4-13.6,15.4h-63.3
	C216.8,335.1,208.2,330.8,208.2,322.2z M96.8,335.7c9.2,0,16.6-4.3,16.6-12.9v-56h14.2l27.6,62.2c2.5,4.9,6.8,6.7,11.7,6.7
	c9.9,0,24-9.2,18.5-20.3L159,260c16-8,29.5-22.2,29.5-47.4c0-33.2-24.6-48.6-48.6-48.6H93.7c-8.6,0-13.5,6.8-13.5,14.1v144.6
	C80.2,331.4,88.8,335.7,96.8,335.7z M113.4,192.3h11.7c15.4,0,28.9,6.8,28.9,24c0,20.9-19.1,25.9-30.8,25.9h-9.8
	C113.4,242.2,113.4,192.3,113.4,192.3z M249.8,500.4c0,0,0.2,0,0.3,0c0.2,0,0.3,0,0.5,0c121.1,0,221.5-85.1,244.2-199.2
	c3.4-16.4,5.2-33.3,5.2-50.7C500,111.2,388.1-0.4,249.8-0.4C111.7-0.4,0,111.2,0,250.5C0,388.6,111.7,500.4,249.8,500.4z
	 M249.8,36.8c117.4,0,212.9,95.5,212.9,213.6c0,117.2-95.4,212.7-212.9,212.7c-117.3,0-212.5-95.5-212.5-212.7
	C37.3,132.4,132.5,36.8,249.8,36.8z"/>
</svg>
