<?xml version="1.0" encoding="utf-8"?>

<svg version="1.1" id="Calque_1" xmlns="http://www.w3.org/2000/svg" xmlns:xlink="http://www.w3.org/1999/xlink" x="0px" y="0px"
	 viewBox="0 0 500 500" style="enable-background:new 0 0 500 500;" xml:space="preserve">
<style type="text/css">
	.st0{fill-rule:evenodd;clip-rule:evenodd;fill:#0F87C9;}
	.st1{fill:#0F87C9;}
</style>
<g>
	<g>
		<path class="st1" d="M0,250C0,111.9,111.9,0,250,0c138.1,0,250,111.9,250,250c0,138.1-111.9,250-250,250C111.9,500,0,388.1,0,250
			 M206.1,198.9c0,25.9,16.8,44.2,43.4,44.2c16.8,0,30.5-6.6,36-15.3c3.1-4.7,3.1-15.3,3.1-23.4c0-26.2-14.8-51.6-42.2-51.6
			C219.8,152.8,206.1,175.1,206.1,198.9 M151,204.8c0,51.7,36.7,81.8,81.7,81.8c29.3,0,46.9-10.6,56.2-18.8
			c-3.5,55.5-32,83.3-69.9,83.3c-15.6,0-29.7-3.6-37.1-6.7l-8.6,47c11.4,2.7,25.4,4.7,41.1,4.7c86.8,0,131-65.8,131-161.5
			c0-73.2-26.6-125.1-100.9-125.1C187.7,109.3,151,149.6,151,204.8"/>
	</g>
</g>
</svg>
