<?xml version="1.0" encoding="utf-8"?>
<svg version="1.1" id="Calque_1" xmlns="http://www.w3.org/2000/svg" xmlns:xlink="http://www.w3.org/1999/xlink" x="0px" y="0px"
	 viewBox="0 0 500 500" style="enable-background:new 0 0 500 500;" xml:space="preserve">
  <style type="text/css">
    .st0{fill:#0F87C9;}
  </style>
  <path id="_x33__1_" class="st0" d="M174.1,389.2c-38,0-59-9.5-76.5-19.9l21-41c11,8,29.5,17.5,52,17.5c30.5,0,50-18,50-40.5
    c0-30.5-23.5-41-50.6-41h-27.5v-44h28c25.9,0,42-12.9,42-33.4c0-17-12.5-32.5-40.6-32.5c-24.4,0-40.4,11.4-49,18.9l-19.4-38.9
    c22.4-15,47-23.5,80.4-23.5c54.1,0,84.5,32,84.5,67.5c0,27.5-14.5,49-42.5,59.5v1c29.1,5.5,51.5,28,51.5,64.9
    C277.5,350.2,235.5,389.2,174.1,389.2"/>
  <path id="b" class="st0" d="M429.4,236.6c0-34.1-15.3-72.6-52.3-72.6c-17.9,0-28.8,9.5-38.3,23.2v-73.7h-37.2v195.4h35.9v-7.4
    c7.1,6.6,19.5,10.8,30.1,10.8C412.7,312.3,429.4,268.2,429.4,236.6 M390.6,241.8c0,19.3-5.3,44.1-29,44.1
    c-16.9,0-22.7-8.7-22.7-18.5v-46.2c0-8.2,0.8-12.1,7.1-18.2c4-3.9,9.8-7.1,17.1-7.1C386.6,195.9,390.5,222.8,390.6,241.8"/>
  <path class="st0" d="M500,250c0,138.9-111.7,250-249.5,250C112.6,500,0,388.3,0,250C0,112.6,112.6,0,250.5,0
  C383.9,0,500,112,500,250 M466,250.2c0-119.1-97.1-215.8-215.5-215.8c-118.9,0-215.9,96.7-215.9,215.8
  c0,119.5,97,215.7,215.9,215.7C368.9,465.9,466,369.2,466,250.2"/>
</svg>
