<?xml version="1.0" encoding="utf-8"?>

<svg version="1.1" id="Calque_1" xmlns="http://www.w3.org/2000/svg" xmlns:xlink="http://www.w3.org/1999/xlink" x="0px" y="0px"
	 width="500px" height="500px" viewBox="0 0 500 500" style="enable-background:new 0 0 500 500;" xml:space="preserve">
<style type="text/css">
	.st0{fill:#0F87C9;}
</style>
<path class="st0" d="M34.4,416V83.9c0-27.3,22.1-49.4,49-49.4h333.1c27.1,0,49,22.1,49,49.4V416c0,27.2-21.9,49.4-49,49.4H83.4
	C56.4,465.4,34.4,443.2,34.4,416 M83.4,0C37.5,0,0,37.7,0,83.9V416c0,46.3,37.5,84,83.4,84h333.1c46,0,83.4-37.7,83.4-84V83.9
	C500,37.7,462.6,0,416.6,0H83.4z"/>
<path class="st0" d="M213.8,237.5h20.9c26.7,0,42.4-13.3,42.4-34.2c0-21.4-14.7-32.7-39.2-32.7c-12.9,0-20.3,0.7-24.1,1.7V237.5z
	 M160.9,135.8c17.2-3.2,42.4-5.3,71-5.3c35,0,59.5,5.3,76.3,19c14.3,11.2,22.1,27.8,22.1,49.6c0,29.9-21.4,50.7-41.7,58.1v1.1
	c16.5,6.7,25.6,22.2,31.5,44c7.3,27,14.3,58,18.8,67.1h-54.5c-3.5-6.7-9.5-26-16.1-55.2c-6.7-29.9-16.8-37.7-38.9-38h-15.8v93.2
	h-52.9V135.8H160.9z"/>
</svg>
