<?xml version="1.0" encoding="utf-8"?>
<svg version="1.1" id="Calque_1" xmlns="http://www.w3.org/2000/svg" xmlns:xlink="http://www.w3.org/1999/xlink" x="0px" y="0px"
	 viewBox="0 0 500 500" style="enable-background:new 0 0 500 500;" xml:space="preserve">
<style type="text/css">
	.st0{fill:#0F87C9;}
</style>
  <path class="st0" d="M250,0C111.9,0,0,111.9,0,250s111.9,250,250,250s250-111.9,250-250S388.1,0,250,0z M250,468.8
    c-120.8,0-218.8-98-218.8-218.8S129.2,31.2,250,31.2s218.8,98,218.8,218.8S370.8,468.8,250,468.8z"/>
  <path class="st0" d="M247.1,118.4c-52.2-0.2-85.9,36.8-85.9,87.5c0,47.5,33.7,75.1,75,75.1c26.9,0,43.1-9.7,51.6-17.3
    c-3.2,51-29.4,76.5-64.2,76.5c-14.3,0-27.3-3.3-34.1-6.2l-7.9,43.2c10.5,2.5,23.3,4.3,37.7,4.3c79.7,0,120.3-60.4,120.3-148.3
    C339.8,166.1,315.3,118.4,247.1,118.4z M284.8,227c-5.1,8-17.6,14.1-33.1,14.1c-24.4,0-39.9-16.8-39.9-40.6
    c0-21.9,12.6-42.3,37-42.3c25.2,0,38.8,23.3,38.8,47.4C287.6,213,287.6,222.7,284.8,227z"/>
</svg>
