<?xml version="1.0" encoding="utf-8"?>
<svg version="1.1" id="Calque_1" xmlns="http://www.w3.org/2000/svg" xmlns:xlink="http://www.w3.org/1999/xlink" x="0px" y="0px"
	 viewBox="0 0 500 500" style="enable-background:new 0 0 500 500;" xml:space="preserve">
  <style type="text/css">
    .st0{fill:#0F87C9;}
  </style>
  <path id="border" class="st0" d="M 87.5 0 C 39.2 0 0 39.2 0 87.5 L 0 412.5 C 0 460.8 39.2 500 87.5 500 L 412.5 500 C 460.8 500 500 460.8 500 412.5 L 500 87.5 C 500 39.2 460.8 0 412.5 0 L 87.5 0 z M 87.5 37.5 L 412.5 37.5 C 440.1 37.5 462.5 59.9 462.5 87.5 L 462.5 412.5 C 462.5 440.1 440.1 462.5 412.5 462.5 L 87.5 462.5 C 59.9 462.5 37.5 440.1 37.5 412.5 L 37.5 87.5 C 37.5 59.9 59.9 37.5 87.5 37.5 z " />
  <path id="tens" class="st0" d="M154.6,380.2V175.5c-8.9,7-35,20.6-44.6,25.5l-13.7,6.9l-17.6-39.8l15.9-7.4 c30.2-14.4,58.2-31.7,70-41H210v260.5H154.6"/>
  <path id="units" class="st0" d="M244.2,376.5v-34.3c6.6-30.3,36.5-56.9,71.2-87.1c17.3-15.2,36.1-33.2,36.1-58.3 c0-22.4-14.7-40.5-43-40.5c-23,0-38.8,16.6-45.1,23.5l-27.3-36c25.1-21.9,48.3-32.1,83.4-32.1c45.8,0,88.9,25.7,88.9,79 c0,44.6-28.4,64.9-59.7,93.2c-13.3,12.3-39.6,34.1-42.8,49.2h107.3v43.5H244.2"/>
</svg>
