<?xml version="1.0" encoding="utf-8"?>

<svg version="1.1" id="Calque_1" xmlns="http://www.w3.org/2000/svg" xmlns:xlink="http://www.w3.org/1999/xlink" x="0px" y="0px"
	 width="500px" height="500px" viewBox="0 0 500 500" style="enable-background:new 0 0 500 500;" xml:space="preserve">
<style type="text/css">
	.st0{fill:#0F87C9;}
</style>
<path class="st0" d="M34.4,416V83.9c0-27.2,22-49.4,49.1-49.4h333.1c27,0,49.1,22.1,49.1,49.4V416c0,27.3-22,49.4-49.1,49.4H83.4
	C56.4,465.4,34.4,443.3,34.4,416 M83.4,0C37.4,0,0,37.7,0,83.9V416c0,46.3,37.4,84,83.4,84h333.1c46,0,83.4-37.7,83.4-84V83.9
	C500,37.7,462.6,0,416.6,0H83.4z"/>
<path class="st0" d="M153.6,131.5h52.8v104.8h0.7c5.3-9.2,10.8-17.6,16.4-26.1l53.2-78.8h65.8l-78,100.9l81.9,136.2h-61.9
	l-58.1-102.4l-20,24.9v77.5h-52.8L153.6,131.5L153.6,131.5z"/>
</svg>
