<?xml version="1.0" encoding="utf-8"?>

<svg version="1.1" id="Calque_1" xmlns="http://www.w3.org/2000/svg" xmlns:xlink="http://www.w3.org/1999/xlink" x="0px" y="0px"
	 viewBox="0 0 500 500" style="enable-background:new 0 0 500 500;" xml:space="preserve">
<style type="text/css">
	.st0{fill-rule:evenodd;clip-rule:evenodd;fill:#0F87C9;}
	.st1{fill:#0F87C9;}
</style>
<g>
	<g>
		<path class="st1" d="M0,250C0,111.9,111.9,0,250,0c138.1,0,250,111.9,250,250c0,138-111.9,250-250,250C111.9,500,0,388,0,250
			 M194.2,389.4v-276h-48.2c-12.5,9.8-42.1,28.2-74.2,43.4L55,164.6l18.8,42.2l14.5-7.4c10.2-5.1,37.9-19.6,47.3-27v217H194.2z
			 M419.6,307.6c0-38.7-23.1-61.4-53.6-67.2v-0.8c29.3-10.9,44.6-32.8,44.6-61.3c0-36.8-32.1-69.6-88.4-69.6
			c-32.5,0-59.1,9-82.9,24.6l19.1,40.7c9-7.8,25.9-19.9,51.3-19.9c28.9,0,42.2,15.2,42.2,32.9c0,21.1-16.9,34.4-43.8,34.4h-29v45.7
			h28.6c28.1,0,52.4,10.2,52.4,41.9c0,23.5-20,40.7-52,40.7c-23.5,0-42.7-9-54.4-18l-21.1,42.7c22.3,12.5,43.8,20.8,79.3,20.8
			C376.2,394.9,419.6,356.1,419.6,307.6"/>
	</g>
</g>
</svg>
