<?xml version="1.0" encoding="utf-8"?>

<svg version="1.1" id="DESKTOP" xmlns="http://www.w3.org/2000/svg" xmlns:xlink="http://www.w3.org/1999/xlink" x="0px" y="0px"
	 width="500px" height="500px" viewBox="0 0 500 500" style="enable-background:new 0 0 500 500;" xml:space="preserve">
<style type="text/css">
	.st0{fill:#0088CE;}
</style>
<path class="st0" d="M46.5,500h407c25.7,0,46.5-20.8,46.5-46.5v-407C500,20.8,479.2,0,453.5,0h-407C20.8,0,0,20.8,0,46.5v407
	C0,479.2,20.8,500,46.5,500z M91.1,94.3c0.1-2.1,1.9-3.8,4-3.8h63.3c1.6,0,3.1,1,3.7,2.5l89,224l88.6-224c0.6-1.5,2.1-2.5,3.7-2.5
	H404c2.1,0,3.9,1.7,4,3.8l11.3,311.1c0,1.1-0.4,2.1-1.1,2.9s-1.8,1.2-2.9,1.2h-55.5c-2.2,0-3.9-1.7-4-3.9l-5.6-186.4L275.6,407
	c-0.6,1.5-2.1,2.5-3.7,2.5h-44.2c-1.6,0-3.1-1-3.7-2.5l-75.5-189l-5.2,187.6c-0.1,2.2-1.8,3.9-4,3.9H84.7c-1.1,0-2.1-0.4-2.9-1.2
	c-0.8-0.8-1.2-1.8-1.1-2.9L91.1,94.3z"/>
</svg>
