<?xml version="1.0" encoding="utf-8"?>

<svg version="1.1" id="DESKTOP" xmlns="http://www.w3.org/2000/svg" xmlns:xlink="http://www.w3.org/1999/xlink" x="0px" y="0px"
	 width="808.5px" height="500px" viewBox="0 0 808.5 500" style="enable-background:new 0 0 808.5 500;" xml:space="preserve">
<style type="text/css">
	.st0{fill:#0088CE;}
</style>
<path class="st0" d="M641.3,165.4c-13.7,0-27.2,1.9-40.1,5l-19.9-50.6L544.8,14.1c-2.9-8.2-10.5-13.7-19.2-13.7L435.5,0
	c-11.3,0-20.5,9.1-20.5,20.4l0,0c0,11.3,9.1,20.4,20.4,20.5c0,0,55.1,0.2,75.5,0.3c4.5,13.1,16.2,46.7,23.9,69.5
	c-66.1,33.2-113.4,93.6-130.3,164c-18.3,1.6-59.2,5.7-78.1,7.6c-4.4-13.7-69.5-170.3-69.5-170.3h20.5c11.3,0,20.5-9.2,20.5-20.5
	S288.6,71,277.3,71H176.7c-11.3,0-20.5,9.1-20.5,20.5c0,11.3,9.2,20.5,20.5,20.5H213l27.7,70.5c-22.2-10.8-47.1-17.1-73.4-17.1
	C75,165.4,0,240.5,0,332.8C0,425,75,500,167.2,500c75.5,0,139.6-50.5,160.1-119.3l54.2,5c28.3,2.6,53.7-19.9,56.8-50.3
	c0.2-1.6,0.3-5,0.3-5c0-1,0-1.9-0.2-2.7c1.9-75,44.3-143.3,110.4-178.2l14.1,35.6c-52.9,28.1-89.1,83.8-89.1,147.8
	c0,92.2,75,167.2,167.4,167.2s167.4-75,167.4-167.2C808.5,240.5,733.5,165.4,641.3,165.4z M167.2,454.6
	c-67.1,0-121.8-54.7-121.8-121.8S100.1,211,167.2,211c51.1,0,94.9,31.7,112.9,76.5l-0.8,0.2L168,300c-16,1.8-28.3,16.3-28.5,33.2
	c-0.3,16.8,11.5,31.2,27.3,32.7l110.8,10.3l2.9,0.3C263.3,422.1,219,454.6,167.2,454.6z M641.3,454.6
	c-67.3,0-121.9-54.7-121.9-121.8c0-44.8,24.4-83.8,60.3-104.9l45.1,114.5c4.2,10.5,16,15.7,26.5,11.5c10.5-4.2,15.7-16,11.5-26.5
	l-45-114.2c7.6-1.5,15.4-2.3,23.3-2.3c67.1,0,121.8,54.7,121.8,121.8C763.1,399.9,708.4,454.6,641.3,454.6z"/>
</svg>
