<?xml version="1.0" encoding="utf-8"?>

<svg version="1.1" id="Calque_1" xmlns="http://www.w3.org/2000/svg" xmlns:xlink="http://www.w3.org/1999/xlink" x="0px" y="0px"
	 viewBox="0 0 500 500" style="enable-background:new 0 0 500 500;" xml:space="preserve">
<style type="text/css">
	.st0{fill-rule:evenodd;clip-rule:evenodd;fill:#0F87C9;}
	.st1{fill:#0F87C9;}
</style>
<g>
	<g>
		<path class="st1" d="M0,250C0,111.9,111.9,0,250,0c138.1,0,250,111.9,250,250c0,138-111.9,250-250,250C111.9,500,0,388.1,0,250
			 M323.3,291.6c0-10.7-2.2-25.9-15.4-25.9c-4.2,0-7.5,1.8-9.7,4c-3.6,3.4-4.1,5.7-4.1,10.3v26.1c0,5.5,3.3,10.4,12.8,10.4
			C320.4,316.5,323.3,302.5,323.3,291.6 M345.3,288.6c0-19.2-8.6-41-29.4-41c-10.2,0-16.3,5.4-21.7,13.1v-41.5h-21v110.3h20.2v-4.2
			c4,3.7,11,6.1,17,6.1C335.9,331.4,345.3,306.6,345.3,288.6 M385.1,249.9h-21v79.6h21V249.9z M386.3,228.7c0-6.4-4.5-11-11.7-11
			c-7.1,0-11.7,4.6-11.7,11c0,6.3,4.6,11,11.7,11C381.7,239.8,386.3,235.1,386.3,228.7 M235.2,137.6H57.7V180h123.2l-61.8,115
			c-12,22-20,39-24.1,51c-4.8,14.3-7.2,29.5-7.2,45.3h57.8c0-37.8,29.8-108.6,89.5-212.4V137.6z M459.9,305.7
			c0-12.1-7-18.7-17.7-22.7l-9.7-3.6c-5.1-1.8-8.4-3.8-8.4-7.9c0-4.8,4-7.6,11.1-7.6c5,0,11.5,1.8,16.1,4.8l6.4-15.4
			c-4.2-2.1-11.5-5.2-21.5-5.2c-18.6,0-31.3,11.8-31.3,26.8c0,9.4,4.6,16.7,15.9,21l9.4,3.6c4.2,1.6,10.2,3.3,10.2,8.8
			c0,6.3-6.8,8-12.3,8c-6.2,0-13.6-2.4-18.6-6l-6.4,15.7c4.5,2.6,13.4,6.1,23.4,6.1C447.4,332.1,459.9,321.2,459.9,305.7"/>
	</g>
</g>
</svg>
