<?xml version="1.0" encoding="utf-8"?>
<svg version="1.1" id="Calque_1" xmlns="http://www.w3.org/2000/svg" xmlns:xlink="http://www.w3.org/1999/xlink" x="0px" y="0px"
	 viewBox="0 0 500 500" style="enable-background:new 0 0 500 500;" xml:space="preserve">
<style type="text/css">
	.st1{fill:#0F87C9;}
</style>
<path class="st1" d="M250,0C111.9,0,0,112,0,250c0,138.1,111.9,250,250,250c138.1,0,250-111.9,250-250C500,112,388.1,0,250,0z
	 M234.3,395c-35.6,0-57.1-8.2-79.4-20.7l21.1-42.6c11.7,9,30.9,18,54.3,18c32.1,0,52-17.2,52-40.7c0-31.7-24.2-41.9-52.4-41.9h-28.5
	v-45.7h28.9c27,0,43.8-13.3,43.8-34.5c0-17.6-13.3-32.8-42.3-32.8c-25.3,0-42.2,12.1-51.2,19.9l-19.2-40.7
	c23.8-15.7,50.5-24.6,82.9-24.6c56.3,0,88.4,32.8,88.4,69.6c0,28.6-15.3,50.5-44.6,61.4v0.8c30.4,5.9,53.5,28.6,53.5,67.2
	C341.8,356.3,298.4,395,234.3,395z"/>
</svg>
