<?xml version="1.0" encoding="utf-8"?>

<svg version="1.1" id="Calque_1" xmlns="http://www.w3.org/2000/svg" xmlns:xlink="http://www.w3.org/1999/xlink" x="0px" y="0px"
	 viewBox="0 0 500 500" style="enable-background:new 0 0 500 500;" xml:space="preserve">
<style type="text/css">
	.st0{fill-rule:evenodd;clip-rule:evenodd;fill:#0F87C9;}
	.st1{fill:#0F87C9;}
</style>
<g>
	<path class="st1" d="M249.8-0.4C111.7-0.4,0,111.2,0,250.5c0,138.1,111.7,249.9,249.8,249.9c0,0,0.1,0,0.2,0c0.2,0,0.4,0,0.7,0
		c121.1,0,221.5-85.1,244.2-199.2c3.4-16.4,5.2-33.3,5.2-50.7C500,111.2,388.1-0.4,249.8-0.4z M249.8,463.1
		c-117.3,0-212.5-95.5-212.5-212.7c0-118.1,95.2-213.6,212.5-213.6c117.4,0,212.9,95.5,212.9,213.6
		C462.7,367.7,367.3,463.1,249.8,463.1z"/>
	<path class="st1" d="M347.3,137.1H153.4c-11,0-17.1,9.2-17.1,19c0,8.6,6.1,18.9,17.1,18.9H228v200.7c0,11,11.6,17.1,22,17.1
		c11.6,0,22.6-6.1,22.6-17.1V175h74.6c11,0,17.1-10.3,17.1-18.9C364.4,146.3,358.3,137.1,347.3,137.1z"/>
</g>
</svg>
