<?xml version="1.0" encoding="utf-8"?>
<svg version="1.1" id="Calque_1" xmlns="http://www.w3.org/2000/svg" xmlns:xlink="http://www.w3.org/1999/xlink" x="0px" y="0px"
	 viewBox="0 0 500 500" style="enable-background:new 0 0 500 500;" xml:space="preserve">
<style type="text/css">
	.st0{fill:#0F87C9;}
</style>
  <path id="_x35_" class="st0" d="M333.5,292.6c0-38.8-28.5-77.9-99.1-81.5l-7.4-0.3l3.6-49.4h93v-42.9H187.9l-10.3,134.3l40.2,0.4
	c47.6,0.5,60,26,60,44.7c0,30.3-25.2,41.8-45.3,41.8c-22,0-36.6-8.1-49.1-16.5l-19,40.3c20,11.3,43.5,18.7,70.9,18.7
	C294.3,382,333.5,342,333.5,292.6"/>
  <path class="st0" d="M500,250c0,138.9-111.7,250-249.5,250C112.6,500,0,388.3,0,250C0,112.6,112.6,0,250.5,0
			C383.9,0,500,112,500,250 M466,250.2c0-119.1-97.1-215.8-215.5-215.8c-118.9,0-215.9,96.7-215.9,215.8
			c0,119.5,97,215.7,215.9,215.7C368.9,465.9,466,369.2,466,250.2"/>
</svg>
