<?xml version="1.0" encoding="utf-8"?>

<svg version="1.1" id="Calque_1" xmlns="http://www.w3.org/2000/svg" xmlns:xlink="http://www.w3.org/1999/xlink" x="0px" y="0px"
	 viewBox="0 0 500 500" style="enable-background:new 0 0 500 500;" xml:space="preserve">
<style type="text/css">
	.st0{fill-rule:evenodd;clip-rule:evenodd;fill:#0F87C9;}
	.st1{fill:#0F87C9;}
</style>
<g>
	<path class="st1" d="M325.3,200.5L269,288.9h77V161.8h-0.8C344.1,166.5,336.2,183.3,325.3,200.5z"/>
	<path class="st1" d="M250,0C111.9,0,0,112,0,250c0,138.1,111.9,250,250,250c138.1,0,250-111.9,250-250C500,112,388.1,0,250,0z
		 M193.6,389.4H135V172.3c-9.4,7.4-37.2,21.9-47.3,27l-14.5,7.4l-18.8-42.2l16.8-7.8c32.1-15.3,61.8-33.6,74.3-43.4h48.1V389.4z
		 M399.2,331.9v57.5H346v-57.5H221.6v-51.2l107.2-167.4h70.4v175.5h34.1v43H399.2z"/>
</g>
</svg>
