<?xml version="1.0" encoding="utf-8"?>

<svg version="1.1" id="DESKTOP" xmlns="http://www.w3.org/2000/svg" xmlns:xlink="http://www.w3.org/1999/xlink" x="0px" y="0px"
	 width="507.2px" height="500px" viewBox="0 0 507.2 500" style="enable-background:new 0 0 507.2 500;" xml:space="preserve">
<style type="text/css">
	.st0{fill:#0088CE;}
</style>
<path class="st0" d="M16,153.9c5.3,0.8,10.4-0.7,14.4-3.9c-22.3,159.4-2,245.1-1,249.3c2.5,14.5,9.1,22.9,19.8,26.1
	c0,11.5,0.1,49.1,0.1,49.1c0,14.1,11.5,25.6,25.6,25.6h20c14.1,0,25.6-11.5,25.6-25.6c0,0-0.1-34.7-0.1-47.7h263c0,13,0,47.6,0,47.6
	c0,14.1,11.5,25.7,25.6,25.7l23.8-0.1c13.2,0,21.8-10,21.8-25.6c0,0,0-37.8,0-49.3c12.6-3.4,21.9-13.4,23.7-26.9l-0.2,1
	c0.6-2.6,9.4-39.6,9.4-108.7c0-37.4-2.6-84.4-10.4-140.5c4,3,9,4.6,14.4,3.8c10.2-1.6,17.2-11.3,15.6-21.5l-5.6-35.1
	c-1.6-10.2-11.3-17.2-21.4-15.6c-5.6,0.9-10.1,4.2-12.9,8.6c-1.5-8-3-16.1-4.8-24.3v-0.1C457.9,43,435.4,0.3,380.9,0.1H254.7
	L126.4,0C71.7,0.2,49.2,43.2,45,65.8c-1.7,8.3-3.3,16.4-4.8,24.4c-2.8-4.5-7.3-7.7-12.9-8.6C17.1,80,7.4,87,5.8,97.3l-5.6,35.1
	C-1.4,142.6,5.7,152.2,16,153.9z M85.2,399.3c-19.1,0-34.5-15.4-34.5-34.6c0-19.1,15.4-34.6,34.5-34.6s34.6,15.4,34.6,34.6
	C119.8,383.8,104.3,399.3,85.2,399.3z M333.4,269.2h-28.2c5.6-12.5,15.8-22.1,28.2-27.1V269.2z M371.5,269.2v-27.3
	c12.7,4.9,23,14.7,28.7,27.3H371.5z M419.4,399.3c-19.1,0-34.5-15.4-34.5-34.6c0-19.1,15.4-34.6,34.5-34.6
	c19.1,0,34.5,15.4,34.5,34.6C453.9,383.8,438.5,399.3,419.4,399.3z M134.3,16.5h238.6v32.4H134.3V16.5z M73.5,74.9
	c0.1-0.5,0.9-4.4,3-9.5h354.3c2.1,5.2,2.9,8.9,2.9,9.4c14.3,69,22,134.2,23.1,194.3h-33.5c-9.3-31-38-52.6-70.7-52.6
	s-61.4,21.6-70.7,52.6H50.3C51.4,209.2,59.2,143.9,73.5,74.9z M352.7,206.3c12.4,0,22.4-10,22.4-22.4s-10-22.4-22.4-22.4
	s-22.4,10-22.4,22.4C330.3,196.2,340.3,206.3,352.7,206.3z"/>
</svg>
