<?xml version="1.0" encoding="utf-8"?>

<svg version="1.1" id="Calque_1" xmlns="http://www.w3.org/2000/svg" xmlns:xlink="http://www.w3.org/1999/xlink" x="0px" y="0px"
	 viewBox="0 0 500 500" style="enable-background:new 0 0 500 500;" xml:space="preserve">
<style type="text/css">
	.st0{fill-rule:evenodd;clip-rule:evenodd;fill:#0F87C9;}
	.st1{fill:#0F87C9;}
</style>
<g>
	<g>
		<path class="st1" d="M0,250C0,111.9,111.9,0,250,0c138.1,0,250,111.9,250,250c0,138.1-111.9,250-250,250C111.9,500,0,388.1,0,250
			 M369.1,252.2c0-28.9-1.2-97.8-40.6-97.8c-40,0-41.1,69.6-41.1,97.8c0,27.8,2,98.1,41.1,98.1C367.6,350.3,369.1,279.6,369.1,252.2
			 M429,252.2c0-63.7-16.4-144.4-99.7-144.4C246,107.9,228,188.5,228,252.2c0,63.7,16.4,144.2,99.7,144.2
			C411,396.4,429,315.9,429,252.2 M193,389.4v-276h-48.1c-12.5,9.8-42.2,28.1-74.3,43.4l-16.8,7.8l18.8,42.3l14.5-7.5
			c10.2-5.1,37.9-19.5,47.3-27v217H193z"/>
	</g>
</g>
</svg>
