<?xml version="1.0" encoding="utf-8"?>

<svg version="1.1" id="Calque_1" xmlns="http://www.w3.org/2000/svg" xmlns:xlink="http://www.w3.org/1999/xlink" x="0px" y="0px"
	 viewBox="0 0 500 500" style="enable-background:new 0 0 500 500;" xml:space="preserve">
<style type="text/css">
	.st0{fill-rule:evenodd;clip-rule:evenodd;fill:#0F87C9;}
	.st1{fill:#0F87C9;}
</style>
<g>
	<g>
		<g>
			<path class="st1" d="M342.3,389.2v-45.1H231c3.4-15.6,30.6-38.1,44.4-50.8c32.5-29.3,62-50.4,62-96.5c0-55-44.8-81.7-92.2-81.7
				c-36.4,0-60.5,10.6-86.5,33.2l28.3,37.4c6.5-7.3,23-24.4,46.7-24.4c29.4,0,44.8,18.8,44.8,42c0,26-19.6,44.7-37.5,60.4
				c-36,31.3-67,58.7-73.8,90.1v35.5H342.3z M500,250c0,139-111.7,250-249.4,250C112.6,500,0,388.4,0,250C0,112.7,112.6,0,250.6,0
				C383.9,0,500,112.1,500,250 M466.1,250c0-118.9-97.2-215.5-215.5-215.5C131.7,34.5,34.6,131.1,34.6,250
				c0,119.3,97,215.4,215.9,215.4C368.8,465.4,466.1,368.8,466.1,250"/>
			<path class="st1" d="M342.2,389v-45H231c3.5-15.6,30.6-38.1,44.3-50.7c32.5-29.3,61.9-50.4,61.9-96.5c0-54.9-44.7-81.6-92.1-81.6
				c-36.3,0-60.4,10.7-86.4,33.2l28.3,37.4c6.5-7.3,22.9-24.5,46.7-24.5c29.4,0,44.7,18.7,44.7,42c0,25.9-19.5,44.6-37.4,60.3
				c-36,31.3-66.9,58.7-73.8,90V389H342.2z M499.8,250c0,138.8-111.6,249.7-249.2,249.7C112.8,499.7,0.3,388.2,0.3,250
				C0.3,112.8,112.8,0.3,250.6,0.3C383.7,0.3,499.8,112.2,499.8,250z M465.8,250c0-118.8-97.1-215.3-215.2-215.3
				C131.8,34.7,34.8,131.2,34.8,250c0,119.2,97,215.1,215.7,215.1C368.7,465.1,465.8,368.7,465.8,250z"/>
		</g>
	</g>
</g>
</svg>
