<?xml version="1.0" encoding="utf-8"?>

<svg version="1.1" id="DESKTOP" xmlns="http://www.w3.org/2000/svg" xmlns:xlink="http://www.w3.org/1999/xlink" x="0px" y="0px"
	 width="500px" height="500px" viewBox="0 0 500 500" style="enable-background:new 0 0 500 500;" xml:space="preserve">
<style type="text/css">
	.st0{fill:#0088CE;}
</style>
<path class="st0" d="M494.8,227.3L250,96L5.1,227.1c0,0-5.1,3-5.1,8.7c0,5.4,4.4,9.8,9.8,9.8h17.9V428H92v-81.9
	c0-17.8,14.6-32.3,32.7-32.3s32.7,14.5,32.7,32.3V428H205V315.5c0-24.4,20-44.3,44.9-44.3s44.9,20,44.9,44.3V428h47.3v-81.9
	c0-17.8,14.6-32.3,32.7-32.3s32.7,14.5,32.7,32.3V428h64.7V245.6h18c5.4,0,9.8-4.4,9.8-9.8C500,232,497.8,228.9,494.8,227.3z
	 M249.8,238.8c-25.3,0-46.2-21-46.2-46.5s20.9-46.5,46.2-46.5c26,0,46.5,21.1,46.5,46.5C296.4,217.8,275.8,238.8,249.8,238.8z
	 M486.9,470H13.1C5.9,470,0,476.7,0,485s5.9,15,13.1,15h473.8c7.2,0,13.1-6.7,13.1-15S494.1,470,486.9,470z"/>
</svg>
