<?xml version="1.0" encoding="utf-8"?>

<svg version="1.1" id="DESKTOP" xmlns="http://www.w3.org/2000/svg" xmlns:xlink="http://www.w3.org/1999/xlink" x="0px" y="0px"
	 viewBox="0 0 500 500" style="enable-background:new 0 0 500 500;" xml:space="preserve">
<style type="text/css">
	.st0{fill:#0088CE;}
	.st1{fill:none;}
	.st2{fill:#1387C9;}
	.st3{fill:#0F87C9;}
</style>
<path class="st2" d="M486.9,470H13.1c-7.2,0-13.1,6.7-13.1,15c0,8.3,5.9,15,13.1,15h473.8c7.3,0,13.1-6.7,13.1-15
	C500,476.7,494.1,470,486.9,470z M294.7,72.6c21.1,0,38.3-16.2,38.3-36.3S315.8,0,294.7,0c-21.2,0-38.3,16.3-38.3,36.3
	S273.5,72.6,294.7,72.6z M41.1,236.5c-10.3,12.4-8.1,30.5,5,40.3l69.1,51.7c5.3,4,12,6.2,18.8,6.2c9.3,0,18-4.1,23.7-10.9l35.9-43.1
	c10.3-12.4,8.1-30.5-5-40.2l-25.6-19.2l-1.7-1.2l-25.5-19.1c3.7-3.2,8.3-5.3,13.4-5.8c1-0.1,1.9-0.1,2.8-0.1c0,0.5-0.2,1.1-0.2,1.6
	c-0.6,9.2,6.8,17.2,16.5,17.8c2.8,0.2,5.4-0.4,7.7-1.3c0.2,0.8,0.5,1.6,0.5,2.3c0.6,4.9-0.4,9.7-2.8,13.9l13.4,10
	c5.1-7.7,7.3-16.6,6.1-25.7c-0.8-5.8-2.9-11.3-6.1-16.2c0.7-7.8,2.5-15.6,5.4-23c8.3-20.8,24.7-37.3,46.2-46.4
	c6.2-2.7,12.7-4.5,19.2-5.7v109.9c-1.7,19.6-6.4,44.4-18.6,64.8c-18.8,31.4-56,39.7-56.4,39.8c-12.3,2.7-20.1,14.3-17.4,26
	c2.7,11.7,14.9,19.2,27.2,16.6c2.3-0.4,57.4-12.1,86.6-60.9c1.7-2.8,3.1-5.8,4.6-8.7c-0.2,48.2-0.3,96.7-0.3,96.7
	c0,12.1,10.3,21.8,22.9,21.8c12.7,0,23-9.7,23.1-21.7l0.6-203.8c0-0.9-0.1-1.8-0.2-2.7v-8.3c18.8,18.9,44.2,32.2,73.1,35.8
	c9.7,1.2,18.6-5.2,19.9-14.4c1.2-9.2-5.5-17.6-15.2-18.9c-43.3-5.5-76.1-41-76.2-82.4c0-5-2.4-9.4-6.1-12.6
	c-1.8-1.9-4.1-3.5-6.9-4.5c-30.8-11.1-64.4-10.2-94.5,2.7c-30,12.8-53.1,35.9-64.8,65.1c-2.2,5.4-3.9,11-5.2,16.6
	c-2.4-0.1-4.9-0.1-7.3,0.2c-9.5,1.1-18.2,5.2-24.8,11.6l-2.9-2.2c-12.7-9.4-32.6-7.2-42.5,4.7L41.1,236.5z M163.1,221.2l10.9,8.1
	l0,0l-12.3-9.2L163.1,221.2z"/>
</svg>
