<?xml version="1.0" encoding="utf-8"?>
<!-- Generator: Adobe Illustrator 21.0.2, SVG Export Plug-In . SVG Version: 6.00 Build 0)  -->
<svg version="1.1" id="DESKTOP" xmlns="http://www.w3.org/2000/svg" xmlns:xlink="http://www.w3.org/1999/xlink" x="0px" y="0px"
	 viewBox="0 0 500 500" style="enable-background:new 0 0 500 500;" xml:space="preserve">
<style type="text/css">
	.st0{fill:#0088CE;}
</style>
<path class="st0" d="M202.7,287.9l-7.6,11.7c-4.3,6.4-2.6,15.1,3.8,19.5c0.2,0.1,0.4,0.3,0.6,0.4l1.7,1.1l21.7-32.6h-20.2V287.9z
	 M192.2,382.6c0.2,6.4,5.4,11.4,11.8,11.4h37.9c6.3,0,11.4-5.1,11.4-11.4s-5.1-11.4-11.4-11.4H204
	C197.6,371.1,192.3,376.2,192.2,382.6L192.2,382.6z M291.2,374.2c2.1,1.1,4.4,2,6.8,2.5c5.6,0.7,11.1-1.7,14.3-6.4l142.3-210.8
	c4.3-6.4,2.6-15.1-3.8-19.5c-0.2-0.1-0.4-0.3-0.6-0.4l-16-10l0,0c-1.4,2.1-4.1,2.7-6.3,1.5l-32.6-20.4c-2-1.4-2.5-4.2-1.1-6.2l0,0
	l-17-10.7l-158.6,235L291.2,374.2z M217,363.6h34.5l-35.2-22.3c-6.2-0.3-11.5,4.4-11.8,10.6s4.4,11.5,10.6,11.8
	C215.8,363.7,216.4,363.7,217,363.6z M136.4,394h54.7c-8.9-7.1-10.4-20-3.3-29c2.8-3.5,6.6-6,10.9-7.1c-6.4-9.4-3.9-22.2,5.5-28.6
	c0.2-0.1,0.4-0.3,0.6-0.4c0,0-11.4-7.6-12.2-8.2c-3.6-2.4-6.3-6-7.6-10.2c-0.8,1.5-1.8,3-2.9,4.3c-4.4,4.6-9.5,8.6-15.2,11.7v-15.8
	c15.2-10.2,24-34.8,24.1-35.2l1.1-3h30.3c12.9,0.3,23.6-9.9,24-22.7c0-2.6-0.4-5.1-1.2-7.6h-66.7c-2.8,0-5.7,0.7-8.2,2l-44.5,26.4
	c-2.8,1.5-4.6,4.4-4.6,7.6v100.6C121.2,387.2,128,394,136.4,394C136.3,394,136.4,394,136.4,394z M106.1,384.2V282.4
	c0-5.4-4.3-9.7-9.7-9.7H45.5V394h50.8C101.7,394,106.1,389.6,106.1,384.2L106.1,384.2z M83.4,298.4c-4.2-0.3-7.3-3.9-7-8.1
	s3.9-7.3,8.1-7c4,0.3,7,3.6,7,7.5c0,4.2-3.4,7.6-7.6,7.6C83.7,298.4,83.5,298.4,83.4,298.4z M359.4,83.3l-1.7-1.1
	c-6.9-4.4-16-2.5-20.6,4.2L236.8,234.9H257L359.4,83.3z M500,485c0,8.3-5.9,15-13.1,15H13.1C5.9,500,0,493.3,0,485
	c0-8.2,5.9-15,13.1-15h473.8C494.1,470.1,500,476.8,500,485z"/>
</svg>
