<?xml version="1.0" encoding="utf-8"?>
<!-- Generator: Adobe Illustrator 21.0.2, SVG Export Plug-In . SVG Version: 6.00 Build 0)  -->
<svg version="1.1" id="MOBILE" xmlns="http://www.w3.org/2000/svg" xmlns:xlink="http://www.w3.org/1999/xlink" x="0px" y="0px"
	 viewBox="0 0 500 500" style="enable-background:new 0 0 500 500;" xml:space="preserve">
<style type="text/css">
	.st0{fill:#0088CE;}
</style>
<path class="st0" d="M250.3,0.3C132,0.3,36.1,96.2,36.1,214.5S132,428.7,250.3,428.7l0,0c101.5,0.4,189-71,209-170.5
	c3-14.2,4.5-28.8,4.5-43.3C464.3,96.8,368.7,0.7,250.5,0.3C250.5,0.3,250.4,0.3,250.3,0.3z M250.3,396.9
	C149.6,397,67.8,315.5,67.7,214.7S149.2,32.3,249.9,32.1c100.7-0.1,182.5,81.4,182.6,182.2c0,0.2,0,0.4,0,0.6
	C432.4,315.5,350.8,396.9,250.3,396.9z M333.9,117.9H167.8c-8.3,0.1-14.9,6.9-14.8,15.1c0,0.4,0,0.8,0.1,1.1
	c-0.5,8.5,6,15.7,14.5,16.2c0.1,0,0.2,0,0.3,0h65v171.8c1.2,9.2,9.6,15.8,18.8,14.7c9.3,1.4,18.1-5.1,19.4-14.4c0-0.1,0-0.2,0-0.3
	V150.4h65c8.5-0.5,15.1-7.7,14.7-16.2c0.8-8.2-5.2-15.5-13.4-16.3C336.2,117.7,335.1,117.8,333.9,117.9z M486.9,470H13.1
	C5.9,470,0,476.7,0,485s5.9,15,13.1,15h473.8c7.2,0,13.1-6.7,13.1-15S494.1,470,486.9,470z"/>
</svg>
