<?xml version="1.0" encoding="utf-8"?>
<!-- Generator: Adobe Illustrator 21.0.2, SVG Export Plug-In . SVG Version: 6.00 Build 0)  -->
<svg version="1.1" id="DESKTOP" xmlns="http://www.w3.org/2000/svg" xmlns:xlink="http://www.w3.org/1999/xlink" x="0px" y="0px"
	 viewBox="0 0 500 500" style="enable-background:new 0 0 500 500;" xml:space="preserve">
<style type="text/css">
	.st0{fill:#0088CE;}
</style>
<path class="st0" d="M250,75.8c-87.9,0-159.1,71.2-159.1,159.1s71.2,159,159.1,159s159.1-71.2,159.1-159.1S337.9,75.8,250,75.8z
	 M354.6,265.2h-2.3l-110.6-15.9c-0.8,0-2.3-0.8-2.3-1.5l-40.9-82.6c-3.8-6.8-0.8-15.2,6.1-18.9l0,0c2.3-0.8,3.8-1.5,6.1-1.5
	c5.3,0,9.8,3,12.9,7.6l34.1,68.9c0.8,0.8,1.5,1.5,2.3,1.5l96.2,13.6c6.8,0.8,12.1,6.8,12.1,14.4c0,0.8,0,1.5,0,2.3
	C367.4,259.9,361.4,265.2,354.6,265.2z M500,485c0,8.3-5.9,15-13.1,15H13.1C5.9,500,0,493.3,0,485c0-8.2,5.9-15,13.1-15h473.8
	C494.1,470.1,500,476.8,500,485z"/>
</svg>
