<?xml version="1.0" encoding="utf-8"?>
<!-- Generator: Adobe Illustrator 21.0.2, SVG Export Plug-In . SVG Version: 6.00 Build 0)  -->
<svg version="1.1" id="DESKTOP" xmlns="http://www.w3.org/2000/svg" xmlns:xlink="http://www.w3.org/1999/xlink" x="0px" y="0px"
	 viewBox="0 0 500 500" style="enable-background:new 0 0 500 500;" xml:space="preserve">
<style type="text/css">
	.st0{fill:#0088CE;}
</style>
<path class="st0" d="M287.4,87.9H121.2v177.3h166.2V87.9z M145.8,312c-22.7-0.1-41.2,18.2-41.4,40.9c-0.1,22.7,18.2,41.2,40.9,41.4
	c22.7,0.1,41.2-18.2,41.4-40.9c0-0.1,0-0.2,0-0.2C186.8,330.5,168.5,312.1,145.8,312z M336.3,314.4c-22-0.1-40,17.6-40.2,39.7
	c-0.1,22,17.6,40,39.7,40.2c22,0.1,40-17.6,40.2-39.7c0-0.1,0-0.2,0-0.2C376.1,332.4,358.3,314.5,336.3,314.4L336.3,314.4z
	 M346.3,152.3h-40.6c-0.9,0-1.6,0.6-1.7,1.5l0,0v127.5H104.9V156.4c0-4.7-4.2-4-5.8-4H74.5c0,0-5.3-0.7-5.3,3v208.2h21.7
	c-0.7-3.6-1-7.2-1.1-10.8c-1-31.3,23.6-57.4,54.9-58.4s57.4,23.6,58.4,54.9c0.1,4.8-0.3,9.6-1.4,14.3h80.5
	c-6-30,13.5-59.1,43.5-65.1s59.1,13.5,65.1,43.5c1.4,7.1,1.4,14.5,0,21.6h39V246.4L346.3,152.3z M413.3,246.8h-66.4
	c-0.5,0-0.5-0.6-0.5-0.6v-72.7c0,0,0-0.8,1,0l65.9,72.4C413.9,246.7,413.3,246.7,413.3,246.8L413.3,246.8z M500,485
	c0,8.3-5.9,15-13.1,15H13.1C5.9,500,0,493.3,0,485c0-8.2,5.9-15,13.1-15h473.8C494.1,470.1,500,476.8,500,485z"/>
</svg>
