<?xml version="1.0" encoding="utf-8"?>

<svg version="1.1" id="DESKTOP" xmlns="http://www.w3.org/2000/svg" xmlns:xlink="http://www.w3.org/1999/xlink" x="0px" y="0px"
	 viewBox="0 0 500 500" style="enable-background:new 0 0 500 500;" xml:space="preserve">
<style type="text/css">
	.st0{fill:#0088CE;}
	.st1{fill:none;}
	.st2{fill:#1387C9;}
	.st3{fill:#0F87C9;}
</style>
<path class="st0" d="M408.9,242.1c0-24.6-10.7-77.7-13-90.1c-2.3-12.4-5.6-33.3-22-45.5c-16.4-12.3-32.5-10.3-45-10.3h-76.8
	l35.7-34.9c2.7-2.7,4.1-6.3,3.7-10.1c-0.3-3.8-2.3-7.2-5.4-9.3L228.2,2.2c-5.8-3.9-13.6-2.5-17.6,3.3c-1.5,2.2-2.2,4.7-2.2,7.1
	c0,4,1.9,8,5.5,10.4c0,0,29.8,20.4,45.2,31c-13.6,13.3-40.5,39.6-40.5,39.6c-0.8,0.8-1.4,1.6-1.9,2.5h-48c-21.7,0-34,1.1-47.1,14.3
	c-13.2,13.1-14.8,28.1-18.3,46.3c-3.6,18.2-7.4,38-8.7,48.1C93.3,215,89.6,248,91.1,272c2.1,32.5,6.9,71.1,16,115.2
	c0,0,7.7,40.7,50.9,40.8h88.8l0.2,0l95.2,0c43.1-0.1,50.9-40.9,50.9-40.9c9.1-43.6,13.8-81.9,15.9-114.2
	C409.6,262.6,408.9,252.1,408.9,242.1z M154.5,401.2c-11.4,0-20.6-9.2-20.6-20.6c0-11.4,9.2-20.6,20.6-20.6
	c11.4,0,20.6,9.2,20.6,20.6C175.2,392,165.9,401.2,154.5,401.2z M236.4,340.4H215c3.4-10.7,11.4-19.1,21.5-23.1V340.4z M263.3,340.4
	v-23.2c10.2,4,18.4,12.4,21.8,23.2H263.3z M300.6,340.4c0.1-0.8,0-1.7-0.2-2.5c-6.1-22.7-26.8-38.5-50.3-38.5
	c-23.6,0-44.3,15.8-50.4,38.5c-0.2,0.9-0.3,1.7-0.2,2.6h-16.6c-31.5-0.1-37.1-26.1-37.1-26.1c-6.7-28.2-10.1-52.8-11.7-73.7
	c-1.1-15.3,1.6-36.4,2.5-42.9c0.9-6.5,3.7-15.9,6.3-27.5c2.6-11.6,3.8-21.2,13.4-29.6c9.6-8.4,18.5-9.2,34.4-9.2h116.9
	c9.1,0,20.9-1.2,32.8,6.6c11.9,7.8,14.3,21.2,16,29.1c1.7,7.9,9.5,38.6,9.5,54.3c0,6.4,0.5,13.1,0,19.7c-1.6,20.7-5,45.1-11.6,73
	c0,0-5.6,26.1-37.1,26.2L300.6,340.4z M345.5,401.2c-11.4,0-20.6-9.2-20.6-20.6c0-11.4,9.2-20.6,20.6-20.6
	c11.4,0,20.6,9.2,20.6,20.6C366.1,392,356.9,401.2,345.5,401.2z M265.8,276.3c0,8.7-7.1,15.8-15.8,15.8c-8.7,0-15.8-7.1-15.8-15.8
	c0-8.7,7.1-15.8,15.8-15.8C258.8,260.5,265.8,267.5,265.8,276.3z M486.9,470H13.1C5.9,470,0,476.7,0,485c0,8.3,5.9,15,13.1,15h473.8
	c7.2,0,13.1-6.7,13.1-15C500,476.7,494.1,470,486.9,470z"/>
</svg>
