<?xml version="1.0" encoding="utf-8"?>
<!-- Generator: Adobe Illustrator 21.0.2, SVG Export Plug-In . SVG Version: 6.00 Build 0)  -->
<svg version="1.1" id="DESKTOP" xmlns="http://www.w3.org/2000/svg" xmlns:xlink="http://www.w3.org/1999/xlink" x="0px" y="0px"
	 viewBox="0 0 500 500" style="enable-background:new 0 0 500 500;" xml:space="preserve">
<style type="text/css">
	.st0{fill:#0088CE;}
</style>
<path class="st0" d="M247,394.7c20.5,0,40.9-3.8,59.8-11.4l98.5,36.4c4.5,1.5,9.8,0,12.9-3.8s3-9.8,0-13.6l-45.5-65.2
	c60.6-69.7,52.3-175.8-17.4-235.6s-175.8-52.3-235.6,17.4s-52.3,175.8,17.4,235.6C167.4,380.3,206.8,394.7,247,394.7z M233.3,136.4
	c4.5-3,9.8-4.5,15.2-3.8c5.3,0,10.6,1.5,15.2,4.5c6.1,3,7.6,9.8,4.5,15.9c-0.8,2.3-3,3.8-4.5,4.5c-4.5,3-9.8,4.5-15.2,4.5
	c-5.3,0-10.6-1.5-15.2-4.5c-3-2.3-6.1-6.1-6.1-10.6C227.3,142.4,229.5,138.6,233.3,136.4z M203,182.6c0-0.8,0.8-1.5,1.5-1.5h60.6
	c0.8,0,1.5,0.8,1.5,1.5l0,0v133.3c0,0.8,0,2.3-1.5,2.3h-0.8h-34.1c-0.8,0-1.5-0.8-1.5-1.5l0,0V204.5h-24.2c-0.8,0-1.5-0.8-1.5-1.5
	L203,182.6L203,182.6z M500,485c0,8.3-5.9,15-13.1,15H13.1C5.9,500,0,493.3,0,485c0-8.2,5.9-15,13.1-15h473.8
	C494.1,470.1,500,476.8,500,485z"/>
</svg>
