<?xml version="1.0" encoding="utf-8"?>

<svg version="1.1" id="DESKTOP" xmlns="http://www.w3.org/2000/svg" xmlns:xlink="http://www.w3.org/1999/xlink" x="0px" y="0px"
	 viewBox="0 0 500 500" style="enable-background:new 0 0 500 500;" xml:space="preserve">
<style type="text/css">
	.st0{fill:#0088CE;}
	.st1{fill:none;}
	.st2{fill:#1387C9;}
	.st3{fill:#0F87C9;}
</style>
<path class="st0" d="M82.6,411.2h334.7c21.1,0,38.3-17.1,38.3-38.3V38.2c0-21.1-17.1-38.2-38.3-38.2H82.6
	C61.5,0,44.4,17.1,44.4,38.2v334.7C44.4,394.1,61.5,411.2,82.6,411.2z M119.3,77.6c0.1-1.8,1.5-3.2,3.3-3.2h52c1.3,0,2.6,0.8,3,2.1
	l73.2,184.2l72.8-184.2c0.5-1.2,1.7-2.1,3-2.1h49.9c1.8,0,3.2,1.4,3.3,3.2l9.3,255.9c0,0.9-0.3,1.7-0.9,2.4c-0.6,0.6-1.5,1-2.4,1
	h-45.6c-1.8,0-3.2-1.4-3.3-3.2l-4.6-153.3L271,334.7c-0.5,1.3-1.7,2.1-3,2.1h-36.3c-1.3,0-2.6-0.8-3-2.1l-62.1-155.4l-4.2,154.3
	c-0.1,1.8-1.5,3.2-3.3,3.2h-44.9c-0.9,0-1.8-0.4-2.4-1c-0.6-0.6-1-1.5-0.9-2.4L119.3,77.6z M486.9,469.9H13.1
	c-7.2,0-13.1,6.7-13.1,15c0,8.3,5.9,15,13.1,15h473.8c7.2,0,13.1-6.7,13.1-15C500,476.7,494.1,469.9,486.9,469.9z"/>
</svg>
