<?xml version="1.0" encoding="utf-8"?>

<svg version="1.1" id="DESKTOP" xmlns="http://www.w3.org/2000/svg" xmlns:xlink="http://www.w3.org/1999/xlink" x="0px" y="0px"
	 viewBox="0 0 500 500" style="enable-background:new 0 0 500 500;" xml:space="preserve">
<style type="text/css">
	.st0{fill:#0088CE;}
	.st1{fill:none;}
	.st2{fill:#1387C9;}
	.st3{fill:#0F87C9;}
</style>
<path class="st0" d="M322.7,287.2c7.9,0,14.2-3.7,14.2-11v-47.9H349l23.7,53.2c2,4.2,5.8,5.8,9.9,5.8c8.5,0,20.6-7.9,15.8-17.4
	l-22.6-47.4c13.7-6.9,25.3-19,25.3-40.6c0-28.4-21.1-41.6-41.6-41.6H320c-7.4,0-11.6,5.8-11.6,12.1v123.7
	C308.5,283.5,315.8,287.2,322.7,287.2z M336.8,164.5h10.1c13.1,0,24.8,5.8,24.8,20.5c0,17.9-16.3,22.1-26.3,22.1h-8.5V164.5z
	 M214.2,275.6V152.4c0-6.3,4.2-12.1,11.6-12.1h53.7c7.4,0,11.6,6.8,11.6,13.2c0,5.8-4.2,13.1-11.6,13.1h-36.8v33.2h33.1
	c7.4,0,11.6,5.8,11.6,12.1c0,5.8-4.3,12.1-11.6,12.1h-33.1v36.3h40c7.4,0,11.6,6.8,11.6,13.1c0,5.8-4.2,13.2-11.6,13.2h-54.2
	C221.6,286.7,214.2,283,214.2,275.6z M118.9,287.2c7.9,0,14.2-3.7,14.2-11v-47.9h12.1l23.6,53.2c2.1,4.2,5.8,5.8,10,5.8
	c8.5,0,20.6-7.9,15.8-17.4l-22.6-47.4c13.6-6.9,25.3-19,25.3-40.6c0-28.4-21.1-41.6-41.6-41.6h-39.5c-7.4,0-11.6,5.8-11.6,12.1
	v123.7C104.7,283.5,112.1,287.2,118.9,287.2z M133.1,164.5h10c13.1,0,24.8,5.8,24.8,20.5c0,17.9-16.3,22.1-26.3,22.1h-8.4V164.5z
	 M249.9,428.1c0,0,0.2,0,0.3,0c0.1,0,0.3,0,0.4,0c103.7,0,189.5-72.8,208.9-170.4c2.9-14,4.4-28.5,4.4-43.4
	c0-119.2-95.7-214.6-214-214.6C131.7-0.4,36.1,95.1,36.1,214.2C36.1,332.4,131.7,428.1,249.9,428.1z M249.9,31.5
	c100.5,0,182.1,81.7,182.1,182.8c0,100.3-81.7,182-182.1,182c-100.4,0-181.9-81.7-181.9-182C68,113.2,149.5,31.5,249.9,31.5z
	 M486.9,470H13.1C5.9,470,0,476.7,0,485c0,8.3,5.9,15,13.1,15h473.8c7.2,0,13.1-6.7,13.1-15C500,476.7,494.1,470,486.9,470z"/>
</svg>
