<?xml version="1.0" encoding="utf-8"?>

<svg version="1.1" id="DESKTOP" xmlns="http://www.w3.org/2000/svg" xmlns:xlink="http://www.w3.org/1999/xlink" x="0px" y="0px"
	 viewBox="0 0 667.4 500" style="enable-background:new 0 0 667.4 500;" xml:space="preserve">
<style type="text/css">
	.st0{fill:#0088CE;}
</style>
<g>
	<path class="st0" d="M35.6,0h596.2c19.7,0,34.8,15.9,34.8,35.6l0,0c0,20.5-15.9,35.6-35.6,35.6H35.6C15.9,72,0,55.3,0,35.6l0,0
		C0,15.9,15.9,0,35.6,0z"/>
	<path class="st0" d="M35.6,428.8h596.2c20.5,0,35.6,15.9,35.6,35.6l0,0c0,20.5-15.9,35.6-35.6,35.6H35.6C15.2,500,0,484.1,0,464.4
		l0,0C0,445.5,15.9,428.8,35.6,428.8z"/>
	<path class="st0" d="M35.6,214.4h596.2c20.5,0,35.6,15.9,35.6,35.6l0,0c0,20.5-15.9,35.6-35.6,35.6H35.6C15.2,285.6,0,268.9,0,250
		l0,0C0,231.1,15.9,214.4,35.6,214.4z"/>
</g>
</svg>
