<?xml version="1.0" encoding="utf-8"?>
<!-- Generator: Adobe Illustrator 22.0.1, SVG Export Plug-In . SVG Version: 6.00 Build 0)  -->
<svg version="1.1" id="Calque_1" xmlns="http://www.w3.org/2000/svg" xmlns:xlink="http://www.w3.org/1999/xlink" x="0px" y="0px"
	 viewBox="0 0 50 50" style="enable-background:new 0 0 50 50;" xml:space="preserve">
<style type="text/css">
	.st0{fill:#0088CE;}
</style>
<title>Icons/Interface/Mosaique</title>
<desc>Created with Sketch.</desc>
<g id="Icons_x2F_Interface_x2F_Mosaique">
	<g id="Fill-1">
		<path id="path-1_1_" class="st0" d="M50,24.7c0-2.3-1.9-4.2-4.2-4.2h-4.1c-2.3,0-4.2,1.9-4.2,4.2s1.9,4.2,4.2,4.2h4.1
			C48.1,28.9,50,27.1,50,24.7 M12.5,24.7c0-2.3-1.9-4.2-4.2-4.2H4.2c-2.3,0-4.2,1.9-4.2,4.2s1.9,4.2,4.2,4.2h4.1
			C10.6,28.9,12.5,27.1,12.5,24.7 M31.3,24.7c0-2.3-1.9-4.2-4.2-4.2h-4.1c-2.3,0-4.2,1.9-4.2,4.2s1.9,4.2,4.2,4.2h4.1
			C29.4,28.9,31.3,27.1,31.3,24.7 M50,7.2C50,4.9,48.1,3,45.8,3h-4.1c-2.3,0-4.2,1.9-4.2,4.2s1.9,4.2,4.2,4.2h4.1
			C48.1,11.4,50,9.5,50,7.2 M12.5,7.2c0-2.3-1.9-4.2-4.2-4.2H4.2C1.9,3,0,4.9,0,7.2s1.9,4.2,4.2,4.2h4.1
			C10.6,11.4,12.5,9.5,12.5,7.2 M31.3,7.2c0-2.3-1.9-4.2-4.2-4.2h-4.1c-2.3,0-4.2,1.9-4.2,4.2s1.9,4.2,4.2,4.2h4.1
			C29.4,11.4,31.3,9.5,31.3,7.2 M50,42.3c0-2.3-1.9-4.2-4.2-4.2h-4.1c-2.3,0-4.2,1.9-4.2,4.2c0,2.3,1.9,4.2,4.2,4.2h4.1
			C48.1,46.5,50,44.6,50,42.3 M12.5,42.3c0-2.3-1.9-4.2-4.2-4.2H4.2C1.9,38.1,0,40,0,42.3c0,2.3,1.9,4.2,4.2,4.2h4.1
			C10.6,46.5,12.5,44.6,12.5,42.3 M31.3,42.3c0-2.3-1.9-4.2-4.2-4.2h-4.1c-2.3,0-4.2,1.9-4.2,4.2c0,2.3,1.9,4.2,4.2,4.2h4.1
			C29.4,46.5,31.3,44.6,31.3,42.3"/>
	</g>
</g>
</svg>
