<?xml version="1.0" encoding="utf-8"?>
<!-- Generator: Adobe Illustrator 22.0.1, SVG Export Plug-In . SVG Version: 6.00 Build 0)  -->
<svg version="1.1" id="Calque_1" xmlns="http://www.w3.org/2000/svg" xmlns:xlink="http://www.w3.org/1999/xlink" x="0px" y="0px"
	 viewBox="0 0 50 50" style="enable-background:new 0 0 50 50;" xml:space="preserve">
<style type="text/css">
	.st0{fill:#0086D1;}
</style>
<title>Icons/Interface/Options</title>
<desc>Created with Sketch.</desc>
<g id="Icons_x2F_Interface_x2F_Options">
	<g id="Combined-Shape">
		<path id="path-1_1_" class="st0" d="M11.4,26c0,3.3-2.5,6-5.7,6C2.5,32,0,29.3,0,26s2.5-6,5.7-6C8.8,20,11.4,22.7,11.4,26z M50,26
			c0,3.3-2.5,6-5.7,6c-3.1,0-5.7-2.7-5.7-6s2.5-6,5.7-6C47.5,20,50,22.7,50,26z M30.7,26c0,3.3-2.5,6-5.7,6c-3.1,0-5.7-2.7-5.7-6
			s2.5-6,5.7-6C28.1,20,30.7,22.7,30.7,26z"/>
	</g>
</g>
</svg>
