<?xml version="1.0" encoding="utf-8"?>

<svg version="1.1" id="DESKTOP" xmlns="http://www.w3.org/2000/svg" xmlns:xlink="http://www.w3.org/1999/xlink" x="0px" y="0px"
	 viewBox="0 0 312.9 500" style="enable-background:new 0 0 312.9 500;" xml:space="preserve">
<style type="text/css">
	.st0{fill:#0088CE;}
</style>
<g>
	<path class="st0" d="M93.9,47V453c0,25-22,47-47,47l0,0c-25,0-47-22-47-47V47C0,22,22,0,47,0l0,0C72,0,93.9,22,93.9,47z"/>
	<path class="st0" d="M312.9,47V453c0,25-22,47-47,47l0,0c-25,0-47-22-47-47V47c0-25,22-47,47-47l0,0C290.9,0,312.9,22,312.9,47z"/>
</g>
</svg>
