<?xml version="1.0" encoding="utf-8"?>
<!-- Generator: Adobe Illustrator 21.0.2, SVG Export Plug-In . SVG Version: 6.00 Build 0)  -->
<svg version="1.1" id="Calque_1" xmlns="http://www.w3.org/2000/svg" xmlns:xlink="http://www.w3.org/1999/xlink" x="0px" y="0px"
	 viewBox="0 0 500 500" style="enable-background:new 0 0 500 500;" xml:space="preserve">
<style type="text/css">
	.st0{fill:#0F87C9;}
</style>
<path class="st0" d="M293.9,172.3c-5.9,0-10.7,4.8-10.7,10.7l0,0c0,5.9,4.8,10.7,10.7,10.7c0,0,28.9,0.1,39.7,0.2
	c2.4,6.9,8.5,24.5,12.6,36.5c-34.8,17.4-59.5,49.2-68.5,86.2c-9.6,0.8-31.1,3-41,4c-2.3-7.2-5.4-14.1-9.4-20.4l-27.1-69H211
	c6,0,10.7-4.8,10.7-10.7c0-6-4.8-10.7-10.7-10.7h-52.8c-6,0-10.7,4.8-10.7,10.7c0,6,4.8,10.7,10.7,10.7h19l14.5,37
	c-11.7-5.7-24.7-9-38.6-9c-48.4,0-87.9,39.4-87.9,87.8c0,48.5,39.4,87.9,87.9,87.9c39.7,0,73.3-26.5,84.1-62.7l28.5,2.7
	c0.8,0.1,1.6,0.1,2.3,0.1c13.9,0,26-11.4,27.5-26.5c0.1-0.9,0.1-1.7,0.1-2.6v-0.1c0-0.5,0-1,0-1.5c1-39.4,23.3-75.2,58-93.6
	l7.4,18.7c-27.8,14.8-46.8,44-46.8,77.6c0,48.5,39.4,87.9,87.9,87.9c48.4,0,87.9-39.4,87.9-87.9c0-48.4-39.4-87.8-87.9-87.8
	c-7.2,0-14.3,1-21,2.6l-10.5-26.6l-19.2-55.5c-1.5-4.3-5.6-7.3-10.1-7.3L293.9,172.3L293.9,172.3z M153.1,411.1
	c-35.3,0-64-28.7-64-64s28.7-64,64-64c26.9,0,49.8,16.6,59.3,40.1l-0.5,0.1l-58.4,6.5c-8.4,0.9-14.8,8.5-14.9,17.4
	c-0.2,8.9,6,16.4,14.4,17.2l58.2,5.4l1.6,0.1C203.5,394,180.3,411.1,153.1,411.1z M393.5,352.2c1.7,4.2,5.7,6.8,10,6.8
	c1.3,0,2.6-0.3,3.9-0.7c5.5-2.2,8.2-8.4,6.1-14l-23.6-59.9c4-0.8,8-1.2,12.2-1.2c35.3,0,64,28.7,64,64s-28.7,64-64,64
	s-64-28.7-64-64c0-23.5,12.8-44,31.7-55.1L393.5,352.2z M181.7,14.4L34.5,68.1C21.9,72.7,14.1,84.5,14,97.2l202.1-73.7
	C207.9,13.9,194.3,9.9,181.7,14.4z M44.4,186.5c5.9,16.2,23.8,24.5,40,18.6l147.2-53.6c16.2-5.9,24.5-23.8,18.6-40l-24.9-68.3
	l-205.8,75L44.4,186.5z M500,485c0,8.3-5.9,15-13.1,15H13.1C5.9,500,0,493.3,0,485c0-8.2,5.9-15,13.1-15h473.8
	C494.1,470.1,500,476.8,500,485z"/>
</svg>
