<?xml version="1.0" encoding="utf-8"?>
<!-- Generator: Adobe Illustrator 22.0.1, SVG Export Plug-In . SVG Version: 6.00 Build 0)  -->
<svg version="1.1" id="Calque_1" xmlns="http://www.w3.org/2000/svg" xmlns:xlink="http://www.w3.org/1999/xlink" x="0px" y="0px"
	 viewBox="0 0 50 50" style="enable-background:new 0 0 50 50;" xml:space="preserve">
<style type="text/css">
	.st0{fill:#0088CE;}
</style>
<title>Icons/Interface/Search</title>
<desc>Created with Sketch.</desc>
<g id="Icons_x2F_Interface_x2F_Search">
	<g id="Fill-9">
		<path id="path-1_1_" class="st0" d="M50,46.1c0,2.1-1.8,3.9-3.9,3.9h0c-1,0-1.9-0.4-2.6-1.1L33.1,38.6c-3.5,2.5-7.7,3.8-12,3.7
			c-2.8,0-5.6-0.6-8.2-1.7c-5.1-2.1-9.1-6.2-11.2-11.3c-2.2-5.3-2.2-11.2,0-16.4C3.8,7.9,7.8,3.8,13,1.7c5.2-2.2,11.2-2.2,16.4,0
			c5.1,2.1,9.1,6.2,11.2,11.3c2.8,6.6,2,14.3-2,20.2l10.3,10.3C49.6,44.1,50,45.1,50,46.1L50,46.1z M34.6,21.1
			c0-7.4-6-13.4-13.4-13.4c-7.4,0-13.4,6-13.5,13.5c0,7.4,6,13.5,13.5,13.5C28.6,34.6,34.6,28.6,34.6,21.1L34.6,21.1z"/>
	</g>
</g>
</svg>
