<?xml version="1.0" encoding="utf-8"?>
<!-- Generator: Adobe Illustrator 21.0.2, SVG Export Plug-In . SVG Version: 6.00 Build 0)  -->
<svg version="1.1" id="Calque_1" xmlns="http://www.w3.org/2000/svg" xmlns:xlink="http://www.w3.org/1999/xlink" x="0px" y="0px"
	 viewBox="0 0 616.1 500" style="enable-background:new 0 0 616.1 500;" xml:space="preserve">
<style type="text/css">
	.st0{fill:#0088CE;}
</style>
<path class="st0" d="M553,125.5c0,5.4,0,10.8,0,16.2c-0.8,198.6-162.4,359-361,358.3c-68-0.3-134.6-19.8-191.9-56.4
	c10,0.6,20,0.6,30,0c56.9,0.2,112.3-18.8,157.1-53.9c-54.1-1-101.6-36.3-118.2-87.8c7.9,1.5,15.9,2.3,23.9,2.3
	c11.2-0.1,22.3-1.6,33.1-4.6C67,287.5,24.7,235.7,24.6,175.6l0,0c17.6,9.8,37.3,15.2,57.4,15.8C26.8,154,10,80.3,43.5,22.7
	c64.2,79,159,127,260.7,132.1C288.7,86.6,331.4,18.7,399.6,3.1c43.5-9.9,89.1,3.8,119.9,36.1c28.3-5.6,55.4-16,80.1-30.8
	c-9.4,29.3-29.1,54.2-55.5,70.1c24.9-3.1,49.1-9.8,72-20C599.3,84.5,577.9,107.2,553,125.5z"/>
</svg>
