<?xml version="1.0" encoding="utf-8"?>
<!-- Generator: Adobe Illustrator 21.0.2, SVG Export Plug-In . SVG Version: 6.00 Build 0)  -->
<svg version="1.1" id="Calque_1" xmlns="http://www.w3.org/2000/svg" xmlns:xlink="http://www.w3.org/1999/xlink" x="0px" y="0px"
	 viewBox="0 0 500 500" style="enable-background:new 0 0 500 500;" xml:space="preserve">
<style type="text/css">
	.st0{fill:#0F87C9;}
</style>
<path class="st0" d="M500,485c0,8.3-5.9,15-13.1,15H13.1C5.9,500,0,493.3,0,485c0-8.2,5.9-15,13.1-15h473.8
	C494.1,470.1,500,476.8,500,485z M96.5,156.5c1,5.3,4,14.6,13.2,22.8h5.6c11.3-10.1,13.3-22,13.7-25.7
	C117.9,152.7,107,153.7,96.5,156.5z M106.8,184.6c-1.6,0-2.9,1.3-2.9,2.8V199c0,1.6,1.3,2.9,2.9,2.9h11.5c1.6,0,2.9-1.3,2.9-2.9
	v-11.5c0-1.6-1.3-2.8-2.9-2.8L106.8,184.6L106.8,184.6z M353.6,267.6c11.6,0,21-9.4,21-21s-9.4-21-21-21s-21,9.4-21,21
	S342.1,267.6,353.6,267.6z M280.2,245.2c1.5,4.1,6.2,6.3,10.4,4.9c4.2-1.5,6.4-6.2,4.9-10.5c-2-5.3-5.9-9.6-11-12
	s-10.9-2.7-16.3-0.7c-0.8,0.3-1.6,0.8-2.3,1.3c-3-1.6-6.4-2.5-9.8-2.5c-11.6,0-21,9.4-21,20.9c0,11.6,9.4,21,21,21s21-9.4,21-21
	c0-1.5-0.2-3.1-0.5-4.7c0.4,0.1,0.7,0.2,1,0.4C278.8,242.9,279.8,243.9,280.2,245.2z M61.4,121.6c6,2.1,12.7-1.1,14.9-6.9
	c0.6-1.8,2-3.2,3.7-4.1c0.5-0.2,0.9-0.4,1.5-0.5c-0.5,2.2-0.8,4.4-0.8,6.6c0,16.5,13.4,29.9,29.9,29.9c16.4,0,29.8-13.4,29.8-29.9
	c0-16.4-13.4-29.8-29.8-29.8c-4.9,0-9.7,1.2-14,3.5c-1-0.8-2-1.4-3.2-1.9c-7.6-2.8-15.9-2.4-23.2,1c-7.4,3.4-12.9,9.5-15.7,17.1
	C52.3,112.8,55.4,119.4,61.4,121.6z M137.5,274.5v-49.2c15.1,19.8,37.5,33.7,63.6,37c7.6,1,14.5-4.3,15.4-11.9
	c1-7.5-4.3-14.4-11.9-15.4c-33.8-4.3-59.5-33.4-59.7-67.5c0-6.2-4.2-11.5-10-13.1c-0.4,4.4-2.3,15.4-11.7,25.8
	c1.8,1,3.1,2.9,3.1,5.1v33.3c0,3.2-2.6,5.9-5.8,5.9h-16c-3.2,0-5.9-2.6-5.9-5.9v-33.3c0-2.2,1.3-4.1,3.1-5.1
	c-7.2-8-10-16.3-11.1-21.8c-10.3,3.5-20,8.6-28.8,15.5c-20.2,15.9-32.9,38.6-36,64.1c-1.2,9.6-0.8,19.3,0.9,28.7
	c1.4,7.5,8.6,12.4,16,11c6.7-1.2,11.3-7,11.3-13.5c0-0.8,0-1.7-0.2-2.5c-0.7-4-1.1-8.1-1.1-12.2c0-2.7,0.2-5.5,0.5-8.2
	c2.1-18.2,11.3-34.4,25.7-45.7c0.7-0.6,1.5-1.1,2.3-1.7L81.5,416c0,9.8,8.1,17.9,18,17.9c9.8,0,17.8-8,17.8-17.9
	c0,0,0.1-64,0.2-109.4c7.9,10.2,15.9,22.2,21.6,34.8c9.4,20.6,11.5,39.7,11.5,52.9c0,10.8-1.4,17.5-1.4,17.6c-0.3,1.3-0.5,2.7-0.5,4
	c0,8.2,5.6,15.6,13.9,17.4c9.6,2.3,19.1-3.6,21.4-13.2c0.4-1.8,10.1-44.2-12.3-93.5C162.5,306.5,149.3,288.5,137.5,274.5z
	 M433.8,26.2H140.2c-22.1,0-40.2,18-40.2,40.2v14.3c3.4-1,7-1.7,10.6-1.7c3.9,0,7.7,0.8,11.2,1.9V66.4c0-10.1,8.2-18.3,18.3-18.3
	h293.6c10.1,0,18.4,8.2,18.4,18.3v103.9c-28.5,15.3-82.6,9.3-129.4-15.7c-63.9-34.1-114.4-37.9-163.5-12.3
	c-5.1,2.6-10.4,5.2-15.6,7.5c5.3,3.8,8.8,9.8,9.1,16.6c5.1-2.3,10.3-4.8,15.2-7.4c43.1-22.4,87.7-18.1,145.9,12.2
	c13.1,6.9,40.5,17.9,62.3,22.4c12.3,2.4,24.3,3.7,35.6,3.7c15,0,28.6-2.3,40.3-6.7v29.6c0,10.1-8.2,18.3-18.4,18.3h-53.1
	c1,2.4,1.6,5.1,1.6,7.9c0,5.4-2.1,10.2-5.4,13.9h56.9c22.2,0,40.2-18,40.2-40.2V66.4C474,44.3,455.9,26.2,433.8,26.2z M381.4,283.2
	c-9.6-7.6-21.1-11.6-33.2-11.6c-2.2,0-4.3,0.2-6.5,0.4c-4.4,0.5-7.6,4.2-7.6,8.5c-0.1,16.7-11.4,36.4-26.9,41.7
	c-0.1-1.2,0-2.4-0.2-3.6c-3.3-26.9-26.3-47.3-53.4-47.3c-2.2,0-4.4,0.1-6.6,0.4c-4.3,0.5-7.6,4.2-7.6,8.6
	c-0.1,18.7-14.1,34.2-32.6,36.1c-4.8,0.5-8.2,4.8-7.7,9.6c0.5,4.7,4.7,8.3,9.5,7.7c12.4-1.3,23.7-6.8,32.3-15.5
	c-1.7,5.2-5.3,14.9-8.6,24c0,0-11.9,31.7-14.1,39.1c-8,24.5-3.6,44-3.4,44.9c1.3,5.6,7,9.1,12.6,7.8c4.8-1.1,8.2-5.5,8.2-10.3
	c0-0.8-0.1-1.5-0.3-2.3c0-0.1-0.8-4-0.8-10.3c0-6.9,1-16.7,5.2-27.4c4.5,0.1,9.9,0.2,14.8,0.3c0,20.7,0.1,39.9,0.1,39.9
	c0,5.8,4.7,10.5,10.5,10.5l0,0c5.8,0,10.5-4.7,10.5-10.5v-39.7c10,0,17.5-0.3,18.2-1c1.3-1.3-5.9-23.2-11.7-41.3l0,0
	c-3-9.3-5.7-17.9-6.7-21.8v-9.4c0.2-3.2,0.6-6.8,0.8-10.1l0.3-3.6c7.4,5.9,12.2,14.5,13.4,23.8c0.2,1.6,0.3,3,0.3,4.5
	c0,2.1-0.2,4.2-0.6,6.4c-0.1,0.5-0.1,1-0.1,1.5c0,4.2,3.1,7.3,7.1,8.5c2,0.6,5.8,0.2,10.5-1.3c12.2-2.8,22.8-14.1,31.1-24.7v25.4
	c-6.9,8.2-14.6,18.7-19.9,30.4c-13.1,28.9-7.5,53.8-7.2,54.9c1.3,5.6,6.9,9.1,12.5,7.7c4.8-1.1,8.1-5.4,8.1-10.2
	c0-0.8-0.1-1.6-0.3-2.3c0-0.1-0.8-4-0.8-10.3c0-7.7,1.3-18.9,6.8-31c3.4-7.4,8.1-14.4,12.7-20.4c0,26.7,0.1,64.2,0.1,64.2
	c0,5.8,4.7,10.5,10.5,10.5s10.5-4.7,10.5-10.5v-81.6l0,0v-45.1c7.4,6,12,14.5,13.1,23.9c0.2,1.6,0.2,3.1,0.2,4.4
	c0,2.2-0.2,4.4-0.6,6.5c-0.1,0.6-0.1,1.1-0.1,1.6c0,4.2,3,7.8,7.1,8.5c0.5,0.1,1.1,0.2,1.6,0.2c4.2,0,7.8-3,8.5-7.1
	c1-5.3,1.2-10.7,0.5-16.1C399.8,304.9,392.7,292.1,381.4,283.2z"/>
</svg>
