<svg viewBox="0 0 500 500"><path d="M280.329,375.3527c-93.8364,20.8093-175.606-60.96-154.7966-154.7967,10.4694-47.2743,48.6343-85.4392,95.9087-95.9087,93.8364-20.8093,175.5844,60.9387,154.7966,154.7751-10.4694,47.2959-48.6343,85.4392-95.9087,95.93M499,268.9961V231.0039a22.3913,22.3913,0,0,0-22.3852-22.3852h-6.1521a33.3049,33.3049,0,0,1-31.4515-22.7953,201.1074,201.1074,0,0,0-9.93-23.81,33.3146,33.3146,0,0,1,6.001-38.5966l4.4037-4.4036a22.37,22.37,0,0,0,0-31.6458L412.6325,60.4923a22.37,22.37,0,0,0-31.6458,0L376.2593,65.22a33.3716,33.3716,0,0,1-38.4671,6.0874,198.53,198.53,0,0,0-23.5077-9.714A33.3582,33.3582,0,0,1,291.36,30.077V23.3636A22.3682,22.3682,0,0,0,268.9961,1H230.9823a22.3682,22.3682,0,0,0-22.3636,22.3636v7.3826a33.3646,33.3646,0,0,1-22.73,31.4515,200.8253,200.8253,0,0,0-22.9465,9.6059,33.453,33.453,0,0,1-38.6613-6.001l-5.2887-5.31a22.3441,22.3441,0,0,0-31.6242,0L60.4707,87.3675a22.4093,22.4093,0,0,0,0,31.6458l5.6341,5.6124a33.41,33.41,0,0,1,6.0874,38.4887,197.0116,197.0116,0,0,0-9.39,22.6658,33.3989,33.3989,0,0,1-31.4947,22.8385H23.3636A22.359,22.359,0,0,0,1,231.0039v37.9922A22.3406,22.3406,0,0,0,23.3636,291.36h7.9438a33.4187,33.4187,0,0,1,31.4947,22.86,196.6783,196.6783,0,0,0,9.39,22.6442,33.3992,33.3992,0,0,1-6.0874,38.4887l-5.6341,5.634a22.4094,22.4094,0,0,0,0,31.6458l26.8968,26.8752a22.3832,22.3832,0,0,0,31.6242,0l5.2887-5.31a33.4581,33.4581,0,0,1,38.6613-6.0226,197.15,197.15,0,0,0,22.9465,9.6275,33.3373,33.3373,0,0,1,22.73,31.43v7.3826A22.3729,22.3729,0,0,0,230.9823,499h38.0138A22.3728,22.3728,0,0,0,291.36,476.6148v-6.7134a33.3582,33.3582,0,0,1,22.9248-31.5162,198.4137,198.4137,0,0,0,23.5077-9.6924,33.3716,33.3716,0,0,1,38.4671,6.0874l4.7274,4.7275a22.4093,22.4093,0,0,0,31.6458,0l26.8536-26.8752a22.37,22.37,0,0,0,0-31.6458l-4.4037-4.4036a33.32,33.32,0,0,1-6.001-38.5966,202.6308,202.6308,0,0,0,9.93-23.81A33.3247,33.3247,0,0,1,470.4627,291.36h6.1521A22.3729,22.3729,0,0,0,499,268.9961" fill="#0088ce" fill-rule="evenodd"/></svg>