<svg viewBox="0 0 500 500"><path d="M498.0053,189.8413a20.6765,20.6765,0,0,0-16.4341-14.4421l-147.5084-22.41-65.8359-139.54a19.941,19.941,0,0,0-36.4538,0l-65.9355,139.54-147.5084,22.41A20.5478,20.5478,0,0,0,1.9947,189.8413a21.71,21.71,0,0,0,5.1792,21.7129L113.8461,320.1188,88.6471,473.5036A21.7748,21.7748,0,0,0,96.7148,494.32a19.9288,19.9288,0,0,0,11.9521,4.0836,18.9418,18.9418,0,0,0,9.462-2.49L250,423.5041l131.8711,72.41a19.8973,19.8973,0,0,0,21.4141-1.5936,21.6921,21.6921,0,0,0,8.0676-20.8165L386.1539,320.1188,492.8261,211.5542a21.71,21.71,0,0,0,5.1792-21.7129Z" fill="#0088ce"/></svg>