<svg viewBox="0 0 500 500"><path d="M374.5,150.3731a25.2148,25.2148,0,0,1-24.9179-24.9179V50.791c0-13.5345,11.0248-24.9179,24.5594-24.9179s24.5594,11.3834,24.5594,24.9179l.6274,74.6642A25.1371,25.1371,0,0,1,374.5,150.3731ZM149.7905,125.4552V50.791c0-13.5345-11.0248-24.9179-24.5594-24.9179S100.6717,37.2565,100.6717,50.791v74.6642A25.2148,25.2148,0,0,0,125.59,150.3731C139.1242,150.3731,149.7905,138.99,149.7905,125.4552ZM324.6642,75.709v74.6641a24.9219,24.9219,0,0,0,24.9179,24.9179h49.6566a24.96,24.96,0,0,0,25.0075-25.0075V75.709a24.922,24.922,0,0,1,24.9179-24.918h24.918A24.922,24.922,0,0,1,499,75.709V424.291a49.844,49.844,0,0,1-49.8359,49.8359H50.8359A49.9781,49.9781,0,0,1,1,424.2014V75.709A24.922,24.922,0,0,1,25.9179,50.791h24.918c7.4395,0,24.9179,0,24.9179,24.918v74.6641a24.9219,24.9219,0,0,0,24.9179,24.9179h49.8359a24.9219,24.9219,0,0,0,24.9179-24.9179V75.709c0-18.2851,5.0194-24.918,12.4589-24.918s12.459,17.3888,12.459,24.918v74.6641a24.9219,24.9219,0,0,0,24.9179,24.9179h49.8359a24.9219,24.9219,0,0,0,24.9179-24.9179V75.709c0-7.44,0-24.918,12.459-24.918-.2689,0,12.19,0,12.19,24.918Zm-50.1048,49.7462.2689-74.6642a24.8731,24.8731,0,1,0-49.7462,0v74.6642A25.2148,25.2148,0,0,0,250,150.3731c13.5345,0,24.5594-11.3834,24.5594-24.9179Z" fill="#0088ce"/></svg>