<svg viewBox="0 0 500 500"><path d="M250,1C113.4484,1,1,113.4484,1,250S113.4484,499,250,499,499,387.3484,499,250,387.3484,1,250,1Zm18.8244,183.3636c0,15.8364-9.0636,30.1788-21.1152,40.0392-12.0516,9.7608-15.1392,13.5456-15.1392,22.6092s15.8364,17.33,21.1152,22.6092c23.406,17.33,28.6848,28.6848,28.6848,51.294,0,27.1908-30.1788,55.0788-78.4848,55.0788-43.7244,0-79.9788-17.33-79.9788-44.5212s30.1788-57.37,72.4092-57.37h13.5456c-6.0756-3.7848-11.3544-11.3544-11.3544-18.8244a25.7212,25.7212,0,0,1,3.7848-13.5456h-7.57c-28.6848,1.494-53.5848-21.1152-55.0788-49.8v-5.2788c0-30.1788,30.9756-57.37,68.6244-57.37h73.206l-15.8364,17.33H247.012c15.8364,5.2788,22.6092,21.1152,21.8124,37.7484ZM374.5,180.5788H340.5364v33.9636h-17.33V180.5788H289.2424v-17.33H323.206V129.2848h17.33v33.9636H374.5v17.33Z" fill="#0088ce"/><path d="M200.2,137.5516c-19.6212,0-32.47,19.6212-30.1788,44.5212,1.494,22.6092,18.8244,40.7364,42.23,44.5212,19.6212,0,30.9756-15.8364,27.1908-42.23C236.4544,159.4636,219.0244,137.5516,200.2,137.5516Zm7.57,143.424c-30.1788,0-55.0788,18.8244-55.0788,40.7364,0,22.6092,21.1152,40.7364,51.294,40.7364,40.7364,0,55.8756-17.33,55.8756-40.0392,0-2.2908,0-5.2788-1.494-7.57-3.7848-12.0516-15.8364-19.6212-32.47-30.9756-6.0756-1.3944-12.1512-2.8884-18.1272-2.8884Z" fill="#0088ce"/></svg>