<svg viewBox="0 0 500 500"><path d="M250,1C113.4484,1,1,113.4484,1,250S113.4484,499,250,499,499,387.3484,499,250,387.3484,1,250,1Zm99.6,314.6364c9.0636,9.0636,9.0636,24.9,0,33.9636s-24.9,9.0636-33.9636,0L250,283.9636,184.3636,349.6c-9.0636,9.0636-24.9,9.0636-33.9636,0s-9.0636-24.9,0-33.9636L216.0364,250,150.4,184.3636c-9.0636-9.0636-9.0636-24.9,0-33.9636s24.9-9.0636,33.9636,0L250,216.0364,315.6364,150.4c9.0636-9.0636,24.9-9.0636,33.9636,0s9.0636,24.9,0,33.9636L283.9636,250Z" fill="#0088ce"/></svg>