<svg viewBox="0 0 500 500"><path d="M106.6925,420.8539c0-19.8257,15.0162-34.9865,34.6528-34.9865s34.6529,15.1608,34.6529,34.9865a34.6544,34.6544,0,1,1-69.3057,0Zm108.0014-21.575c-9.2408-32.6541-38.6957-56.5615-73.3486-56.5615s-64.1077,23.9074-73.3485,56.5615H22.3705a21.4183,21.4183,0,0,0-21.3692,21.575c0,12.2452,9.2407,21.575,21.3692,21.575H67.9968c9.2408,32.654,38.6957,56.5556,73.3485,56.5556s64.1078-23.9016,73.3486-56.5556H477.6064a21.4221,21.4221,0,0,0,21.3692-21.575c0-12.2511-9.2407-21.575-21.3692-21.575ZM175.9982,79.1525c0,19.8257-15.0162,34.9865-34.6529,34.9865s-34.6528-16.327-34.6528-34.9865S122.8638,44.166,141.3453,44.166A34.9178,34.9178,0,0,1,175.9982,79.1525ZM67.9968,100.7275c9.2408,32.6541,38.6957,56.5615,73.3485,56.5615s64.1078-23.9074,73.3486-56.5615H477.6064a21.422,21.422,0,0,0,21.3692-21.575c0-12.2453-9.2407-21.575-21.3692-21.575H214.6939C205.4531,24.9235,175.9982,1.016,141.3453,1.016S77.2376,24.9235,67.9968,57.5775H22.3705A21.422,21.422,0,0,0,1.0013,79.1525c0,12.2453,9.2407,21.575,21.3692,21.575ZM325.7114,250.0032c0-19.8257,15.0162-34.9865,34.6528-34.9865s34.6529,15.1608,34.6529,34.9865a34.6544,34.6544,0,1,1-69.3057,0Zm107.876-21.575c-9.2408-32.6541-38.6957-56.5615-73.3485-56.5615s-64.1078,24.49-73.9261,56.5615H22.3705a21.576,21.576,0,0,0,0,43.15H286.3128c9.2408,32.6541,38.6957,56.5615,73.3485,56.5615s64.1078-23.9074,73.3486-56.5615l44.5965-.0058a21.4221,21.4221,0,0,0,21.3692-21.575,20.5882,20.5882,0,0,0-20.7917-21.575Z" fill="#0088ce" fill-rule="evenodd"/></svg>