<svg viewBox="0 0 500 500"><path d="M331.8 127.3c16.7 0 29.5-13.6 29.5-29.5 0-16.7-13.6-29.5-29.5-29.5s-29.5 13.6-29.5 29.5c-.1 16.6 13.6 29.5 29.5 29.5zm88.6 99.2c-34.1-4.5-59.1-33.3-59.1-67.4 0-3.8-2.3-7.6-5.3-9.8-1.5-1.5-3-3-5.3-3.8-24.2-9.1-50-8.3-73.5 2.3-32.6 14.4-54.5 45.5-56.8 81.1 0 4.5 1.5 8.3 4.5 11.4l-19.7 23.5-3.8 4.5c-1.5-3.8-3.8-6.8-6.8-9.1L168.1 238c-4.5-3.8-10.6-5.3-16.7-5.3h-2.3c-6.8.8-12.9 3.8-16.7 9.1L70.3 316c-3.8 4.5-6.1 10.6-5.3 17.4.8 6.8 3.8 12.9 9.1 17.4L100 372c-.8 0-2.3.8-3 .8-11.4 4.5-17.4 17.4-12.9 29.5 4.5 11.4 17.4 17.4 29.5 12.9 9.1-3.8 14.4-12.1 14.4-21.2 0-4.5-1.5-9.1-3.8-12.9l118.2-140.2c1.5-.8 2.3-2.3 3-3.8l.8-1.5c.8-1.5.8-3 .8-3.8.8-6.8 2.3-13.6 4.5-19.7 6.8-16.7 19.7-30.3 36.4-37.9 4.5-2.3 9.8-3.8 15.2-4.5v89.4c-.8 18.2-6.1 36.4-14.4 53-9.8 15.9-25.8 27.3-43.9 32.6-9.8 2.3-15.9 11.4-13.6 21.2 2.3 9.8 11.4 15.9 21.2 13.6 28-6.8 52.3-25 67.4-49.2 1.5-2.3 2.3-4.5 3.8-6.8v78.8c0 9.8 8.3 18.2 18.2 18.2 9.8 0 18.2-8.3 18.2-18.2l.8-165.9v-9.1c15.2 15.9 34.8 25.8 56.1 28.8 7.6.8 14.4-4.5 15.2-11.4 1.2-10.6-4.1-17.4-11.7-18.2zM500 485c0 8.3-5.9 15-13.1 15H13.1C5.9 500 0 493.3 0 485c0-8.2 5.9-15 13.1-15h473.8c7.2.1 13.1 6.8 13.1 15z" fill="#0088ce"/></svg>