<svg version="1.1" id="DESKTOP" x="0" y="0" viewBox="0 0 500 500" xml:space="preserve"><path d="M467.3 370.8l-186-348.4C273.6 8.1 262.2 0 250 0c-12.1 0-23.6 8.1-31.1 22.3L32.8 370.8c-7.5 13.9-8.3 28.4-1.9 39.7 6.4 11.1 18.8 17.6 34.2 17.6H435c15.4 0 27.9-6.5 34.1-17.6 6.4-11.3 5.7-25.7-1.8-39.7zm-217.3 8c-13.1 0-23.5-11-23.5-24.7 0-13.5 10.4-24.5 23.5-24.5s23.6 11 23.6 24.5c0 13.7-10.6 24.7-23.6 24.7zm18.7-87.4c-.4 10-9.2 18.2-18.7 18.2s-18.3-8.2-18.7-18.2l-10-156.3c-.4-10 7.2-18.1 16.8-18.1h23.8c9.6 0 17.1 8.2 16.9 18.1l-10.1 156.3zM486.9 470H13.1C5.9 470 0 476.7 0 485s5.9 15 13.1 15h473.8c7.2 0 13.1-6.7 13.1-15s-5.9-15-13.1-15z" fill="#0088ce"/></svg>