<svg viewBox="0 0 500 500"><path d="M434.8 384.9l-2.3-3.8c.8-.8.8-2.3 0-3-.8-1.5.8-2.3 0-3.8s1.5-4.5 0-5.3-.8-3-2.3-1.5-2.3 3-2.3 5.3v6.8s-2.3-3.8-3-3c-.8.8-.8 2.3-3.8 3.8-1.5 1.5-3 2.3-5.3 2.3-1.5 0-3 .8-3.8 1.5-.8.8-1.5 2.3-2.3 3-.8.8-1.5.8-2.3 3-.8 2.3-1.5 1.5 0 2.3s3 2.3 4.5 3c0 0-3.8-1.5-3.8 0-.8.8-.8 2.3 0 3 .8.8 1.5 1.5 3 2.3.8.8 3.8 0 1.5 1.5l-1.5 1.5c-2.3 2.3-3 2.3-2.3 3 .8.8 0 1.5 2.3 1.5h3l-.8 1.5c-.8.8 1.5.8-.8 2.3s-3 0-1.5 1.5c1.5.8 2.3 1.5 3.8 1.5 0 0 3 1.5 2.3 1.5-.8 0-2.3 1.5-2.3 2.3 0 1.5.8 1.5 2.3 3s4.5 1.5 4.5 2.3.8 1.5 1.5 2.3c.8.8 1.5 1.5 2.3 1.5h1.5c.8-.8 1.5-1.5 1.5-2.3.8-1.5-1.5 0 .8-2.3s3.8-3 1.5-3.8-3.8-1.5-1.5-1.5c1.5 0 2.3-.8 3.8-1.5-.8-3-.8-6.1 0-9.1 1.5-3.8 1.5-2.3 2.3-6.1.8-3.8 1.5-3 1.5-6.1-1.2-2.9-1.2-6.7-2-10.4zm-28-56.1c0-1.5-.8 0-.8-1.5s1.5-3 0-3 0 .8-2.3 1.5h-5.3c-.8 0-.8 1.5-2.3 0s0 0-2.3-.8-2.3-2.3-4.5-2.3c-2.3 0-2.3 0-3-.8-.8-.8-1.5-2.3-2.3-3s-1.5-1.5-.8-2.3 3-.8 1.5-1.5c-1.5-.8-3-.8-2.3-2.3.8-1.5.8-1.5.8-2.3s.8-2.3 1.5-3 0-2.3 1.5-2.3 3 .8 2.3 0c-.8-.8-1.5-.8-1.5-2.3 0-.8 0-2.3-.8-3 0-.8-.8 0-3-.8-2.3-.8-3-.8-3-1.5v-2.3c0-1.5 0-3-1.5-3s-1.5 0-1.5-1.5-1.5-3 0-3 0 .8 1.5 0 2.3-.8 3.8-.8 1.5 0 2.3-.8 1.5-1.5 2.3-1.5 1.5 0 2.3-.8 3-1.5 1.5-2.3 0-.8.8-2.3 1.5-2.3 0-2.3c-.8-.8-1.5-.8-2.3-1.5-1.5-1.5-1.5 0-1.5-2.3s-.8-3-1.5-3c-.8 0 2.3-.8 0-2.3s-1.5 0-2.3-1.5-2.3-1.5-2.3-2.3 0-3.8 1.5-3.8 1.5 1.5 3 0 3.8-1.5 3-3.8c-.8-2.3-1.5-1.5-2.3-2.3s-.8-1.5-1.5-1.5-.8 0-.8-.8 1.5-1.5 0-1.5-1.5 0-2.3-.8-.8-1.5 0-2.3 2.3-5.3.8-5.3h-1.5s-1.5-2.3 0-3l1.5-.8s-.8-.8-1.5 0c-2.3 0-4.5.8-6.1.8-.8.8-2.3 1.5-3.8 1.5s-1.5-.8-1.5-1.5c-.8 0-.8 0-1.5.8-.8 0-2.3 0-1.5 1.5.8.8.8 1.5.8 2.3s2.3 1.5 1.5 2.3c-.8 0-1.5.8-3 1.5-.8.8-1.5 2.3-3 1.5s-3-.8-3-.8c0-.8.8-1.5 1.5-2.3.8-.8 1.5-1.5 2.3-1.5.8-.8.8-2.3 1.5-3 0-.8.8-1.5 0-2.3s-2.3 0-1.5-1.5 1.5-3 1.5-4.5c0-.8.8-.8 1.5-2.3.8-1.5 6.1-4.5 6.8-6.8s1.5-3.8.8-4.5c-.8-.8-.8-1.5 0-1.5.8-.8 1.5-.8 3-1.5l5.3-5.3c2.3-1.5 3.8-3 4.5-6.1.8-1.5.8-.8 2.3-2.3s3-3 .8-3c-2.3 0-3.8.8-3.8.8s.8-1.5 1.5-2.3c.8-.8-4.5-.8-2.3-1.5 2.3-.8 4.5-1.5 5.3 0s-.8 2.3 1.5 2.3 1.5.8 3.8 0c1.5-.8 2.3-1.5 3.8-2.3.8-.8 0 0 .8-1.5s3.8-.8 2.3-2.3-3.8-1.5-2.3-3.8 0-4.5.8-6.1l.8-.8v-.8c0-.8 2.3-3 1.5-3.8s-.8-1.5 0-4.5 1.5-5.3 3-8.3c1.5-3.8 0-5.3 1.5-8.3.8-2.3 2.3-3.8 3.8-6.1s.8-3 2.3-3.8 1.5 0 2.3-.8.8-3.8 2.3-5.3 3-2.3 2.3-2.3c-2.3 0-3.8-.8-6.1-2.3-.8-.8-1.5-2.3-2.3-2.3s0 1.5-3 0-4.5.8-6.1-.8c-1.5-1.5-3-.8-3-1.5 0-.8.8-2.3-.8-2.3h-3c-.8 0-1.5 1.5-2.3 1.5h-3.8s-1.5.8-1.5 0-.8-2.3-1.5-3c-.8-.8-1.5-.8-2.3-1.5-.8 0-1.5 0-2.3.8s0 2.3-.8 2.3-2.3 0-2.3-1.5-1.5-2.3-.8-2.3-1.5-2.3-2.3-2.3 0-.8 0-2.3-.8-3-1.5-3.8c-.8-.8-2.3-.8-3.8-.8s-1.5-2.3-3.8-2.3-2.3.8-3.8 1.5-2.3 1.5-3 .8c-.8-.8-1.5-1.5-2.3-1.5s-.8 0-1.5-.8c-.8-.8-2.3-2.3-3-1.5-.8.8-.8.8-2.3.8s-1.5-.8-2.3 0-2.3.8-3 1.5c-.8 0 0 3-1.5 0s-.8-3-1.5-3.8c-.8-.8-.8 0-1.5-1.5-.8-.8-1.5-1.5-3-1.5-.8 0-1.5-.8-2.3-1.5 0-.8-.8-1.5-1.5-2.3-.8-.8-1.5-.8-1.5-.8s0-1.5-1.5-1.5-2.3.8-2.3 0v-3-2.3c0-1.5-.8-.8-.8-2.3s-.8-1.5 0-3c.8-.8 1.5-2.3 1.5-3 0-.8.8-2.3 0-2.3-1.5 0-2.3.8-3 1.5-.8.8-1.5.8-1.5 1.5v3c0 .8 0 1.5-.8 1.5s-1.5 0-2.3.8c0 0-3.8 1.5-6.1.8-2.3-.8-1.5-.8-2.3-.8s-1.5 0-2.3-1.5-1.5-1.5 0-2.3 3-1.5 2.3-2.3c-.8-.8-1.5 0-1.5-1.5s-.8 0 0-3 3-3.8 1.5-3.8-.8-.8-3-1.5c-2.3-.8-2.3-1.5-3-1.5-.8 0-.8-.8-2.3 0s0 .8-3 .8-1.5-.8-3 0-.8 3-1.5.8-3-3-4.5-3.8-2.3.8-3-.8c-.8-1.5-.8-2.3-1.5-1.5-.8.8-2.3 3.8-3.8 1.5-.8-2.3-2.3-4.5-2.3-6.8 0-.8-.8-2.3-1.5-3-.8-.8-.8-3-2.3-3s-2.3.8-3 1.5c-.8.8-1.5 2.3-2.3 2.3s-2.3 0-3-1.5c-.8-1.5-.8-1.5-1.5-2.3-.8-.8-1.5 0-2.3-.8s-1.5 0-1.5-1.5-.8-3.8-.8-4.5.8-2.3 0-3.8l-1.5-1.5c-2.3 1.5-3.8 2.3-6.1 2.3s-6.1-1.5-4.5-.8c1.5.8 4.5 1.5 0 1.5-3.8 0-6.8 1.5-9.8 3-2.3 1.5-5.3 1.5-4.5 3s1.5 2.3.8 3.8c-.8 1.5-1.5.8-1.5 2.3 0 1.5-.8.8 0 3.8S241 73 241 73s-1.5-.8-1.5 1.5-.8 3 .8 3.8 1.5 0 0 .8-2.3 1.5-1.5 3 1.5 1.5 2.3 3 2.3 1.5 0 1.5-3.8-.8-4.5.8c-.8.8-.8 2.3-1.5 3-3 2.3-6.1 4.5-9.1 6.8-3 1.5-6.8 3-10.6 3-2.3 0-.8-.8-4.5.8-3.8 1.5-5.3 3-7.6 4.5-1.5.8-2.3 1.5-3.8 2.3 0 0 1.5-.8 0 1.5s-3.8 3.8-2.3 6.1 2.3 2.3 3 2.3c.8 0 0 1.5 0 1.5h3c3.8-1.5 7.6-.8 4.5-.8-1.5 0-3 .8-4.5.8l-.8.8c-3.8 2.3-6.8 2.3-7.6 3.8s0 0-3 1.5l-3 1.5c.8-.8.8-1.5 0-1.5-2.3-1.5-4.5-2.3-6.8-3-3-.8-7.6-.8-8.3-.8s-1.5-2.3-4.5-.8c-3 .8-1.5 2.3-2.3 3-.8.8-.8 0-.8-.8 0-3-2.3-5.3-3-6.8-.8-1.5-3-.8-.8-3 2.3-2.3 2.3-1.5 2.3-3s1.5-3-3-2.3c-2.3 0-4.5.8-6.1 2.3-.8 0-3 .8-3.8 0s-.8-.8-2.3-1.5c-1.5-.8-.8-1.5-2.3-1.5s-2.3-2.3-2.3 0 .8 2.3 1.5 3c.8.8-.8.8 0 2.3s-.8 2.3 0 3.8 1.5.8 1.5 2.3-.8 2.3 0 3.8 1.5.8 2.3 1.5c.8.8.8 1.5 1.5 2.3.8.8-.8 0 .8 1.5l1.5 1.5c0-2.3 1.5.8 1.5.8-.8 0-.8 0-1.5-.8v1.5c0 4.5-1.5 6.1 0 6.8 1.5.8 3-2.3 2.3 0s0 3-1.5 4.5-2.3 0-1.5 2.3 1.5 3.8 3 6.1l1.5.8c.8 0 1.5.8 3 .8-3 .8-6.1.8-9.1.8-1.5 0-6.1.8-5.3-.8.8-1.5 2.3-3.8.8-3s-2.3 1.5-3.8 3-5.3-2.3-6.8-.8-1.5 3.8-1.5 1.5c0-1.5-.8-2.3-1.5-2.3-.8 0 .8-3-1.5-1.5s-3 .8-4.5 3c-.8.8-1.5 2.3-3 3-1.5.8-3 3-3 1.5s0-.8-1.5-2.3-.8-1.5-2.3-3.8-2.3-1.5-2.3-3 2.3-1.5 0-1.5-3 1.5-2.3-.8c.8-2.3 1.5-3 0-2.3-.8 0-.8.8-1.5.8.8.8-.8.8-.8.8l.8-.8s0-.8-.8-.8c-1.5-1.5.8-3.8-1.5-1.5s-2.3 3-2.3 2.3c0-.8 1.5-2.3-1.5-.8s-4.5.8-5.3 0-1.5-1.5-1.5.8 2.3 1.5 1.5 3-1.5 1.5-3 2.3-1.5 0-3-.8-3-2.3-3 0 .8 2.3 0 2.3h-1.5c0 .8-1.5.8-1.5.8l1.5-.8s0-.8-1.5-1.5c-3-2.3-3-1.5-5.3-.8-.8 0-2.3.8-3 1.5-1.5.8 0-2.3-4.5 0-3 .8-5.3 2.3-7.6 3.8-1.5 1.5-2.3 1.5-3 3-.8 1.5 0 2.3 0 3.8s-1.5 3 0 3.8.8.8 3 0 2.3-1.5 3.8-1.5 1.5-.8 2.3 0c.8 1.5 2.3 2.3 3.8 3.8.8 0 .8 1.5-1.5 0s-3-2.3-3.8-1.5.8 0-.8 1.5c-1.5 1.5-1.5.8-.8 2.3.8 1.5-.8 1.5 0 2.3s2.3 0 3-.8c.8-.8 1.5-1.5 3 0s3.8 2.3 3 3.8-.8.8-3.8.8-3-.8-4.5 0-3.8-1.5-3.8-.8c0 .8 1.5.8 3.8 2.3s2.3 0 3.8.8 1.5 6.1 1.5 6.8c0 .8 1.5 1.5 3 .8 1.5-.8 2.3-1.5 2.3-2.3s2.3-.8 3-.8h3c.8 0 0-3 1.5-1.5s.8 3 2.3 3.8 1.5.8 3 0 3-1.5 3 0-.8 1.5.8 2.3c1.5.8 2.3.8 3.8 1.5.8.8 2.3.8 3 .8s.8-1.5 2.3.8 2.3 2.3 2.3 4.5-.8 4.5.8 3.8.8-4.5 3-3.8c2.3.8 4.5 0 5.3 1.5s0 1.5 2.3 1.5c2.3-.8 3.8-1.5 5.3-1.5s4.5 0 3.8 1.5c-.8 1.5-2.3 2.3-1.5 3 .8.8-1.5.8-1.5 2.3 0 .8 0 2.3.8 3 .8.8 0 .8 2.3 1.5 1.5 0 2.3.8 3.8.8.8 0 4.5-2.3 6.1-2.3 1.5 0 6.1-1.5 1.5 0-4.5 1.5-5.3 1.5-5.3 3s-2.3 1.5-1.5 2.3 0 .8 2.3 1.5 3.8.8 4.5 2.3-3 6.8-3.8 5.3c-.8-.8-1.5-2.3-1.5-3.8 0-.8-3-3-3-.8s.8 2.3 1.5 3.8c.8 1.5 2.3.8 2.3 3s-.8 1.5 1.5 3.8 4.5 3 6.1 4.5c.8 1.5 1.5 3 2.3 5.3 0 .8-.8.8 1.5 2.3s4.5 1.5 6.1 3c1.5 1.5 1.5.8 2.3 1.5 1.5.8.8.8 3 1.5 1.5 0 3.8.8 5.3 1.5.8.8 0 1.5-.8 3s-.8 3-2.3 1.5 0-1.5-2.3-2.3-5.3-2.3-6.1-.8-.8 1.5.8 2.3c1.5.8 2.3 0 3.8 1.5s2.3.8 3.8.8 3 0 3.8.8 2.3 2.3 2.3 3-1.5 0-1.5.8 0 .8-.8 3c-.8 2.3.8 4.5-.8 3.8-1.5-.8-2.3.8-2.3-1.5s.8-3-.8-3.8c-1.5-.8-3-3-3.8-2.3-.8.8-1.5.8-.8 2.3.8 1.5 1.5 2.3 2.3 3.8.8.8 1.5.8 2.3 2.3s-.8 1.5 1.5 2.3 3.8 1.5 1.5.8c-2.3-.8-3-2.3-2.3-.8.8 1.5-.8 1.5.8 3s0 0 5.3 3 8.3 5.3 12.9 22c-.8 1.5-5.3-1.5-4.5-6.1.8-4.5-1.5-5.3-3.8-7.6-1.5-1.5-3-3-3.8-4.5 0-.8 0-2.3-1.5-1.5s-2.3.8-2.3 3c0 2.3-.8 6.8 0 7.6s2.3 1.5 2.3 3 .8 3.8 0 3.8-1.5-6.1-2.3-3.8c-.8 2.3-.8 2.3 0 5.3v14.3c0-1.5 0-6.1 3.8-3.8s5.3 3.8 2.3 3.8-4.5-.8-5.3 0-.8.8-1.5 2.3c-.8 1.5-.8-1.5 0 3 0 5.3-.8 9.8-2.3 15.2-.8 2.3-2.3 9.8-3 12.1 0 2.3-.8 5.3-2.3 7.6-1.5 3-3 5.3-5.3 7.6l-1.5.8c-.8.8 1.5 1.5 1.5 1.5.8.8 2.3 1.5 3.8 1.5h.8c.8 0 1.5.8 3.8 1.5s0 3.8-.8 5.3-.8.8 0 2.3 1.5-.8 2.3-1.5c0-.8.8-.8 1.5-.8s1.5 2.3 1.5 2.3c.8.8 2.3.8 3 1.5 2.3.8 2.3 1.5 3.8 2.3s2.3-.8 5.3-1.5c3-.8 1.5 1.5 1.5 2.3.8.8.8 2.3 1.5 3l2.3 2.3c.8.8 1.5-1.5 2.3-1.5h2.3c1.5 0 0 0 3.8-.8s.8.8 2.3 1.5c1.5.8 2.3 2.3 3 3.8.8.8 1.5 1.5 3 .8 1.5-.8 3-1.5 4.5-1.5 2.3-.8 2.3 1.5 2.3 2.3s.8-.8 1.5-.8c.8 0 1.5 0 4.5.8s3-.8 4.5 0 1.5-.8.8-1.5c-.8-.8-1.5-3.8 0-5.3s3 .8 6.8 2.3 2.3.8 3.8.8 2.3 1.5 3 1.5h4.5c3.8 0 1.5 2.3 2.3 3.8s0 1.5 1.5.8c1.5-.8.8-1.5 2.3-2.3s0 0 3 .8 1.5.8 2.3 1.5c.8.8 0 .8 0 3.8s0 .8 1.5 1.5c1.5.8 1.5 1.5 3.8 0s1.5 0 1.5.8-.8 0-.8 1.5.8.8 1.5.8h2.3c.8 0 .8-.8 3-2.3 2.3-1.5 0 0 1.5 0s2.3.8 4.5 1.5c2.3.8 1.5 2.3 2.3 2.3h2.3c2.3 0 0-.8.8-2.3s1.5-1.5 3-1.5 3-.8 3.8-.8c1.5-.8 2.3 0 3.8 1.5.8.8 1.5.8 2.3.8l.8-.8c.8 0 .8-1.5-.8-3-1.5-.8-2.3-2.3-2.3-3.8v-3.8-6.1-3.8c.8-4.5 3.8-8.3 8.3-9.8 2.3 0 3 .8 3.8 0s.8-1.5 1.5-2.3c0-.8.8-1.5 1.5-2.3 0 0 0-2.3.8-1.5s-.8 2.3 2.3 1.5c1.5-.8 3-1.5 4.5-2.3s0-.8 1.5-2.3 1.5-1.5 3-2.3 3-2.3 2.3 0c-.8 2.3-1.5 2.3-1.5 3 0 .8 0 1.5 1.5.8 1.5-.8 1.5-1.5 2.3-.8.8.8 1.5-.8 2.3-1.5s2.3-1.5 1.5 0-2.3 2.3 0 2.3h2.3c.8 0 1.5-1.5 2.3-.8.8.8 0 2.3.8 1.5s0-1.5.8-.8.8 1.5.8 2.3 1.5 0 2.3 0h3c.8 0 0-1.5.8-2.3s.8-.8 2.3 0 2.3 1.5 3 .8l.8-.8c0-.8 0-1.5.8-2.3s2.3 0 3 .8c.8.8 0 1.5-.8 2.3s-3 2.3-2.3 3c.8.8 1.5 2.3 3 1.5s3-2.3 3.8-1.5 2.3.8 1.5 1.5-2.3.8-1.5 1.5c.8.8 0 .8 1.5 2.3 1.5.8 2.3 1.5 3.8 1.5s1.5.8 2.3 0 1.5-1.5 2.3 0 3 1.5 3 2.3-.8 2.3 1.5 2.3 2.3-.8 2.3-1.5c0-.8-2.3-1.5 0-.8 1.5 0 3 .8 4.5.8.8 0 0 1.5.8 2.3s.8 0 .8-.8-1.5-1.5.8-1.5 3-.8 3.8 0 .8 1.5 1.5.8c.8-.8 0-1.5.8-1.5s2.3-.8 3-1.5c.8-.8 2.3-.8 2.3 0s.8 1.5 1.5 0 2.3-2.3.8-3-3 0-2.3-1.5c.8-1.5 1.5-.8 2.3-2.3s.8-2.3 2.3-2.3 2.3 0 3-.8 0-2.3 2.3-3c2.3-.8 2.3 0 3-.8.8-.8 1.5-.8 1.5-1.5s0-1.5.8-2.3 1.5-.8 2.3-1.5.8-.8 1.5-.8c.8 0 .8 1.5 1.5 0s-.8-.8.8-1.5c1.5-.8.8-.8 1.5-1.5.8-.8 1.5 0 1.5-.8v-2.3c0-.8-.8 0 0-1.5s1.5-2.3 2.3-3c.8 0 1.5-.8 1.5-1.5.8-.8 0-1.5.8-1.5 0 .6-1.5-.9-1.5-2.4zM500 485c0 8.3-5.9 15-13.1 15H13.1C5.9 500 0 493.3 0 485c0-8.2 5.9-15 13.1-15h473.8c7.2.1 13.1 6.8 13.1 15z" fill="#0088ce"/></svg>