<svg viewBox="0 0 500 500"><path d="M245.5 129.6c-41.7.8-75.8 34.8-75 77.3 0 25.8 12.9 49.2 25 70.5 9.8 18.2 19.7 34.8 19.7 51.5v4.5c0 3.8 3 6.8 6.8 6.8h48.5c3.8 0 6.8-3 6.8-6.8v-5.3c0-16.7 9.8-34.1 19.7-53.8 11.4-22 24.2-44.7 24.2-68.2-.7-41.7-34.1-75.8-75.7-76.5zm28 222.7l-52.3 8.3c-4.5.8-7.6 4.5-6.8 9.1.8 3.8 3.8 6.8 7.6 6.8h.8l52.3-8.3c4.5-.8 7.6-4.5 6.8-9.1-.1-3.8-3.1-6.8-8.4-6.8.7 0 .7 0 0 0zm0 20.4l-52.3 8.3c-4.5.8-7.6 4.5-6.8 9.1.8 3.8 3.8 6.8 7.6 6.8h.8l52.3-8.3c4.5-.8 7.6-4.5 6.8-9.1-.1-4.5-3.9-7.5-8.4-6.8.7 0 .7 0 0 0zm-6.1 28.1h-34.8c-4.5 0-8.3 3.8-8.3 8.3s3.8 8.3 8.3 8.3h34.8c4.5 0 8.3-3.8 8.3-8.3-.7-5.3-3.7-8.3-8.3-8.3zm119-200.8h-18.9c-5.3.8-9.8 5.3-9.1 10.6.8 4.5 4.5 9.1 9.1 9.1h18.9c5.3-.8 9.8-5.3 9.1-10.6 0-5.3-4.6-9.1-9.1-9.1zm-244 9.9c0-5.3-3.8-9.8-9.1-9.8h-19.7c-5.3.8-9.8 5.3-9.1 10.6.8 4.5 4.5 9.1 9.1 9.1h18.9c5.4-.1 9.9-4.6 9.9-9.9zm209.1-55.3c1.5 0 3-.8 4.5-1.5l16.7-9.8c4.5-3 6.1-9.1 3.8-13.6s-7.6-6.1-12.1-3.8h-.8l-16.7 9.8c-4.5 3-6.1 9.1-3.8 13.6 1.6 3.8 4.6 5.3 8.4 5.3zM143.9 258.4l-16.7 9.8c-4.5 3-6.1 9.1-3.8 13.6 1.5 3 4.5 5.3 8.3 5.3 1.5 0 3-.8 4.5-1.5l16.7-9.8c4.5-3 6.1-9.1 3.8-13.6-2.2-4.6-7.5-6.9-12.8-3.8zM322.7 74.3c-4.5-3-9.8-1.5-12.9 3v.8L300 95.5c-3 4.5-1.5 10.6 3.8 13.6 1.5.8 3 1.5 4.5 1.5 3.8 0 6.8-1.5 8.3-4.5l9.8-17.4c2.4-6.1.9-12.2-3.7-14.4zm-76.5 18.9c5.3 0 9.8-4.5 9.8-9.8V62.9c0-5.3-3.8-9.8-9.1-9.8-5.3-.8-9.8 3.8-10.6 9.1v21.2c.1 5.3 4.6 9.8 9.9 9.8zm-62.9 11.4c1.5 3 4.5 5.3 8.3 5.3 1.5 0 3-.8 4.5-1.5 4.5-3 6.1-9.1 3.8-13.6l-9.8-17.4c-2.3-4.5-7.6-6.1-12.1-3.8h-.8c-4.5 3-6.1 9.1-3.8 13.6l9.9 17.4zm-29.5 31.8l-16.7-9.8c-4.5-3-9.8-1.5-12.9 3v.8c-3 4.5-1.5 10.6 3.8 13.6l16.7 9.8c1.5.8 3 1.5 4.5 1.5 3 0 6.8-2.3 8.3-4.5 2.3-5.3.8-11.4-3.7-14.4zM372.7 269l-16.7-9.8c-4.5-3-9.8-1.5-12.9 3v.8c-3 4.5-1.5 10.6 3.8 13.6l16.7 9.8c1.5.8 3 1.5 4.5 1.5 3.8 0 6.8-2.3 8.3-4.5 2.4-5.3.9-11.4-3.7-14.4zM500 485c0 8.3-5.9 15-13.1 15H13.1C5.9 500 0 493.3 0 485c0-8.2 5.9-15 13.1-15h473.8c7.2.1 13.1 6.8 13.1 15z" fill="#0088ce"/></svg>