<svg viewBox="0 0 500 500"><path d="M49.7464,461.6379a38.6057,38.6057,0,0,0,7.5652-2.3044,37.1825,37.1825,0,0,0,7.0391-3.7715,38.1385,38.1385,0,0,0,6.2241-5.0386,41.1352,41.1352,0,0,0,11.93-28.8308,40.6568,40.6568,0,0,0-.8151-7.9282,39.3055,39.3055,0,0,0-2.3044-7.6245,41.5314,41.5314,0,0,0-3.7789-7.0392,44.1289,44.1289,0,0,0-5.0311-6.224,40.2521,40.2521,0,0,0-6.1574-5.046,43.6872,43.6872,0,0,0-7.0317-3.7789,46.5385,46.5385,0,0,0-7.6393-2.29A41.2378,41.2378,0,0,0,12.928,392.8767a44.7085,44.7085,0,0,0-5.0385,6.224A41.5385,41.5385,0,0,0,4.1106,406.14a45.2048,45.2048,0,0,0-2.297,7.6245,40.6568,40.6568,0,0,0-.8151,7.9282,40.7173,40.7173,0,0,0,40.7529,40.7529,42.3523,42.3523,0,0,0,7.995-.8076m0-171.3918a47.27,47.27,0,0,0,7.6393-2.29,42.5535,42.5535,0,0,0,7.0317-3.7789,40.258,40.258,0,0,0,6.1574-5.046,40.7766,40.7766,0,0,0,0-57.6394,36.7453,36.7453,0,0,0-6.1574-5.12,49.2422,49.2422,0,0,0-7.0317-3.7048,48.3751,48.3751,0,0,0-7.6393-2.3711,41.128,41.128,0,0,0-15.9233,0,46.0948,46.0948,0,0,0-7.6393,2.3711,49.6409,49.6409,0,0,0-7.0317,3.7048,40.4672,40.4672,0,0,0-6.2241,5.12A41.0558,41.0558,0,0,0,.9985,250.3083a40.6156,40.6156,0,0,0,.8151,7.9357,45.2076,45.2076,0,0,0,2.297,7.6245A41.8174,41.8174,0,0,0,7.89,272.9076a45.14,45.14,0,0,0,5.0385,6.2241,44.7632,44.7632,0,0,0,6.2241,5.046,42.8522,42.8522,0,0,0,7.0317,3.7789,45.1445,45.1445,0,0,0,7.6393,2.29,40.5407,40.5407,0,0,0,7.9283.8151,41.7547,41.7547,0,0,0,7.995-.8151M70.5748,107.6733a40.6871,40.6871,0,0,0,0-57.5653,38.4056,38.4056,0,0,0-13.1891-8.8174,41.7377,41.7377,0,0,0-7.6393-2.3785,41.4179,41.4179,0,0,0-15.9233,0,40.03,40.03,0,0,0-7.6393,2.3785,36.6883,36.6883,0,0,0-7.0317,3.7048A39.9933,39.9933,0,0,0,12.928,50.108a40.7337,40.7337,0,1,0,57.6468,57.5653M498.9985,421.7075a40.7582,40.7582,0,0,0-40.7528-40.7529H170.5008a40.7529,40.7529,0,0,0,0,81.5057H458.2457a40.7581,40.7581,0,0,0,40.7528-40.7528m0-171.4066a40.7534,40.7534,0,0,0-40.7528-40.7528H170.5008a40.7529,40.7529,0,0,0,0,81.5057H458.2457a40.7582,40.7582,0,0,0,40.7528-40.7529M458.2457,119.6472H170.5008a40.7529,40.7529,0,0,1,0-81.5057H458.2457a40.7529,40.7529,0,0,1,0,81.5057" fill="#0088ce" fill-rule="evenodd"/></svg>