<svg viewBox="0 0 500 500"><path d="M347.8233,135.027a40.6881,40.6881,0,0,1,29.0629-11.4293,40.36,40.36,0,0,1,40.95,40.6228,37.684,37.684,0,0,1-12.0824,28.41,38.2714,38.2714,0,0,1-28.7364,12.4089,39.1861,39.1861,0,0,1-29.1936-12.213,38.0756,38.0756,0,0,1-11.6252-28.6058A40.4922,40.4922,0,0,1,347.8233,135.027Z" fill="#0f87c9"/><path d="M94.8776,135.027a40.6881,40.6881,0,0,1,29.0629-11.4293,40.4676,40.4676,0,0,1,41.0147,40.6228,37.6839,37.6839,0,0,1-12.0823,28.41,38.2717,38.2717,0,0,1-28.7365,12.4089A39.1862,39.1862,0,0,1,95.0735,192.63a38.0761,38.0761,0,0,1-11.9518-28.41A40.4923,40.4923,0,0,1,94.8776,135.027Z" fill="#0f87c9"/><path d="M413.1333,307.9026q-163.275,142.3758-326.55,0a20.18,20.18,0,0,1-6.531-13.5192,19.5928,19.5928,0,0,1,5.2248-14.3682,18.0255,18.0255,0,0,1,13.062-6.531,19.92,19.92,0,0,1,14.3682,4.8983q137.151,119.5173,274.6287,0a19.92,19.92,0,0,1,14.3682-4.8983,20.3771,20.3771,0,0,1,13.7151,6.531,21.0957,21.0957,0,0,1,4.5717,14.3682A20.7035,20.7035,0,0,1,413.1333,307.9026Z" fill="#0f87c9"/></svg>