<svg viewBox="0 0 500 500"><path d="M88.8233,183.1732a15.9608,15.9608,0,0,1-8.1711-9.533,16.8865,16.8865,0,0,1,1.09-12.5291,14.7079,14.7079,0,0,1,9.2606-8.1712l76.2642-25.0582a16.342,16.342,0,0,1,12.5291,1.09,15.4709,15.4709,0,0,1,8.1712,9.533,16.3427,16.3427,0,0,1-.8171,12.2568,16.7786,16.7786,0,0,1-9.5331,8.4435L101.3524,183.99A17.7043,17.7043,0,0,1,88.8233,183.1732Z" fill="#0f87c9"/><path d="M119.6014,238.7371a32.6841,32.6841,0,0,1-9.533-23.9687,33.5558,33.5558,0,0,1,9.533-24.2411,34.9726,34.9726,0,0,1,24.5135-9.533,33.9376,33.9376,0,0,1,34.0465,33.7741,31.2142,31.2142,0,0,1-10.35,23.9688,31.268,31.268,0,0,1-23.6963,10.0777A34.1007,34.1007,0,0,1,119.6014,238.7371Z" fill="#0f87c9"/><path d="M364.7363,331.8884a15.09,15.09,0,0,1-10.35,7.0817L173.2587,374.3785a15.8522,15.8522,0,0,1-12.2568-2.4514,16.3422,16.3422,0,0,1-7.0816-10.6225A14.381,14.381,0,0,1,156.644,349.32a15.1437,15.1437,0,0,1,10.35-7.0817l181.4-35.4084a14.2724,14.2724,0,0,1,12.2567,2.4513,16.3423,16.3423,0,0,1,7.0817,10.35A14.98,14.98,0,0,1,364.7363,331.8884Z" fill="#0f87c9"/><path d="M378.9,238.7371a31.2679,31.2679,0,0,1-23.6963,10.0778A34.1007,34.1007,0,0,1,330.69,238.7371a32.6846,32.6846,0,0,1-9.5331-23.9687,33.5563,33.5563,0,0,1,9.5331-24.2411,34.9725,34.9725,0,0,1,24.5135-9.5331A33.9376,33.9376,0,0,1,389.25,214.7684,31.2138,31.2138,0,0,1,378.9,238.7371Z" fill="#0f87c9"/><path d="M419.2107,173.64a15.6338,15.6338,0,0,1-8.1712,9.533,17.7043,17.7043,0,0,1-12.5291.8172l-76.2642-24.7859a15.9611,15.9611,0,0,1-9.2606-8.4435,14.5988,14.5988,0,0,1-1.0895-12.2568,15.7974,15.7974,0,0,1,8.1711-9.533,16.3426,16.3426,0,0,1,12.5291-1.09l75.72,25.0582a16.3422,16.3422,0,0,1,9.8054,8.1712A17.1053,17.1053,0,0,1,419.2107,173.64Z" fill="#0f87c9"/></svg>