<svg viewBox="0 0 500 500"><path d="M346.2 211.3c.8-35.6-13.6-70.5-39.4-95.5-25-25.8-59.1-40.2-95.5-39.4-35.6-.8-70.5 13.6-94.7 39.4-25.8 25-40.2 59.1-39.4 95.5-.8 35.6 13.6 70.5 39.4 95.5 25 25.8 59.1 40.2 95.5 39.4 35.6.8 70.5-13.6 95.5-39.4 24.9-25.1 39.3-59.2 38.6-95.5zM500 461.4c-.8 21.2-17.4 37.9-38.7 38.7-9.9 0-19.7-3.8-27.3-11.4L331.8 385.6c-34.9 24.3-77.3 37.9-119.7 37.1-28 0-56.1-5.3-81.8-16.7-51.5-20.5-92.5-61.4-113.7-112.2-22-52.3-22-112.2 0-164.5C37.7 77.9 77.9 37.7 129.4 16.5c52.3-22 112.2-22 164.5 0 50.8 21.2 91.7 61.4 112.9 112.9 11.4 25.8 16.7 53.8 16.7 81.8 0 43.2-12.9 84.9-37.1 119.7L489.5 434c6.7 7.7 10.5 17.5 10.5 27.4z" fill="#0088ce"/></svg>