<svg viewBox="0 0 500 500"><path d="M384.9679,165.84c7.978,0,14.4321-8.9242,14.4321-19.92S392.9459,126,384.9679,126H115.032c-7.968,0-14.432,8.9242-14.432,19.92s6.464,19.92,14.432,19.92Zm93.2456,29.88H21.7865C10.3126,195.72,1,204.6442,1,215.64s9.3126,19.92,20.7865,19.92h456.427c11.4839,0,20.7865-8.9242,20.7865-19.92S489.6974,195.72,478.2135,195.72Zm0,139.44H21.7865C10.3126,335.16,1,344.0842,1,355.08S10.3126,375,21.7865,375h456.427C489.6974,375,499,366.0758,499,355.08S489.6974,335.16,478.2135,335.16ZM22.6431,96.12H477.3569C489.3189,96.12,499,87.1958,499,76.2s-9.6811-19.92-21.6431-19.92H22.6431C10.6911,56.28,1,65.2042,1,76.2S10.6911,96.12,22.6431,96.12Zm92.3889,348.6H384.9679c7.978,0,14.4321-8.9242,14.4321-19.92s-6.4541-19.92-14.4321-19.92H115.032c-7.968,0-14.432,8.9242-14.432,19.92S107.064,444.72,115.032,444.72ZM399.4,285.36c0,10.9958-6.4541,19.92-14.4321,19.92H115.032c-7.968,0-14.432-8.9242-14.432-19.92s6.464-19.92,14.432-19.92H384.9679C392.9459,265.44,399.4,274.3642,399.4,285.36Z" fill="#0088ce" fill-rule="evenodd"/></svg>