<svg viewBox="0 0 500 500"><path d="M459.66,469.12H41.34a14.94,14.94,0,1,0,0,29.88H459.66a14.94,14.94,0,0,0,0-29.88M95.3531,332.3a274.6546,274.6546,0,0,1-6.5537-57.6286V1h44.9594V269.7208q0,31.4487,6.2549,53.9434,6.2449,22.5,16.5037,37.8978c6.9222,10.2886,14.5914,18.416,23.1272,24.3522a120.1363,120.1363,0,0,0,25.6071,13.8742,107.4038,107.4038,0,0,0,24.651,6.4641,161.4974,161.4974,0,0,0,20.6272,1.5338,165.2059,165.2059,0,0,0,20.2686-1.5338,106.82,106.82,0,0,0,25-6.4641,121.03,121.03,0,0,0,25.5573-13.8742q12.8037-8.9043,23.1272-24.3522,10.2786-15.3882,16.5535-37.8978,6.26-22.4847,6.2549-53.9434V1h44.91V274.6709A274.6613,274.6613,0,0,1,405.6469,332.3a154.04,154.04,0,0,1-24.6311,56.3736q-18.1521,25.9209-49.6506,42.8678-31.5532,16.927-80.8353,16.922-50.0041,0-81.1939-16.922-31.18-16.9719-49.2921-42.8678A153.17,153.17,0,0,1,95.3531,332.3" fill="#0088ce" fill-rule="evenodd"/></svg>