<svg viewBox="0 0 500 500"><path d="M55.78,335.16a54.78,54.78,0,1,0,54.78,54.78A54.7872,54.7872,0,0,0,55.78,335.16Zm0-139.44a54.78,54.78,0,1,0,54.78,54.78A54.7872,54.7872,0,0,0,55.78,195.72Zm0-139.44a54.78,54.78,0,1,0,54.78,54.78A54.7872,54.7872,0,0,0,55.78,56.28ZM474.9466,165.84c13.2866,0,24.0534-8.9242,24.0534-19.92S488.2332,126,474.9466,126H164.4934c-13.2866,0-24.0534,8.9242-24.0534,19.92s10.7668,19.92,24.0534,19.92Zm3.2669,29.88H161.2265c-11.4739,0-20.7865,8.9242-20.7865,19.92s9.3126,19.92,20.7865,19.92h316.987c11.4739,0,20.7865-8.9242,20.7865-19.92S489.6874,195.72,478.2135,195.72Zm0,139.44H161.2265c-11.4739,0-20.7865,8.9242-20.7865,19.92S149.7526,375,161.2265,375h316.987C489.6874,375,499,366.0758,499,355.08S489.6874,335.16,478.2135,335.16ZM162.0831,96.12H477.3569C489.3089,96.12,499,87.1958,499,76.2s-9.6911-19.92-21.6431-19.92H162.0831c-11.952,0-21.6431,8.9242-21.6431,19.92S150.1311,96.12,162.0831,96.12Zm2.41,348.6H474.9466C488.2332,444.72,499,435.7958,499,424.8s-10.7668-19.92-24.0534-19.92H164.4934c-13.2866,0-24.0534,8.9242-24.0534,19.92S151.2068,444.72,164.4934,444.72ZM499,285.36c0,10.9958-10.7668,19.92-24.0534,19.92H164.4934c-13.2866,0-24.0534-8.9242-24.0534-19.92s10.7668-19.92,24.0534-19.92H474.9466C488.2332,265.44,499,274.3642,499,285.36Z" fill="#0088ce" fill-rule="evenodd"/></svg>