<svg viewBox="0 0 500 500"><path d="M380.1573,165.84c10.6273,0,19.2427-8.9242,19.2427-19.92S390.7846,126,380.1573,126H20.2427C9.6154,126,1,134.9242,1,145.92s8.6154,19.92,19.2427,19.92Zm98.0562,29.88H21.7865C10.3126,195.72,1,204.6442,1,215.64s9.3126,19.92,20.7865,19.92h456.427c11.4839,0,20.7865-8.9242,20.7865-19.92S489.6974,195.72,478.2135,195.72Zm0,139.44H21.7865C10.3126,335.16,1,344.0842,1,355.08S10.3126,375,21.7865,375h456.427C489.6974,375,499,366.0758,499,355.08S489.6974,335.16,478.2135,335.16ZM22.6331,96.12H477.3669C489.3089,96.12,499,87.1958,499,76.2s-9.6911-19.92-21.6331-19.92H22.6331C10.6911,56.28,1,65.2042,1,76.2S10.6911,96.12,22.6331,96.12Zm-2.39,348.6H380.1573c10.6273,0,19.2427-8.9242,19.2427-19.92s-8.6154-19.92-19.2427-19.92H20.2427C9.6154,404.88,1,413.8042,1,424.8S9.6154,444.72,20.2427,444.72ZM399.4,285.36c0,10.9958-8.6154,19.92-19.2427,19.92H20.2427C9.6154,305.28,1,296.3558,1,285.36s8.6154-19.92,19.2427-19.92H380.1573C390.7846,265.44,399.4,274.3642,399.4,285.36Z" fill="#0088ce" fill-rule="evenodd"/></svg>