<?xml version="1.0" encoding="UTF-8"?>
<svg width="26px" height="26px" viewBox="0 0 26 26" version="1.1" xmlns="http://www.w3.org/2000/svg" xmlns:xlink="http://www.w3.org/1999/xlink">
    <!-- Generator: Sketch 49.3 (51167) - http://www.bohemiancoding.com/sketch -->
    <title>Icons/Langages/english</title>
    <desc>Created with Sketch.</desc>
    <defs></defs>
    <g id="Icons/Langages/english" stroke="none" stroke-width="1" fill="none" fill-rule="evenodd">
        <path d="M7.9224,24.9701 L7.9224,18.9461 L3.0644,21.3741 C4.3714,22.9231 6.0294,24.1661 7.9224,24.9701" id="Fill-1" fill="#00247D"></path>
        <path d="M18.0781,24.9701 C19.9701,24.1661 21.6291,22.9231 22.9351,21.3741 L18.0781,18.9461 L18.0781,24.9701 Z" id="Fill-3" fill="#00247D"></path>
        <path d="M3.064,4.6258 L7.922,7.0548 L7.922,1.0298 C6.03,1.8338 4.371,3.0768 3.064,4.6258" id="Fill-5" fill="#00247D"></path>
        <path d="M18.0781,1.0301 L18.0781,7.0541 L22.9351,4.6261 C21.6291,3.0761 19.9701,1.8341 18.0781,1.0301" id="Fill-7" fill="#00247D"></path>
        <path d="M7.9224,7.0545 L3.0644,4.6255 C2.8414,4.8885 2.6344,5.1645 2.4344,5.4455 L7.3864,7.9225 L1.0304,7.9225 C0.8704,8.2975 0.7304,8.6815 0.6064,9.0745 C0.5154,9.3615 0.4444,9.6575 0.3744,9.9535 L2.3644,9.9535 L9.9534,9.9535 L9.9534,9.2055 L9.9534,8.0705 L9.9534,0.3735 C9.2544,0.5415 8.5724,0.7535 7.9224,1.0305 L7.9224,7.0545 Z" id="Fill-9" fill="#FFFFFF"></path>
        <path d="M25.626,9.9535 C25.555,9.6575 25.484,9.3615 25.394,9.0745 C25.27,8.6825 25.129,8.2975 24.97,7.9225 L18.613,7.9225 L23.566,5.4455 C23.365,5.1645 23.158,4.8895 22.936,4.6255 L18.078,7.0545 L18.078,1.0305 C17.428,0.7535 16.746,0.5415 16.047,0.3735 L16.047,8.0705 L16.047,9.2055 L16.047,9.9535 L23.636,9.9535 L25.626,9.9535 Z" id="Fill-11" fill="#FFFFFF"></path>
        <path d="M0.374,16.0462 C0.445,16.3422 0.516,16.6382 0.606,16.9262 C0.73,17.3172 0.871,17.7022 1.03,18.0772 L7.387,18.0772 L2.434,20.5542 C2.635,20.8352 2.842,21.1102 3.064,21.3742 L7.922,18.9452 L7.922,24.9702 C8.572,25.2452 9.254,25.4572 9.953,25.6262 L9.953,17.9302 L9.953,16.7942 L9.953,16.0462 L2.365,16.0462 L0.374,16.0462 Z" id="Fill-13" fill="#FFFFFF"></path>
        <path d="M16.0469,16.0462 L16.0469,16.7942 L16.0469,17.9302 L16.0469,25.6262 C16.7459,25.4572 17.4279,25.2452 18.0779,24.9702 L18.0779,18.9452 L22.9359,21.3742 C23.1579,21.1102 23.3649,20.8352 23.5669,20.5542 L18.6129,18.0772 L24.9699,18.0772 C25.1289,17.7022 25.2699,17.3172 25.3939,16.9252 C25.4849,16.6382 25.5549,16.3422 25.6259,16.0462 L23.6359,16.0462 L16.0469,16.0462 Z" id="Fill-15" fill="#FFFFFF"></path>
        <path d="M23.5664,5.4456 L18.6134,7.9226 L24.9694,7.9226 C24.5954,7.0406 24.1174,6.2156 23.5664,5.4456" id="Fill-17" fill="#CF142B"></path>
        <path d="M23.5664,20.554 C24.1174,19.784 24.5954,18.959 24.9694,18.077 L18.6134,18.077 L23.5664,20.554 Z" id="Fill-19" fill="#CF142B"></path>
        <path d="M2.4341,20.554 L7.3871,18.077 L1.0301,18.077 C1.4051,18.959 1.8831,19.784 2.4341,20.554" id="Fill-21" fill="#CF142B"></path>
        <path d="M2.4341,5.4456 C1.8831,6.2156 1.4051,7.0406 1.0301,7.9226 L7.3871,7.9226 L2.4341,5.4456 Z" id="Fill-23" fill="#CF142B"></path>
        <path d="M25.6582,10.077 C25.6482,10.035 25.6362,9.995 25.6262,9.953 L23.6362,9.953 L16.0472,9.953 L16.0472,9.205 L16.0472,8.07 L16.0472,0.374 C15.0672,0.139 14.0512,0 13.0002,0 C11.9492,0 10.9322,0.139 9.9532,0.374 L9.9532,8.07 L9.9532,9.205 L9.9532,9.953 L2.3652,9.953 L0.3742,9.953 C0.3642,9.995 0.3512,10.035 0.3422,10.077 C0.1252,11.018 0.0002,11.994 0.0002,13 C0.0002,14.006 0.1252,14.982 0.3422,15.923 C0.3512,15.964 0.3642,16.005 0.3742,16.046 L2.3652,16.046 L9.9532,16.046 L9.9532,16.794 L9.9532,17.93 L9.9532,25.626 C10.9322,25.862 11.9492,26 13.0002,26 C14.0512,26 15.0672,25.862 16.0472,25.626 L16.0472,17.93 L16.0472,16.794 L16.0472,16.046 L23.6362,16.046 L25.6262,16.046 C25.6362,16.005 25.6482,15.964 25.6582,15.923 C25.8752,14.982 26.0002,14.006 26.0002,13 C26.0002,11.994 25.8752,11.018 25.6582,10.077" id="Fill-25" fill="#CF142B"></path>
    </g>
</svg>