<?xml version="1.0" standalone="no"?> 
<!DOCTYPE svg PUBLIC "-//W3C//DTD SVG 1.1//EN" "http://www.w3.org/Graphics/SVG/1.1/DTD/svg11.dtd" >
<svg xmlns="http://www.w3.org/2000/svg">
<defs>
  <font id="icons" horiz-adv-x="90">
    <font-face font-family="icons"
      units-per-em="90" ascent="90"
      descent="0" />
    <missing-glyph horiz-adv-x="0" />
    <glyph glyph-name="account-offline"
      unicode="&#xF101;"
      horiz-adv-x="90" d=" M85.5 0H4.5C1.98 0 0 1.8 0 4.14V4.68C0 7.2 1.98 9 4.5 9H85.5C88.02 9 90 7.2 90 4.86V4.32C90 1.8 88.02 0 85.5 0zM28.98 70.38C28.98 79.2 36.18 86.4 45 86.4S61.02 79.2 61.02 70.38S53.82 54.36 45 54.36C36.18 54.18 28.98 61.38 28.98 70.38zM12.96 18.18V36.54C12.96 40.14 15.48 43.38 18.9 44.1L37.98 48.06C42.66 49.32 47.52 49.32 52.2 48.06L71.28 44.1C74.7 43.2 77.22 40.14 77.22 36.54V18.18H12.96z" />
    <glyph glyph-name="add"
      unicode="&#xF102;"
      horiz-adv-x="90" d=" M51.66 38.16H83.52C87.12 38.16 90 41.58 90 45.18S87.12 51.66 83.52 51.66H51.66V83.52C51.66 87.12 48.78 90 45.18 90S38.34 87.12 38.34 83.52V51.66H6.48C2.88 51.66 0 48.42 0 44.82C0 41.22 2.88 37.98 6.48 37.98H38.34V6.48C38.34 2.88 41.22 0 44.82 0S51.66 2.88 51.66 6.48V38.16z" />
    <glyph glyph-name="admin"
      unicode="&#xF103;"
      horiz-adv-x="90" d=" M50.4 22.32C33.48 18.54 18.72 33.3 22.5 50.22C24.48 58.68 31.32 65.7 39.78 67.5C56.7 71.28 71.46 56.52 67.68 39.6C65.88 31.14 59.04 24.3 50.4 22.32M90 41.58V48.42C90 50.58 88.2 52.38 86.04 52.38H84.96C82.44 52.38 80.1 54 79.2 56.52C78.66 57.96 78.12 59.4 77.4 60.84C76.32 63.18 76.68 66.06 78.48 67.86L79.2 68.58C80.82 70.2 80.82 72.72 79.2 74.34L74.34 79.2C72.72 80.82 70.2 80.82 68.58 79.2L67.68 78.3C65.88 76.5 63 76.14 60.66 77.22C59.22 77.94 57.96 78.48 56.34 79.02C53.82 79.92 52.2 82.08 52.2 84.78V86.04C52.2 88.2 50.4 90 48.24 90H41.4C39.24 90 37.44 88.2 37.44 86.04V84.6C37.44 82.08 35.82 79.74 33.3 78.84C31.86 78.3 30.42 77.76 29.16 77.04C26.82 75.96 23.94 76.32 22.14 78.12L21.24 79.2C19.8 80.82 17.1 80.82 15.66 79.2L10.8 74.34C9.18 72.9 9.18 70.2 10.8 68.76L11.88 67.68C13.68 65.88 14.04 63 12.96 60.66C12.24 59.4 11.7 57.96 11.34 56.52C10.44 54 8.28 52.38 5.58 52.38H3.96C1.8 52.38 0 50.58 0 48.42V41.58C0 39.42 1.8 37.62 3.96 37.62H5.4C7.92 37.62 10.26 36 11.16 33.48C11.7 32.04 12.24 30.78 12.78 29.34C13.86 27 13.5 24.3 11.7 22.32L10.8 21.24C9.18 19.62 9.18 17.1 10.8 15.48L15.66 10.8C17.28 9.18 19.8 9.18 21.42 10.8L22.32 11.7C24.12 13.5 27 13.86 29.34 12.78C30.6 12.06 32.04 11.52 33.48 10.98C36 10.08 37.62 7.92 37.62 5.22V3.96C37.62 1.8 39.42 0 41.58 0H48.42C50.58 0 52.38 1.8 52.38 3.96V5.22C52.38 7.74 54 10.08 56.52 10.98C57.96 11.52 59.4 12.06 60.84 12.78C63.18 13.86 65.88 13.5 67.86 11.7L68.76 10.8C70.38 9.18 72.9 9.18 74.52 10.8L79.38 15.66C81 17.28 81 19.8 79.38 21.42L78.66 22.14C76.86 23.94 76.5 26.82 77.58 29.16C78.3 30.6 78.84 32.04 79.38 33.48C80.28 36 82.44 37.62 85.14 37.62H86.22C88.2 37.44 90 39.42 90 41.58" />
    <glyph glyph-name="agenda"
      unicode="&#xF104;"
      horiz-adv-x="90" d=" M56.16 80.1C56.16 80.1 58.32 80.1 58.32 75.6V62.1C58.32 59.58 60.3 57.6 62.82 57.6H71.82C74.34 57.6 76.32 59.58 76.32 62.1V75.6C76.32 78.12 78.3 80.1 80.82 80.1H85.32C88.02 80.1 90 78.12 90 75.6V12.6C90 7.56 86.04 3.6 81 3.6H9C3.96 3.6 0 7.56 0 12.6V75.6C0 78.12 1.98 80.1 4.5 80.1H9C10.44 80.1 13.5 80.1 13.5 75.6V62.1C13.5 59.58 15.48 57.6 18 57.6H27C29.52 57.6 31.5 59.58 31.5 62.1V75.6C31.5 78.84 32.4 80.1 33.66 80.1C35.1 80.1 36 77.04 36 75.6V62.1C36 59.58 37.98 57.6 40.5 57.6H49.5C52.02 57.6 54 59.58 54 62.1V75.6C54 77.04 54 80.1 56.16 80.1zM67.5 62.1C64.98 62.1 63 64.08 63 66.6V80.1C63 82.62 64.98 84.6 67.5 84.6C70.02 84.6 72 82.62 72 80.1L72 66.6C72 64.08 70.02 62.1 67.5 62.1zM22.5 62.1C19.98 62.1 18 64.08 18 66.6V80.1C18 82.62 19.98 84.6 22.5 84.6C25.02 84.6 27 82.62 27 80.1V66.6C26.82 64.08 25.02 62.1 22.5 62.1zM45 62.1C42.48 62.1 40.5 64.08 40.5 66.6V80.1C40.5 82.62 42.48 84.6 45 84.6C47.52 84.6 49.5 82.62 49.5 80.1L49.5 66.6C49.5 64.08 47.52 62.1 45 62.1z" />
    <glyph glyph-name="alert-underline"
      unicode="&#xF105;"
      horiz-adv-x="90" d=" M45 18.72C40.5 18.72 36.72 21.96 36 26.28H54C53.28 21.96 49.5 18.72 45 18.72zM70.02 40.32C70.38 39.78 74.52 35.46 74.16 31.86C74.16 30.42 73.08 29.34 71.46 29.34H18.36C16.92 29.34 15.66 30.42 15.66 31.86V32.04C15.48 35.64 19.44 39.96 19.8 40.5C25.74 47.16 25.74 52.74 25.74 60.12V61.92C25.74 62.46 25.74 63 25.74 63.54C26.28 73.26 32.76 78.3 39.06 80.1C39.06 80.28 39.06 80.46 39.06 80.82C39.06 83.88 41.58 86.58 44.82 86.58S50.58 84.06 50.58 80.82C50.58 80.64 50.58 80.46 50.58 80.1C56.88 78.3 63.36 73.08 63.9 63.54C63.9 63 63.9 62.46 63.9 61.92V60.12C63.9 52.74 63.9 46.98 70.02 40.32zM4.5 9H85.5C88.02 9 90 7.02 90 4.5S88.02 0 85.5 0H4.5C1.98 0 0 1.98 0 4.5S1.98 9 4.5 9z" />
    <glyph glyph-name="arrow-down"
      unicode="&#xF106;"
      horiz-adv-x="90" d=" M45 17.244L2.07 59.4A8.442000000000002 8.442000000000002 0 0 0 2.07 70.47A9.27 9.27 0 0 0 7.614 72.63A7.884 7.884 0 0 0 13.158 70.542L45 39.384L76.842 70.542A8.28 8.28 0 0 0 89.316 69.156A9.702 9.702 0 0 0 87.228 58.77z" />
    <glyph glyph-name="arrow-next"
      unicode="&#xF107;"
      horiz-adv-x="90" d=" M72.756 45L30.6 2.07A8.442000000000002 8.442000000000002 0 0 0 19.53 2.07A9.27 9.27 0 0 0 17.442 7.614A7.884 7.884 0 0 0 19.53 13.158L50.616 45L19.458 76.842A8.28 8.28 0 0 0 20.844 89.316A9.702 9.702 0 0 0 31.23 87.228z" />
    <glyph glyph-name="arrow-prev"
      unicode="&#xF108;"
      horiz-adv-x="90" d=" M17.244 45L59.4 87.93A8.442000000000002 8.442000000000002 0 0 0 70.47 87.93A9.27 9.27 0 0 0 72.558 82.386A7.884 7.884 0 0 0 70.47 76.842L39.384 45L70.542 13.158A8.28 8.28 0 0 0 69.156 0.684A9.702 9.702 0 0 0 58.77 2.772z" />
    <glyph glyph-name="arrow-up"
      unicode="&#xF109;"
      horiz-adv-x="90" d=" M45 72.756L87.93 30.6A8.442000000000002 8.442000000000002 0 0 0 87.93 19.53A9.27 9.27 0 0 0 82.386 17.442A7.884 7.884 0 0 0 76.842 19.53L45 50.616L13.158 19.458A8.28 8.28 0 0 0 0.684 20.844A9.702 9.702 0 0 0 2.772 31.23z" />
    <glyph glyph-name="check"
      unicode="&#xF10A;"
      horiz-adv-x="90" d=" M88.92 58.87152108L30.1095 1.06680906C28.6335 -0.35560296 26.244 -0.35560296 24.849 1.06680906L1.08 24.39244476C-0.36 25.79082966 -0.36 28.14069276 1.08 29.55349404L8.082 36.47333646C9.576 37.86211044 11.916 37.86211044 13.3245 36.47333646L24.849 25.21417608C26.244 23.78215314 28.6335 23.78215314 30.1095 25.21417608L76.644 70.94760732C78.0885 72.350797572 80.451 72.350797572 81.8865 70.94760732L88.92 64.05659748C90.36 62.64379638 90.36 60.30354402 88.92 58.87152108" />
    <glyph glyph-name="close"
      unicode="&#xF10B;"
      horiz-adv-x="90" d=" M57.78 44.82L87.66 74.7C91.08 78.12 90.54 84.06 87.12 87.48C83.7 90.9 78.12 90.9 74.7 87.48L45 57.6L14.94 87.48C11.52 90.9 5.94 90.9 2.52 87.48C-0.9 84.06 -1.08 78.3 2.34 74.88L32.4 45L2.34 15.12C-1.08 11.7 -0.72 5.94 2.52 2.52C5.94 -0.9 11.7 -1.08 15.12 2.34L45 32.22L74.7 2.52C78.12 -0.9 83.7 -0.9 87.12 2.52C90.54 5.94 90.72 11.7 87.3 15.12L57.78 44.82z" />
    <glyph glyph-name="collection"
      unicode="&#xF10C;"
      horiz-adv-x="90" d=" M90 63.9C90 68.4 86.4 72 81.9 72H43.38C41.04 72 38.7 73.08 37.26 74.88L33.3 79.74C31.68 81.72 29.52 82.8 27 82.8H7.92C3.6 82.8 0 79.2 0 74.88V64.08H90zM90 56.34V15.48C90 10.98 86.4 7.56 82.08 7.56H7.92C3.42 7.56 0 11.16 0 15.48V56.34H90z" />
    <glyph glyph-name="delete"
      unicode="&#xF10D;"
      horiz-adv-x="90" d=" M63 32.94C64.62 31.32 64.62 28.62 63 27C61.38 25.38 58.68 25.38 57.06 27L45 39.06L32.94 27C31.32 25.38 28.62 25.38 27 27C25.38 28.62 25.38 31.32 27 32.94L39.06 45L27 57.06C25.38 58.68 25.38 61.38 27 63C28.62 64.62 31.32 64.62 32.94 63L45 50.94L57.06 63C58.68 64.62 61.38 64.62 63 63C64.62 61.38 64.62 58.68 63 57.06L50.94 45L63 32.94zM45 90C20.16 90 0 69.84 0 45S20.16 0 45 0C69.84 0 90 20.16 90 45S69.84 90 45 90z" />
    <glyph glyph-name="distribution"
      unicode="&#xF10E;"
      horiz-adv-x="90" d=" M33.66 51.3C35.64 53.28 35.82 56.7 33.66 58.86L27.54 64.98C24.3 68.22 19.98 70.02 15.48 70.02L5.04 70.02C2.16 70.02 -0.18 67.68 -0.18 64.8V64.62C-0.18 61.74 2.16 59.4 5.04 59.4H15.48C17.1 59.4 18.72 58.68 19.8 57.6L25.92 51.48C28.26 49.32 31.68 49.32 33.66 51.3M47.88 37.44C45.9 35.46 45.72 32.04 47.88 29.88L54 23.76C57.24 20.52 61.38 18.9 65.88 18.72L68.04 18.72C69.48 18.72 70.56 17.64 70.56 16.2V10.8C70.56 9.54 72 8.82 73.08 9.54L89.1 21.78C90.54 22.86 90.54 24.84 89.1 25.92L73.08 38.16C72 38.88 70.56 38.16 70.56 36.9V31.68C70.56 30.24 69.48 29.16 68.04 29.16H65.88C64.26 29.16 62.64 29.88 61.56 30.96L55.26 37.26C53.28 39.42 49.86 39.42 47.88 37.44M5.22 29.34H15.66C17.28 29.34 18.9 30.06 19.98 31.14L54 64.98C57.24 68.22 61.38 69.84 65.88 70.02L68.04 70.02C69.48 70.02 70.56 71.1 70.56 72.54V77.58C70.56 78.84 72 79.56 73.08 78.84L89.1 66.6C90.54 65.52 90.54 63.54 89.1 62.46L73.08 50.22C72 49.5 70.56 50.22 70.56 51.48V56.7C70.56 58.14 69.48 59.22 68.04 59.22H65.88C64.26 59.22 62.64 58.5 61.56 57.42L27.72 23.58C24.48 20.34 20.16 18.54 15.66 18.54L5.22 18.54C2.34 18.54 0 21.06 0 23.94C0 27 2.34 29.34 5.22 29.34" />
    <glyph glyph-name="divers"
      unicode="&#xF10F;"
      horiz-adv-x="90" d=" M48.42 33.66H41.4L40.5 72H49.14L48.42 33.66zM44.82 19.8C42.3 19.8 40.5 21.6 40.5 24.12C40.5 26.82 42.3 28.44 44.82 28.44C47.34 28.44 49.14 26.64 49.14 24.12C49.14 21.42 47.34 19.8 44.82 19.8zM45 90C20.16 90 0 69.84 0 45C0 20.16 20.16 0 45 0C69.84 0 90 20.16 90 45C90 69.84 69.84 90 45 90z" />
    <glyph glyph-name="document"
      unicode="&#xF110;"
      horiz-adv-x="90" d=" M47.88 90H16.02C12.96 90 10.26 87.48 10.26 84.24V5.76C10.26 2.52 12.78 0 16.02 0H73.98C77.22 0 79.74 2.52 79.74 5.76V58.5C79.74 59.76 79.2 60.84 78.3 61.74L51.66 88.38C50.58 89.46 49.32 90 47.88 90zM70.02 7.74H19.8C18.72 7.74 18 8.64 18 9.54V80.46C18 81.54 18.9 82.26 19.8 82.26H45.72C48.24 82.26 50.22 80.28 50.22 77.76L50.22 62.46C50.22 61.2 51.3 60.12 52.56 60.12L68.4 60.12C70.38 60.12 72 58.5 72 56.52V9.36C72 8.64 71.1 7.74 70.02 7.74z M63.36 44.46C63.36 42.48 61.74 40.86 59.76 40.86H31.32C29.34 40.86 27.72 42.48 27.72 44.46C27.72 46.44 29.34 48.06 31.32 48.06H59.76C61.74 48.06 63.36 46.44 63.36 44.46z M42.84 63.18C42.84 61.2 41.22 59.58 39.24 59.58H31.14C29.16 59.58 27.54 61.2 27.54 63.18C27.54 65.16 29.16 66.78 31.14 66.78H39.24C41.4 66.6 42.84 64.98 42.84 63.18z M54.54 26.1C54.54 24.12 52.92 22.5 50.94 22.5H31.32C29.34 22.5 27.72 24.12 27.72 26.1C27.72 28.08 29.34 29.7 31.32 29.7H50.94C52.92 29.7 54.54 28.08 54.54 26.1z" />
    <glyph glyph-name="download"
      unicode="&#xF111;"
      horiz-adv-x="90" d=" M82.44 13.68C86.58 13.68 90 10.62 90 6.84S86.58 0 82.44 0H7.56C3.42 0 0 3.06 0 6.84S3.42 13.68 7.56 13.68H82.44zM40.68 26.28L13.86 51.12C10.98 53.82 10.98 58.32 13.86 61.02C16.74 63.72 21.6 63.72 24.48 61.02L38.34 48.06V82.26C38.34 86.22 41.76 89.28 45.9 89.28C50.04 89.28 53.46 86.22 53.46 82.26V48.24L67.32 61.2C70.2 63.9 75.06 63.9 77.94 61.2C80.82 58.5 80.82 54 77.94 51.3L51.3 26.28C49.86 24.84 47.88 24.3 45.9 24.3C44.1 24.12 42.12 24.84 40.68 26.28z" />
    <glyph glyph-name="earth-underline"
      unicode="&#xF112;"
      horiz-adv-x="90" d=" M45 18A36 36 0 1 1 9 54A36 36 0 0 1 45 18zM26.73 75.312A2.88 2.88 0 0 0 30.6 75.744L33.732 73.44A2.286 2.286 0 0 1 36.666 73.8L46.8 85.284A31.176000000000005 31.176000000000005 0 0 0 65.808 77.4L59.58 77.292A4.014 4.014 0 0 1 56.952 76.284L55.908 75.402A2.952 2.952 0 0 1 56.736 70.434A1.9800000000000002 1.9800000000000002 0 0 0 56.016 66.564L52.2 67.05A4.122000000000001 4.122000000000001 0 0 1 47.646 64.17A4.014 4.014 0 0 1 52.2 59.166L58.302 60.264A3.24 3.24 0 1 0 59.256 53.892L49.446 53.316A4.698 4.698 0 0 1 45 49.446A4.5 4.5 0 0 1 49.464 44.28H49.608A4.518 4.518 0 0 0 54 39.762V36.342A4.158 4.158 0 0 1 60.282 32.742A14.399999999999999 14.399999999999999 0 0 1 66.906 41.4L67.608 44.154A14.597999999999999 14.597999999999999 0 0 1 68.022 46.476A4.158 4.158 0 0 0 75.366 48.762L75.816 48.186A31.409999999999997 31.409999999999997 0 0 0 45 22.626A30.887999999999998 30.887999999999998 0 0 0 34.02 24.66L37.962 34.776A7.6320000000000014 7.6320000000000014 0 0 1 35.298 43.776L30.078 47.52A6.732000000000001 6.732000000000001 0 0 0 28.188 56.376L29.988 59.49L29.988 59.49A9 9 0 0 1 27.612 70.704L27.072 71.136A2.8980000000000006 2.8980000000000006 0 0 0 26.73 75.312zM13.662 54.504L19.44 51.858A7.199999999999999 7.199999999999999 0 0 0 22.644 42.102A7.199999999999999 7.199999999999999 0 0 1 22.644 36.162L25.812 29.25A31.32 31.32 0 0 0 13.626 54C13.626 54.162 13.644 54.324 13.662 54.504zM85.5 9H4.5A4.3020000000000005 4.3020000000000005 0 0 1 0 4.68V4.14A4.284000000000001 4.284000000000001 0 0 1 4.5 0H85.5A4.3020000000000005 4.3020000000000005 0 0 1 90 4.32V4.86A4.284000000000001 4.284000000000001 0 0 1 85.5 9z" />
    <glyph glyph-name="edit"
      unicode="&#xF113;"
      horiz-adv-x="90" d=" M83.3671341 55.25446968L55.2970971 83.46606192L57.92505534 86.10305364C63.0823185 91.2989821212 72.11015298 91.2989821212 77.2716141 86.10305364L85.99089438 77.339802762C88.57687248 74.745002898 90 71.29159848 90 67.6187964C90 63.94599432 88.57687248 60.4925901 85.99089438 57.893571L83.3671341 55.25446968zM54.82482012 59.85127368L59.86663794 54.78192072L37.47651714 32.27466906L32.4346995 37.34613162L54.82482012 59.85127368zM13.820694534 27.94789296L27.8084853 13.88956284L8.638243236 8.68097682L13.820694534 27.94789296zM4.501098018 0.12868524C24.1292385 5.0138811 34.2795438 7.54537572 34.95201408 7.72316892C35.65728576 7.91559774 36.5781006 8.4218994 37.53109152 9.1914984L78.3232173 50.1851169L50.25108132 78.396709032L9.463153464 37.40941926C9.014721678 36.9405396 8.684033202 36.26751708 8.53539183 35.8019091L0.12256686846 4.52507778C-0.2090764314 3.28463694 0.1435569507 1.95770268 1.0440314784 1.05268716C1.7262091512 0.37128852 2.637178722 0 3.571237386 0C3.877692588 0 4.194642816 0.04219182 4.501098018 0.12868524z" />
    <glyph glyph-name="external-link"
      unicode="&#xF114;"
      horiz-adv-x="90" d=" M82.44 90C86.58 90 90 86.58 90 82.44V45C90 40.86 86.58 37.44 82.44 37.44C78.3 37.44 74.88 40.86 74.88 45V64.44L42.84 32.22C41.4 30.78 39.42 30.06 37.62 30.06C35.64 30.06 33.84 30.78 32.4 32.22C29.52 35.1 29.52 39.96 32.4 42.84L64.44 75.06H45C40.86 75.06 37.44 78.48 37.44 82.62S40.86 90 45 90H82.44zM67.5 0H7.56C3.42 0 0 3.42 0 7.56V67.5C0 71.64 3.42 75.06 7.56 75.06S15.12 71.64 15.12 67.5V14.94H67.68C71.82 14.94 75.24 11.52 75.24 7.38C75.06 3.42 71.64 0 67.5 0z" />
    <glyph glyph-name="favorite-on"
      unicode="&#xF115;"
      horiz-adv-x="90" d=" M89.1 56.34C88.74 57.78 87.48 58.68 86.22 58.86L59.76 62.82L47.88 87.84C47.34 89.1 46.08 90 44.64 90C43.2 90 41.94 89.1 41.4 87.84L29.52 62.82L3.06 58.86C1.8 58.68 0.54 57.6 0.18 56.34C-0.18 54.9 0.18 53.46 1.08 52.38L20.16 32.94L15.66 5.4C15.48 3.96 16.02 2.52 17.1 1.62C17.82 1.08 18.54 0.9 19.26 0.9C19.8 0.9 20.34 1.08 20.88 1.26L44.64 14.4L68.22 1.44C69.48 0.72 70.92 0.9 72 1.8C73.08 2.7 73.62 4.14 73.44 5.58L68.94 33.12L88.2 52.38C89.1 53.46 89.46 54.9 89.1 56.34" />
    <glyph glyph-name="filters"
      unicode="&#xF116;"
      horiz-adv-x="90" d=" M19.10180412 14.12072604C19.10180412 17.70386418 21.81572172 20.44391094 25.36469064 20.44391094C28.91365974 20.44391094 31.62757734 17.70386418 31.62757734 14.12072604C31.62757734 10.53864162 28.70489682 7.79754096 25.36469064 7.79754096C22.02448446 7.79754096 19.10180412 10.53864162 19.10180412 14.12072604zM38.62113408 18.02002338C36.9510309 23.92166268 31.62757734 28.2425058 25.36469064 28.2425058C19.10180412 28.2425058 13.778350524 23.92166268 12.108247416 18.02002338L3.862113408 18.02002338C1.7744845356 18.02002338 0 16.3348947 0 14.12072604C0 11.90761128 1.6701030936 10.22142852 3.862113408 10.22142852L12.108247416 10.22142852C13.778350524 4.31978922 19.10180412 0 25.36469064 0C31.62757734 0 36.9510309 4.31978922 38.62113408 10.22142852L86.13788652 10.22142852C88.22551554 10.22142852 90 11.90761128 90 14.12072604C90 16.3348947 88.32989682 18.02002338 86.13788652 18.02002338L38.62113408 18.02002338zM31.62757734 75.877166268C31.62757734 72.29402811 28.91365974 69.55398126 25.36469064 69.55398126C21.81572172 69.55398126 19.10180412 72.504800928 19.10180412 75.877166268C19.10180412 79.249531608 22.02448446 82.200351294 25.36469064 82.200351294C28.70489682 82.200351294 31.62757734 79.460304444 31.62757734 75.877166268zM12.108247416 71.97786882C13.778350524 66.07622952 19.10180412 61.7553864 25.36469064 61.7553864C31.62757734 61.7553864 36.9510309 66.07622952 38.62113408 71.97786882L86.13788652 71.97786882C88.22551554 71.97786882 90 73.664051526 90 75.877166268C90 78.090281028 88.32989682 79.776463698 86.13788652 79.776463698L38.62113408 79.776463698C36.9510309 85.678103052 31.62757734 89.9989461358308 25.36469064 89.9989461358308C19.10180412 89.9989461358308 13.778350524 85.678103052 12.108247416 79.776463698L3.862113408 79.776463698C1.7744845356 79.776463698 0 78.090281028 0 75.877166268C0 73.664051526 1.6701030936 71.97786882 3.862113408 71.97786882L12.108247416 71.97786882zM58.68556704 44.9989461C58.68556704 48.58208424 61.39948446 51.32213118 64.94845356 51.32213118C68.49742266 51.32213118 71.21134026 48.58208424 71.21134026 44.9989461C71.21134026 41.41580796 68.28865974 38.6757612 64.94845356 38.6757612C61.60824738 38.6757612 58.68556704 41.41580796 58.68556704 44.9989461zM78.18224472 48.89824362C76.51214154 54.79988292 71.18868798 59.12072604 64.92580146 59.12072604C58.66291476 59.12072604 53.3394612 54.69449652 51.56497656 48.89824362L3.862113408 48.89824362C1.7744845356 48.89824362 0 47.21206086 0 44.9989461C0 42.89121774 1.6701030936 41.09964876 3.862113408 41.09964876L51.56497656 41.09964876C53.23507974 35.19800928 58.5585333 30.87716634 64.82142 30.87716634C71.08430652 30.87716634 76.40776008 35.19800928 78.07786326 41.09964876L86.13788652 41.10070266C88.22551554 41.10070266 90 42.78688524 90 45C90.10438146 47.10772836 88.43427828 48.89929734 86.24226798 48.89929734L78.18224472 48.89824362z" />
    <glyph glyph-name="interrogation"
      unicode="&#xF117;"
      horiz-adv-x="90" d=" M58.68 52.92C58.14 51.66 57.42 50.4 56.52 49.14L52.38 45L51.66 44.46C50.94 43.74 50.4 43.2 49.86 42.66C49.5 42.12 49.14 41.76 48.78 41.22C48.6 40.68 48.42 40.14 48.24 39.42C48.06 38.7 48.06 37.98 48.06 37.08V34.02H41.4V38.16C41.4 39.42 41.58 40.5 41.76 41.22C41.94 42.12 42.3 42.84 42.66 43.38C43.02 44.1 43.56 44.64 44.1 45.36C44.64 45.9 45.54 46.8 46.44 47.52C47.16 48.24 47.88 48.96 48.6 49.68C49.32 50.4 50.04 51.12 50.58 51.84C51.12 52.56 51.66 53.46 52.02 54.18C52.38 55.08 52.56 55.98 52.56 57.06C52.56 58.14 52.38 59.04 52.02 59.94C51.66 60.84 51.12 61.56 50.4 62.28C49.68 63 48.96 63.36 48.06 63.72C47.16 64.08 46.26 64.26 45.18 64.26C42.84 64.26 41.04 63.54 39.78 62.1C38.34 60.66 37.62 58.86 37.26 56.52L30.6 57.42C31.14 61.38 32.94 64.62 35.64 66.78C38.34 69.12 41.76 70.2 45.9 70.2C47.88 70.2 49.68 69.84 51.3 69.3C52.92 68.76 54.36 67.86 55.62 66.78C56.88 65.7 57.78 64.44 58.5 62.82C59.22 61.2 59.58 59.4 59.58 57.42C59.4 55.8 59.22 54.18 58.68 52.92M48.06 21.06C47.16 20.16 46.26 19.8 45 19.8S42.66 20.16 41.76 21.06C40.86 21.96 40.32 23.04 40.32 24.3C40.32 25.56 40.68 26.64 41.76 27.54C42.66 28.44 43.74 28.8 45 28.8S47.34 28.44 48.24 27.54S49.5 25.56 49.5 24.3C49.5 23.04 48.96 21.96 48.06 21.06M45 90C20.16 90 0 69.84 0 45C0 20.16 20.16 0 45 0C69.84 0 90 20.16 90 45C90 69.84 69.84 90 45 90" />
    <glyph glyph-name="liste"
      unicode="&#xF118;"
      horiz-adv-x="90" d=" M8.82 6.3C9.36 6.48 9.72 6.48 10.26 6.66C10.8 6.84 11.16 7.02 11.52 7.38C11.88 7.56 12.24 7.92 12.6 8.28C14.04 9.72 14.76 11.52 14.76 13.5C14.76 14.04 14.76 14.4 14.58 14.94C14.4 15.3 14.4 15.84 14.22 16.38C14.04 16.74 13.86 17.28 13.5 17.64C13.14 18 12.96 18.36 12.6 18.72C12.24 19.08 11.88 19.44 11.52 19.62C11.16 19.8 10.62 20.16 10.26 20.34C9.72 20.52 9.36 20.7 8.82 20.7C6.48 21.24 3.96 20.34 2.16 18.72C1.8 18.36 1.44 18 1.26 17.64C1.08 17.28 0.72 16.74 0.54 16.38C0.36 16.02 0.18 15.48 0.18 14.94C0 14.4 0 14.04 0 13.5C0 11.52 0.72 9.72 2.16 8.28C3.6 6.84 5.4 6.12 7.38 6.12C7.92 6.12 8.28 6.12 8.82 6.3M8.82 37.26C9.36 37.44 9.72 37.44 10.26 37.62C10.62 37.8 11.16 37.98 11.52 38.34C11.88 38.52 12.24 38.88 12.6 39.24C14.04 40.68 14.76 42.48 14.76 44.46C14.76 46.44 14.04 48.24 12.6 49.68C12.24 50.04 11.88 50.4 11.52 50.58C11.16 50.76 10.62 51.12 10.26 51.3C9.72 51.48 9.36 51.66 8.82 51.66C7.92 51.84 6.84 51.84 5.94 51.66C5.4 51.48 5.04 51.48 4.5 51.3C4.14 51.12 3.6 50.94 3.24 50.58C2.88 50.4 2.52 50.04 2.16 49.68C0.72 48.24 0 46.44 0 44.46C0 43.92 0 43.56 0.18 43.02C0.36 42.48 0.36 42.12 0.54 41.58C0.72 41.22 0.9 40.68 1.26 40.32C1.44 39.96 1.8 39.6 2.16 39.24C2.52 38.88 2.88 38.52 3.24 38.34C3.6 38.16 4.14 37.8 4.5 37.62C4.86 37.44 5.4 37.26 5.94 37.26C6.48 37.08 6.84 37.08 7.38 37.08S8.28 37.08 8.82 37.26M12.6 70.2C14.04 71.64 14.76 73.44 14.76 75.42C14.76 77.4 13.86 79.2 12.6 80.64C12.24 81 11.88 81.36 11.52 81.54C10.98 81.9 10.62 82.08 10.26 82.26C9.72 82.44 9.36 82.62 8.82 82.62C7.92 82.8 6.84 82.8 5.94 82.62C5.4 82.62 5.04 82.44 4.5 82.26C4.14 82.08 3.6 81.9 3.24 81.54C2.88 81.36 2.52 81 2.16 80.64C0.72 79.2 0 77.4 0 75.42C0 73.44 0.72 71.64 2.16 70.2C3.6 68.94 5.4 68.04 7.38 68.04S11.16 68.94 12.6 70.2M90 13.5C90 17.64 86.76 20.88 82.62 20.88H30.6C26.46 20.88 23.22 17.64 23.22 13.5S26.46 6.12 30.6 6.12H82.62C86.76 6.12 90 9.36 90 13.5M90 44.46C90 48.6 86.76 51.84 82.62 51.84H30.6C26.46 51.84 23.22 48.6 23.22 44.46C23.22 40.32 26.46 37.08 30.6 37.08H82.62C86.76 37.08 90 40.32 90 44.46M82.62 68.04H30.6C26.46 68.04 23.22 71.28 23.22 75.42S26.64 82.8 30.6 82.8H82.62C86.76 82.8 90 79.56 90 75.42S86.76 68.04 82.62 68.04" />
    <glyph glyph-name="message"
      unicode="&#xF119;"
      horiz-adv-x="90" d=" M44.82 6.3C67.68 6.3 86.4 25.2 86.4 48.24C86.4 71.28 67.68 90 44.82 90S3.24 71.28 3.24 48.24C3.24 37.98 6.84 28.44 13.5 20.7C11.34 17.64 2.16 4.5 2.16 4.5C1.98 3.96 1.8 3.42 1.8 2.88C1.8 2.34 1.98 1.62 2.34 1.08C3.06 0 4.5 -0.36 5.58 0.18C5.58 0.18 28.26 8.46 30.06 9.18C34.74 7.38 39.78 6.3 44.82 6.3" />
    <glyph glyph-name="mosaic"
      unicode="&#xF11A;"
      horiz-adv-x="90" d=" M90 45.54C90 49.68 86.58 53.1 82.44 53.1H75.06C70.92 53.1 67.5 49.68 67.5 45.54S70.92 37.98 75.06 37.98H82.44C86.58 37.98 90 41.22 90 45.54M22.5 45.54C22.5 49.68 19.08 53.1 14.94 53.1H7.56C3.42 53.1 0 49.68 0 45.54S3.42 37.98 7.56 37.98H14.94C19.08 37.98 22.5 41.22 22.5 45.54M56.34 45.54C56.34 49.68 52.92 53.1 48.78 53.1H41.4C37.26 53.1 33.84 49.68 33.84 45.54S37.26 37.98 41.4 37.98H48.78C52.92 37.98 56.34 41.22 56.34 45.54M90 77.04C90 81.18 86.58 84.6 82.44 84.6H75.06C70.92 84.6 67.5 81.18 67.5 77.04S70.92 69.48 75.06 69.48H82.44C86.58 69.48 90 72.9 90 77.04M22.5 77.04C22.5 81.18 19.08 84.6 14.94 84.6H7.56C3.42 84.6 0 81.18 0 77.04S3.42 69.48 7.56 69.48H14.94C19.08 69.48 22.5 72.9 22.5 77.04M56.34 77.04C56.34 81.18 52.92 84.6 48.78 84.6H41.4C37.26 84.6 33.84 81.18 33.84 77.04S37.26 69.48 41.4 69.48H48.78C52.92 69.48 56.34 72.9 56.34 77.04M90 13.86C90 18 86.58 21.42 82.44 21.42H75.06C70.92 21.42 67.5 18 67.5 13.86C67.5 9.72 70.92 6.3 75.06 6.3H82.44C86.58 6.3 90 9.72 90 13.86M22.5 13.86C22.5 18 19.08 21.42 14.94 21.42H7.56C3.42 21.42 0 18 0 13.86C0 9.72 3.42 6.3 7.56 6.3H14.94C19.08 6.3 22.5 9.72 22.5 13.86M56.34 13.86C56.34 18 52.92 21.42 48.78 21.42H41.4C37.26 21.42 33.84 18 33.84 13.86C33.84 9.72 37.26 6.3 41.4 6.3H48.78C52.92 6.3 56.34 9.72 56.34 13.86" />
    <glyph glyph-name="options"
      unicode="&#xF11B;"
      horiz-adv-x="90" d=" M20.52 43.2C20.52 37.26 16.02 32.4 10.26 32.4C4.5 32.4 0 37.26 0 43.2S4.5 54 10.26 54C15.84 54 20.52 49.14 20.52 43.2zM90 43.2C90 37.26 85.5 32.4 79.74 32.4C74.16 32.4 69.48 37.26 69.48 43.2S73.98 54 79.74 54C85.5 54 90 49.14 90 43.2zM55.26 43.2C55.26 37.26 50.76 32.4 45 32.4C39.42 32.4 34.74 37.26 34.74 43.2S39.24 54 45 54C50.58 54 55.26 49.14 55.26 43.2z" />
    <glyph glyph-name="restore"
      unicode="&#xF11C;"
      horiz-adv-x="90" d=" M49.86 79.2L27.72 89.64C25.38 90.72 22.68 89.64 21.6 87.48S21.6 82.44 23.76 81.36L32.22 77.4C21.42 73.8 12.96 64.8 10.08 53.28C6.48 38.7 12.6 23.58 25.2 15.84C25.92 15.3 26.82 15.12 27.54 15.12C29.16 15.12 30.6 15.84 31.5 17.28C32.76 19.44 32.04 22.32 29.88 23.58C20.7 29.34 16.2 40.32 18.9 50.94C21.06 59.58 27.54 66.24 35.82 68.76L32.04 59.58C31.14 57.24 32.22 54.54 34.56 53.64C35.1 53.46 35.64 53.28 36.36 53.28C38.16 53.28 39.78 54.36 40.5 56.16L49.86 79.2zM79.92 36.72C77.04 25.2 68.58 16.2 57.78 12.6L66.24 8.64C68.58 7.56 69.48 4.86 68.4 2.52C67.68 0.9 66.06 -0.18 64.26 -0.18C63.54 -0.18 63 0 62.28 0.18L40.14 10.8L49.5 33.84C50.4 36.18 53.1 37.26 55.44 36.36C57.78 35.46 58.86 32.76 57.96 30.42L54.18 21.24C62.46 23.76 68.94 30.42 71.1 39.06C73.8 49.68 69.3 60.66 60.12 66.42C57.96 67.68 57.24 70.56 58.5 72.72C59.76 74.88 62.64 75.6 64.8 74.16C77.58 66.42 83.52 51.3 79.92 36.72z" />
    <glyph glyph-name="sami-confused"
      unicode="&#xF11D;"
      horiz-adv-x="90" d=" M15.35 56.52A2.93 2.93 0 0 0 13.85 58.27A3.1 3.1 0 0 0 14.05 60.57A2.7 2.7 0 0 0 15.75 62.07L29.75 66.67A3 3 0 0 0 32.05 66.47A2.8400000000000003 2.8400000000000003 0 0 0 33.55 64.72A3 3 0 0 0 33.4 62.47A3.08 3.08 0 0 0 31.65 60.92L17.65 56.37A3.25 3.25 0 0 0 15.35 56.52z M21 46.32A6 6 0 0 0 19.25 50.72A6.16 6.16 0 0 0 21 55.17A6.420000000000001 6.420000000000001 0 0 0 25.5 56.92A6.23 6.23 0 0 0 31.75 50.72A5.73 5.73 0 0 0 29.85 46.32A5.74 5.74 0 0 0 25.5 44.47A6.260000000000001 6.260000000000001 0 0 0 21 46.32z M66 29.22A2.77 2.77 0 0 0 64.1 27.92L30.85 21.42A2.9100000000000006 2.9100000000000006 0 0 0 28.6 21.87A3 3 0 0 0 27.3 23.82A2.64 2.64 0 0 0 27.8 26.02A2.78 2.78 0 0 0 29.7 27.32L63 33.82A2.62 2.62 0 0 0 65.25 33.37A3 3 0 0 0 66.55 31.47A2.75 2.75 0 0 0 66 29.22z M68.6 46.32A5.74 5.74 0 0 0 64.25 44.47A6.260000000000001 6.260000000000001 0 0 0 59.75 46.32A6 6 0 0 0 58 50.72A6.16 6.16 0 0 0 59.75 55.17A6.420000000000001 6.420000000000001 0 0 0 64.25 56.92A6.23 6.23 0 0 0 70.5 50.72A5.73 5.73 0 0 0 68.6 46.32z M76 58.27A2.87 2.87 0 0 0 74.5 56.52A3.25 3.25 0 0 0 72.2 56.37L58.2 60.92A2.93 2.93 0 0 0 56.5 62.47A2.68 2.68 0 0 0 56.3 64.72A2.9 2.9 0 0 0 57.8 66.47A3 3 0 0 0 60.1 66.67L74 62.07A3 3 0 0 0 75.8 60.57A3.14 3.14 0 0 0 76 58.27z" />
    <glyph glyph-name="sami-grin"
      unicode="&#xF11E;"
      horiz-adv-x="90" d=" M19.4 59.71A5.83 5.83 0 0 1 21.2 55.36A6.1 6.1 0 0 1 25.65 53.51A5.91 5.91 0 0 1 30.05 55.36A5.73 5.73 0 0 1 31.9 59.71A6.15 6.15 0 0 1 25.65 66A6.07 6.07 0 0 1 19.4 59.75z M68.1 43.51A2.9199999999999995 2.9199999999999995 0 0 1 65.95 44.41H24.35A2.78 2.78 0 0 1 22.25 43.51A3 3 0 0 1 21.35 41.31Q21.41 30.46 28.05 24.86L28.1 24.86Q34.16 19.61 45.35 19.61Q56.15 19.61 62.2 25.06Q69 30.71 69 41.31A3 3 0 0 1 68.1 43.51zM58.25 29.51V29.56Q53.55 25.61 45.35 25.56Q36.75 25.56 32 29.41A14.079999999999998 14.079999999999998 0 0 0 27.6 38.31H62.75A14.28 14.28 0 0 0 58.25 29.51z M64.4 53.51A5.74 5.74 0 0 1 68.75 55.36A5.669999999999999 5.669999999999999 0 0 1 70.65 59.71A6 6 0 0 1 68.75 64.21A5.87 5.87 0 0 1 64.4 66A6.07 6.07 0 0 1 58.15 59.75A5.83 5.83 0 0 1 60 55.36A6.1 6.1 0 0 1 64.4 53.51z" />
    <glyph glyph-name="sami-sad"
      unicode="&#xF11F;"
      horiz-adv-x="90" d=" M19.32 56.88A6 6 0 0 0 21.12 61.33A6.21 6.21 0 0 0 25.57 63.08A6.23 6.23 0 0 0 31.82 56.88A5.86 5.86 0 0 0 29.92 52.48A5.77 5.77 0 0 0 25.57 50.63A6.0600000000000005 6.0600000000000005 0 0 0 21.12 52.48A6 6 0 0 0 19.32 56.88z M65.72 23.53A2.8400000000000003 2.8400000000000003 0 0 0 63.72 22.63A2.9199999999999995 2.9199999999999995 0 0 0 61.57 23.53A2.74 2.74 0 0 0 60.57 25.53Q60.51 32.43 56.57 36.08H56.57Q52.37 39.44 44.77 39.43Q37.51 39.43 33.37 35.93T29.27 25.53A2.8400000000000003 2.8400000000000003 0 0 0 28.37 23.53A2.88 2.88 0 0 0 26.27 22.63A2.9199999999999995 2.9199999999999995 0 0 0 24.12 23.53A3 3 0 0 0 23.22 25.63Q23.22 35.38 29.42 40.63V40.63Q34.91 45.63 44.77 45.63Q54.97 45.63 60.47 40.78Q66.56 35.68 66.62 25.73A3 3 0 0 0 65.72 23.53z M68.67 52.48A5.77 5.77 0 0 0 64.32 50.63A6.0600000000000005 6.0600000000000005 0 0 0 59.87 52.48A6.339999999999999 6.339999999999999 0 0 0 59.87 61.33A6.21 6.21 0 0 0 64.32 63.08A6.23 6.23 0 0 0 70.57 56.88A5.86 5.86 0 0 0 68.67 52.48z" />
    <glyph glyph-name="sami-smile"
      unicode="&#xF120;"
      horiz-adv-x="90" d=" M60 61.47A6.23 6.23 0 0 0 64.45 63.22A6.07 6.07 0 0 0 68.85 61.47A6.13 6.13 0 0 0 70.72 57A5.77 5.77 0 0 0 68.87 52.65A5.86 5.86 0 0 0 64.47 50.75A6 6 0 0 0 60 52.62A5.83 5.83 0 0 0 58.22 57A6.2 6.2 0 0 0 60 61.47z M21.27 61.47A6.23 6.23 0 0 0 25.72 63.22A6.07 6.07 0 0 0 30.12 61.47A6.13 6.13 0 0 0 32 57A5.77 5.77 0 0 0 30.15 52.65A5.86 5.86 0 0 0 25.75 50.75A6 6 0 0 0 21.3 52.65A5.83 5.83 0 0 0 19.47 57A6.2 6.2 0 0 0 21.27 61.47z M70 35Q45 13.2 20 35A3.0900000000000003 3.0900000000000003 0 0 0 19 37.07A3 3 0 0 0 19.8 39.27A2.76 2.76 0 0 0 21.8 40.27A3.05 3.05 0 0 0 24 39.52Q45 21.22 66.05 39.52A3.05 3.05 0 0 0 68.25 40.27A3.12 3.12 0 0 0 70.35 39.27A3.23 3.23 0 0 0 71.05 37.07A3.1699999999999995 3.1699999999999995 0 0 0 70 35z" />
    <glyph glyph-name="schedule"
      unicode="&#xF121;"
      horiz-adv-x="90" d=" M73.26 34.74C72.9 34.74 72.72 34.74 72.36 34.74L40.68 40.86L25.2 59.76C23.4 61.92 23.76 64.98 25.74 66.78C27.72 68.58 30.78 68.22 32.58 66.24L45.9 50.22L74.16 44.82C76.86 44.28 78.48 41.76 78.12 39.06C77.58 36.36 75.6 34.74 73.26 34.74M43.38 90C19.44 90 0 70.02 0 45.54C0 21.06 19.44 1.08 43.38 1.08C67.32 1.08 86.76 21.06 86.76 45.54C86.58 70.02 67.14 90 43.38 90" />
    <glyph glyph-name="search"
      unicode="&#xF122;"
      horiz-adv-x="90" d=" M90 7.02C90 3.24 86.76 0 82.98 0H82.98C81.18 0 79.56 0.72 78.3 1.98L59.58 20.52C53.28 16.02 45.72 13.68 37.98 13.86C32.94 13.86 27.9 14.94 23.22 16.92C14.04 20.7 6.84 28.08 3.06 37.26C-0.9 46.8 -0.9 57.42 3.06 66.78C6.84 75.78 14.04 83.16 23.4 86.94C32.76 90.9 43.56 90.9 52.92 86.94C62.1 83.16 69.3 75.78 73.08 66.6C78.12 54.72 76.68 40.86 69.48 30.24L88.02 11.7C89.28 10.62 90 8.82 90 7.02L90 7.02zM62.28 52.02C62.28 65.34 51.48 76.14 38.16 76.14C24.84 76.14 14.04 65.34 13.86 51.84C13.86 38.52 24.66 27.54 38.16 27.54C51.48 27.72 62.28 38.52 62.28 52.02L62.28 52.02z" />
    <glyph glyph-name="share"
      unicode="&#xF123;"
      horiz-adv-x="90" d=" M65.7 35.1C60.66 35.1 56.16 32.76 52.92 29.34L40.68 36.54C41.22 38.34 41.58 40.14 41.58 41.94C41.58 44.64 40.86 46.98 39.96 49.32L54.36 60.12C57.42 57.42 61.38 55.8 65.7 55.8C75.24 55.8 82.8 63.54 82.8 73.08C82.8 82.44 75.06 90 65.52 90S48.42 82.26 48.42 72.72C48.42 70.2 49.14 67.68 50.04 65.52L35.64 54.72C32.58 57.42 28.62 59.04 24.3 59.04C14.76 59.04 7.2 51.3 7.2 41.94S14.94 24.84 24.3 24.84C29.34 24.84 33.84 27 37.08 30.6L49.32 23.4C48.78 21.6 48.42 19.8 48.42 18C48.42 8.46 56.16 0.9 65.52 0.9C75.06 0.9 82.62 8.64 82.62 18S75.06 35.1 65.7 35.1" />
    <glyph glyph-name="sort"
      unicode="&#xF124;"
      horiz-adv-x="90" d=" M37.62 42.66C36.18 43.74 34.02 43.38 32.94 41.94L22.68 28.08V70.56C22.68 72.36 21.24 73.8 19.44 73.8S16.2 72.36 16.2 70.56V28.08L5.94 41.94C4.86 43.38 2.88 43.74 1.26 42.66C-0.18 41.58 -0.54 39.6 0.54 37.98L16.74 16.02C16.74 16.02 16.74 16.02 16.74 15.84C16.92 15.66 16.92 15.66 17.1 15.48C17.1 15.48 17.28 15.3 17.28 15.3C17.28 15.3 17.28 15.3 17.28 15.3C17.46 15.12 17.64 15.12 17.82 14.94C17.82 14.94 17.82 14.94 17.82 14.94C18 14.76 18.18 14.76 18.36 14.76C18.36 14.76 18.54 14.76 18.54 14.76C18.72 14.76 18.9 14.76 19.26 14.76H19.26H19.26C19.44 14.76 19.62 14.76 19.98 14.76C19.98 14.76 20.16 14.76 20.16 14.76C20.34 14.76 20.52 14.94 20.7 14.94C20.7 14.94 20.7 14.94 20.7 14.94C20.88 14.94 21.06 15.12 21.24 15.3C21.24 15.3 21.24 15.3 21.24 15.3C21.24 15.3 21.42 15.48 21.42 15.48C21.6 15.66 21.6 15.66 21.78 15.84C21.78 15.84 21.78 15.84 21.78 16.02L37.98 37.98C39.42 39.6 39.06 41.58 37.62 42.66zM86.22 27.72H45.36C43.38 27.72 41.58 26.1 41.58 23.94C41.58 21.96 43.2 20.16 45.36 20.16H86.22C88.2 20.16 90 21.78 90 23.94C90 25.92 88.38 27.72 86.22 27.72zM86.22 47.34H54C52.02 47.34 50.22 45.72 50.22 43.56C50.22 41.58 51.84 39.78 54 39.78H86.22C88.2 39.78 90 41.4 90 43.56C90 45.72 88.38 47.34 86.22 47.34zM41.76 59.76C39.78 59.76 37.98 61.38 37.98 63.54S39.6 67.32 41.76 67.32H86.22C88.2 67.32 90 65.7 90 63.54S88.38 59.76 86.22 59.76H41.76z" />
    <glyph glyph-name="support"
      unicode="&#xF125;"
      horiz-adv-x="90" d=" M60.3 52.02H28.62C26.28 52.02 24.48 53.82 24.48 56.16C24.48 58.5 26.28 60.3 28.62 60.3H60.48C62.82 60.3 64.62 58.5 64.62 56.16C64.44 53.82 62.64 52.02 60.3 52.02M51.3 35.28H28.62C26.28 35.28 24.48 37.08 24.48 39.42C24.48 41.76 26.28 43.56 28.62 43.56H51.48C53.82 43.56 55.62 41.76 55.62 39.42C55.44 37.08 53.64 35.28 51.3 35.28M44.64 90C22.86 90 5.04 72.18 5.04 50.04C5.04 40.32 8.64 31.14 14.94 23.76C12.96 20.88 4.14 8.28 4.14 8.28C3.78 7.92 3.6 7.38 3.6 6.84C3.6 6.3 3.78 5.58 4.14 5.22C4.86 4.32 6.12 3.96 7.2 4.32C7.2 4.32 28.8 12.24 30.6 12.96C35.1 11.16 39.78 10.26 44.82 10.26C66.78 10.26 84.6 28.26 84.6 50.22C84.42 72.18 66.6 90 44.64 90" />
    <glyph glyph-name="tag"
      unicode="&#xF126;"
      horiz-adv-x="90" d=" M32.58 63.72C29.7 60.84 25.2 60.84 22.32 63.72C19.44 66.6 19.44 71.1 22.32 73.98C25.2 76.86 29.7 76.86 32.58 73.98C35.28 71.1 35.28 66.42 32.58 63.72M36.72 90C38.34 90 39.78 89.46 40.86 88.38L80.82 48.42C83.16 46.08 83.16 42.48 80.82 40.32L55.98 15.3C53.64 12.96 50.04 12.96 47.88 15.3L7.92 55.26C6.84 56.34 6.3 57.78 6.3 59.4L8.28 82.08C8.28 85.32 10.8 87.84 14.04 87.84L36.72 90zM4.5 9H85.5C88.02 9 90 7.02 90 4.5C90 1.98 88.02 0 85.5 0H4.5C1.98 0 0 1.98 0 4.5C0 7.02 1.98 9 4.5 9z" />
  </font>
</defs>
</svg>
