<?xml version="1.0" standalone="no"?>
<!DOCTYPE svg PUBLIC "-//W3C//DTD SVG 20010904//EN"
 "http://www.w3.org/TR/2001/REC-SVG-20010904/DTD/svg10.dtd">
<svg version="1.0" xmlns="http://www.w3.org/2000/svg"
 width="1596.000000pt" height="1596.000000pt" viewBox="0 0 1596.000000 1596.000000"
 preserveAspectRatio="xMidYMid meet">
<metadata>
Created by potrace 1.11, written by Peter Selinger 2001-2013
</metadata>
<g transform="translate(0.000000,1596.000000) scale(0.100000,-0.100000)"
fill="#000000" stroke="none">
<path d="M688 12165 c-2 -2 -93 -6 -203 -9 -280 -9 -317 -16 -393 -73 -27 -20
-67 -77 -61 -85 2 -2 -3 -14 -11 -27 -10 -20 -12 -765 -12 -3990 l0 -3967 22
-52 c28 -64 96 -127 154 -143 44 -12 14060 -17 14124 -5 111 21 153 73 216
272 27 82 70 217 96 299 27 83 76 236 110 340 34 105 63 197 65 205 2 8 26 85
53 170 28 85 83 256 122 380 103 325 121 379 141 440 10 30 55 170 99 310 45
140 104 325 132 410 27 85 51 160 52 165 3 13 108 342 146 455 24 74 78 246
86 275 2 6 53 165 114 355 61 190 113 352 115 360 2 8 14 44 25 80 79 243 86
286 62 359 -8 24 -33 61 -55 82 -83 81 -646 418 -1102 659 -478 253 -1069 527
-1580 732 -82 33 -163 66 -180 73 -16 8 -96 38 -176 69 -579 220 -1264 448
-1854 615 -99 28 -202 58 -230 66 -27 8 -120 33 -205 55 -85 23 -177 48 -205
55 -50 14 -598 149 -645 159 -14 3 -115 26 -225 51 -110 25 -209 47 -220 50
-11 2 -96 20 -190 40 -191 40 -298 62 -336 69 -14 2 -73 13 -130 25 -57 11
-115 23 -129 25 -14 3 -50 9 -80 15 -30 6 -71 13 -90 16 -19 3 -42 8 -50 10
-8 2 -31 7 -50 10 -19 3 -57 10 -85 15 -27 5 -63 12 -80 15 -60 10 -621 104
-660 110 -22 3 -53 8 -70 11 -16 2 -43 6 -60 9 -41 6 -443 64 -480 70 -16 2
-84 11 -150 20 -66 8 -136 18 -155 21 -19 3 -54 7 -78 9 -23 3 -55 7 -70 9
-15 3 -52 8 -82 11 -30 3 -66 8 -80 10 -14 2 -50 7 -80 10 -30 3 -89 10 -130
15 -101 12 -156 19 -215 25 -99 11 -141 15 -230 25 -49 5 -117 12 -150 15 -33
3 -103 10 -155 15 -52 5 -122 12 -155 15 -57 5 -97 8 -217 20 -29 3 -84 8
-123 10 -38 3 -90 8 -115 10 -25 3 -83 7 -130 10 -47 3 -101 7 -120 10 -19 2
-82 7 -140 10 -58 3 -125 8 -150 10 -79 7 -233 17 -300 20 -36 2 -112 6 -170
9 -186 12 -262 16 -395 21 -71 3 -168 7 -215 10 -124 6 -382 16 -560 21 -176
6 -1717 13 -1722 9z m2979 -3469 c89 -4 170 -8 180 -10 10 -2 49 -7 86 -11 37
-3 76 -8 85 -10 9 -1 42 -6 72 -11 30 -4 57 -8 60 -9 3 -1 26 -5 53 -9 26 -5
47 -11 47 -15 0 -3 -16 -56 -35 -116 -19 -61 -56 -176 -82 -258 l-47 -147 -40
6 c-22 3 -43 7 -46 9 -3 2 -21 6 -40 9 -19 3 -46 8 -60 10 -149 28 -289 40
-470 40 -125 0 -283 -9 -330 -19 -13 -2 -42 -7 -65 -10 -204 -28 -404 -110
-533 -220 -35 -30 -84 -112 -98 -165 -43 -168 91 -283 616 -529 226 -106 587
-286 690 -345 368 -209 568 -396 651 -610 73 -187 36 -407 -106 -631 -21 -33
-41 -62 -45 -65 -3 -3 -14 -16 -23 -30 -60 -88 -237 -238 -372 -316 -63 -36
-100 -55 -200 -99 -90 -40 -332 -109 -455 -130 -19 -3 -60 -10 -90 -15 -30 -5
-80 -12 -110 -16 -30 -3 -66 -7 -80 -10 -106 -17 -603 -25 -760 -11 -78 7
-317 39 -385 52 -72 14 -303 66 -331 76 -17 5 -42 12 -55 14 -112 22 -619 201
-619 219 0 2 17 42 39 88 21 45 49 106 61 133 13 28 42 91 65 140 23 50 52
114 65 143 17 38 29 52 40 48 8 -2 73 -30 143 -60 185 -81 509 -185 659 -211
15 -3 59 -12 96 -20 38 -7 90 -17 118 -20 27 -3 61 -8 76 -11 160 -31 578 -36
743 -9 116 19 124 21 212 45 329 90 481 327 347 541 -51 81 -201 204 -364 298
-30 17 -156 81 -280 142 -541 265 -689 347 -864 478 -346 261 -458 537 -345
851 108 298 398 527 849 670 36 11 74 22 85 25 11 2 38 9 60 15 120 30 300 63
425 76 25 2 63 6 85 8 22 3 101 8 175 11 74 4 136 8 137 9 3 2 153 -1 310 -8z
m7368 0 c109 -9 276 -26 304 -31 9 -2 24 -4 34 -4 13 -1 16 -7 13 -23 -6 -28
-183 -545 -191 -558 -4 -6 -18 -8 -33 -5 -212 36 -760 41 -977 10 -22 -3 -56
-8 -75 -11 -270 -36 -614 -165 -835 -313 -212 -142 -374 -320 -479 -529 -58
-114 -107 -267 -120 -372 -3 -25 -8 -56 -11 -70 -8 -37 -8 -218 0 -275 55
-418 326 -723 767 -863 143 -46 258 -70 433 -89 144 -16 666 -8 785 12 14 2
41 6 60 9 19 3 60 10 90 16 30 6 66 14 80 16 14 3 28 8 31 12 3 4 26 72 52
152 25 80 82 260 127 400 45 140 111 347 147 460 36 113 78 243 93 290 15 47
37 117 49 155 37 116 162 507 176 550 8 22 48 148 90 280 64 200 216 679 230
723 3 6 10 12 17 13 61 2 2830 0 2833 -2 3 -4 -159 -532 -169 -548 -4 -5 -421
-9 -983 -9 -538 -1 -995 -1 -1015 -1 -36 -1 -38 -3 -52 -48 -8 -27 -35 -113
-61 -193 -96 -298 -215 -671 -215 -674 0 -2 381 -4 846 -4 465 0 848 -2 850
-4 2 -3 -7 -38 -20 -79 -13 -41 -51 -160 -85 -265 l-61 -191 -833 -1 c-457 -1
-842 -1 -853 -2 -20 0 -24 -6 -40 -65 -1 -5 -41 -131 -89 -280 -48 -148 -95
-297 -105 -330 -10 -33 -39 -125 -65 -205 -26 -80 -73 -228 -104 -329 -58
-183 -58 -184 -96 -202 -124 -61 -537 -170 -770 -204 -22 -4 -47 -8 -55 -10
-8 -2 -44 -7 -80 -11 -36 -3 -68 -8 -71 -10 -3 -2 -41 -6 -84 -10 -44 -3 -87
-7 -96 -9 -112 -22 -659 -22 -775 -1 -11 2 -50 7 -89 12 -38 4 -72 8 -75 9 -3
0 -27 5 -55 10 -243 42 -470 116 -690 227 -55 27 -107 56 -116 64 -8 8 -19 14
-23 14 -15 0 -163 109 -247 183 -214 187 -385 464 -444 717 -36 156 -34 152
-58 148 -23 -3 -37 -39 -135 -348 -17 -52 -53 -165 -80 -250 -28 -85 -78 -243
-112 -350 -34 -107 -69 -215 -77 -240 -8 -25 -16 -49 -17 -55 -2 -5 -9 -29
-16 -52 l-13 -43 -428 0 -428 0 -11 43 c-57 219 -251 780 -329 949 -11 26 -21
49 -21 52 0 3 -11 29 -24 58 -13 29 -40 91 -61 138 -126 280 -299 613 -475
915 -77 133 -181 298 -283 452 l-121 182 -17 -47 c-14 -38 -159 -483 -164
-502 -3 -11 -38 -120 -135 -420 -56 -173 -126 -391 -156 -485 -30 -93 -60
-172 -66 -176 -21 -13 -37 3 -54 54 -23 70 -78 179 -127 252 -48 70 -175 200
-264 269 -35 27 -63 52 -63 56 0 3 30 98 66 211 73 228 225 700 304 944 29 88
53 165 54 170 1 6 7 24 13 40 6 17 41 125 78 240 36 116 69 219 73 229 8 18
25 19 400 19 290 -1 396 -4 406 -13 8 -6 57 -66 108 -133 515 -672 973 -1477
1261 -2217 24 -63 50 -133 57 -155 l13 -40 28 85 c32 97 163 510 186 585 9 28
29 88 44 135 15 47 55 171 88 275 32 105 98 312 146 460 124 388 216 678 271
850 26 83 50 154 54 158 7 8 740 16 740 8 0 -2 -25 -80 -56 -175 -30 -94 -57
-175 -58 -181 -2 -5 -6 -17 -9 -25 -6 -15 -58 -185 -63 -205 -1 -5 -16 -51
-33 -102 -37 -111 -38 -123 -8 -123 14 0 58 35 127 101 86 83 268 229 356 287
153 99 365 206 549 275 104 39 331 107 405 122 14 3 63 12 110 21 47 9 92 18
101 19 9 2 40 6 69 10 29 4 62 8 72 10 11 2 63 7 116 11 53 3 99 8 101 10 6 6
612 -3 696 -10z"/>
</g>
</svg>
